<svg xmlns="http://www.w3.org/2000/svg" width="32" height="32" xmlns:xlink="http://www.w3.org/1999/xlink"><defs><linearGradient id="c" x1="50%" x2="50%" y1="0%" y2="100%"><stop offset="0%" stop-color="#FFF" stop-opacity=".5"/><stop offset="100%" stop-opacity=".5"/></linearGradient><circle id="b" cx="16" cy="15" r="15"/><filter id="a" width="111.7%" height="111.7%" x="-5.8%" y="-4.2%" filterUnits="objectBoundingBox"><feOffset dy=".5" in="SourceAlpha" result="shadowOffsetOuter1"/><feGaussianBlur in="shadowOffsetOuter1" result="shadowBlurOuter1" stdDeviation=".5"/><feComposite in="shadowBlurOuter1" in2="SourceAlpha" operator="out" result="shadowBlurOuter1"/><feColorMatrix in="shadowBlurOuter1" values="0 0 0 0 0 0 0 0 0 0 0 0 0 0 0 0 0 0 0.199473505 0"/></filter><path id="e" d="M6.5 9.5L16 4l9.5 5.5v11L16 26l-9.5-5.5v-11zm.9 9.96l3.82-2.2 1.94-3.4-5.75-3.32v8.92zm.47.8l7.7 4.44v-4.26l-4.04-2.3-3.66 2.1zm16.72-9.7l-5.7 3.3 1.92 3.4 3.76 2.17v-8.86zm-.45-.8l-7.68-4.43v4.3l1.96 3.44 5.72-3.3zm-6.05 4.56l-1.16.68 2.32 1.35-1.15-2.03zm-.44-.8l-1.18-2.05v2.74l1.18-.66zm-4.87 2.82L15.1 15l-1.15-.68-1.16 2.02zm-.36 1.26l3.12 1.8v-3.6l-3.12 1.8zM7.87 9.75l5.74 3.32 1.98-3.43V5.3l-7.7 4.45zm16.3 10.48l-3.65-2.1-4.04 2.34v4.2l7.68-4.44zM19.6 17.6l-3.12-1.8v3.6l3.13-1.8zm-5.2-4.07l1.17.68V11.5l-1.17 2.06z"/><filter id="d" width="118.4%" height="115.9%" x="-9.2%" y="-5.7%" filterUnits="objectBoundingBox"><feOffset dy=".5" in="SourceAlpha" result="shadowOffsetOuter1"/><feGaussianBlur in="shadowOffsetOuter1" result="shadowBlurOuter1" stdDeviation=".5"/><feColorMatrix in="shadowBlurOuter1" values="0 0 0 0 0 0 0 0 0 0 0 0 0 0 0 0 0 0 0.204257246 0"/></filter></defs><g fill="none"><use fill="#000" filter="url(#a)" xlink:href="#b"/><use fill="#3EFFFF" xlink:href="#b"/><use fill="url(#c)" style="mix-blend-mode:soft-light" xlink:href="#b"/><circle cx="16" cy="15" r="14.5" stroke="#000" stroke-opacity=".097"/><use fill="#000" filter="url(#d)" xlink:href="#e"/><use fill="#FFF" fill-rule="evenodd" xlink:href="#e"/></g></svg>