<svg xmlns="http://www.w3.org/2000/svg" width="32" height="32" xmlns:xlink="http://www.w3.org/1999/xlink"><defs><linearGradient id="c" x1="50%" x2="50%" y1="0%" y2="100%"><stop offset="0%" stop-color="#FFF" stop-opacity=".5"/><stop offset="100%" stop-opacity=".5"/></linearGradient><circle id="b" cx="16" cy="15" r="15"/><filter id="a" width="111.7%" height="111.7%" x="-5.8%" y="-4.2%" filterUnits="objectBoundingBox"><feOffset dy=".5" in="SourceAlpha" result="shadowOffsetOuter1"/><feGaussianBlur in="shadowOffsetOuter1" result="shadowBlurOuter1" stdDeviation=".5"/><feComposite in="shadowBlurOuter1" in2="SourceAlpha" operator="out" result="shadowBlurOuter1"/><feColorMatrix in="shadowBlurOuter1" values="0 0 0 0 0 0 0 0 0 0 0 0 0 0 0 0 0 0 0.199473505 0"/></filter><filter id="d" width="135%" height="117.5%" x="-17.5%" y="-6.2%" filterUnits="objectBoundingBox"><feOffset dy=".5" in="SourceAlpha" result="shadowOffsetOuter1"/><feGaussianBlur in="shadowOffsetOuter1" result="shadowBlurOuter1" stdDeviation=".5"/><feColorMatrix in="shadowBlurOuter1" result="shadowMatrixOuter1" values="0 0 0 0 0 0 0 0 0 0 0 0 0 0 0 0 0 0 0.204257246 0"/><feMerge><feMergeNode in="shadowMatrixOuter1"/><feMergeNode in="SourceGraphic"/></feMerge></filter></defs><g fill="none"><use fill="#000" filter="url(#a)" xlink:href="#b"/><use fill="#6916FF" fill-rule="evenodd" xlink:href="#b"/><use fill="url(#c)" fill-rule="evenodd" style="mix-blend-mode:soft-light" xlink:href="#b"/><circle cx="16" cy="15" r="14.5" stroke="#000" stroke-opacity=".097"/><g fill="#FFF" filter="url(#d)" transform="translate(11 5)"><path fill-opacity=".5" d="M6.14.42C6.04.34 6 .18 6.06.06c.1-.06.22-.06.32 0 .7.3 1.34.73 1.87 1.27.3.28.56.6.75.97.2.37.37.76.5 1.15.12.42.2.85.2 1.28-.07.42-.14 2.48-1.32 3.45-.32.2-.73.1-.94-.18-.18-.2-.2-.5-.07-.73C8.4 5.67 8.47 3.65 7.5 2 7.1 1.43 6.65.9 6.14.42zM4.3 19.02c.13.1.13.23.06.3-.06.05-.2.1-.25.05-.7-.3-1.32-.73-1.85-1.27-.3-.28-.56-.6-.75-.97-.22-.37-.38-.76-.5-1.15-.14-.42-.2-.85-.2-1.28.06-.42.13-2.48 1.3-3.45.33-.2.74-.1.95.18.2.2.2.52 0 .73-1.03 1.6-1.08 3.62-.13 5.27.4.57.87 1.1 1.38 1.58z"/><path d="M9.7 14c-.1-1.15-.55-2.25-1.32-3.15-.77-.77-1.65-1.42-2.62-1.93C4.9 8.45 4.1 7.9 3.38 7.27c-.6-.57-1.02-1.3-1.2-2.12-.14-.84-.03-1.7.32-2.48.4-.86 1-1.62 1.76-2.24.08-.08.1-.2.06-.3-.04-.07-.1-.1-.17-.12-.08 0-.15.03-.2.08-1 .44-1.86 1.15-2.44 2.06C.86 3.1.55 4.24.64 5.4c.05.6.2 1.16.44 1.7.26.53.6 1.02 1 1.45.8.76 1.7 1.4 2.7 1.88.84.44 1.63.97 2.37 1.58.64.6 1.06 1.36 1.18 2.2.2.88.08 1.8-.3 2.6-.42.86-1.04 1.6-1.8 2.2-.06.02-.1.07-.1.12-.02.07 0 .13.03.18.03.06.1.1.17.12.07 0 .15 0 .2-.06.93-.54 1.74-1.26 2.38-2.12.6-.96.9-2.1.8-3.2z"/></g></g></svg>