<svg xmlns="http://www.w3.org/2000/svg" width="32" height="32" xmlns:xlink="http://www.w3.org/1999/xlink"><defs><linearGradient id="c" x1="50%" x2="50%" y1="0%" y2="100%"><stop offset="0%" stop-color="#FFF" stop-opacity=".5"/><stop offset="100%" stop-opacity=".5"/></linearGradient><circle id="b" cx="16" cy="15" r="15"/><filter id="a" width="111.7%" height="111.7%" x="-5.8%" y="-4.2%" filterUnits="objectBoundingBox"><feOffset dy=".5" in="SourceAlpha" result="shadowOffsetOuter1"/><feGaussianBlur in="shadowOffsetOuter1" result="shadowBlurOuter1" stdDeviation=".5"/><feComposite in="shadowBlurOuter1" in2="SourceAlpha" operator="out" result="shadowBlurOuter1"/><feColorMatrix in="shadowBlurOuter1" values="0 0 0 0 0 0 0 0 0 0 0 0 0 0 0 0 0 0 0.199473505 0"/></filter><path id="e" d="M19.76 16.33c2.24-3.5 4-9.33 4-9.33L20 7.85l-1.37 4.85C18.5 9.06 16 7.73 16 7.73c-2-.97-3.77-.54-5.05.13-1.6.82-2.74 2.26-3.3 3.92-.78 2.36-.7 5-.58 6.2.04.57.17 1.12.37 1.65 1.38 3.57 5.2 3.37 5.2 3.37 3.5-.13 5.62-4.24 5.62-4.24l1 3.02c.9 1.52 2.9.95 3.3.87.07-.02.13-.03.2-.04L25 22.3v-.98c-4.87.13-5.24-4.97-5.24-4.97M15.02 20c-.3.3-.68.52-1.1.63-.9.23-1.6-.15-2.1-.62-.53-.53-.9-1.22-1.05-1.96-.88-5 .34-7.18 1.15-8.18.44-.57 1.14-.9 1.87-.86 3.12.15 3.83 6.73 3.83 6.73-.9 2.33-2.04 3.7-2.62 4.26"/><filter id="d" width="119.4%" height="121.9%" x="-9.7%" y="-7.8%" filterUnits="objectBoundingBox"><feOffset dy=".5" in="SourceAlpha" result="shadowOffsetOuter1"/><feGaussianBlur in="shadowOffsetOuter1" result="shadowBlurOuter1" stdDeviation=".5"/><feColorMatrix in="shadowBlurOuter1" values="0 0 0 0 0 0 0 0 0 0 0 0 0 0 0 0 0 0 0.204257246 0"/></filter></defs><g fill="none"><use fill="#000" filter="url(#a)" xlink:href="#b"/><use fill="#F49E00" xlink:href="#b"/><use fill="url(#c)" style="mix-blend-mode:soft-light" xlink:href="#b"/><circle cx="16" cy="15" r="14.5" stroke="#000" stroke-opacity=".097"/><use fill="#000" filter="url(#d)" xlink:href="#e"/><use fill="#FFF" fill-rule="evenodd" xlink:href="#e"/></g></svg>