<?xml version="1.0" standalone="no"?>
<!DOCTYPE svg PUBLIC "-//W3C//DTD SVG 20010904//EN"
 "http://www.w3.org/TR/2001/REC-SVG-20010904/DTD/svg10.dtd">
<svg version="1.0" xmlns="http://www.w3.org/2000/svg"
 width="250.000000pt" height="250.000000pt" viewBox="0 0 250.000000 250.000000"
 preserveAspectRatio="xMidYMid meet">
<metadata>
Created by potrace 1.16, written by Peter Selinger 2001-2019
</metadata>
<g transform="translate(0.000000,250.000000) scale(0.100000,-0.100000)"
fill="#000000" stroke="none">
<path d="M777 2035 c-46 -45 19 -317 105 -437 17 -25 18 -32 6 -70 -8 -28 -13
-119 -14 -263 -1 -121 -7 -321 -13 -445 -11 -214 -13 -226 -34 -240 -56 -38
-69 -62 -63 -115 7 -62 7 -61 0 -116 -4 -34 -1 -54 10 -71 15 -23 15 -28 -5
-72 -20 -47 -20 -76 1 -76 6 0 20 21 30 46 16 37 24 45 38 39 89 -39 188 -45
387 -27 217 21 339 48 461 101 26 12 50 21 55 21 5 0 20 -26 35 -57 35 -75 41
-82 65 -76 18 5 17 10 -21 79 -22 40 -40 77 -40 82 0 20 81 91 112 97 18 4
110 45 205 91 94 46 178 84 187 84 9 0 22 13 31 30 21 41 19 53 -7 45 -33 -10
-205 -97 -317 -159 -131 -74 -131 -74 -175 -30 -22 22 -36 46 -36 60 0 35 -42
74 -80 74 -29 0 -30 2 -30 43 0 23 -3 52 -6 65 -13 47 120 141 342 241 101 45
377 153 451 176 12 4 29 52 21 60 -4 5 -63 -15 -93 -31 -11 -6 -38 -17 -60
-24 -157 -49 -486 -207 -588 -281 -37 -27 -69 -49 -71 -49 -8 0 -19 256 -18
436 1 143 -2 216 -12 254 -13 52 -13 55 11 91 59 89 112 262 113 365 0 58 -12
74 -56 74 -41 0 -100 -48 -199 -162 -42 -49 -77 -88 -78 -88 -1 0 -24 7 -51
15 -63 19 -146 19 -219 0 -32 -8 -60 -15 -62 -15 -2 0 -40 42 -86 93 -45 50
-97 105 -115 120 -42 36 -94 45 -117 22z m954 -39 c3 -58 -5 -108 -27 -176
-26 -82 -83 -192 -99 -191 -21 1 -15 44 13 99 87 168 69 251 -32 149 -29 -29
-65 -72 -80 -95 l-27 -43 31 -39 c43 -54 88 -156 96 -216 l6 -52 -86 -22 c-47
-13 -86 -28 -86 -34 0 -6 9 -25 19 -43 24 -39 68 -51 110 -30 l30 15 5 -52 c7
-72 15 -268 21 -499 l4 -199 -40 -43 c-22 -24 -87 -80 -143 -125 -101 -80
-103 -81 -166 -85 -73 -4 -111 14 -255 116 -128 92 -135 100 -135 167 0 93 20
614 26 658 l5 41 54 -5 c52 -4 55 -3 94 37 46 47 50 44 -69 70 l-85 18 2 50
c3 66 45 170 90 223 32 37 34 43 20 52 -9 5 -34 35 -56 66 -21 31 -53 70 -70
86 -26 25 -32 27 -47 16 -23 -20 -12 -75 36 -185 24 -52 36 -93 31 -98 -12
-12 -51 56 -91 157 -35 87 -52 217 -31 231 20 12 56 -3 92 -37 50 -48 176
-193 181 -209 4 -12 13 -11 54 4 66 23 217 24 276 0 34 -14 43 -14 46 -3 10
28 189 224 221 241 39 21 61 16 62 -15z m-829 -123 c14 -16 42 -55 62 -88 l36
-59 -27 -28 c-15 -15 -30 -28 -33 -28 -10 0 -47 72 -63 125 -26 85 -29 105
-14 105 7 0 25 -12 39 -27z m753 -10 c-6 -35 -55 -142 -77 -170 -8 -10 -18 -6
-41 17 l-30 29 27 41 c40 60 96 120 113 120 12 0 14 -8 8 -37z m60 -1287 c18
-13 18 -18 7 -48 -17 -48 -16 -51 17 -45 31 7 61 -16 61 -46 0 -26 -49 -76
-99 -101 -57 -29 -199 -73 -265 -82 -45 -7 -65 2 -66 27 0 4 39 36 88 72 102
77 197 170 211 210 12 31 19 33 46 13z m-825 -92 c46 -46 201 -154 278 -193
31 -16 42 -27 42 -45 0 -21 -6 -24 -52 -30 -125 -14 -229 -2 -305 38 -38 19
-53 43 -53 86 0 27 3 30 20 25 33 -10 37 22 6 54 -14 15 -26 36 -26 47 0 21
26 64 38 64 5 0 28 -20 52 -46z"/>
<path d="M1202 1334 c-7 -5 -16 -32 -19 -60 -3 -27 -12 -56 -19 -65 -8 -8 -16
-29 -20 -45 -5 -24 2 -39 36 -81 44 -56 91 -79 139 -68 31 7 56 31 89 86 28
46 28 58 -3 103 -18 27 -23 44 -19 66 4 19 1 38 -9 54 -15 22 -22 24 -88 23
-40 -1 -79 -7 -87 -13z m148 -19 c7 -9 10 -28 5 -53 -5 -34 -3 -41 19 -55 30
-20 41 -50 26 -77 -15 -29 -61 -26 -90 5 l-24 25 -26 -25 c-28 -27 -68 -33
-88 -13 -19 19 -14 42 14 69 22 21 25 29 19 65 -8 53 12 73 55 57 23 -9 32 -8
41 3 15 18 33 18 49 -1z"/>
</g>
</svg>
