<svg xmlns="http://www.w3.org/2000/svg" width="32" height="32" xmlns:xlink="http://www.w3.org/1999/xlink"><defs><linearGradient id="c" x1="50%" x2="50%" y1="0%" y2="100%"><stop offset="0%" stop-color="#FFF" stop-opacity=".5"/><stop offset="100%" stop-opacity=".5"/></linearGradient><circle id="b" cx="16" cy="15" r="15"/><filter id="a" width="111.7%" height="111.7%" x="-5.8%" y="-4.2%" filterUnits="objectBoundingBox"><feOffset dy=".5" in="SourceAlpha" result="shadowOffsetOuter1"/><feGaussianBlur in="shadowOffsetOuter1" result="shadowBlurOuter1" stdDeviation=".5"/><feComposite in="shadowBlurOuter1" in2="SourceAlpha" operator="out" result="shadowBlurOuter1"/><feColorMatrix in="shadowBlurOuter1" values="0 0 0 0 0 0 0 0 0 0 0 0 0 0 0 0 0 0 0.199473505 0"/></filter><path id="e" d="M27 15.02c0 .08-.02.16-.06.23-.14.26-3.5 6.25-10.94 6.25-7.44 0-10.8-6-10.94-6.25-.03-.07-.06-.15-.06-.23 0 0 0 0 0-.02s0-.02 0-.02 0-.02 0-.02c0-.06.02-.12.04-.17 0-.03 0-.04 0-.04h.02s0-.02 0-.02C5.2 14.5 8.56 8.5 16 8.5c7.45 0 10.8 6 10.94 6.25v.02s0 0 0 .02c.04.03.05.1.06.14 0 0 0 .02 0 .03 0 0 0 .02 0 .02zM25.9 15c-.57-.87-2.7-3.8-6.52-4.97 1.2.85 2.1 2.14 2.43 3.63.3.06.47.3.48.57 0 .28-.18.52-.44.6-.26.06-.53-.06-.66-.3s-.08-.54.12-.73c-.5-2.22-2.34-3.93-4.6-4.23 0 0-.02 0-.04-.02-.2 0-.44 0-.66 0-.22 0-.45 0-.66 0-.02 0-.04 0-.05.02-.9.1-1.73.45-2.45.97-.05.03-.1.05-.16.05-.13 0-.23-.1-.27-.2-.04-.13 0-.25.1-.3.03-.04.05-.06.07-.07-3.8 1.17-5.92 4.1-6.5 4.97.57.87 2.65 3.74 6.42 4.94-1.24-.9-2.1-2.26-2.37-3.77-.26-.1-.42-.36-.4-.63.04-.27.25-.5.52-.53.27 0 .53.14.63.4.1.26 0 .55-.2.7.42 2.2 2.13 3.93 4.32 4.33.32.03.64.04.98.04.34 0 .67 0 1-.04.8-.15 1.57-.5 2.23-1 .08-.05.18-.06.27-.02.1.05.16.13.17.23 0 .1-.04.2-.12.25-.02.03-.05.05-.08.07 3.78-1.2 5.86-4.07 6.42-4.94zm-5.08.02c0 2.7-2.16 4.9-4.82 4.9s-4.82-2.2-4.82-4.9 2.16-4.9 4.82-4.9 4.82 2.2 4.82 4.9zm-.54 0c0-2.4-1.92-4.34-4.28-4.34-2.36 0-4.28 1.94-4.28 4.34s1.92 4.34 4.28 4.34c2.36 0 4.28-1.95 4.28-4.34zm-2.7-1.35c0 .53-.26 1.02-.7 1.3l.44 2.63c.03.2-.1.38-.32.38h-1.92c-.2 0-.35-.17-.32-.38l.43-2.63c-.63-.4-.87-1.2-.6-1.9.3-.68 1-1.07 1.73-.93.72.15 1.24.8 1.24 1.53zm4.34 2.05c-.14 1.26-.66 2.42-1.5 3.37-.07.05-.17.1-.27.06-.1-.02-.17-.1-.2-.2-.03-.08 0-.18.06-.26.78-.83 1.26-1.9 1.4-3.05 0-.14.13-.24.26-.24 0 0 .02 0 .03 0 .14.04.25.18.23.33zm-9.87-4.87c.06.05.1.12.1.2 0 .07-.04.14-.1.2-.76.8-1.25 1.84-1.4 2.96-.03.15-.14.25-.28.25 0 0-.03 0-.04 0-.15-.02-.25-.16-.23-.3.18-1.24.73-2.38 1.57-3.28.05-.05.12-.08.2-.1.06 0 .13.04.18.1z"/><filter id="d" width="115.9%" height="126.9%" x="-8%" y="-9.6%" filterUnits="objectBoundingBox"><feOffset dy=".5" in="SourceAlpha" result="shadowOffsetOuter1"/><feGaussianBlur in="shadowOffsetOuter1" result="shadowBlurOuter1" stdDeviation=".5"/><feColorMatrix in="shadowBlurOuter1" values="0 0 0 0 0 0 0 0 0 0 0 0 0 0 0 0 0 0 0.204257246 0"/></filter></defs><g fill="none"><use fill="#000" filter="url(#a)" xlink:href="#b"/><use fill="#3C5BE0" fill-rule="evenodd" xlink:href="#b"/><use fill="url(#c)" fill-rule="evenodd" style="mix-blend-mode:soft-light" xlink:href="#b"/><circle cx="16" cy="15" r="14.5" stroke="#000" stroke-opacity=".097"/><use fill="#000" filter="url(#d)" xlink:href="#e"/><use fill="#FFF" fill-rule="evenodd" xlink:href="#e"/></g></svg>