<?xml version="1.0" standalone="no"?>
<!DOCTYPE svg PUBLIC "-//W3C//DTD SVG 20010904//EN"
 "http://www.w3.org/TR/2001/REC-SVG-20010904/DTD/svg10.dtd">
<svg version="1.0" xmlns="http://www.w3.org/2000/svg"
 width="250.000000pt" height="250.000000pt" viewBox="0 0 250.000000 250.000000"
 preserveAspectRatio="xMidYMid meet">

<g transform="translate(0.000000,250.000000) scale(0.100000,-0.100000)"
fill="#000000" stroke="none">
<path d="M0 1250 l0 -1250 1250 0 1250 0 0 1250 0 1250 -1250 0 -1250 0 0
-1250z m1494 1221 c3 -4 -26 -11 -64 -15 -38 -3 -100 -18 -137 -32 -154 -58
-143 -56 -208 -45 -102 17 -127 19 -208 9 -192 -21 -372 -140 -452 -297 -26
-52 -71 -189 -85 -256 -7 -35 -29 -91 -55 -136 -41 -72 -74 -157 -95 -244 -5
-22 -25 -65 -44 -95 -73 -116 -99 -164 -117 -209 -10 -25 -18 -37 -19 -26 0
28 49 126 104 210 26 39 52 88 57 110 33 120 55 178 99 255 27 47 51 105 55
130 10 63 53 196 82 253 84 166 230 274 422 313 82 16 160 16 283 -2 40 -5 60
-1 125 25 113 45 245 72 257 52z m341 -120 c19 -12 18 -12 -5 -6 -53 14 -268
17 -354 6 -102 -14 -153 -29 -251 -77 l-71 -34 -58 20 c-101 35 -273 22 -371
-27 -147 -74 -227 -199 -280 -440 -10 -45 -32 -97 -57 -140 -46 -75 -87 -183
-88 -226 0 -41 -24 -90 -75 -157 -150 -195 -156 -379 -22 -672 15 -32 24 -58
21 -58 -10 0 -91 185 -110 250 -12 44 -18 98 -18 165 0 116 18 174 87 275 23
35 54 81 69 103 15 22 30 60 33 86 9 70 43 159 87 230 23 38 46 93 55 130 22
95 52 187 83 256 82 183 334 300 540 250 36 -9 77 -18 91 -21 18 -4 48 5 96
29 38 20 95 43 126 52 109 32 425 36 472 6z m-33 -102 c91 -19 189 -74 254
-141 33 -34 93 -96 135 -138 74 -73 130 -160 128 -197 0 -12 -3 -10 -8 7 -22
71 -54 115 -142 196 -25 22 -65 64 -89 93 -55 66 -140 123 -227 153 -60 20
-86 23 -223 23 -186 -1 -231 -10 -368 -78 l-103 -51 -80 28 c-69 25 -90 28
-152 23 -92 -7 -134 -20 -193 -60 -89 -59 -145 -163 -179 -327 -8 -41 -29
-102 -47 -135 -87 -166 -90 -172 -97 -251 -6 -77 -7 -80 -63 -147 -31 -38 -71
-96 -89 -130 -33 -60 -34 -66 -34 -172 1 -102 3 -116 37 -200 94 -238 185
-350 326 -406 26 -10 40 -18 31 -19 -35 -1 -143 65 -195 118 -61 63 -148 221
-187 343 -62 191 -41 292 97 467 63 80 66 86 66 138 0 64 27 146 67 206 40 60
59 110 82 208 41 181 82 252 180 318 104 69 235 83 355 38 l69 -26 106 49
c105 49 158 68 216 74 72 9 278 6 327 -4z m-33 -109 c84 -16 161 -58 216 -119
28 -30 85 -89 128 -131 42 -43 77 -80 77 -85 0 -4 -60 54 -134 129 -147 149
-192 178 -308 197 -69 12 -249 5 -313 -12 -22 -6 -85 -32 -140 -59 -137 -66
-148 -67 -226 -30 -73 34 -128 38 -208 14 -98 -29 -153 -103 -187 -252 -29
-126 -45 -168 -94 -252 -53 -91 -69 -151 -51 -201 15 -45 16 -43 -38 -101
-197 -211 -207 -292 -71 -573 49 -101 106 -172 163 -201 15 -8 27 -17 27 -20
0 -2 -10 1 -23 7 -80 43 -140 120 -202 259 -65 148 -82 234 -59 309 16 55 82
151 156 227 45 46 48 53 38 78 -23 63 -6 137 54 227 39 59 71 143 82 215 10
69 51 174 83 214 42 52 112 83 197 88 62 4 78 0 136 -26 41 -20 74 -29 89 -25
13 3 76 29 139 59 63 29 140 58 170 63 76 12 237 13 299 1z m55 -129 c27 -14
66 -42 85 -64 20 -22 73 -76 119 -122 92 -92 96 -103 66 -205 -8 -30 -25 -99
-38 -152 -22 -96 -51 -150 -100 -190 -29 -24 -58 -22 -119 8 -29 15 -88 42
-132 61 -44 19 -83 40 -87 46 -4 7 -8 80 -8 162 0 275 -46 357 -217 389 l-68
13 65 33 c77 39 137 49 280 46 88 -1 113 -5 154 -25z m-1558 -22 c-8 -19 -21
-67 -29 -106 -9 -41 -28 -94 -45 -122 -47 -75 -82 -158 -98 -230 -8 -36 -30
-91 -49 -121 -40 -63 -48 -50 -10 15 14 24 34 74 45 111 22 80 59 167 96 226
15 23 35 80 47 127 19 83 44 148 53 138 2 -2 -2 -19 -10 -38z m755 -59 c75
-35 96 -37 209 -20 143 20 250 -3 299 -66 39 -49 51 -117 51 -281 0 -199 1
-200 117 -241 48 -18 103 -41 122 -53 l35 -21 -23 -17 c-22 -17 -26 -16 -108
17 -68 27 -96 33 -133 30 -57 -6 -104 -37 -126 -83 -9 -19 -36 -50 -60 -70
l-44 -36 0 -87 c0 -85 -13 -131 -37 -139 -8 -3 -13 13 -15 49 l-3 53 -70 -4
c-38 -2 -74 -6 -79 -9 -14 -8 -197 -8 -203 1 -2 4 -22 7 -43 7 -21 0 -42 5
-45 10 -4 6 -15 8 -25 5 -12 -4 -28 3 -45 21 -22 21 -33 25 -61 21 -18 -3 -36
-1 -39 4 -4 5 -16 9 -27 9 -12 0 -35 4 -52 9 -17 5 -53 16 -80 23 l-48 13 80
82 c45 44 84 92 87 106 4 15 -1 43 -15 74 -24 58 -22 68 39 162 37 58 91 204
91 247 0 11 12 53 26 96 23 71 28 78 67 97 56 28 83 26 158 -9z m1306 -262
c-2 -18 -4 -6 -4 27 0 33 2 48 4 33 2 -15 2 -42 0 -60z m110 -60 c-3 -8 -6 -5
-6 6 -1 11 2 17 5 13 3 -3 4 -12 1 -19z m-120 -25 c-3 -10 -5 -4 -5 12 0 17 2
24 5 18 2 -7 2 -21 0 -30z m110 -30 c-3 -10 -5 -4 -5 12 0 17 2 24 5 18 2 -7
2 -21 0 -30z m-13 -57 c-3 -15 -8 -25 -11 -23 -2 3 -1 17 3 31 3 15 8 25 11
23 2 -3 1 -17 -3 -31z m-123 -3 c-12 -20 -14 -14 -5 12 4 9 9 14 11 11 3 -2 0
-13 -6 -23z m96 -75 c-3 -8 -6 -5 -6 6 -1 11 2 17 5 13 3 -3 4 -12 1 -19z
m-120 -30 c-3 -7 -5 -2 -5 12 0 14 2 19 5 13 2 -7 2 -19 0 -25z m110 -30 c-3
-7 -5 -2 -5 12 0 14 2 19 5 13 2 -7 2 -19 0 -25z m110 -15 c-3 -10 -5 -4 -5
12 0 17 2 24 5 18 2 -7 2 -21 0 -30z m-230 -5 c-3 -8 -6 -5 -6 6 -1 11 2 17 5
13 3 -3 4 -12 1 -19z m-34 -83 c-3 -9 -8 -14 -10 -11 -3 3 -2 9 2 15 9 16 15
13 8 -4z m-568 -15 l25 -10 -44 -82 c-28 -52 -47 -102 -52 -135 -3 -29 -12
-57 -18 -62 -6 -5 -40 -14 -76 -21 -36 -6 -73 -13 -82 -16 -16 -5 -18 3 -18
75 0 80 0 80 35 108 20 15 49 50 66 76 41 67 101 91 164 67z m797 -22 c-8 -8
-9 -4 -5 13 4 13 8 18 11 10 2 -7 -1 -18 -6 -23z m-692 -23 c36 -18 36 -19 9
-56 -27 -38 -42 -137 -34 -226 8 -95 -5 -140 -67 -235 -69 -106 -85 -115 -238
-123 -84 -5 -151 -15 -204 -31 -69 -21 -100 -24 -230 -24 -253 1 -356 20 -415
79 -39 39 -116 180 -110 200 3 7 18 3 43 -10 21 -11 47 -18 58 -16 12 4 24 -3
34 -19 11 -17 26 -24 47 -24 17 0 38 -7 48 -16 24 -22 103 -36 134 -24 15 6
25 17 25 29 0 26 34 17 55 -15 20 -31 72 -32 109 -3 20 16 30 19 39 10 18 -18
44 -13 64 13 14 18 26 23 45 19 19 -4 30 1 41 18 12 16 27 23 54 23 31 1 39 5
41 22 3 21 55 69 97 91 11 6 43 14 70 17 88 12 116 25 131 62 8 18 14 48 14
65 0 18 16 61 36 98 57 102 55 101 104 76z m430 1 c0 -2 -8 -10 -17 -17 -16
-13 -17 -12 -4 4 13 16 21 21 21 13z m241 -23 c-12 -20 -14 -14 -5 12 4 9 9
14 11 11 3 -2 0 -13 -6 -23z m-131 -13 c-6 -11 -13 -20 -16 -20 -2 0 0 9 6 20
6 11 13 20 16 20 2 0 0 -9 -6 -20z m113 -25 c-3 -9 -8 -14 -10 -11 -3 3 -2 9
2 15 9 16 15 13 8 -4z m-173 -58 c0 -2 -12 -14 -27 -28 l-28 -24 24 28 c23 25
31 32 31 24z m120 -27 c-12 -16 -24 -30 -26 -30 -3 0 4 14 16 30 12 17 24 30
26 30 3 0 -4 -13 -16 -30z m-1827 -16 c7 -7 -42 -84 -53 -84 -4 0 -12 6 -18
13 -23 28 45 96 71 71z m1931 -34 c-10 -16 -20 -27 -22 -25 -5 5 26 55 34 55
3 0 -3 -13 -12 -30z m-1882 -25 c-26 -44 -45 -55 -57 -35 -10 16 43 80 65 80
18 0 17 -3 -8 -45z m98 9 c0 -19 -43 -84 -55 -84 -5 0 -16 4 -24 9 -30 19 31
107 65 94 8 -3 14 -11 14 -19z m98 -6 c16 -16 15 -60 -1 -82 -11 -16 -22 -18
-60 -12 -26 4 -47 11 -47 15 0 4 14 27 30 49 30 42 56 52 78 30z m1512 -11 c0
-2 -12 -14 -27 -28 l-28 -24 24 28 c23 25 31 32 31 24z m131 -25 c-5 -10 -18
-25 -27 -33 -16 -12 -17 -12 -9 1 10 18 37 50 42 50 2 0 -1 -8 -6 -18z m-1969
-44 c-4 -28 -6 -30 -13 -13 -4 11 -8 31 -8 44 -1 18 2 21 12 12 9 -6 12 -23 9
-43z m383 -83 l0 -125 -45 0 c-46 0 -90 21 -90 43 0 10 127 207 134 207 1 0 2
-56 1 -125z m115 110 c7 -9 10 -25 5 -42 -11 -46 -58 -134 -69 -130 -23 8 -35
132 -16 168 13 23 62 26 80 4z m340 -15 c0 -23 -4 -30 -20 -30 -16 0 -20 7
-20 30 0 23 4 30 20 30 16 0 20 -7 20 -30z m-238 -5 c-7 -48 -24 -75 -49 -75
-22 0 -23 3 -18 38 10 60 13 64 42 60 22 -2 27 -8 25 -23z m73 -15 c0 -31 -3
-35 -27 -38 -31 -4 -35 8 -18 53 15 40 45 30 45 -15z m73 8 c-2 -22 -9 -34
-20 -36 -15 -3 -18 4 -18 32 0 30 4 36 21 36 17 0 20 -5 17 -32z m-698 -39 c0
-66 -24 -62 -28 4 -2 37 0 47 12 47 12 0 16 -12 16 -51z m66 23 c5 -4 11 -28
13 -54 2 -45 1 -48 -22 -48 -19 0 -26 6 -31 31 -11 55 -7 79 12 79 9 0 22 -4
28 -8z m1784 -15 c-9 -7 -24 -23 -33 -37 -9 -13 -17 -20 -17 -14 0 13 53 74
60 68 3 -3 -2 -11 -10 -17z m-383 -34 c-3 -10 -5 -2 -5 17 0 19 2 27 5 18 2
-10 2 -26 0 -35z m110 -15 c-2 -13 -4 -3 -4 22 0 25 2 35 4 23 2 -13 2 -33 0
-45z m-1358 36 c13 -11 -59 -124 -79 -124 -12 0 -40 76 -40 109 0 28 0 28 58
23 31 -2 59 -6 61 -8z m571 -39 c0 -41 -22 -48 -41 -13 -10 18 -8 24 7 35 28
20 34 16 34 -22z m-80 -14 c0 -16 -8 -37 -17 -46 -16 -16 -17 -16 -30 1 -14
19 -17 56 -6 67 3 4 17 7 30 7 19 0 23 -5 23 -29z m-87 -42 c-7 -34 -13 -45
-30 -47 -18 -3 -23 3 -29 32 -8 46 -1 64 28 68 34 6 41 -5 31 -53z m1064 29
c-3 -7 -5 -2 -5 12 0 14 2 19 5 13 2 -7 2 -19 0 -25z m110 -25 c-3 -10 -5 -4
-5 12 0 17 2 24 5 18 2 -7 2 -21 0 -30z m-1271 12 c15 -39 -21 -95 -61 -95
-33 0 -44 35 -25 84 8 21 16 26 45 26 22 0 38 -6 41 -15z m1151 -47 c-3 -8 -6
-5 -6 6 -1 11 2 17 5 13 3 -3 4 -12 1 -19z m110 -20 c-3 -7 -5 -2 -5 12 0 14
2 19 5 13 2 -7 2 -19 0 -25z m-10 -50 c-3 -7 -5 -2 -5 12 0 14 2 19 5 13 2 -7
2 -19 0 -25z m-32 -88 c-14 -35 -29 -68 -34 -73 -5 -5 4 25 21 67 17 42 32 75
34 73 2 -2 -7 -32 -21 -67z m-102 45 c-3 -9 -8 -14 -10 -11 -3 3 -2 9 2 15 9
16 15 13 8 -4z m-200 -130 c-3 -9 -8 -14 -10 -11 -3 3 -2 9 2 15 9 16 15 13 8
-4z m238 -43 c-11 -21 -28 -45 -38 -52 -17 -14 -17 -14 -2 5 9 11 24 35 33 53
9 17 19 32 21 32 3 0 -3 -17 -14 -38z m-1114 -48 c-3 -3 -12 -4 -19 -1 -8 3
-5 6 6 6 11 1 17 -2 13 -5z m953 3 c0 -2 -10 -12 -22 -23 l-23 -19 19 23 c18
21 26 27 26 19z m-40 -51 c0 -2 -8 -10 -17 -17 -16 -13 -17 -12 -4 4 13 16 21
21 21 13z m-587 -13 c-7 -2 -19 -2 -25 0 -7 3 -2 5 12 5 14 0 19 -2 13 -5z
m-726 -19 c-3 -3 -12 -4 -19 -1 -8 3 -5 6 6 6 11 1 17 -2 13 -5z m61 -11 c-10
-2 -26 -2 -35 0 -10 3 -2 5 17 5 19 0 27 -2 18 -5z m90 -10 c-10 -2 -28 -2
-40 0 -13 2 -5 4 17 4 22 1 32 -1 23 -4z m399 1 c-3 -3 -12 -4 -19 -1 -8 3 -5
6 6 6 11 1 17 -2 13 -5z m-139 -11 c-38 -2 -98 -2 -135 0 -38 2 -7 3 67 3 74
0 105 -1 68 -3z m-458 -69 c25 -7 37 -13 27 -13 -29 -1 -107 20 -113 31 -4 6
2 7 17 2 13 -4 44 -13 69 -20z m977 20 c-3 -3 -12 -4 -19 -1 -8 3 -5 6 6 6 11
1 17 -2 13 -5z m-174 -11 c-13 -2 -33 -2 -45 0 -13 2 -3 4 22 4 25 0 35 -2 23
-4z m-710 -30 c-7 -2 -21 -2 -30 0 -10 3 -4 5 12 5 17 0 24 -2 18 -5z m574 1
c-3 -3 -12 -4 -19 -1 -8 3 -5 6 6 6 11 1 17 -2 13 -5z m-484 -11 c-13 -2 -35
-2 -50 0 -16 2 -5 4 22 4 28 0 40 -2 28 -4z m430 0 c-7 -2 -19 -2 -25 0 -7 3
-2 5 12 5 14 0 19 -2 13 -5z m-270 -10 c-24 -2 -62 -2 -85 0 -24 2 -5 4 42 4
47 0 66 -2 43 -4z m190 0 c-13 -2 -35 -2 -50 0 -16 2 -5 4 22 4 28 0 40 -2 28
-4z m464 -49 c-3 -3 -12 -4 -19 -1 -8 3 -5 6 6 6 11 1 17 -2 13 -5z m-120 -11
c-20 -2 -52 -2 -70 0 -17 2 0 4 38 4 39 0 53 -2 32 -4z m-244 -40 c-7 -2 -19
-2 -25 0 -7 3 -2 5 12 5 14 0 19 -2 13 -5z m-325 -10 c-10 -2 -28 -2 -40 0
-13 2 -5 4 17 4 22 1 32 -1 23 -4z m250 0 c-10 -2 -28 -2 -40 0 -13 2 -5 4 17
4 22 1 32 -1 23 -4z"/>
<path d="M907 1860 c-14 -11 -31 -37 -38 -58 -6 -20 -29 -71 -50 -113 -22 -41
-39 -80 -39 -86 0 -23 42 -61 72 -67 46 -8 149 18 169 43 21 25 54 201 45 236
-16 64 -103 89 -159 45z m32 -71 c-11 -29 -31 -71 -44 -94 -14 -24 -25 -58
-25 -78 0 -38 -15 -48 -38 -25 -9 9 -5 24 18 63 17 29 37 72 45 96 9 24 22 54
31 66 26 41 34 24 13 -28z"/>
<path d="M1243 1840 c-53 -32 -36 -68 18 -40 29 16 24 -4 -18 -74 -34 -55 -38
-68 -37 -128 0 -70 -4 -79 -26 -53 -8 10 -11 43 -9 101 3 63 1 88 -8 91 -20 7
-34 -46 -34 -126 0 -62 4 -78 22 -97 43 -46 168 -60 226 -24 35 21 87 103 104
163 17 65 -27 159 -91 192 -41 21 -109 19 -147 -5z"/>
<path d="M752 1435 c-11 -14 -23 -48 -27 -77 -4 -28 -14 -66 -21 -84 -32 -77
-3 -144 63 -144 41 0 145 69 182 121 64 88 48 146 -50 186 -74 31 -122 30
-147 -2z m54 -37 c-12 -41 -38 -152 -43 -186 -6 -40 -29 -37 -26 4 2 31 29
145 44 182 5 12 14 22 20 22 7 0 9 -8 5 -22z"/>
</g>
</svg>
