<svg xmlns="http://www.w3.org/2000/svg" width="32" height="32" xmlns:xlink="http://www.w3.org/1999/xlink"><defs><linearGradient id="c" x1="50%" x2="50%" y1="0%" y2="100%"><stop offset="0%" stop-color="#FFF" stop-opacity=".5"/><stop offset="100%" stop-opacity=".5"/></linearGradient><circle id="b" cx="16" cy="15" r="15"/><filter id="a" width="111.7%" height="111.7%" x="-5.8%" y="-4.2%" filterUnits="objectBoundingBox"><feOffset dy=".5" in="SourceAlpha" result="shadowOffsetOuter1"/><feGaussianBlur in="shadowOffsetOuter1" result="shadowBlurOuter1" stdDeviation=".5"/><feComposite in="shadowBlurOuter1" in2="SourceAlpha" operator="out" result="shadowBlurOuter1"/><feColorMatrix in="shadowBlurOuter1" values="0 0 0 0 0 0 0 0 0 0 0 0 0 0 0 0 0 0 0.199473505 0"/></filter><path id="e" d="M13.66 16.4l2.4-7.13 2.42 7.12h-4.82zm10.1 4.48l-1.96-5.3h1.18c.47 0 .84-.38.85-.84 0-.2-.1-.4-.24-.56-.17-.15-.38-.24-.6-.24h-1.83l-.3-.82h2.1c.46 0 .83-.36.84-.8 0-.23-.1-.44-.23-.6-.16-.16-.38-.24-.6-.24h-2.73L18.78 7.5c-.22-.56-.58-1.06-1.06-1.45-.46-.38-1.05-.57-1.66-.55-.6-.02-1.2.18-1.67.55-.5.4-.86.9-1.08 1.46l-1.54 4h-2.7c-.46 0-.8.38-.8.8 0 .48.35.85.82.85h2.07l-.32.8H9c-.44 0-.8.36-.8.8 0 .46.36.83.83.83h1.18l-2 5.3c-.1.3-.2.63-.2.95.03.46.23.88.57 1.2.37.3.85.48 1.34.48.86.05 1.63-.5 1.85-1.3l.78-2.27h7.14l.78 2.33c.25.77 1 1.3 1.84 1.24.3 0 .6-.08.87-.23.23-.17.44-.37.62-.6.14-.26.2-.55.2-.85-.04-.3-.12-.62-.22-.92v-.02z"/><filter id="d" width="121.9%" height="119.4%" x="-10.9%" y="-6.9%" filterUnits="objectBoundingBox"><feOffset dy=".5" in="SourceAlpha" result="shadowOffsetOuter1"/><feGaussianBlur in="shadowOffsetOuter1" result="shadowBlurOuter1" stdDeviation=".5"/><feColorMatrix in="shadowBlurOuter1" values="0 0 0 0 0 0 0 0 0 0 0 0 0 0 0 0 0 0 0.204257246 0"/></filter></defs><g fill="none"><use fill="#000" filter="url(#a)" xlink:href="#b"/><use fill="#FD875E" fill-rule="evenodd" xlink:href="#b"/><use fill="url(#c)" fill-rule="evenodd" style="mix-blend-mode:soft-light" xlink:href="#b"/><circle cx="16" cy="15" r="14.5" stroke="#000" stroke-opacity=".097"/><use fill="#000" filter="url(#d)" xlink:href="#e"/><use fill="#FFF" fill-rule="evenodd" xlink:href="#e"/></g></svg>