<svg xmlns="http://www.w3.org/2000/svg" width="32" height="32" xmlns:xlink="http://www.w3.org/1999/xlink"><defs><linearGradient id="c" x1="50%" x2="50%" y1="0%" y2="100%"><stop offset="0%" stop-color="#FFF" stop-opacity=".5"/><stop offset="100%" stop-opacity=".5"/></linearGradient><circle id="b" cx="16" cy="15" r="15"/><filter id="a" width="111.7%" height="111.7%" x="-5.8%" y="-4.2%" filterUnits="objectBoundingBox"><feOffset dy=".5" in="SourceAlpha" result="shadowOffsetOuter1"/><feGaussianBlur in="shadowOffsetOuter1" result="shadowBlurOuter1" stdDeviation=".5"/><feComposite in="shadowBlurOuter1" in2="SourceAlpha" operator="out" result="shadowBlurOuter1"/><feColorMatrix in="shadowBlurOuter1" values="0 0 0 0 0 0 0 0 0 0 0 0 0 0 0 0 0 0 0.199473505 0"/></filter><path id="e" d="M23.92 20.1c.36-.12.6-.46.57-.85v1.1c0 .38-.26.73-.6.86l-7.6 2.75c-.2.08-.4.08-.6 0L8.12 21.2c-.36-.12-.6-.46-.6-.85v-1.1c0 .38.24.73.6.86l7.6 2.75c.2.08.4.08.6 0l7.6-2.73zm0-1.94c.36-.14.6-.48.57-.86v1.1c0 .38-.26.74-.6.86L16.3 22c-.18.07-.4.07-.6 0l-7.58-2.74c-.36-.12-.6-.47-.6-.86v-1.1c0 .38.24.72.6.86l7.6 2.73c.2.06.4.06.6 0l7.6-2.75zm0-1.96c.36-.12.6-.48.58-.85v1.1c0 .38-.24.74-.6.86l-7.58 2.76c-.2.07-.4.07-.6 0l-7.6-2.75c-.36-.1-.6-.46-.6-.85v-1.1c0 .38.24.74.6.86l7.6 2.74c.2.08.4.08.6 0l7.6-2.73zM7.5 9.66c0-.4.24-.73.6-.86l7.6-2.74c.18-.08.4-.08.6 0l7.6 2.74c.35.13.6.47.6.86v4.83c0 .36-.25.72-.6.84l-7.62 2.74c-.2.06-.4.06-.6 0L8.1 15.34c-.36-.12-.6-.46-.6-.86V9.65z"/><filter id="d" width="120.6%" height="119.4%" x="-10.3%" y="-6.9%" filterUnits="objectBoundingBox"><feOffset dy=".5" in="SourceAlpha" result="shadowOffsetOuter1"/><feGaussianBlur in="shadowOffsetOuter1" result="shadowBlurOuter1" stdDeviation=".5"/><feColorMatrix in="shadowBlurOuter1" values="0 0 0 0 0 0 0 0 0 0 0 0 0 0 0 0 0 0 0.204257246 0"/></filter></defs><g fill="none"><use fill="#000" filter="url(#a)" xlink:href="#b"/><use fill="#343434" fill-rule="evenodd" xlink:href="#b"/><use fill="url(#c)" fill-rule="evenodd" style="mix-blend-mode:soft-light" xlink:href="#b"/><circle cx="16" cy="15" r="14.5" stroke="#000" stroke-opacity=".097"/><use fill="#000" filter="url(#d)" xlink:href="#e"/><use fill="#FFF" fill-rule="evenodd" xlink:href="#e"/></g></svg>