<svg xmlns="http://www.w3.org/2000/svg" width="32" height="32" xmlns:xlink="http://www.w3.org/1999/xlink"><defs><linearGradient id="c" x1="50%" x2="50%" y1="0%" y2="100%"><stop offset="0%" stop-color="#FFF" stop-opacity=".5"/><stop offset="100%" stop-opacity=".5"/></linearGradient><circle id="b" cx="16" cy="15" r="15"/><filter id="a" width="111.7%" height="111.7%" x="-5.8%" y="-4.2%" filterUnits="objectBoundingBox"><feOffset dy=".5" in="SourceAlpha" result="shadowOffsetOuter1"/><feGaussianBlur in="shadowOffsetOuter1" result="shadowBlurOuter1" stdDeviation=".5"/><feComposite in="shadowBlurOuter1" in2="SourceAlpha" operator="out" result="shadowBlurOuter1"/><feColorMatrix in="shadowBlurOuter1" values="0 0 0 0 0 0 0 0 0 0 0 0 0 0 0 0 0 0 0.199473505 0"/></filter><path id="e" d="M22.58 8.7l.08.17-3.05 1.4 1.4 4.55 4.52-2.3.06.13.02-.02-2.93-3.9-.07-.04zm-.16-.08l-2.77-1.3h-7.17L9.5 8.7l3.1 1.28h6.84l2.98-1.36zm-13.15.32l-2.78 3.6 4.5 2.28 1.4-4.57-3.14-1.3zm3.44 1.37l-1.4 4.74 4.7 8.33 4.72-8.33-1.42-4.72h-6.6zm12.53 2.75L21 15.17l-4.2 7.44 8.42-9.55zm-10.05 9.53L11 15.18l-4.2-2.1 8.37 9.5zm-8.74-9.93l.03-.06-.04.04zm2.8-4.18L12.4 7h7.32l3.14 1.46 3.14 4.2L16 24 6 12.65l3.22-4.2zm9.2 5.37c.05.6-.2.98-.6 1.18.66.17 1.07.57 1 1.46-.1 1.1-.92 1.4-2.1 1.47v1.17h-.68v-1.15c-.18 0-.36 0-.55 0v1.15h-.7v-1.17c-.15 0-.3 0-.5 0h-.9l.16-.84s.5 0 .5 0c.2 0 .25-.14.26-.23v-1.84c.04 0 .06 0 .1 0-.04 0-.07 0-.1 0V13.7c0-.14-.1-.3-.4-.3.02 0-.5 0-.5 0v-.75h.97c.13 0 .3 0 .43 0V11.5h.7v1.12c.18 0 .37 0 .55 0V11.5h.7v1.15c.9.08 1.6.35 1.67 1.18zm-.98 2.5c0-.9-1.47-.78-1.94-.78v1.55c.48 0 1.96.1 1.95-.77zm-.32-2.18c0-.83-1.22-.7-1.62-.7v1.4c.4 0 1.63.1 1.63-.7z"/><filter id="d" width="117.5%" height="120.6%" x="-8.8%" y="-7.4%" filterUnits="objectBoundingBox"><feOffset dy=".5" in="SourceAlpha" result="shadowOffsetOuter1"/><feGaussianBlur in="shadowOffsetOuter1" result="shadowBlurOuter1" stdDeviation=".5"/><feColorMatrix in="shadowBlurOuter1" values="0 0 0 0 0 0 0 0 0 0 0 0 0 0 0 0 0 0 0.204257246 0"/></filter></defs><g fill="none"><use fill="#000" filter="url(#a)" xlink:href="#b"/><use fill="#FCC339" fill-rule="evenodd" xlink:href="#b"/><use fill="url(#c)" fill-rule="evenodd" style="mix-blend-mode:soft-light" xlink:href="#b"/><circle cx="16" cy="15" r="14.5" stroke="#000" stroke-opacity=".097"/><use fill="#000" filter="url(#d)" xlink:href="#e"/><use fill="#FFF" fill-rule="evenodd" xlink:href="#e"/></g></svg>