<svg xmlns="http://www.w3.org/2000/svg" width="32" height="32" xmlns:xlink="http://www.w3.org/1999/xlink"><defs><linearGradient id="c" x1="50%" x2="50%" y1="0%" y2="100%"><stop offset="0%" stop-color="#FFF" stop-opacity=".5"/><stop offset="100%" stop-opacity=".5"/></linearGradient><circle id="b" cx="16" cy="15" r="15"/><filter id="a" width="111.7%" height="111.7%" x="-5.8%" y="-4.2%" filterUnits="objectBoundingBox"><feOffset dy=".5" in="SourceAlpha" result="shadowOffsetOuter1"/><feGaussianBlur in="shadowOffsetOuter1" result="shadowBlurOuter1" stdDeviation=".5"/><feComposite in="shadowBlurOuter1" in2="SourceAlpha" operator="out" result="shadowBlurOuter1"/><feColorMatrix in="shadowBlurOuter1" values="0 0 0 0 0 0 0 0 0 0 0 0 0 0 0 0 0 0 0.199473505 0"/></filter><path id="e" d="M7.35 18.32c0-3 2.1-5.54 5.15-6.1.26-.06.33-.14.33-.4-.02-.67-.02-1.35 0-2.03 0-.26-.08-.4-.3-.54-.7-.48-1-1.34-.75-2.12.3-.82 1.03-1.33 1.9-1.3.76.05 1.47.62 1.68 1.38.2.77-.1 1.6-.77 2.03-.26.15-.33.3-.3.58 0 .67 0 1.35 0 2.02 0 .2 0 .3.24.34.44.04.88.16 1.3.34.14.07.22.03.33-.1 1.43-1.57 2.87-3.15 4.32-4.72.13-.16.1-.27.02-.44-.35-.88-.14-1.82.52-2.44.6-.56 1.6-.72 2.33-.37.86.4 1.32 1.2 1.26 2.12-.07 1.24-1.28 2.2-2.5 1.92-.26-.05-.4 0-.57.2-1.33 1.46-2.67 2.93-4.02 4.4-.16.18-.2.27.02.45 2.2 1.92 2.8 4.82 1.55 7.45-.1.2-.07.32.1.46.35.36.7.72 1.06 1.1.14.13.27.17.48.12.8-.2 1.65.16 2.05.86.4.72.3 1.62-.27 2.2-.55.6-1.46.77-2.16.42-.77-.38-1.2-1.2-1-2.04.04-.25 0-.38-.17-.54-.3-.28-.58-.57-.86-.87-.16-.18-.27-.18-.45 0-1.9 1.76-4.1 2.22-6.55 1.36-2.42-.86-4-3.2-4-5.8"/><filter id="d" width="120.2%" height="115.9%" x="-10.1%" y="-5.7%" filterUnits="objectBoundingBox"><feOffset dy=".5" in="SourceAlpha" result="shadowOffsetOuter1"/><feGaussianBlur in="shadowOffsetOuter1" result="shadowBlurOuter1" stdDeviation=".5"/><feColorMatrix in="shadowBlurOuter1" values="0 0 0 0 0 0 0 0 0 0 0 0 0 0 0 0 0 0 0.204257246 0"/></filter></defs><g fill="none"><use fill="#000" filter="url(#a)" xlink:href="#b"/><use fill="#F7931C" fill-rule="evenodd" xlink:href="#b"/><use fill="url(#c)" fill-rule="evenodd" style="mix-blend-mode:soft-light" xlink:href="#b"/><circle cx="16" cy="15" r="14.5" stroke="#000" stroke-opacity=".097"/><use fill="#000" filter="url(#d)" xlink:href="#e"/><use fill="#FFF" fill-rule="evenodd" xlink:href="#e"/></g></svg>