<svg xmlns="http://www.w3.org/2000/svg" width="32" height="32" xmlns:xlink="http://www.w3.org/1999/xlink"><defs><linearGradient id="c" x1="50%" x2="50%" y1="0%" y2="100%"><stop offset="0%" stop-color="#FFF" stop-opacity=".5"/><stop offset="100%" stop-opacity=".5"/></linearGradient><circle id="b" cx="16" cy="15" r="15"/><filter id="a" width="111.7%" height="111.7%" x="-5.8%" y="-4.2%" filterUnits="objectBoundingBox"><feOffset dy=".5" in="SourceAlpha" result="shadowOffsetOuter1"/><feGaussianBlur in="shadowOffsetOuter1" result="shadowBlurOuter1" stdDeviation=".5"/><feComposite in="shadowBlurOuter1" in2="SourceAlpha" operator="out" result="shadowBlurOuter1"/><feColorMatrix in="shadowBlurOuter1" values="0 0 0 0 0 0 0 0 0 0 0 0 0 0 0 0 0 0 0.199473505 0"/></filter><path id="e" d="M20.22 6.2l-.7 2.84c2.16.76 3.75 1.9 3.44 4-.1.63-.3 1.27-.76 1.75-.4.4-1 .62-1.52.8-.6.2-1.28.32-1.93.33-.44 0-.87 0-1.3-.05-.72-.07-1.44-.13-2.14-.3-.2-.04-.4-.08-.6-.13l-.95 3.82-.56 2.08-.7 2.85-1.73-.43.7-2.88c-.4-.1-.8-.23-1.22-.34L8 20.02l.85-1.97s1.27.34 1.26.32c.5.1.7-.2.8-.42l.98-3.9.46-1.82.5-2.1c.04-.36-.1-.82-.8-1 .04 0-1.25-.3-1.25-.3l.45-1.86 2.37.6c.37.1.73.17 1.1.26L15.4 5l1.73.43-.68 2.8c.45.1.92.2 1.37.32l.67-2.78 1.7.43zm-.15 10.3c.48-.08 1.06-.27 1.48-.44 0-.02.04-.02.05-.03.9.8 1.32 2.1.74 3.74-.92 2.7-3.14 2.9-6.06 2.35L15.56 25l-1.7-.43.66-2.75.02-.1.52-2.1c1.53.33 3.6.56 3.98-1.03.2-.87-.2-1.48-.85-1.93.22 0 .44-.02.66-.04.48-.02.72-.06 1.2-.14zm-.5-3.5c.5-2.04-2.63-2.5-3.6-2.75l-.86 3.47c1 .25 4 1.24 4.48-.7z"/><filter id="d" width="123.3%" height="117.5%" x="-11.7%" y="-6.2%" filterUnits="objectBoundingBox"><feOffset dy=".5" in="SourceAlpha" result="shadowOffsetOuter1"/><feGaussianBlur in="shadowOffsetOuter1" result="shadowBlurOuter1" stdDeviation=".5"/><feColorMatrix in="shadowBlurOuter1" values="0 0 0 0 0 0 0 0 0 0 0 0 0 0 0 0 0 0 0.204257246 0"/></filter></defs><g fill="none"><use fill="#000" filter="url(#a)" xlink:href="#b"/><use fill="#272D63" xlink:href="#b"/><use fill="url(#c)" style="mix-blend-mode:soft-light" xlink:href="#b"/><circle cx="16" cy="15" r="14.5" stroke="#000" stroke-opacity=".097"/><use fill="#000" filter="url(#d)" xlink:href="#e"/><use fill="#FFF" fill-rule="evenodd" xlink:href="#e"/></g></svg>