<svg xmlns="http://www.w3.org/2000/svg" width="32" height="32" xmlns:xlink="http://www.w3.org/1999/xlink"><defs><linearGradient id="c" x1="50%" x2="50%" y1="0%" y2="100%"><stop offset="0%" stop-color="#FFF" stop-opacity=".5"/><stop offset="100%" stop-opacity=".5"/></linearGradient><circle id="b" cx="16" cy="15" r="15"/><filter id="a" width="111.7%" height="111.7%" x="-5.8%" y="-4.2%" filterUnits="objectBoundingBox"><feOffset dy=".5" in="SourceAlpha" result="shadowOffsetOuter1"/><feGaussianBlur in="shadowOffsetOuter1" result="shadowBlurOuter1" stdDeviation=".5"/><feComposite in="shadowBlurOuter1" in2="SourceAlpha" operator="out" result="shadowBlurOuter1"/><feColorMatrix in="shadowBlurOuter1" values="0 0 0 0 0 0 0 0 0 0 0 0 0 0 0 0 0 0 0.199473505 0"/></filter><path id="e" d="M9.33 7.62c-.02-.15.12-.24.2-.34 1-.98 1.98-1.97 2.96-2.96-.03 2.7 0 5.43-.03 8.14 2.05-1.13 4.63-1.18 6.74-.16 0 .17 0 .35 0 .52-1.7-.9-3.74-1.02-5.54-.4-2.06.72-3.7 2.47-4.35 4.55 0-3.12 0-6.24 0-9.35zm13.4 11.66c-.06 1.64-.76 3.24-1.9 4.4-1 1.02-2.3 1.7-3.7 1.94-1.67.28-3.42-.1-4.8-1.03-1.5-1-2.56-2.57-2.9-4.3-.28-1.4-.08-2.86.5-4.13.67-1.43 1.85-2.6 3.28-3.25 1.9-.9 4.2-.82 6 .2 0 1.48 0 2.98 0 4.47-.27-.63-.72-1.18-1.3-1.54-1.16-.75-2.77-.72-3.9.1-1.2.84-1.77 2.52-1.3 3.93.46 1.4 1.84 2.4 3.3 2.4 1.4.02 2.77-.9 3.27-2.2.32-.75.24-1.57.25-2.36 0-4.06 0-8.1 0-12.16 0-.52 0-1.03-.02-1.54 1.1 1.07 2.17 2.16 3.25 3.24-.02 3.93 0 7.85 0 11.78z"/><filter id="d" width="126.1%" height="116.3%" x="-13%" y="-5.8%" filterUnits="objectBoundingBox"><feOffset dy=".5" in="SourceAlpha" result="shadowOffsetOuter1"/><feGaussianBlur in="shadowOffsetOuter1" result="shadowBlurOuter1" stdDeviation=".5"/><feColorMatrix in="shadowBlurOuter1" values="0 0 0 0 0 0 0 0 0 0 0 0 0 0 0 0 0 0 0.204257246 0"/></filter></defs><g fill="none"><use fill="#000" filter="url(#a)" xlink:href="#b"/><use fill="#E54C40" xlink:href="#b"/><use fill="url(#c)" style="mix-blend-mode:soft-light" xlink:href="#b"/><circle cx="16" cy="15" r="14.5" stroke="#000" stroke-opacity=".097"/><use fill="#000" filter="url(#d)" xlink:href="#e"/><use fill="#FFF" fill-rule="evenodd" xlink:href="#e"/></g></svg>