<svg xmlns="http://www.w3.org/2000/svg" width="32" height="32" xmlns:xlink="http://www.w3.org/1999/xlink"><defs><linearGradient id="c" x1="50%" x2="50%" y1="0%" y2="100%"><stop offset="0%" stop-color="#FFF" stop-opacity=".5"/><stop offset="100%" stop-opacity=".5"/></linearGradient><circle id="b" cx="16" cy="15" r="15"/><filter id="a" width="111.7%" height="111.7%" x="-5.8%" y="-4.2%" filterUnits="objectBoundingBox"><feOffset dy=".5" in="SourceAlpha" result="shadowOffsetOuter1"/><feGaussianBlur in="shadowOffsetOuter1" result="shadowBlurOuter1" stdDeviation=".5"/><feComposite in="shadowBlurOuter1" in2="SourceAlpha" operator="out" result="shadowBlurOuter1"/><feColorMatrix in="shadowBlurOuter1" values="0 0 0 0 0 0 0 0 0 0 0 0 0 0 0 0 0 0 0.199473505 0"/></filter><path id="e" d="M16 26C9.92 26 5 21.08 5 15S9.92 4 16 4s11 4.92 11 11-4.92 11-11 11zM15 5.74c0 .88 0 1.75 0 2.63.45 0 .9 0 1.32 0 0-.9 0-1.8 0-2.7-.43.02-.87.04-1.3.07zm3.16 2.67c1.16.17 2.4.35 3.3 1.1 1.4 1.28 1.23 3.9-.48 4.83 1.02.24 2.04.93 2.3 2 .32 1.42.06 3.1-1.08 4.1-1.12.94-2.65 1.06-4.04 1.2 0 .8 0 1.63 0 2.45 2.93-.72 5.46-2.9 6.54-5.72 1.02-2.6.78-5.66-.66-8.06-1.28-2.17-3.44-3.76-5.87-4.37 0 .83 0 1.65 0 2.48zM9.42 8.4c1.27.06 2.54.05 3.8.05 0-.77 0-1.55 0-2.32-1.42.47-2.68 1.3-3.8 2.28zm-1.48 2c-1.5 2.53-1.67 5.8-.42 8.46 1.08 2.4 3.2 4.26 5.7 5.07 0-.76 0-1.53 0-2.3-1.27-.02-2.54.03-3.82-.04.02-.7.18-1.4.43-2.07.62 0 1.27.1 1.87-.1.36-.3.26-.8.27-1.2 0-2.3 0-4.64 0-6.95.02-.37-.22-.78-.6-.85-.65-.14-1.3-.1-1.95-.1-.08-.5-.1-1.04-.1-1.57.02-.12 0-.22-.07-.3-.36.7-.94 1.24-1.3 1.93zm7.13.1v3.4c1.14-.02 2.4.1 3.4-.55.83-.54.78-1.9-.08-2.4-1-.6-2.24-.43-3.34-.46zm0 5.24v3.8c1.4-.12 2.98.12 4.2-.73.9-.6.78-2.03-.12-2.53-1.23-.73-2.72-.5-4.08-.54zM15 21.65c0 .87 0 1.75 0 2.62.47.03.92.05 1.38.06 0-.9 0-1.8 0-2.68H15z"/><filter id="d" width="115.9%" height="115.9%" x="-8%" y="-5.7%" filterUnits="objectBoundingBox"><feOffset dy=".5" in="SourceAlpha" result="shadowOffsetOuter1"/><feGaussianBlur in="shadowOffsetOuter1" result="shadowBlurOuter1" stdDeviation=".5"/><feColorMatrix in="shadowBlurOuter1" values="0 0 0 0 0 0 0 0 0 0 0 0 0 0 0 0 0 0 0.204257246 0"/></filter></defs><g fill="none"><use fill="#000" filter="url(#a)" xlink:href="#b"/><use fill="#EBA809" fill-rule="evenodd" xlink:href="#b"/><use fill="url(#c)" fill-rule="evenodd" style="mix-blend-mode:soft-light" xlink:href="#b"/><circle cx="16" cy="15" r="14.5" stroke="#000" stroke-opacity=".097"/><use fill="#000" filter="url(#d)" xlink:href="#e"/><use fill="#FFF" xlink:href="#e"/></g></svg>