<svg xmlns="http://www.w3.org/2000/svg" width="32" height="32" xmlns:xlink="http://www.w3.org/1999/xlink"><defs><linearGradient id="c" x1="50%" x2="50%" y1="0%" y2="100%"><stop offset="0%" stop-color="#FFF" stop-opacity=".5"/><stop offset="100%" stop-opacity=".5"/></linearGradient><circle id="b" cx="16" cy="15" r="15"/><filter id="a" width="111.7%" height="111.7%" x="-5.8%" y="-4.2%" filterUnits="objectBoundingBox"><feOffset dy=".5" in="SourceAlpha" result="shadowOffsetOuter1"/><feGaussianBlur in="shadowOffsetOuter1" result="shadowBlurOuter1" stdDeviation=".5"/><feComposite in="shadowBlurOuter1" in2="SourceAlpha" operator="out" result="shadowBlurOuter1"/><feColorMatrix in="shadowBlurOuter1" values="0 0 0 0 0 0 0 0 0 0 0 0 0 0 0 0 0 0 0.199473505 0"/></filter><path id="e" d="M9.96 15.95c0 2.14 1.74 3.87 3.87 3.85 2.12 0 3.85-1.7 3.85-3.8 0-2.16-1.7-3.87-3.86-3.87-2.13 0-3.86 1.7-3.86 3.82m0 4.14v1.26H8V7c.56 0 1.03.2 1.4.6.37.38.55.84.55 1.37 0 .94 0 1.9 0 2.88 1.37-1.14 2.9-1.7 4.68-1.44 1.77.3 3.12 1.18 4.05 2.7 1.4 2.3.94 5.23-1.08 7.05-1.97 1.78-5.25 2.06-7.63-.05zm6.36 1.23c.08-.05.12-.07.17-.1.6-.3 1.15-.7 1.63-1.22.1-.1.22-.16.38-.17 1.68-.1 3.18-1.44 3.47-3.08.37-2.16-.95-4.07-3.12-4.48-.32-.06-.55-.18-.77-.42-.4-.44-.9-.8-1.4-1.1-.05 0-.1-.04-.17-.08 1-.27 1.96-.33 2.93-.1.97.2 1.8.68 2.58 1.33v-1.27h2V25c-.56-.02-1.02-.2-1.4-.6-.37-.38-.55-.85-.55-1.38 0-.94 0-1.88 0-2.87-1.7 1.42-3.58 1.85-5.73 1.2z"/><filter id="d" width="121.9%" height="119.4%" x="-10.9%" y="-6.9%" filterUnits="objectBoundingBox"><feOffset dy=".5" in="SourceAlpha" result="shadowOffsetOuter1"/><feGaussianBlur in="shadowOffsetOuter1" result="shadowBlurOuter1" stdDeviation=".5"/><feColorMatrix in="shadowBlurOuter1" values="0 0 0 0 0 0 0 0 0 0 0 0 0 0 0 0 0 0 0.204257246 0"/></filter></defs><g fill="none"><use fill="#000" filter="url(#a)" xlink:href="#b"/><use fill="#1D1D1D" xlink:href="#b"/><use fill="url(#c)" style="mix-blend-mode:soft-light" xlink:href="#b"/><circle cx="16" cy="15" r="14.5" stroke="#000" stroke-opacity=".097"/><use fill="#000" filter="url(#d)" xlink:href="#e"/><use fill="#FFF" xlink:href="#e"/></g></svg>