<svg xmlns="http://www.w3.org/2000/svg" width="32" height="32" xmlns:xlink="http://www.w3.org/1999/xlink"><defs><linearGradient id="c" x1="50%" x2="50%" y1="0%" y2="100%"><stop offset="0%" stop-color="#FFF" stop-opacity=".5"/><stop offset="100%" stop-opacity=".5"/></linearGradient><circle id="b" cx="16" cy="15" r="15"/><filter id="a" width="111.7%" height="111.7%" x="-5.8%" y="-4.2%" filterUnits="objectBoundingBox"><feOffset dy=".5" in="SourceAlpha" result="shadowOffsetOuter1"/><feGaussianBlur in="shadowOffsetOuter1" result="shadowBlurOuter1" stdDeviation=".5"/><feComposite in="shadowBlurOuter1" in2="SourceAlpha" operator="out" result="shadowBlurOuter1"/><feColorMatrix in="shadowBlurOuter1" values="0 0 0 0 0 0 0 0 0 0 0 0 0 0 0 0 0 0 0.199473505 0"/></filter><path id="e" d="M11 12.2l4.2 4.35c-.16.25-.28.54-.33.85H11v-5.2zm0-1.17V4l5.6 5.14v6.47c-.3.08-.58.2-.82.37L11 11.03zM21.53 21.9l-2.73-2.8c.17-.27.3-.56.35-.87H23c-.1 1.4-.63 2.67-1.47 3.67zm-.57.58c-.96.87-2.2 1.43-3.55 1.52v-3.98c.3-.05.6-.18.85-.35l2.72 2.8zM11 18.23h3.87c.05.3.17.6.34.86l-2.7 2.8c-.85-1-1.4-2.28-1.5-3.68zm12-.83h-3.85c-.06-.3-.18-.6-.35-.85l2.73-2.8c.84.98 1.38 2.25 1.47 3.65zm-9.95 5.08l2.73-2.8c.24.16.52.3.83.34V24c-1.34-.1-2.6-.65-3.54-1.52zm7.9-9.33l-2.7 2.8c-.26-.16-.54-.28-.84-.34v-3.96c1.37.1 2.6.65 3.57 1.52z"/><filter id="d" width="129.2%" height="117.5%" x="-14.6%" y="-6.2%" filterUnits="objectBoundingBox"><feOffset dy=".5" in="SourceAlpha" result="shadowOffsetOuter1"/><feGaussianBlur in="shadowOffsetOuter1" result="shadowBlurOuter1" stdDeviation=".5"/><feColorMatrix in="shadowBlurOuter1" values="0 0 0 0 0 0 0 0 0 0 0 0 0 0 0 0 0 0 0.204257246 0"/></filter></defs><g fill="none"><use fill="#000" filter="url(#a)" xlink:href="#b"/><use fill="#35BAEB" xlink:href="#b"/><use fill="url(#c)" style="mix-blend-mode:soft-light" xlink:href="#b"/><circle cx="16" cy="15" r="14.5" stroke="#000" stroke-opacity=".097"/><use fill="#000" filter="url(#d)" xlink:href="#e"/><use fill="#FFF" xlink:href="#e"/></g></svg>