<svg xmlns="http://www.w3.org/2000/svg" width="32" height="32" xmlns:xlink="http://www.w3.org/1999/xlink"><defs><linearGradient id="c" x1="50%" x2="50%" y1="0%" y2="100%"><stop offset="0%" stop-color="#FFF" stop-opacity=".5"/><stop offset="100%" stop-opacity=".5"/></linearGradient><circle id="b" cx="16" cy="15" r="15"/><filter id="a" width="111.7%" height="111.7%" x="-5.8%" y="-4.2%" filterUnits="objectBoundingBox"><feOffset dy=".5" in="SourceAlpha" result="shadowOffsetOuter1"/><feGaussianBlur in="shadowOffsetOuter1" result="shadowBlurOuter1" stdDeviation=".5"/><feComposite in="shadowBlurOuter1" in2="SourceAlpha" operator="out" result="shadowBlurOuter1"/><feColorMatrix in="shadowBlurOuter1" values="0 0 0 0 0 0 0 0 0 0 0 0 0 0 0 0 0 0 0.199473505 0"/></filter><path id="e" d="M16.94 23.58c.05.12.08.25.08.4 0 .56-.47 1.02-1.04 1.02-.58 0-1.05-.46-1.05-1.03 0-.13.03-.26.08-.38l-6.2-3.55c-.2.2-.45.3-.75.3-.57 0-1.04-.45-1.04-1 0-.5.34-.9.8-1V11.3c-.46-.1-.8-.5-.8-1 0-.56.48-1.02 1.05-1.02.35 0 .66.17.85.42l6.06-3.45c-.02-.08-.03-.16-.03-.24 0-.56.47-1.02 1.05-1.02.57 0 1.04.46 1.04 1.03 0 .1 0 .17-.03.25l6.1 3.46c.2-.25.5-.42.85-.42.57 0 1.04.46 1.04 1.03 0 .5-.34.9-.8 1v7c.45.13.8.54.8 1.03 0 .56-.48 1.02-1.05 1.02-.3 0-.6-.13-.78-.34l-6.24 3.56zm-.28-.38l6.3-3.57c-.04-.1-.05-.2-.05-.28 0-.12.04-.24.08-.35l-6.07-3.9c-.2.24-.53.4-.9.4-.4 0-.74-.2-.97-.48l-5.98 4.02c.03.1.05.2.05.3 0 .12-.03.22-.06.32l6.24 3.54c.2-.16.43-.26.7-.26.26 0 .5.1.68.26zm.12-16.52c-.14.17-.33.3-.55.34v6.06c.57.1 1 .6 1 1.2 0 .15-.02.3-.08.43l6.08 3.9c.13-.1.3-.2.5-.25v-7c-.46-.1-.82-.52-.82-1 0-.07 0-.12.03-.17l-6.14-3.5zm-1.6 0l-6.1 3.47c0 .06 0 .12 0 .18 0 .5-.35.9-.82 1v7c.2.05.4.16.54.3l6-4.04c-.02-.1-.03-.2-.03-.33 0-.6.4-1.08.97-1.2l.02-6.05c-.23-.04-.44-.17-.58-.34z"/><filter id="d" width="119.4%" height="117.5%" x="-9.7%" y="-6.2%" filterUnits="objectBoundingBox"><feOffset dy=".5" in="SourceAlpha" result="shadowOffsetOuter1"/><feGaussianBlur in="shadowOffsetOuter1" result="shadowBlurOuter1" stdDeviation=".5"/><feColorMatrix in="shadowBlurOuter1" values="0 0 0 0 0 0 0 0 0 0 0 0 0 0 0 0 0 0 0.204257246 0"/></filter></defs><g fill="none"><use fill="#000" filter="url(#a)" xlink:href="#b"/><use fill="#272727" xlink:href="#b"/><use fill="url(#c)" style="mix-blend-mode:soft-light" xlink:href="#b"/><circle cx="16" cy="15" r="14.5" stroke="#000" stroke-opacity=".097"/><use fill="#000" filter="url(#d)" xlink:href="#e"/><use fill="#FFF" fill-rule="evenodd" xlink:href="#e"/></g></svg>