<svg xmlns="http://www.w3.org/2000/svg" width="32" height="32" xmlns:xlink="http://www.w3.org/1999/xlink"><defs><linearGradient id="c" x1="50%" x2="50%" y1="0%" y2="100%"><stop offset="0%" stop-color="#FFF" stop-opacity=".5"/><stop offset="100%" stop-opacity=".5"/></linearGradient><circle id="b" cx="16" cy="15" r="15"/><filter id="a" width="111.7%" height="111.7%" x="-5.8%" y="-4.2%" filterUnits="objectBoundingBox"><feOffset dy=".5" in="SourceAlpha" result="shadowOffsetOuter1"/><feGaussianBlur in="shadowOffsetOuter1" result="shadowBlurOuter1" stdDeviation=".5"/><feComposite in="shadowBlurOuter1" in2="SourceAlpha" operator="out" result="shadowBlurOuter1"/><feColorMatrix in="shadowBlurOuter1" values="0 0 0 0 0 0 0 0 0 0 0 0 0 0 0 0 0 0 0.199473505 0"/></filter><path id="e" d="M25.88 19.74c-.1.2-.2.4-.3.58-.1.13-.16.27-.24.4-.04.07-.07.13-.1.2h-.02c-1.57 2.48-4.08 4.23-6.96 4.84-2.88.6-5.9.03-8.33-1.6-.05-.04-.1-.08-.15-.1-.18-.13-.36-.27-.54-.4-.12-.1-.23-.18-.34-.28-.16-.13-.34-.3-.46-.4-.13-.12-.24-.23-.36-.35-.12-.13-.23-.25-.36-.4-.12-.14-.27-.3-.37-.43-.1-.12-.18-.25-.27-.37-.12-.17-.24-.34-.35-.52-.08-.1-.15-.2-.2-.32-.12-.2-.23-.38-.33-.58-.06-.12-.12-.24-.17-.36-.1-.2-.18-.4-.27-.6-.04-.13-.1-.26-.13-.4-.07-.2-.14-.4-.2-.6-.04-.13-.07-.27-.1-.4-.06-.2-.1-.4-.14-.6-.04-.15-.08-.3-.1-.45-.02-.2-.05-.4-.06-.6-.02-.17-.03-.3-.03-.48 0-.2 0-.4 0-.6 0-.14 0-.3 0-.44 0-.22.03-.43.05-.64 0-.14.03-.27.05-.4.04-.24.08-.46.12-.7.03-.1.06-.23.08-.35.06-.24.13-.48.2-.7.03-.1.07-.2.1-.33.1-.24.18-.5.3-.73 0-.06.04-.12.05-.17.02-.04.04-.1.08-.13.1-.22.22-.44.34-.66.06-.13.13-.25.2-.37.05-.1.08-.16.15-.25.06-.1.14-.2.2-.3.1-.13.18-.26.28-.4.12-.15.25-.32.4-.48.1-.12.18-.24.28-.35.15-.16.3-.32.46-.47.1-.1.2-.18.3-.27.17-.15.35-.3.54-.43.1-.08.2-.16.3-.23.18-.13.37-.26.56-.4.1-.06.2-.13.32-.2.2-.1.4-.2.6-.3.1-.08.23-.14.35-.2.2-.08.4-.16.6-.24.14-.06.26-.1.44-.17.17-.05.34-.1.52-.16.17-.05.38-.1.53-.14.14-.04.3-.07.45-.1.2-.05.42-.08.6-.1.15-.03.28-.05.42-.06.22-.02.44-.04.67-.05.12 0 .24 0 .37 0 .24 0 .47 0 .7 0 .13 0 .25 0 .37.03.23.02.45.05.67.08.13.03.26.05.4.08.2.03.42.08.64.13.14.05.3.1.43.13.2.06.4.13.6.2.16.05.3.1.45.17.1.05.23.08.34.13v.02c2.7 1.18 4.8 3.4 5.82 6.17 1.04 2.76.9 5.82-.35 8.48-.02.04-.05.08-.07.12zm-14.05 4.5c4.64 2.08 10.1.4 12.78-3.94.1-.12.16-.24.23-.36.1-.18.2-.36.3-.55 1.2-2.54 1.34-5.44.34-8.05-1-2.6-3.05-4.7-5.64-5.74-.12-.04-.26-.1-.4-.14-.18-.07-.37-.13-.55-.2-.14-.02-.27-.06-.4-.1-.2-.04-.4-.1-.6-.13-.12-.02-.24-.04-.36-.06-.2-.03-.4-.06-.62-.08l-.34-.03c-.2 0-.43 0-.65 0h-.33c-.2 0-.42 0-.63.03-.12.03-.24.04-.37.06-.2.02-.38.06-.56.1-.14.02-.3.05-.42.1-.16.03-.32.07-.5.12-.15.05-.3.1-.47.16-.13.05-.26.1-.4.15-.17.05-.35.13-.52.2-.1.06-.23.1-.34.17-.18.1-.36.2-.54.3-.1.06-.2.12-.3.18-.18.12-.36.24-.53.37-.1.06-.18.13-.27.2-.17.13-.33.27-.5.4-.08.1-.17.17-.26.25-.15.15-.3.3-.43.45-.07.1-.16.2-.25.3-.12.16-.25.3-.37.47-.08.1-.16.22-.24.34-.12.17-.23.34-.34.5-.07.12-.13.23-.2.34-.1.2-.2.4-.3.6-.05.1-.1.2-.13.28-.1.23-.2.46-.27.7-.03.08-.06.17-.1.26-.06.23-.13.45-.18.68-.03.1-.05.2-.07.32-.05.2-.08.42-.1.63-.03.12-.05.25-.06.37-.04.2-.06.4-.06.6 0 .12 0 .26 0 .4 0 .18 0 .37 0 .56 0 .13.02.27.03.4.02.2.05.38.07.56.03.14.05.27.08.4.03.2.07.38.12.57.03.13.06.26.1.4.06.2.12.37.2.56.03.12.07.23.1.35.1.2.17.38.24.57.05.1.1.22.15.32.1.17.2.35.3.52.06.1.12.22.2.32.1.17.2.32.32.48.08.1.14.2.25.34.1.13.23.27.34.4.1.1.22.25.33.36.1.1.17.18.3.3.15.14.3.27.44.4.1.08.2.16.3.25.18.12.35.25.5.37.5.34 1.05.64 1.6.9zm4.15-.83c-3.4 0-6.48-2.02-7.78-5.17-1.3-3.14-.6-6.77 1.82-9.18 2.4-2.4 6.02-3.13 9.17-1.82 3.13 1.3 5.2 4.36 5.2 7.77 0 4.64-3.78 8.4-8.43 8.4zm0-14.06c-2.3 0-4.36 1.38-5.23 3.5-.88 2.1-.4 4.55 1.22 6.17 1.62 1.6 4.06 2.1 6.17 1.23 2.12-.87 3.5-2.94 3.5-5.23 0-3.13-2.54-5.66-5.66-5.67z"/><filter id="d" width="115.9%" height="115.9%" x="-8%" y="-5.7%" filterUnits="objectBoundingBox"><feOffset dy=".5" in="SourceAlpha" result="shadowOffsetOuter1"/><feGaussianBlur in="shadowOffsetOuter1" result="shadowBlurOuter1" stdDeviation=".5"/><feColorMatrix in="shadowBlurOuter1" values="0 0 0 0 0 0 0 0 0 0 0 0 0 0 0 0 0 0 0.204257246 0"/></filter></defs><g fill="none"><use fill="#000" filter="url(#a)" xlink:href="#b"/><use fill="#0F63D8" fill-rule="evenodd" xlink:href="#b"/><use fill="url(#c)" fill-rule="evenodd" style="mix-blend-mode:soft-light" xlink:href="#b"/><circle cx="16" cy="15" r="14.5" stroke="#000" stroke-opacity=".097"/><use fill="#000" filter="url(#d)" xlink:href="#e"/><use fill="#FFF" fill-rule="evenodd" xlink:href="#e"/></g></svg>