<svg xmlns="http://www.w3.org/2000/svg" width="32" height="32" xmlns:xlink="http://www.w3.org/1999/xlink"><defs><linearGradient id="c" x1="50%" x2="50%" y1="0%" y2="100%"><stop offset="0%" stop-color="#FFF" stop-opacity=".5"/><stop offset="100%" stop-opacity=".5"/></linearGradient><circle id="b" cx="16" cy="15" r="15"/><filter id="a" width="111.7%" height="111.7%" x="-5.8%" y="-4.2%" filterUnits="objectBoundingBox"><feOffset dy=".5" in="SourceAlpha" result="shadowOffsetOuter1"/><feGaussianBlur in="shadowOffsetOuter1" result="shadowBlurOuter1" stdDeviation=".5"/><feComposite in="shadowBlurOuter1" in2="SourceAlpha" operator="out" result="shadowBlurOuter1"/><feColorMatrix in="shadowBlurOuter1" values="0 0 0 0 0 0 0 0 0 0 0 0 0 0 0 0 0 0 0.199473505 0"/></filter><path id="e" d="M11.63 19.34c.67.67.67 1.76 0 2.44-.66.68-1.73.68-2.4 0-.32-.32-.5-.76-.5-1.22 0-.46.18-.9.5-1.23.67-.67 1.74-.67 2.4 0zM22.7 7.74c.63.25 1.04.9 1.04 1.58 0 .7-.4 1.33-1.04 1.6s-1.37.12-1.85-.37c-.32-.33-.5-.77-.5-1.23 0-.45.18-.9.5-1.22.48-.5 1.2-.64 1.85-.37zM11.4 18l1.65-1.67c.33.83.97 1.5 1.8 1.83l-1.65 1.67L11.4 18zm9.7-6.14l-1.63 1.68c-.16-.42-.4-.8-.7-1.1-.32-.32-.7-.56-1.1-.73l1.65-1.65 1.8 1.82zm-.68 7.95c.26-.63.88-1.05 1.57-1.05.67 0 1.3.42 1.55 1.07.26.65.12 1.4-.37 1.9-.33.32-.76.5-1.2.5-.46 0-.9-.18-1.2-.5-.5-.5-.64-1.25-.38-1.9zM9.04 8.5c.26-.64.88-1.06 1.56-1.06.7 0 1.3.42 1.57 1.07.27.67.12 1.4-.37 1.9-.3.33-.75.5-1.2.5-.45 0-.88-.17-1.2-.5-.48-.5-.63-1.23-.36-1.9zm10.14 11.25l-1.64-1.66c.8-.36 1.46-1 1.8-1.85l1.63 1.67-1.8 1.82zm-5.84-9.8l1.64 1.67c-.4.16-.77.4-1.08.72-.3.3-.55.7-.7 1.1l-1.65-1.67 1.8-1.83zm2.94-1.5c-.94 0-1.7-.76-1.7-1.72 0-.95.76-1.73 1.7-1.73.45 0 .88.18 1.2.5.32.33.5.77.5 1.23 0 .96-.76 1.73-1.7 1.73zm1.7 14.82c0 .95-.76 1.73-1.7 1.73s-1.7-.78-1.7-1.73c0-.96.76-1.73 1.7-1.73.45 0 .88.18 1.2.5.32.33.5.77.5 1.23zM16.9 9.37v2.14c-.36-.04-.72-.04-1.07 0V9.4h1.07zm0 9.2v2.16h-1.07v-2.15c.35.06.7.06 1.07 0zm5.33-3.38c-.26-.67-.12-1.4.37-1.9.48-.5 1.22-.65 1.85-.38.64.26 1.05.9 1.05 1.6 0 .46-.18.9-.5 1.22-.32.33-.75.5-1.2.5-.7 0-1.3-.4-1.57-1.06zM6.5 14.8c0-.96.76-1.73 1.7-1.73s1.7.76 1.7 1.72c0 .45-.18.9-.5 1.2-.32.34-.75.5-1.2.5-.94 0-1.7-.75-1.7-1.7zm15.08.54h-2.1c.06-.36.06-.73 0-1.1h2.1v1.1zm-8.64 0h-2.1v-1.08h2.1c-.06.36-.06.72 0 1.08zm3.3 2.04c-1.34 0-2.42-1.1-2.42-2.45 0-1.36 1.08-2.46 2.4-2.46 1.34 0 2.42 1.1 2.42 2.45s-1.08 2.45-2.4 2.45z"/><filter id="d" width="118.4%" height="117.5%" x="-9.2%" y="-6.2%" filterUnits="objectBoundingBox"><feOffset dy=".5" in="SourceAlpha" result="shadowOffsetOuter1"/><feGaussianBlur in="shadowOffsetOuter1" result="shadowBlurOuter1" stdDeviation=".5"/><feColorMatrix in="shadowBlurOuter1" values="0 0 0 0 0 0 0 0 0 0 0 0 0 0 0 0 0 0 0.204257246 0"/></filter></defs><g fill="none"><use fill="#000" filter="url(#a)" xlink:href="#b"/><use fill="#18578C" xlink:href="#b"/><use fill="url(#c)" style="mix-blend-mode:soft-light" xlink:href="#b"/><circle cx="16" cy="15" r="14.5" stroke="#000" stroke-opacity=".097"/><use fill="#000" filter="url(#d)" xlink:href="#e"/><use fill="#FFF" fill-rule="evenodd" xlink:href="#e"/></g></svg>