<svg xmlns="http://www.w3.org/2000/svg" width="32" height="32" xmlns:xlink="http://www.w3.org/1999/xlink"><defs><linearGradient id="c" x1="50%" x2="50%" y1="0%" y2="100%"><stop offset="0%" stop-color="#FFF" stop-opacity=".5"/><stop offset="100%" stop-opacity=".5"/></linearGradient><circle id="b" cx="16" cy="15" r="15"/><filter id="a" width="111.7%" height="111.7%" x="-5.8%" y="-4.2%" filterUnits="objectBoundingBox"><feOffset dy=".5" in="SourceAlpha" result="shadowOffsetOuter1"/><feGaussianBlur in="shadowOffsetOuter1" result="shadowBlurOuter1" stdDeviation=".5"/><feComposite in="shadowBlurOuter1" in2="SourceAlpha" operator="out" result="shadowBlurOuter1"/><feColorMatrix in="shadowBlurOuter1" values="0 0 0 0 0 0 0 0 0 0 0 0 0 0 0 0 0 0 0.199473505 0"/></filter><path id="e" d="M25.2 18.4c.77.42 1.02 1.4.5 2.14-.42.76-1.4 1-2.17.6-.52-.3-.77-.8-.82-1.3h-3.9L16.9 23c0 .04-.04.08-.1.13.44.25.74.75.74 1.3 0 .84-.73 1.55-1.58 1.55-.86 0-1.6-.67-1.6-1.55 0-.55.3-1 .74-1.3 0-.05-.04-.1-.08-.13l-1.9-3.2H9.2c-.04.55-.34 1.02-.8 1.3-.78.43-1.77.18-2.2-.58-.42-.75-.17-1.72.6-2.14.52-.3 1.07-.3 1.54-.04.05-.04.05-.13.1-.17l1.9-3.2-1.87-3.2c-.04-.03-.08-.12-.08-.16-.5.2-1.1.26-1.56-.03-.77-.42-1.03-1.4-.6-2.14.43-.76 1.4-1 2.18-.6.5.3.77.8.8 1.3h4L15.1 7c0-.04.04-.08.1-.13-.44-.25-.74-.75-.74-1.3 0-.84.73-1.55 1.58-1.55.86 0 1.6.67 1.6 1.55 0 .55-.3 1-.74 1.3 0 .05.04.1.08.13l1.9 3.2h3.92c.04-.55.34-1.02.8-1.3.78-.43 1.77-.18 2.2.58.42.75.17 1.72-.6 2.14-.52.3-1.07.3-1.54.04-.05.04-.05.13-.1.17L21.7 15l1.87 3.2c.04.03.1.12.1.16.46-.2 1.05-.25 1.53.04zm-7.15-4.45c0-.88-.72-1.6-1.62-1.6h-2.06c-.2 0-.38.17-.38.38v4.54c0 .2.15.38.36.38h2.06c.9 0 1.62-.72 1.62-1.6 0-.38-.13-.76-.38-1 .2-.34.38-.68.38-1.1z"/><filter id="d" width="117.5%" height="115.9%" x="-8.8%" y="-5.7%" filterUnits="objectBoundingBox"><feOffset dy=".5" in="SourceAlpha" result="shadowOffsetOuter1"/><feGaussianBlur in="shadowOffsetOuter1" result="shadowBlurOuter1" stdDeviation=".5"/><feColorMatrix in="shadowBlurOuter1" values="0 0 0 0 0 0 0 0 0 0 0 0 0 0 0 0 0 0 0.204257246 0"/></filter></defs><g fill="none"><use fill="#000" filter="url(#a)" xlink:href="#b"/><use fill="#FD7A3D" fill-rule="evenodd" xlink:href="#b"/><use fill="url(#c)" fill-rule="evenodd" style="mix-blend-mode:soft-light" xlink:href="#b"/><circle cx="16" cy="15" r="14.5" stroke="#000" stroke-opacity=".097"/><use fill="#000" filter="url(#d)" xlink:href="#e"/><use fill="#FFF" fill-rule="evenodd" xlink:href="#e"/></g></svg>