<svg xmlns="http://www.w3.org/2000/svg" width="32" height="32" xmlns:xlink="http://www.w3.org/1999/xlink"><defs><linearGradient id="c" x1="50%" x2="50%" y1="0%" y2="100%"><stop offset="0%" stop-color="#FFF" stop-opacity=".5"/><stop offset="100%" stop-opacity=".5"/></linearGradient><circle id="b" cx="16" cy="15" r="15"/><filter id="a" width="111.7%" height="111.7%" x="-5.8%" y="-4.2%" filterUnits="objectBoundingBox"><feOffset dy=".5" in="SourceAlpha" result="shadowOffsetOuter1"/><feGaussianBlur in="shadowOffsetOuter1" result="shadowBlurOuter1" stdDeviation=".5"/><feComposite in="shadowBlurOuter1" in2="SourceAlpha" operator="out" result="shadowBlurOuter1"/><feColorMatrix in="shadowBlurOuter1" values="0 0 0 0 0 0 0 0 0 0 0 0 0 0 0 0 0 0 0.199473505 0"/></filter><path id="e" d="M8 8.04C8 7.47 8.47 7 9.05 7h7.6c4.47 0 6.05.53 7.14 1.6.66.7 1 1.64.95 2.6 0 1.86-1 3.1-3.68 3.66 2.6.46 3.92 1.5 3.92 3.64.04 1-.33 1.97-1.03 2.7-1.07 1.04-2.8 1.8-7.5 1.8h-7.4C8.46 23 8 22.53 8 21.96V8.04zM13.76 14c0-.38.32-.7.7-.7h2.45c1.4 0 2.45-.06 2.94-.56.23-.24.34-.56.32-.9.03-.3-.08-.63-.3-.87-.5-.48-1.53-.56-2.94-.56h-4.54v9.25h4.5c1.53 0 2.67-.1 3.2-.64.24-.24.37-.6.34-.93.03-.35-.1-.7-.34-.96-.54-.52-1.67-.56-3.2-.56H14.5c-.2 0-.38-.07-.52-.2-.13-.14-.2-.32-.2-.5V14z"/><filter id="d" width="120.6%" height="121.9%" x="-10.3%" y="-7.8%" filterUnits="objectBoundingBox"><feOffset dy=".5" in="SourceAlpha" result="shadowOffsetOuter1"/><feGaussianBlur in="shadowOffsetOuter1" result="shadowBlurOuter1" stdDeviation=".5"/><feColorMatrix in="shadowBlurOuter1" values="0 0 0 0 0 0 0 0 0 0 0 0 0 0 0 0 0 0 0.204257246 0"/></filter></defs><g fill="none"><use fill="#000" filter="url(#a)" xlink:href="#b"/><use fill="#FE5D86" xlink:href="#b"/><use fill="url(#c)" style="mix-blend-mode:soft-light" xlink:href="#b"/><circle cx="16" cy="15" r="14.5" stroke="#000" stroke-opacity=".097"/><use fill="#000" filter="url(#d)" xlink:href="#e"/><use fill="#FFF" fill-rule="evenodd" xlink:href="#e"/></g></svg>