<svg xmlns="http://www.w3.org/2000/svg" width="32" height="32" xmlns:xlink="http://www.w3.org/1999/xlink"><defs><linearGradient id="c" x1="50%" x2="50%" y1="0%" y2="100%"><stop offset="0%" stop-color="#FFF" stop-opacity=".5"/><stop offset="100%" stop-opacity=".5"/></linearGradient><circle id="b" cx="16" cy="15" r="15"/><filter id="a" width="111.7%" height="111.7%" x="-5.8%" y="-4.2%" filterUnits="objectBoundingBox"><feOffset dy=".5" in="SourceAlpha" result="shadowOffsetOuter1"/><feGaussianBlur in="shadowOffsetOuter1" result="shadowBlurOuter1" stdDeviation=".5"/><feComposite in="shadowBlurOuter1" in2="SourceAlpha" operator="out" result="shadowBlurOuter1"/><feColorMatrix in="shadowBlurOuter1" values="0 0 0 0 0 0 0 0 0 0 0 0 0 0 0 0 0 0 0.199473505 0"/></filter><path id="e" d="M14.12 19.83l-1.5-.85c-.38.5-1 .85-1.7.85s-1.32-.34-1.7-.85l-.5.27c.05.1.08.2.08.33 0 .5-.4.88-.9.88s-.9-.4-.9-.88.4-.87.9-.87c.3 0 .54.15.7.35l.5-.27c-.18-.3-.27-.62-.27-.98 0-1.1.9-2 2-2.05V14.2c-1.08-.05-1.95-.92-1.95-2 0-.33.1-.65.25-.93l-.5-.3c-.18.23-.44.36-.73.36-.5 0-.9-.4-.9-.87 0-.5.4-.88.9-.88s.9.4.9.88c0 .1-.03.22-.06.32l.5.3c.38-.52 1-.86 1.68-.86.7 0 1.32.35 1.68.88l1.54-.85c-.14-.27-.22-.58-.22-.9 0-1.08.86-1.96 1.94-2.02v-.6c-.44-.04-.78-.4-.78-.85 0-.5.4-.88.9-.88s.9.4.9.88c0 .44-.34.8-.78.86v.6c1.08.05 1.94.93 1.94 2 0 .33-.08.64-.22.9l1.53.87c.36-.52 1-.9 1.7-.9.72 0 1.34.37 1.7.9l.5-.32c-.02-.1-.05-.2-.05-.3 0-.5.4-.9.9-.9s.9.4.9.9c0 .47-.4.86-.9.86-.3 0-.55-.13-.72-.35l-.5.3c.14.28.22.58.22.9 0 1.1-.9 1.98-2.02 2v1.6c1.13 0 2.04.9 2.04 2 0 .35-.08.67-.23.95l.5.3c.16-.2.4-.33.7-.33.5 0 .9.4.9.88 0 .5-.4.88-.9.88s-.9-.4-.9-.88c0-.12.02-.24.07-.35l-.5-.3c-.4.54-1 .9-1.72.9-.7 0-1.32-.35-1.7-.87l-1.53.86c.17.3.27.64.27 1 0 1.08-.87 1.97-1.97 2.06v.38c.42.08.74.43.74.86 0 .5-.4.88-.9.88s-.9-.4-.9-.88c0-.45.36-.83.82-.87v-.37c-1.14-.04-2.05-.95-2.05-2.06 0-.36.1-.7.26-1zm.13-.2c.4-.53 1.02-.88 1.73-.88.7 0 1.34.34 1.72.87l1.54-.87c-.15-.28-.24-.6-.24-.94 0-1.02.8-1.87 1.84-2V14.2c-1.02-.1-1.8-.96-1.8-1.98 0-.32.06-.62.2-.88l-1.54-.86c-.37.54-1 .9-1.72.9s-1.35-.36-1.72-.9l-1.53.84c.14.28.22.58.22.9 0 1.05-.82 1.9-1.87 2v1.56c1.08.08 1.93.96 1.93 2.03 0 .34-.1.67-.24.97l1.5.84zm-3.33-.77c.6 0 1.1-.48 1.1-1.07 0-.6-.5-1.1-1.1-1.1-.6 0-1.1.5-1.1 1.08 0 .58.5 1.06 1.1 1.06zm0-5.6c.6 0 1.06-.47 1.06-1.05 0-.55-.47-1.02-1.06-1.02-.6 0-1.07.47-1.07 1.04 0 .6.48 1.05 1.07 1.05zm5.06-2.86c.6 0 1.08-.47 1.08-1.06 0-.58-.48-1.05-1.08-1.05-.6 0-1.08.45-1.08 1.03 0 .6.48 1.06 1.08 1.06zm5.08 2.83c.6 0 1.07-.46 1.07-1.04 0-.6-.48-1.06-1.07-1.06-.6 0-1.07.47-1.07 1.04 0 .57.46 1.03 1.05 1.03zm0 5.63c.6 0 1.08-.47 1.08-1.05 0-.56-.48-1.04-1.08-1.04-.6 0-1.08.48-1.08 1.06 0 .6.48 1.06 1.08 1.06zm-5.08 3.04c.6 0 1.1-.5 1.1-1.08 0-.6-.5-1.1-1.1-1.1-.6 0-1.1.5-1.1 1.1 0 .6.5 1.08 1.1 1.08zm0-3.98c-1.65 0-3-1.3-3-2.92 0-1.6 1.35-2.92 3-2.92s3 1.3 3 2.92c0 1.6-1.35 2.92-3 2.92zm0-1.78c.65 0 1.17-.5 1.17-1.14 0-.63-.52-1.14-1.17-1.14-.65 0-1.17.5-1.17 1.14 0 .63.54 1.14 1.2 1.14z"/><filter id="d" width="119.4%" height="117.5%" x="-9.7%" y="-6.2%" filterUnits="objectBoundingBox"><feOffset dy=".5" in="SourceAlpha" result="shadowOffsetOuter1"/><feGaussianBlur in="shadowOffsetOuter1" result="shadowBlurOuter1" stdDeviation=".5"/><feColorMatrix in="shadowBlurOuter1" values="0 0 0 0 0 0 0 0 0 0 0 0 0 0 0 0 0 0 0.204257246 0"/></filter></defs><g fill="none"><use fill="#000" filter="url(#a)" xlink:href="#b"/><use fill="#2C76B7" xlink:href="#b"/><use fill="url(#c)" style="mix-blend-mode:soft-light" xlink:href="#b"/><circle cx="16" cy="15" r="14.5" stroke="#000" stroke-opacity=".097"/><use fill="#000" filter="url(#d)" xlink:href="#e"/><use fill="#FFF" fill-rule="evenodd" xlink:href="#e"/></g></svg>