<svg xmlns="http://www.w3.org/2000/svg" width="32" height="32" xmlns:xlink="http://www.w3.org/1999/xlink"><defs><linearGradient id="c" x1="50%" x2="50%" y1="0%" y2="100%"><stop offset="0%" stop-color="#FFF" stop-opacity=".5"/><stop offset="100%" stop-opacity=".5"/></linearGradient><circle id="b" cx="16" cy="15" r="15"/><filter id="a" width="111.7%" height="111.7%" x="-5.8%" y="-4.2%" filterUnits="objectBoundingBox"><feOffset dy=".5" in="SourceAlpha" result="shadowOffsetOuter1"/><feGaussianBlur in="shadowOffsetOuter1" result="shadowBlurOuter1" stdDeviation=".5"/><feComposite in="shadowBlurOuter1" in2="SourceAlpha" operator="out" result="shadowBlurOuter1"/><feColorMatrix in="shadowBlurOuter1" values="0 0 0 0 0 0 0 0 0 0 0 0 0 0 0 0 0 0 0.199473505 0"/></filter><path id="e" d="M16 5l-1.66 3.02c-.2.32-.53.3-.86.1l-1.2-.6.9 4.64c.18.84-.42.84-.72.48l-2.1-2.3-.34 1.17c-.04.17-.2.33-.47.3l-2.65-.55.7 2.47c.14.56.26.8-.16.93l-.94.43 4.56 3.62c.18.13.28.38.2.6l-.4 1.28c1.58-.18 3-.44 4.56-.6.14-.02.37.2.37.36L15.56 25h.77l-.12-4.67c0-.16.2-.4.35-.38 1.57.17 2.98.43 4.55.6l-.4-1.27c-.07-.22.03-.47.2-.6l4.57-3.62-.95-.43c-.42-.14-.3-.37-.16-.92l.7-2.45-2.66.55c-.26.02-.43-.14-.47-.3l-.34-1.15-2.1 2.3c-.3.35-.9.35-.7-.5l.88-4.63-1.2.6c-.32.2-.66.22-.85-.1L16 5z"/><filter id="d" width="118.4%" height="117.5%" x="-9.2%" y="-6.2%" filterUnits="objectBoundingBox"><feOffset dy=".5" in="SourceAlpha" result="shadowOffsetOuter1"/><feGaussianBlur in="shadowOffsetOuter1" result="shadowBlurOuter1" stdDeviation=".5"/><feColorMatrix in="shadowBlurOuter1" values="0 0 0 0 0 0 0 0 0 0 0 0 0 0 0 0 0 0 0.204257246 0"/></filter></defs><g fill="none"><use fill="#000" filter="url(#a)" xlink:href="#b"/><use fill="#F70808" xlink:href="#b"/><use fill="url(#c)" style="mix-blend-mode:soft-light" xlink:href="#b"/><circle cx="16" cy="15" r="14.5" stroke="#000" stroke-opacity=".097"/><use fill="#000" filter="url(#d)" xlink:href="#e"/><use fill="#FFF" fill-rule="evenodd" xlink:href="#e"/></g></svg>