<svg xmlns="http://www.w3.org/2000/svg" width="32" height="32" xmlns:xlink="http://www.w3.org/1999/xlink"><defs><linearGradient id="c" x1="50%" x2="50%" y1="0%" y2="100%"><stop offset="0%" stop-color="#FFF" stop-opacity=".5"/><stop offset="100%" stop-opacity=".5"/></linearGradient><circle id="b" cx="16" cy="15" r="15"/><filter id="a" width="111.7%" height="111.7%" x="-5.8%" y="-4.2%" filterUnits="objectBoundingBox"><feOffset dy=".5" in="SourceAlpha" result="shadowOffsetOuter1"/><feGaussianBlur in="shadowOffsetOuter1" result="shadowBlurOuter1" stdDeviation=".5"/><feComposite in="shadowBlurOuter1" in2="SourceAlpha" operator="out" result="shadowBlurOuter1"/><feColorMatrix in="shadowBlurOuter1" values="0 0 0 0 0 0 0 0 0 0 0 0 0 0 0 0 0 0 0.199473505 0"/></filter><path id="e" d="M27 15.03c0 2.9-1.15 5.7-3.2 7.76-2.03 2.04-4.8 3.2-7.68 3.2v-2.8c3.95 0 7.33-2.87 7.98-6.8h-3.9c.17-.45.25-.93.25-1.4s-.1-.97-.24-1.43h3.9c-.65-3.92-4.03-6.78-7.97-6.78V4c6 .06 10.85 4.97 10.88 11.03zm-7.25 2.36h3.07c-1.14 3.3-4.47 5.3-7.9 4.7C11.5 21.53 9 18.54 9 15.04S11.5 8.57 14.93 8c3.42-.6 6.75 1.4 7.9 4.7h-3.08c-.35-.52-.8-.97-1.32-1.32-2-1.3-4.68-.7-5.97 1.33-1.28 2.04-.7 4.73 1.32 6.03 2 1.3 4.68.7 5.97-1.33z"/><filter id="d" width="119.4%" height="115.9%" x="-9.7%" y="-5.7%" filterUnits="objectBoundingBox"><feOffset dy=".5" in="SourceAlpha" result="shadowOffsetOuter1"/><feGaussianBlur in="shadowOffsetOuter1" result="shadowBlurOuter1" stdDeviation=".5"/><feColorMatrix in="shadowBlurOuter1" values="0 0 0 0 0 0 0 0 0 0 0 0 0 0 0 0 0 0 0.204257246 0"/></filter></defs><g fill="none"><use fill="#000" filter="url(#a)" xlink:href="#b"/><use fill="#272731" fill-rule="evenodd" xlink:href="#b"/><use fill="url(#c)" fill-rule="evenodd" style="mix-blend-mode:soft-light" xlink:href="#b"/><circle cx="16" cy="15" r="14.5" stroke="#000" stroke-opacity=".097"/><use fill="#000" filter="url(#d)" xlink:href="#e"/><use fill="#FFF" fill-rule="evenodd" xlink:href="#e"/></g></svg>