<?xml version="1.0" standalone="no"?>
<!DOCTYPE svg PUBLIC "-//W3C//DTD SVG 20010904//EN"
 "http://www.w3.org/TR/2001/REC-SVG-20010904/DTD/svg10.dtd">
<svg version="1.0" xmlns="http://www.w3.org/2000/svg"
 width="250.000000pt" height="250.000000pt" viewBox="0 0 250.000000 250.000000"
 preserveAspectRatio="xMidYMid meet">
<metadata>
Created by potrace 1.16, written by Peter Selinger 2001-2019
</metadata>
<g transform="translate(0.000000,250.000000) scale(0.100000,-0.100000)"
fill="#000000" stroke="none">
<path d="M1 1968 c1 -293 4 -522 6 -508 59 337 261 648 543 835 144 96 276
152 450 189 59 13 15 14 -467 15 l-533 1 1 -532z"/>
<path d="M1500 2484 c419 -90 753 -366 913 -754 31 -75 67 -196 80 -270 2 -14
5 215 6 508 l1 532 -532 -1 c-483 -1 -527 -2 -468 -15z"/>
<path d="M1390 1961 c0 -48 -1 -50 -32 -56 -55 -12 -125 -53 -152 -88 -49 -64
-52 -158 -7 -230 32 -52 119 -91 261 -117 133 -25 150 -32 150 -65 0 -76 -194
-73 -368 6 -36 16 -66 29 -68 29 -2 0 -4 -42 -4 -93 l0 -93 38 -18 c20 -10 73
-26 117 -35 l79 -17 -3 -47 -3 -47 91 0 91 0 0 48 0 48 56 18 c154 49 217 232
116 339 -43 46 -110 74 -240 101 -166 34 -189 49 -141 92 32 28 182 26 264 -5
107 -39 96 -46 93 60 l-3 94 -77 15 -78 15 0 47 0 48 -90 0 -90 0 0 -49z m158
-16 c-3 -48 3 -55 48 -55 14 0 45 -5 70 -11 l44 -11 0 -69 c0 -38 -4 -69 -8
-69 -5 0 -35 10 -68 21 -85 31 -231 33 -271 3 -35 -26 -36 -61 -3 -85 14 -11
79 -30 145 -44 214 -44 279 -97 272 -222 -2 -51 -8 -69 -33 -100 -32 -41 -123
-93 -161 -93 -21 0 -23 -4 -23 -50 l0 -50 -71 0 -72 0 6 45 c6 41 5 45 -16 49
-104 20 -147 30 -179 43 l-38 15 0 75 c0 68 2 74 18 68 158 -69 289 -90 366
-61 47 18 62 41 52 80 -7 30 -35 41 -179 71 -65 13 -139 34 -163 46 -77 37
-119 128 -94 204 24 73 81 118 175 140 l49 11 -3 47 -3 47 72 0 72 0 -4 -45z"/>
<path d="M941 1689 c-191 -93 -316 -280 -328 -494 -10 -176 43 -312 172 -440
128 -128 240 -176 416 -176 77 -1 111 4 175 26 149 50 278 158 342 288 56 113
59 107 -56 107 l-100 0 -25 -43 c-35 -60 -108 -124 -175 -155 -44 -20 -77 -27
-147 -30 -107 -5 -176 15 -257 74 -54 40 -121 133 -138 193 -52 176 13 359
163 455 l49 31 0 99 c0 54 -2 99 -4 101 -2 2 -41 -14 -87 -36z m79 -74 l0 -74
-55 -37 c-211 -140 -244 -437 -70 -623 90 -96 190 -136 324 -129 137 7 252 70
322 178 l32 50 79 0 c47 0 78 -4 78 -10 0 -30 -68 -138 -125 -199 -109 -115
-248 -175 -410 -175 -156 0 -284 53 -395 164 -227 227 -228 574 -1 801 73 73
191 147 212 133 5 -3 9 -38 9 -79z"/>
<path d="M1 533 l-1 -533 533 1 c482 1 526 2 467 15 -419 90 -753 366 -913
754 -31 75 -67 196 -80 270 -2 14 -5 -215 -6 -507z"/>
<path d="M2490 1039 c0 -38 -41 -183 -77 -269 -95 -229 -259 -429 -463 -565
-144 -96 -276 -152 -450 -189 -59 -13 -15 -14 468 -15 l532 -1 0 530 c0 292
-2 530 -5 530 -3 0 -5 -9 -5 -21z"/>
</g>
</svg>
