<?xml version="1.0" standalone="no"?>
<!DOCTYPE svg PUBLIC "-//W3C//DTD SVG 20010904//EN"
 "http://www.w3.org/TR/2001/REC-SVG-20010904/DTD/svg10.dtd">
<svg version="1.0" xmlns="http://www.w3.org/2000/svg"
 width="250.000000pt" height="250.000000pt" viewBox="0 0 250.000000 250.000000"
 preserveAspectRatio="xMidYMid meet">

<g transform="translate(0.000000,250.000000) scale(0.100000,-0.100000)"
fill="#000000" stroke="none">
<path d="M1065 2486 c-203 -36 -377 -106 -533 -216 -349 -246 -550 -657 -529
-1081 16 -325 153 -621 392 -848 163 -154 331 -245 567 -308 94 -25 119 -27
283 -28 164 0 190 2 291 28 220 55 403 151 555 293 194 179 307 371 376 634
25 96 27 121 27 290 0 170 -2 193 -27 290 -128 486 -490 834 -972 935 -108 23
-328 28 -430 11z m211 -677 c126 -73 234 -137 241 -143 9 -8 13 -87 14 -291
l1 -280 -93 -57 c-52 -32 -99 -58 -106 -58 -6 0 -39 17 -74 37 -71 43 -75 34
55 116 l76 48 0 192 0 193 -52 30 c-29 17 -106 61 -170 99 l-117 67 -78 -44
c-43 -25 -112 -64 -153 -88 -121 -70 -111 -45 -108 -263 l3 -190 83 -52 c114
-71 113 -68 56 -104 -78 -49 -82 -49 -188 14 l-96 56 2 286 3 285 90 53 c50
28 155 91 235 138 80 47 146 86 146 86 1 1 105 -58 230 -130z m-37 -325 c34
-20 61 -39 61 -43 0 -3 -43 -32 -95 -64 l-95 -59 0 -192 0 -193 165 -96 c91
-54 170 -97 177 -97 6 0 52 24 102 54 50 29 124 73 164 96 l72 43 0 193 0 192
-97 62 c-109 70 -109 65 -7 119 42 23 47 23 72 9 15 -8 59 -34 98 -56 l72 -42
4 -277 c4 -244 3 -280 -11 -295 -9 -9 -118 -75 -243 -147 l-226 -131 -59 33
c-204 117 -400 231 -410 239 -10 8 -13 79 -13 292 l0 282 97 57 c54 31 101 57
105 57 3 0 34 -16 67 -36z"/>
</g>
</svg>
