<svg xmlns="http://www.w3.org/2000/svg" width="32" height="32" xmlns:xlink="http://www.w3.org/1999/xlink"><defs><linearGradient id="c" x1="50%" x2="50%" y1="0%" y2="100%"><stop offset="0%" stop-color="#FFF" stop-opacity=".5"/><stop offset="100%" stop-opacity=".5"/></linearGradient><circle id="b" cx="16" cy="15" r="15"/><filter id="a" width="111.7%" height="111.7%" x="-5.8%" y="-4.2%" filterUnits="objectBoundingBox"><feOffset dy=".5" in="SourceAlpha" result="shadowOffsetOuter1"/><feGaussianBlur in="shadowOffsetOuter1" result="shadowBlurOuter1" stdDeviation=".5"/><feComposite in="shadowBlurOuter1" in2="SourceAlpha" operator="out" result="shadowBlurOuter1"/><feColorMatrix in="shadowBlurOuter1" values="0 0 0 0 0 0 0 0 0 0 0 0 0 0 0 0 0 0 0.199473505 0"/></filter><path id="e" d="M16.28 22.33c.72-.06 1.42-.17 2.08-.34.52.14 1.08.22 1.66.22.32 0 .64-.02.95-.07.03 0 .06 0 .1 0 .3 0 .72.17 1.3.55v-.62c0-.22.13-.42.32-.53.24-.15.5-.3.7-.5.86-.73 1.35-1.7 1.35-2.74 0-.33-.06-.66-.16-1 .25-.47.46-1 .62-1.52.5.75.77 1.6.77 2.54 0 1.4-.66 2.73-1.8 3.68-.18.16-.38.3-.6.44v1.47c0 .5-.57.8-1 .5-.5-.37-.9-.65-1.2-.8-.12-.1-.23-.16-.35-.2-.34.04-.68.07-1.04.07-1.4 0-2.7-.42-3.73-1.13zM8.8 19.4C7.04 17.9 6 15.83 6 13.62c0-4.5 4.26-8.12 9.46-8.12 5.2 0 9.45 3.6 9.45 8.12 0 4.5-4.23 8.12-9.43 8.12-.6 0-1.16-.04-1.73-.13-.25.07-1.23.66-2.64 1.7-.52.36-1.24 0-1.24-.63v-2.5c-.37-.23-.72-.48-1.05-.76zm4.96.67c.05 0 .1 0 .13 0 .5.1 1.02.14 1.55.14 4.4 0 7.9-2.96 7.9-6.57 0-3.6-3.5-6.6-7.9-6.6s-7.9 3-7.9 6.6c0 1.75.8 3.4 2.26 4.62.38.3.78.6 1.2.83.25.14.4.4.4.67v1.43c1.1-.75 1.85-1.1 2.35-1.1zm-2.33-4.92c-.7 0-1.24-.55-1.24-1.22 0-.68.53-1.23 1.22-1.23.68 0 1.24.55 1.24 1.23 0 .67-.56 1.22-1.24 1.22zm4.03 0c-.7 0-1.24-.55-1.24-1.22 0-.68.55-1.23 1.24-1.23.68 0 1.24.55 1.24 1.23 0 .67-.56 1.22-1.24 1.22zm4.03 0c-.7 0-1.26-.55-1.26-1.22 0-.68.55-1.23 1.24-1.23.67 0 1.23.55 1.23 1.23 0 .67-.55 1.22-1.23 1.22z"/><filter id="d" width="117.5%" height="118.4%" x="-8.8%" y="-6.6%" filterUnits="objectBoundingBox"><feOffset dy=".5" in="SourceAlpha" result="shadowOffsetOuter1"/><feGaussianBlur in="shadowOffsetOuter1" result="shadowBlurOuter1" stdDeviation=".5"/><feColorMatrix in="shadowBlurOuter1" values="0 0 0 0 0 0 0 0 0 0 0 0 0 0 0 0 0 0 0.204257246 0"/></filter></defs><g fill="none"><use fill="#000" filter="url(#a)" xlink:href="#b"/><use fill="#1C98F7" xlink:href="#b"/><use fill="url(#c)" style="mix-blend-mode:soft-light" xlink:href="#b"/><circle cx="16" cy="15" r="14.5" stroke="#000" stroke-opacity=".097"/><use fill="#000" filter="url(#d)" xlink:href="#e"/><use fill="#FFF" xlink:href="#e"/></g></svg>