<?xml version="1.0" standalone="no"?>
<!DOCTYPE svg PUBLIC "-//W3C//DTD SVG 20010904//EN"
 "http://www.w3.org/TR/2001/REC-SVG-20010904/DTD/svg10.dtd">
<svg version="1.0" xmlns="http://www.w3.org/2000/svg"
 width="250.000000pt" height="250.000000pt" viewBox="0 0 250.000000 250.000000"
 preserveAspectRatio="xMidYMid meet">
<metadata>
Created by potrace 1.16, written by Peter Selinger 2001-2019
</metadata>
<g transform="translate(0.000000,250.000000) scale(0.100000,-0.100000)"
fill="#000000" stroke="none">
<path d="M1150 2316 c0 -2 8 -10 18 -17 15 -13 16 -12 3 4 -13 16 -21 21 -21
13z"/>
<path d="M1137 2289 c7 -7 15 -10 18 -7 3 3 -2 9 -12 12 -14 6 -15 5 -6 -5z"/>
<path d="M1186 2282 c-3 -5 1 -9 9 -9 8 0 12 4 9 9 -3 4 -7 8 -9 8 -2 0 -6 -4
-9 -8z"/>
<path d="M1410 2096 c0 -2 8 -10 18 -17 15 -13 16 -12 3 4 -13 16 -21 21 -21
13z"/>
<path d="M1470 2036 c0 -2 8 -10 18 -17 15 -13 16 -12 3 4 -13 16 -21 21 -21
13z"/>
<path d="M1520 1986 c0 -2 8 -10 18 -17 15 -13 16 -12 3 4 -13 16 -21 21 -21
13z"/>
<path d="M1646 1792 c-3 -5 1 -9 9 -9 8 0 12 4 9 9 -3 4 -7 8 -9 8 -2 0 -6 -4
-9 -8z"/>
<path d="M1694 1245 c-72 -245 -130 -445 -128 -445 8 0 356 98 359 101 2 2 9
57 16 122 15 132 4 271 -31 423 -23 100 -70 244 -79 244 -3 0 -65 -200 -137
-445z"/>
<path d="M450 1356 c0 -2 8 -10 18 -17 15 -13 16 -12 3 4 -13 16 -21 21 -21
13z"/>
<path d="M680 1021 c0 -6 4 -13 10 -16 6 -3 7 1 4 9 -7 18 -14 21 -14 7z"/>
<path d="M1779 811 c-113 -32 -212 -60 -221 -63 -8 -4 -20 -24 -25 -46 -8 -33
-5 -62 24 -180 19 -78 39 -142 44 -142 22 0 171 134 232 210 59 73 177 256
177 274 0 10 -18 6 -231 -53z"/>
<path d="M800 841 c5 -11 15 -23 21 -27 6 -3 3 5 -6 20 -20 30 -30 35 -15 7z"/>
<path d="M1243 663 c-112 -31 -203 -60 -203 -65 0 -5 49 -82 109 -172 l109
-163 47 7 c25 4 49 11 54 16 4 5 31 90 60 189 50 169 59 235 36 241 -5 1 -101
-23 -212 -53z"/>
<path d="M910 681 c0 -6 4 -13 10 -16 6 -3 7 1 4 9 -7 18 -14 21 -14 7z"/>
<path d="M850 555 c-63 -18 -123 -36 -134 -38 -15 -5 -8 -15 42 -59 108 -96
238 -160 367 -183 38 -7 72 -11 73 -9 7 5 -213 324 -223 323 -5 -1 -62 -16
-125 -34z"/>
<path d="M680 570 c-9 -6 -10 -10 -3 -10 6 0 15 5 18 10 8 12 4 12 -15 0z"/>
<path d="M1453 433 c-23 -76 -41 -139 -40 -140 2 -2 130 48 136 53 3 3 -49
224 -53 224 -1 0 -20 -62 -43 -137z"/>
</g>
</svg>
