<svg xmlns="http://www.w3.org/2000/svg" width="32" height="32" xmlns:xlink="http://www.w3.org/1999/xlink"><defs><linearGradient id="c" x1="50%" x2="50%" y1="0%" y2="100%"><stop offset="0%" stop-color="#FFF" stop-opacity=".5"/><stop offset="100%" stop-opacity=".5"/></linearGradient><circle id="b" cx="16" cy="15" r="15"/><filter id="a" width="111.7%" height="111.7%" x="-5.8%" y="-4.2%" filterUnits="objectBoundingBox"><feOffset dy=".5" in="SourceAlpha" result="shadowOffsetOuter1"/><feGaussianBlur in="shadowOffsetOuter1" result="shadowBlurOuter1" stdDeviation=".5"/><feComposite in="shadowBlurOuter1" in2="SourceAlpha" operator="out" result="shadowBlurOuter1"/><feColorMatrix in="shadowBlurOuter1" values="0 0 0 0 0 0 0 0 0 0 0 0 0 0 0 0 0 0 0.199473505 0"/></filter><path id="e" d="M16.28 25c-2.32 0-4.4-.72-6.25-2.08-.5-.36-.5-.57-.1-1.02.02 0 .03-.03.05-.04.5-.56.5-.55 1.12-.12 1.43 1.04 3.03 1.6 4.82 1.65 1.84.04 3.54-.4 5.07-1.4 1.82-1.17 3.1-2.82 3.6-4.93.66-2.65.17-5.1-1.56-7.26-1.22-1.5-2.8-2.47-4.7-2.93-1.7-.4-3.4-.3-5.03.25-.86.3-1.67.74-2.4 1.3-.35.3-.5.3-.8-.06-.14-.16-.3-.32-.4-.5-.2-.26-.17-.42.1-.62 1.2-.97 2.6-1.62 4.1-1.98 1.37-.32 2.76-.36 4.14-.1 1.87.33 3.53 1.1 4.96 2.34 1.07.93 1.92 2 2.5 3.27.83 1.74 1.17 3.56.92 5.48-.23 1.78-.9 3.37-2 4.8-1.1 1.44-2.5 2.5-4.2 3.18-1.27.5-2.58.78-3.94.77zm-.64-6.38c-.07.1-.1.18-.16.23-.34.36-.75.57-1.25.6-.34 0-.7-.03-1.03-.02-.13 0-.28.03-.4.1-1.58 1-3.3 1.14-5.1.75-.6-.12-1.13-.35-1.58-.74-.35-.3-.6-.64-.62-1.13-.05-.82.58-1.4 1.23-1.6 1.2-.34 2.32-.13 3.4.4.5.24.97.55 1.44.83.28.16.36.15.5-.12.6-1.25.2-2.63-1.3-3.15-1.3-.45-2.6-.4-3.87.18-.18.1-.4.25-.6.08-.23-.2-.08-.4-.02-.6.4-1.4.84-2.8 1.27-4.2.1-.3.33-.46.7-.44.52.03 1.04.1 1.57.12.8.02 1.58.03 2.37 0 .57-.04 1.1-.3 1.54-.67.05-.04.16-.1.2-.07.05.04.08.14.1.2.03.62-.23 1.08-.7 1.45-.6.43-1.24.63-1.95.64-.74.03-1.48.04-2.2.04-.18 0-.27.07-.3.22-.08.26-.15.52-.2.78-.08.2 0 .27.2.26.45 0 .92-.04 1.4-.04 1.1 0 2.04.38 2.86 1.1.78.7 1.1 1.58 1.14 2.57.04.8-.1 1.56-.54 2.24-.12.2-.07.26.13.3.5.15 1 .05 1.5-.2.02-.04.06-.06.1-.08 0 0 .03 0 .13.02zm-4.57.22c0-.03 0-.06 0-.1-.08-.04-.14-.1-.22-.12-.53-.23-1.05-.5-1.6-.7-.55-.2-1.13-.34-1.73-.2-.27.07-.54.13-.62.45-.1.34.12.56.37.74.07.08.17.13.26.16.93.36 1.88.37 2.83.1.25-.08.48-.2.7-.3z"/><filter id="d" width="116.7%" height="117.5%" x="-8.3%" y="-6.2%" filterUnits="objectBoundingBox"><feOffset dy=".5" in="SourceAlpha" result="shadowOffsetOuter1"/><feGaussianBlur in="shadowOffsetOuter1" result="shadowBlurOuter1" stdDeviation=".5"/><feColorMatrix in="shadowBlurOuter1" values="0 0 0 0 0 0 0 0 0 0 0 0 0 0 0 0 0 0 0.204257246 0"/></filter></defs><g fill="none"><use fill="#000" filter="url(#a)" xlink:href="#b"/><use fill="#C1A05C" xlink:href="#b"/><use fill="url(#c)" style="mix-blend-mode:soft-light" xlink:href="#b"/><circle cx="16" cy="15" r="14.5" stroke="#000" stroke-opacity=".097"/><use fill="#000" filter="url(#d)" xlink:href="#e"/><use fill="#FFF" xlink:href="#e"/></g></svg>