<?xml version="1.0" standalone="no"?>
<!DOCTYPE svg PUBLIC "-//W3C//DTD SVG 20010904//EN"
 "http://www.w3.org/TR/2001/REC-SVG-20010904/DTD/svg10.dtd">
<svg version="1.0" xmlns="http://www.w3.org/2000/svg"
 width="250.000000pt" height="250.000000pt" viewBox="0 0 250.000000 250.000000"
 preserveAspectRatio="xMidYMid meet">
<metadata>
Created by potrace 1.16, written by Peter Selinger 2001-2019
</metadata>
<g transform="translate(0.000000,250.000000) scale(0.100000,-0.100000)"
fill="#000000" stroke="none">
<path d="M0 1250 l0 -1250 1250 0 1250 0 0 1225 0 1225 -507 3 -508 2 508 3
c500 2 507 2 507 22 0 20 -7 20 -1250 20 l-1250 0 0 -1250z m1226 1200 c59 0
74 3 74 15 0 8 9 15 20 15 11 0 20 -6 20 -13 0 -8 20 -18 48 -24 40 -9 24 -10
-110 -12 -100 0 -158 3 -158 9 0 6 5 10 10 10 6 0 11 8 11 18 1 16 2 16 6 0 4
-15 16 -18 79 -18z m819 -227 c46 -22 48 -48 3 -39 -18 4 -41 8 -50 9 -19 1
-25 17 -8 17 6 0 10 7 10 15 0 19 2 19 45 -2z m103 -110 c-10 -2 -26 -2 -35 0
-10 3 -2 5 17 5 19 0 27 -2 18 -5z m122 -198 c9 -10 9 -22 2 -42 -6 -16 -11
-21 -11 -11 -1 9 -5 18 -10 20 -4 2 -12 13 -15 26 -9 26 14 31 34 7z m46 -67
c4 -7 3 -8 -4 -4 -7 4 -12 0 -12 -10 0 -10 -3 -15 -6 -11 -7 6 2 37 10 37 3 0
8 -5 12 -12z m-558 -32 l37 -34 3 -104 c5 -149 14 -143 -200 -145 l-173 -2 -5
-481 c-4 -413 -7 -482 -20 -490 -8 -5 -70 -10 -138 -10 -138 0 -170 10 -202
63 -19 30 -20 53 -20 475 l0 442 -159 0 c-88 0 -171 4 -185 10 l-26 10 0 138
c0 94 4 142 12 150 9 9 139 12 525 12 l513 0 38 -34z m719 -302 c-3 -3 -12 -4
-19 -1 -8 3 -5 6 6 6 11 1 17 -2 13 -5z m-40 -476 c-2 -18 -4 -6 -4 27 0 33 2
48 4 33 2 -15 2 -42 0 -60z"/>
</g>
</svg>
