<?xml version="1.0" standalone="yes"?>
<svg xmlns="http://www.w3.org/2000/svg" width="250" height="250">
<path style="fill:#010101; stroke:none;" d="M0 0L0 250L250 250L250 248L102 248L102 240L92 240L92 233L77 232L77 224L58 224L58 216L47 216L47 208L32 208L32 200L12 200L12 87C12 75.9769 6.68251 52.3705 22 52C24.2487 47.5414 27.2487 47.0561 32 47L42 37C46.0292 36.7287 48.6613 36.0119 50 32L57 32C59.2487 27.5415 62.2487 27.0561 67 27L77 17L85 16L85 12L92 12C94.2487 7.54144 97.2487 7.05611 102 7C103.566 1.83981 107.44 2.36421 112 1L78 0L0 0z"/>
<path style="fill:#112457; stroke:none;" d="M102 7C97.2171 7.01688 93.5475 6.90245 92 12L85 12L85 16L77 17L67 27C62.2171 27.0169 58.5475 26.9025 57 32L50 32L42 37L32 47C27.2171 47.0169 23.5475 46.9025 22 52C6.4598 52.1407 12 75.5895 12 87L12 200L32 200L32 208L47 208L47 216L58 216L58 224L77 224L77 232L92 233L92 240L102 240L102 248L169 248L169 231L158 231L158 230C163.269 229.407 169.829 230.379 168 223L250 223L250 211L204 211L204 210L250 210L250 35C232.299 35 211.232 31.8974 194 36L211 34L250 34L250 16L159 16L159 13L250 13L250 0L137 0C129.029 0 103.736 -3.39999 102 7z"/>
<path style="fill:#111354; stroke:none;" d="M159 13L159 16L250 16L250 13L159 13M194 36L250 35C239.02 30.3926 219.944 34 208 34C203.759 34 196.97 32.6014 194 36M85 73L83 85L79 82L79 161L82 161L82 119C82 113.271 80.6603 105.545 82.564 100.09C84.8334 93.5863 90.9333 92.0214 97 92C98.3852 87.4234 101.527 86.6187 106 86L106 82L112 82L112 81L87 80L85 73z"/>
<path style="fill:#182a4f; stroke:none;" d="M160 74L160 79L161 79L160 74z"/>
<path style="fill:#111354; stroke:none;" d="M138 83L138 86L162 86C157.912 80.3316 144.453 83 138 83z"/>
<path style="fill:#151460; stroke:none;" d="M161 85C163.899 86.0203 165.308 86.2276 166 83L161 85z"/>
<path style="fill:#182a4f; stroke:none;" d="M166 86L166 97L167 97L166 86z"/>
<path style="fill:#111354; stroke:none;" d="M74 95L74 152L76 152L76 95L74 95z"/>
<path style="fill:#182a4f; stroke:none;" d="M174 98C170.336 109.586 172 122.979 172 135C172 137.789 170.746 145.048 173.545 146.824C177.142 149.107 176.824 140.528 177 139C183.853 141.405 188.303 131.753 187 126C194.083 125.433 190.842 119.05 188 122L187 122L184 112L183 115L182 115C181.953 111.065 182.046 108.343 178 107L178 136L177 136L176 98L174 98z"/>
<path style="fill:#111354; stroke:none;" d="M70 99L70 109C62.4009 107.822 63.0004 112.762 63 119C62.9993 130.12 68.3226 136.641 70 147C75.6115 139.593 72 120.192 72 111C72 106.753 72.6407 102.486 70 99z"/>
<path style="fill:#151460; stroke:none;" d="M60 122L60 125L61 125L60 122M59 127L62 129L59 127M63.3333 131.667L63.6667 132.333L63.3333 131.667M64 134L63 137L67 138L64 134z"/>
<path style="fill:#111354; stroke:none;" d="M74.6667 153.333L75.3333 153.667L74.6667 153.333z"/>
<path style="fill:#182a4f; stroke:none;" d="M105 159L105 162L107 159L105 159z"/>
<path style="fill:#111354; stroke:none;" d="M139 159L139 160L142 160L139 159M151 159L151 160L160 160L151 159z"/>
<path style="fill:#182a4f; stroke:none;" d="M78 161L79 162L78 161M79 162L79 163L82 163L79 162M160 163L160 165L162 165L162 163L160 163M160 167L158 171L158 172L162 167L160 167z"/>
<path style="fill:#151460; stroke:none;" d="M204 204L204 205L208 205L204 204M204 210L204 211L250 211C238.051 205.986 216.828 209.449 204 210M195 210L196 211L195 210z"/>
<path style="fill:#111354; stroke:none;" d="M168 223C168.432 230.357 163.491 228.792 158 230L158 231L169 231L169 248L250 248L250 223L168 223z"/>
</svg>
