<svg xmlns="http://www.w3.org/2000/svg" width="32" height="32" xmlns:xlink="http://www.w3.org/1999/xlink"><defs><linearGradient id="c" x1="50%" x2="50%" y1="0%" y2="100%"><stop offset="0%" stop-color="#FFF" stop-opacity=".5"/><stop offset="100%" stop-opacity=".5"/></linearGradient><circle id="b" cx="16" cy="15" r="15"/><filter id="a" width="111.7%" height="111.7%" x="-5.8%" y="-4.2%" filterUnits="objectBoundingBox"><feOffset dy=".5" in="SourceAlpha" result="shadowOffsetOuter1"/><feGaussianBlur in="shadowOffsetOuter1" result="shadowBlurOuter1" stdDeviation=".5"/><feComposite in="shadowBlurOuter1" in2="SourceAlpha" operator="out" result="shadowBlurOuter1"/><feColorMatrix in="shadowBlurOuter1" values="0 0 0 0 0 0 0 0 0 0 0 0 0 0 0 0 0 0 0.199473505 0"/></filter><path id="e" d="M24.83 14.35c-.2.04-.34.07-.47.1-.85.22-1.7.4-2.58.37-1.17-.05-2.18-.52-3.07-1.28-.34-.3-.7-.65-1.02-.98-.17-.16-.2-.34-.08-.55.1-.14.2-.3.3-.5.18.18.32.33.45.48.64.7 1.3 1.34 2.2 1.68.88.34 1.78.3 2.67.14 1.27-.23 2.44-.73 3.6-1.3.03-.02.07-.03.18-.08-.08.14-.12.23-.17.3-1.67 2.83-3.35 5.65-5.03 8.46-.2.35-.28.38-.64.2-2.36-1.16-4.84-1.38-7.4-.94-.4.07-.47.03-.66-.38-.2-.45-.2-.43.26-.53 1.33-.25 2.67-.3 4-.16 1.26.14 2.5.33 3.65.9.18.1.27.03.35-.1.73-1.22 1.45-2.44 2.18-3.65.4-.65.8-1.3 1.2-1.94.02-.05.05-.1.1-.23zm-17.65.12c.17.28.34.56.5.84 1.13 1.88 2.25 3.74 3.37 5.6.16.27.16.28-.12.4-.6.28-.52.35-.9-.26-1.28-2.16-2.56-4.33-3.85-6.5-.35-.58-.7-1.17-1.05-1.75-.05-.1-.1-.18-.13-.27 0-.02.03-.04.04-.05.15.06.3.12.44.2.88.4 1.77.8 2.72 1.02 1.2.3 2.4.33 3.57-.25.72-.36 1.3-.9 1.85-1.5.85-.96 1.55-2.04 2.18-3.18.04-.07.08-.14.15-.27.08.12.14.22.2.3.37.45.28.85-.03 1.32-.7 1.05-1.4 2.08-2.3 2.93-.84.76-1.77 1.33-2.85 1.6-.86.2-1.72.15-2.57 0-.4-.08-.8-.16-1.18-.24 0 .04-.03.06-.04.08z"/><filter id="d" width="115.9%" height="126.9%" x="-8%" y="-9.6%" filterUnits="objectBoundingBox"><feOffset dy=".5" in="SourceAlpha" result="shadowOffsetOuter1"/><feGaussianBlur in="shadowOffsetOuter1" result="shadowBlurOuter1" stdDeviation=".5"/><feColorMatrix in="shadowBlurOuter1" values="0 0 0 0 0 0 0 0 0 0 0 0 0 0 0 0 0 0 0.204257246 0"/></filter></defs><g fill="none"><use fill="#000" filter="url(#a)" xlink:href="#b"/><use fill="#0F1529" xlink:href="#b"/><use fill="url(#c)" style="mix-blend-mode:soft-light" xlink:href="#b"/><circle cx="16" cy="15" r="14.5" stroke="#000" stroke-opacity=".097"/><use fill="#000" filter="url(#d)" xlink:href="#e"/><use fill="#FFF" xlink:href="#e"/></g></svg>