<svg xmlns="http://www.w3.org/2000/svg" width="32" height="32" xmlns:xlink="http://www.w3.org/1999/xlink"><defs><linearGradient id="c" x1="50%" x2="50%" y1="0%" y2="100%"><stop offset="0%" stop-color="#FFF" stop-opacity=".5"/><stop offset="100%" stop-opacity=".5"/></linearGradient><circle id="b" cx="16" cy="15" r="15"/><filter id="a" width="111.7%" height="111.7%" x="-5.8%" y="-4.2%" filterUnits="objectBoundingBox"><feOffset dy=".5" in="SourceAlpha" result="shadowOffsetOuter1"/><feGaussianBlur in="shadowOffsetOuter1" result="shadowBlurOuter1" stdDeviation=".5"/><feComposite in="shadowBlurOuter1" in2="SourceAlpha" operator="out" result="shadowBlurOuter1"/><feColorMatrix in="shadowBlurOuter1" values="0 0 0 0 0 0 0 0 0 0 0 0 0 0 0 0 0 0 0.199473505 0"/></filter><filter id="d" width="115.9%" height="115.9%" x="-8%" y="-5.7%" filterUnits="objectBoundingBox"><feOffset dy=".5" in="SourceAlpha" result="shadowOffsetOuter1"/><feGaussianBlur in="shadowOffsetOuter1" result="shadowBlurOuter1" stdDeviation=".5"/><feColorMatrix in="shadowBlurOuter1" result="shadowMatrixOuter1" values="0 0 0 0 0 0 0 0 0 0 0 0 0 0 0 0 0 0 0.204257246 0"/><feMerge><feMergeNode in="shadowMatrixOuter1"/><feMergeNode in="SourceGraphic"/></feMerge></filter></defs><g fill="none"><use fill="#000" filter="url(#a)" xlink:href="#b"/><use fill="#4C6BAE" xlink:href="#b"/><use fill="url(#c)" style="mix-blend-mode:soft-light" xlink:href="#b"/><circle cx="16" cy="15" r="14.5" stroke="#000" stroke-opacity=".097"/><g fill="#FFF" filter="url(#d)" transform="translate(5 4)"><path d="M1.38 12L0 12.16C.74 10.1 2.2 8.44 4.4 7.2c.2 1.7 1 3.12 2.43 4.24l-1.3.14c.26 2.46 2.14 4.44 4.55 4.84-.87.66-1.86 1.05-2.98 1.2.68 1.2 1.48 2.17 2.4 2.94-4.3-.66-7.65-4.18-8.1-8.56zm19.24-2L22 9.84c-.74 2.07-2.2 3.72-4.4 4.96-.2-1.7-1-3.12-2.43-4.24l1.3-.14c-.26-2.5-2.18-4.48-4.63-4.86.87-.64 1.86-1.03 2.97-1.17-.66-1.23-1.47-2.2-2.4-2.98 4.35.62 7.77 4.15 8.23 8.56z" opacity=".5"/><path d="M11.92 20.63l.14 1.37c-2.07-.74-3.72-2.2-4.96-4.4 1.7-.2 3.13-1 4.25-2.43l.14 1.3c2.5-.22 4.54-2.15 4.93-4.63.64.87 1.03 1.86 1.17 2.97 1.22-.66 2.2-1.47 2.97-2.4-.62 4.4-4.2 7.82-8.65 8.24zM10 1.38L9.84 0c2.07.74 3.72 2.2 4.96 4.4-1.7.2-3.12 1-4.24 2.43l-.14-1.3c-2.5.26-4.48 2.18-4.86 4.63C4.92 9.3 4.53 8.3 4.4 7.2c-1.22.67-2.2 1.48-2.97 2.42.62-4.36 4.15-7.78 8.56-8.24z"/></g></g></svg>