<svg xmlns="http://www.w3.org/2000/svg" width="32" height="32" xmlns:xlink="http://www.w3.org/1999/xlink"><defs><linearGradient id="c" x1="50%" x2="50%" y1="0%" y2="100%"><stop offset="0%" stop-color="#FFF" stop-opacity=".5"/><stop offset="100%" stop-opacity=".5"/></linearGradient><circle id="b" cx="16" cy="15" r="15"/><filter id="a" width="111.7%" height="111.7%" x="-5.8%" y="-4.2%" filterUnits="objectBoundingBox"><feOffset dy=".5" in="SourceAlpha" result="shadowOffsetOuter1"/><feGaussianBlur in="shadowOffsetOuter1" result="shadowBlurOuter1" stdDeviation=".5"/><feComposite in="shadowBlurOuter1" in2="SourceAlpha" operator="out" result="shadowBlurOuter1"/><feColorMatrix in="shadowBlurOuter1" values="0 0 0 0 0 0 0 0 0 0 0 0 0 0 0 0 0 0 0.199473505 0"/></filter><path id="e" d="M16.93 8.63c2.45.18 3.64 1.64 3.64 1.9 0 .2-.04.6-.04.85 0 .17.06.43.18.8 0 .25-.2.38-.5.38-.43 0-.3-.5-.97-1.5-.72-1.1-1.45-1.3-2.3-1.36.02 2.3.1 8.62.1 10.8 2.25-.34 3.5-2.02 3.82-2.02.18 0 .4.14.4.47 0 .7-1.77 2.27-4.26 2.58-.2 2.03-1.16 4.47-3.54 4.47-1.13 0-2.07-.87-2.07-1.88 0-.66.5-.94.93-.94.45 0 .9.33.9.94 0 .4-.13.7-.4.85.27.18.54.28.8.28.9 0 1.6-1.63 1.7-3.73-2.62-.42-5.07-2.93-5.07-6.57 0-4.1 2.55-5.86 5.05-6.25.06-1.85 1-4.65 3.48-4.7 1.5 0 2.12 1.22 2.12 1.88 0 .66-.48.94-.96.94-.47 0-.94-.38-.94-.94 0-.38.15-.64.45-.8-.2-.2-.48-.28-.8-.28-1.27 0-1.66 2.64-1.72 3.83zm-1.6 11.78c0-2.4-.02-8.02-.03-10.6-2.3.57-3.07 3.3-3.07 5.16 0 2.93 1.4 4.94 3.1 5.46z"/><filter id="d" width="131.8%" height="115.9%" x="-15.9%" y="-5.7%" filterUnits="objectBoundingBox"><feOffset dy=".5" in="SourceAlpha" result="shadowOffsetOuter1"/><feGaussianBlur in="shadowOffsetOuter1" result="shadowBlurOuter1" stdDeviation=".5"/><feColorMatrix in="shadowBlurOuter1" values="0 0 0 0 0 0 0 0 0 0 0 0 0 0 0 0 0 0 0.204257246 0"/></filter></defs><g fill="none"><use fill="#000" filter="url(#a)" xlink:href="#b"/><use fill="#262626" xlink:href="#b"/><use fill="url(#c)" style="mix-blend-mode:soft-light" xlink:href="#b"/><circle cx="16" cy="15" r="14.5" stroke="#000" stroke-opacity=".097"/><use fill="#000" filter="url(#d)" xlink:href="#e"/><use fill="#FFF" xlink:href="#e"/></g></svg>