<?xml version="1.0" standalone="no"?>
<!DOCTYPE svg PUBLIC "-//W3C//DTD SVG 20010904//EN"
 "http://www.w3.org/TR/2001/REC-SVG-20010904/DTD/svg10.dtd">
<svg version="1.0" xmlns="http://www.w3.org/2000/svg"
 width="250.000000pt" height="250.000000pt" viewBox="0 0 250.000000 250.000000"
 preserveAspectRatio="xMidYMid meet">
<metadata>
Created by potrace 1.16, written by Peter Selinger 2001-2019
</metadata>
<g transform="translate(0.000000,250.000000) scale(0.100000,-0.100000)"
fill="#000000" stroke="none">
<path d="M1800 2330 c-36 -3 -70 -8 -77 -13 -6 -4 -37 -10 -69 -13 -82 -9
-165 -69 -152 -110 1 -5 -20 -32 -48 -59 -42 -42 -55 -64 -72 -122 -20 -65
-22 -93 -22 -336 0 -165 4 -276 11 -294 10 -27 11 -27 25 -9 8 11 11 28 8 38
-3 11 -7 118 -9 238 -2 123 -8 228 -14 238 -8 15 -4 39 16 98 34 102 48 122
130 176 87 58 99 64 151 73 39 6 42 5 42 -17 0 -25 38 -94 47 -85 3 3 -4 21
-16 40 -28 46 -27 67 4 67 20 0 26 -7 36 -40 7 -22 18 -45 26 -52 11 -9 12 -7
6 8 -4 10 -13 30 -20 44 -19 37 -16 50 12 50 20 0 25 -5 25 -24 0 -13 9 -34
20 -47 24 -29 25 -23 4 26 -18 43 -14 49 43 62 33 8 59 7 118 -7 42 -10 82
-23 88 -29 6 -6 19 -11 28 -11 10 0 25 -10 33 -22 25 -35 30 -12 6 26 -13 21
-33 39 -48 42 -15 4 -40 14 -57 22 -16 9 -55 19 -85 24 -30 5 -67 10 -83 13
-15 2 -31 6 -35 7 -4 2 -36 1 -72 -2z"/>
<path d="M425 2310 c-84 -10 -176 -38 -201 -61 -11 -10 -23 -19 -27 -19 -4 0
-31 -24 -61 -54 -40 -39 -49 -52 -33 -49 12 3 31 13 42 23 11 9 35 25 53 36
17 10 32 22 32 26 0 13 94 49 140 54 96 11 160 10 155 -3 -5 -16 7 -17 22 -2
8 8 21 6 47 -6 26 -13 48 -15 85 -10 37 5 57 2 82 -11 19 -10 48 -19 64 -20
52 -5 109 -15 130 -24 42 -18 52 -17 63 1 10 16 8 24 -16 49 -25 28 -33 30
-117 36 -49 3 -104 10 -122 15 -17 6 -47 7 -67 4 -21 -4 -56 -1 -89 9 -58 17
-84 18 -182 6z"/>
<path d="M1788 2097 c-57 -17 -148 -71 -190 -114 l-31 -32 -29 20 c-15 11 -40
41 -55 66 -15 26 -29 41 -31 35 -6 -18 44 -97 74 -119 23 -17 25 -22 15 -41
-6 -12 -10 -22 -7 -22 2 0 34 31 71 69 92 95 157 124 286 129 108 4 153 -10
228 -74 22 -20 41 -32 41 -27 0 15 -88 83 -128 100 -50 21 -185 26 -244 10z"/>
<path d="M1757 1949 c-61 -14 -170 -83 -200 -126 -43 -63 -41 -68 33 -69 46 0
87 -8 140 -29 63 -24 91 -29 170 -29 90 -1 98 1 155 33 33 18 73 46 90 62 l29
29 -20 27 c-31 42 -108 90 -164 102 -60 13 -179 13 -233 0z"/>
<path d="M512 1919 c-64 -12 -190 -76 -209 -106 -15 -23 -15 -28 -2 -52 8 -14
35 -37 59 -51 41 -22 54 -24 153 -22 92 2 124 7 216 37 59 19 124 35 144 35
50 0 48 20 -5 63 -107 86 -233 121 -356 96z"/>
<path d="M1580 1217 c0 -3 10 -23 22 -44 48 -81 16 -236 -52 -250 -36 -7 -38
-16 -6 -36 23 -15 26 -15 51 5 32 25 85 131 85 170 0 43 -18 78 -60 121 -22
21 -40 37 -40 34z"/>
<path d="M2425 941 c-88 -71 -196 -182 -226 -234 -13 -22 -40 -58 -60 -80
l-37 -41 -33 28 c-37 31 -56 40 -146 66 -81 24 -82 11 -1 -15 80 -26 156 -73
177 -110 9 -16 23 -35 32 -42 21 -16 36 -56 42 -112 3 -24 13 -51 21 -60 15
-14 16 -13 12 14 -3 17 -8 50 -11 75 -4 32 -16 56 -40 84 -19 21 -35 42 -35
46 0 4 9 15 21 26 11 10 37 46 56 79 54 93 89 132 187 210 97 77 120 99 114
113 -1 5 -34 -17 -73 -47z"/>
<path d="M970 815 c-17 -21 -98 -49 -232 -80 -139 -32 -196 -64 -224 -124 -18
-37 -22 -40 -59 -41 -58 0 -124 23 -201 69 -37 23 -72 41 -77 41 -8 0 -85 44
-154 88 -21 13 -23 13 -23 -7 0 -11 6 -21 14 -21 7 0 42 -19 78 -42 36 -24 74
-48 85 -54 25 -15 20 -79 -10 -111 -21 -23 -18 -41 3 -28 17 10 40 69 40 100
0 14 5 25 10 25 21 0 69 -30 89 -56 12 -15 21 -22 21 -17 0 10 115 -8 126 -20
3 -3 1 -13 -4 -24 -6 -10 -16 -44 -23 -75 -16 -77 -40 -113 -82 -127 -59 -20
-74 -101 -28 -160 29 -38 121 -40 246 -6 55 15 105 31 111 36 6 5 14 6 17 2 4
-3 9 2 13 11 3 9 10 16 15 16 13 0 59 46 59 59 0 7 4 10 9 6 5 -3 12 4 16 15
3 11 9 20 13 21 4 0 86 4 182 8 121 6 191 14 227 26 50 16 57 16 196 -4 183
-27 200 -26 265 4 63 29 69 30 51 9 -11 -13 -9 -14 17 -8 27 7 28 6 14 -11
-14 -17 -13 -18 12 -13 20 4 25 2 20 -10 -4 -12 0 -14 16 -10 12 4 22 2 22 -4
0 -6 7 -7 16 -4 9 4 23 1 30 -5 7 -6 17 -8 23 -5 5 4 12 -3 16 -14 27 -85 150
-124 203 -64 29 33 24 39 -14 19 -64 -33 -137 -9 -173 59 -11 20 -19 24 -38
20 -18 -5 -22 -3 -18 8 4 11 -8 20 -40 33 -25 9 -67 36 -92 60 l-45 43 -61
-15 c-36 -8 -78 -11 -100 -7 -54 9 -158 57 -183 86 -36 38 -75 127 -88 196 -6
36 -16 67 -22 69 -5 2 -15 -35 -21 -83 -17 -124 -76 -211 -171 -251 -41 -17
-87 -10 -78 12 3 8 9 22 12 30 12 29 -11 14 -38 -26 -36 -51 -109 -89 -133
-69 -12 10 -15 23 -11 45 4 19 1 38 -8 50 -13 18 -14 15 -9 -25 8 -70 -12
-126 -65 -182 -26 -27 -63 -58 -84 -69 -48 -24 -172 -58 -223 -59 -81 -3 -85
-2 -101 36 -20 47 -11 82 24 95 49 19 79 58 98 128 10 36 27 80 37 96 10 17
33 55 50 85 40 68 76 89 215 125 144 37 204 60 232 90 13 14 19 25 13 25 -6 0
-16 -7 -23 -15z"/>
</g>
</svg>
