<svg xmlns="http://www.w3.org/2000/svg" width="32" height="32" xmlns:xlink="http://www.w3.org/1999/xlink"><defs><linearGradient id="c" x1="50%" x2="50%" y1="0%" y2="100%"><stop offset="0%" stop-color="#FFF" stop-opacity=".5"/><stop offset="100%" stop-opacity=".5"/></linearGradient><circle id="b" cx="16" cy="15" r="15"/><filter id="a" width="111.7%" height="111.7%" x="-5.8%" y="-4.2%" filterUnits="objectBoundingBox"><feOffset dy=".5" in="SourceAlpha" result="shadowOffsetOuter1"/><feGaussianBlur in="shadowOffsetOuter1" result="shadowBlurOuter1" stdDeviation=".5"/><feComposite in="shadowBlurOuter1" in2="SourceAlpha" operator="out" result="shadowBlurOuter1"/><feColorMatrix in="shadowBlurOuter1" values="0 0 0 0 0 0 0 0 0 0 0 0 0 0 0 0 0 0 0.199473505 0"/></filter><path id="e" d="M25.08 18.1c.52-.03 1.02-.23 1.42-.58-.55 2.82-2.1 5.6-4.73 7.1-2.03 1.2-4.55 1.58-7 1.28-.38-1.06-1.35-2.2-3.02-3.04-2.65-1.37-3.9-3.72-5-2.57-.12.1-.2.2-.26.33-.07-.1-.1-.2-.16-.32-2.16-5.35 0-10.73 4.32-14.6 2.57-2.27 5.58-2.02 8.27-.77-.33.26-.5.66-.5 1.08v5.4c-2.3-1.33-5.25-.8-6.95 1.27-1.7 2.07-1.66 5.07.1 7.1 1.75 2 4.7 2.46 6.97 1.04.28.6.93.93 1.57.8.64-.16 1.1-.73 1.1-1.4V6.3c2.07 1.46 3.72 3.3 4.48 4.57.37.64.63 1.34.78 2.06-.33-.24-.7-.4-1.1-.46-.85-.05-1.5 1.1-1.06 2.77.37 1.5-.1 2.8.74 2.86zm-10.37.1c-2.87-1.67-.44-5.94 2.46-4.28.87.5.96 2.03.8 3.03-.3 1.7-1.9 2-3.24 1.24zM16.1 7.16c-.65.02-1.1.8-1.08 1.15 0 .37.5.57 1.16.34.6-.2 1.15-.07 1.13-.4-.05-.36-.6-1.1-1.24-1.07z"/><filter id="d" width="116.7%" height="115.9%" x="-8.3%" y="-5.7%" filterUnits="objectBoundingBox"><feOffset dy=".5" in="SourceAlpha" result="shadowOffsetOuter1"/><feGaussianBlur in="shadowOffsetOuter1" result="shadowBlurOuter1" stdDeviation=".5"/><feColorMatrix in="shadowBlurOuter1" values="0 0 0 0 0 0 0 0 0 0 0 0 0 0 0 0 0 0 0.204257246 0"/></filter></defs><g fill="none"><use fill="#000" filter="url(#a)" xlink:href="#b"/><use fill="#2C398F" fill-rule="evenodd" xlink:href="#b"/><use fill="url(#c)" fill-rule="evenodd" style="mix-blend-mode:soft-light" xlink:href="#b"/><circle cx="16" cy="15" r="14.5" stroke="#000" stroke-opacity=".097"/><use fill="#000" filter="url(#d)" xlink:href="#e"/><use fill="#FFF" fill-rule="evenodd" xlink:href="#e"/></g></svg>