<svg xmlns="http://www.w3.org/2000/svg" width="32" height="32" xmlns:xlink="http://www.w3.org/1999/xlink"><defs><linearGradient id="c" x1="50%" x2="50%" y1="0%" y2="100%"><stop offset="0%" stop-color="#FFF" stop-opacity=".5"/><stop offset="100%" stop-opacity=".5"/></linearGradient><circle id="b" cx="16" cy="15" r="15"/><filter id="a" width="111.7%" height="111.7%" x="-5.8%" y="-4.2%" filterUnits="objectBoundingBox"><feOffset dy=".5" in="SourceAlpha" result="shadowOffsetOuter1"/><feGaussianBlur in="shadowOffsetOuter1" result="shadowBlurOuter1" stdDeviation=".5"/><feComposite in="shadowBlurOuter1" in2="SourceAlpha" operator="out" result="shadowBlurOuter1"/><feColorMatrix in="shadowBlurOuter1" values="0 0 0 0 0 0 0 0 0 0 0 0 0 0 0 0 0 0 0.199473505 0"/></filter><path id="e" d="M9.93 15.57c-.02-.2-.02-.38-.02-.57 0-.17 0-.34.03-.5h-2.8L4 12h6.5c1.2-2.93 4.08-5 7.45-5C22.4 7 26 10.58 26 15s-3.6 8-8.05 8c-3.35 0-6.22-2.03-7.43-4.93H4l3.12-2.5h2.8zm12.6-.42c0-.83-.1-1.55-.33-2.17-.23-.62-.54-1.14-.94-1.55-.4-.42-.87-.73-1.4-.94-.56-.23-1.15-.34-1.8-.34-.7 0-1.34.12-1.93.36-.6.23-1.12.56-1.56 1-.43.42-.78.94-1.03 1.54-.25.6-.37 1.28-.37 2.02s.12 1.42.37 2c.25.6.6 1.1 1.04 1.5.45.42.97.74 1.58.96.6.22 1.26.33 1.98.33 1.74 0 3.06-.62 3.97-1.84L20.6 16.8c-.26.37-.58.66-.98.87-.4.2-.9.32-1.48.32-.33 0-.65-.07-.96-.18-.3-.12-.6-.27-.83-.47-.25-.2-.44-.44-.6-.7-.14-.28-.22-.6-.25-.92h7.04c0-.1.02-.2.02-.3v-.3zm-2.3-1.03h-4.75c.05-.66.32-1.2.8-1.6.48-.42 1.07-.62 1.76-.62.38 0 .7.06.98.18.27.12.5.28.68.5.18.2.3.43.4.7.08.26.12.54.12.84z"/><filter id="d" width="115.9%" height="121.9%" x="-8%" y="-7.8%" filterUnits="objectBoundingBox"><feOffset dy=".5" in="SourceAlpha" result="shadowOffsetOuter1"/><feGaussianBlur in="shadowOffsetOuter1" result="shadowBlurOuter1" stdDeviation=".5"/><feColorMatrix in="shadowBlurOuter1" values="0 0 0 0 0 0 0 0 0 0 0 0 0 0 0 0 0 0 0.204257246 0"/></filter></defs><g fill="none"><use fill="#000" filter="url(#a)" xlink:href="#b"/><use fill="#1693D4" fill-rule="evenodd" xlink:href="#b"/><use fill="url(#c)" fill-rule="evenodd" style="mix-blend-mode:soft-light" xlink:href="#b"/><circle cx="16" cy="15" r="14.5" stroke="#000" stroke-opacity=".097"/><use fill="#000" filter="url(#d)" xlink:href="#e"/><use fill="#FFF" xlink:href="#e"/></g></svg>