<svg xmlns="http://www.w3.org/2000/svg" width="32" height="32" xmlns:xlink="http://www.w3.org/1999/xlink"><defs><linearGradient id="c" x1="50%" x2="50%" y1="0%" y2="100%"><stop offset="0%" stop-color="#FFF" stop-opacity=".5"/><stop offset="100%" stop-opacity=".5"/></linearGradient><circle id="b" cx="16" cy="15" r="15"/><filter id="a" width="111.7%" height="111.7%" x="-5.8%" y="-4.2%" filterUnits="objectBoundingBox"><feOffset dy=".5" in="SourceAlpha" result="shadowOffsetOuter1"/><feGaussianBlur in="shadowOffsetOuter1" result="shadowBlurOuter1" stdDeviation=".5"/><feComposite in="shadowBlurOuter1" in2="SourceAlpha" operator="out" result="shadowBlurOuter1"/><feColorMatrix in="shadowBlurOuter1" values="0 0 0 0 0 0 0 0 0 0 0 0 0 0 0 0 0 0 0.199473505 0"/></filter><path id="e" d="M25 11.5c0 2.22 0 4.44 0 6.66 0 .3 0 .6-.06.9-.15.66-.5 1.28-1 1.75-.24.24-.53.4-.82.56-1.9 1.1-3.8 2.22-5.7 3.33-.6.3-1.28.36-1.93.3-.35-.07-.68-.17-.98-.34-2-1.17-4-2.34-6.02-3.5-.47-.28-.84-.73-1.1-1.22-.23-.42-.4-.88-.4-1.36 0-2.4 0-4.8 0-7.2.05-.7.36-1.35.8-1.88.18-.23.4-.42.64-.57 1.86-1.1 3.73-2.18 5.6-3.27.3-.17.6-.38.92-.5.55-.17 1.15-.2 1.73-.1.24.08.5.16.74.3 2.02 1.2 4.06 2.37 6.1 3.56.53.32.93.86 1.18 1.43.17.36.26.75.26 1.15zm-9.06-2.47c-.44.63-.92 1.23-1.5 1.76-.28.25-.56.55-.73.92-.1.26-.2.56-.16.86.04.4.33.75.7.9.38.15.8.1 1.2-.03.06-.03.13-.04.2-.03-.07.47-.35.87-.58 1.28 0 .02 0 .05 0 .07.2.2.43.42.64.63.04.05.1.12.16.14.24-.18.43-.43.65-.63.06-.05.16-.1.1-.2-.2-.4-.44-.8-.5-1.26.04-.1.15-.02.2 0 .37.18.8.2 1.17.06.5-.2.82-.78.7-1.3-.08-.5-.33-.93-.68-1.27-.54-.54-1.05-1.13-1.4-1.8-.04-.07-.08-.1-.15-.13zm-3.63 6.5c-.6.33-1 .97-1.1 1.65-.12.95.44 1.95 1.3 2.34.55.23 1.18.23 1.73 0 .28-.1.53-.3.74-.5.07-.1.2-.16.2-.3-.02-.12-.14-.2-.2-.28-.1-.1-.2-.2-.3-.27-.18-.08-.3.12-.4.22-.46.44-1.28.44-1.74 0-.3-.3-.45-.7-.38-1.13.05-.38.28-.74.62-.93.22-.1.47-.17.7-.16.36.02.67.2.9.45.8.8 1.56 1.6 2.34 2.4.43.4 1 .67 1.6.65.45 0 .88-.17 1.25-.43.54-.37.87-1.02.9-1.68.07-1.05-.68-2.1-1.7-2.3-.65-.14-1.38 0-1.88.46-.36.33-.68.7-1.03 1.02-.37-.3-.65-.67-1-.98-.17-.14-.33-.26-.53-.34-.02-.02-.04-.03-.1-.05-.6-.25-1.3-.2-1.9.14zm5.05 1.06c.26-.28.63-.43 1-.4.4 0 .77.22.98.56.33.5.24 1.22-.2 1.63-.42.42-1.16.47-1.63.07-.36-.3-.65-.65-.98-.96 0 0 0-.05 0-.07.26-.3.55-.56.82-.85z"/><filter id="d" width="119.5%" height="117.5%" x="-9.7%" y="-6.3%" filterUnits="objectBoundingBox"><feOffset dy=".5" in="SourceAlpha" result="shadowOffsetOuter1"/><feGaussianBlur in="shadowOffsetOuter1" result="shadowBlurOuter1" stdDeviation=".5"/><feColorMatrix in="shadowBlurOuter1" values="0 0 0 0 0 0 0 0 0 0 0 0 0 0 0 0 0 0 0.204257246 0"/></filter></defs><g fill="none"><use fill="#000" filter="url(#a)" xlink:href="#b"/><use fill="#2B1544" xlink:href="#b"/><use fill="url(#c)" style="mix-blend-mode:soft-light" xlink:href="#b"/><circle cx="16" cy="15" r="14.5" stroke="#000" stroke-opacity=".097"/><use fill="#000" filter="url(#d)" xlink:href="#e"/><use fill="#FFF" fill-rule="evenodd" xlink:href="#e"/></g></svg>