<svg xmlns="http://www.w3.org/2000/svg" width="32" height="32" xmlns:xlink="http://www.w3.org/1999/xlink"><defs><linearGradient id="c" x1="50%" x2="50%" y1="0%" y2="100%"><stop offset="0%" stop-color="#FFF" stop-opacity=".5"/><stop offset="100%" stop-opacity=".5"/></linearGradient><circle id="b" cx="16" cy="15" r="15"/><filter id="a" width="111.7%" height="111.7%" x="-5.8%" y="-4.2%" filterUnits="objectBoundingBox"><feOffset dy=".5" in="SourceAlpha" result="shadowOffsetOuter1"/><feGaussianBlur in="shadowOffsetOuter1" result="shadowBlurOuter1" stdDeviation=".5"/><feComposite in="shadowBlurOuter1" in2="SourceAlpha" operator="out" result="shadowBlurOuter1"/><feColorMatrix in="shadowBlurOuter1" values="0 0 0 0 0 0 0 0 0 0 0 0 0 0 0 0 0 0 0.199473505 0"/></filter><filter id="d" width="117.5%" height="119.4%" x="-8.8%" y="-6.9%" filterUnits="objectBoundingBox"><feOffset dy=".5" in="SourceAlpha" result="shadowOffsetOuter1"/><feGaussianBlur in="shadowOffsetOuter1" result="shadowBlurOuter1" stdDeviation=".5"/><feColorMatrix in="shadowBlurOuter1" result="shadowMatrixOuter1" values="0 0 0 0 0 0 0 0 0 0 0 0 0 0 0 0 0 0 0.204257246 0"/><feMerge><feMergeNode in="shadowMatrixOuter1"/><feMergeNode in="SourceGraphic"/></feMerge></filter></defs><g fill="none"><use fill="#000" filter="url(#a)" xlink:href="#b"/><use fill="#3FBADF" xlink:href="#b"/><use fill="url(#c)" style="mix-blend-mode:soft-light" xlink:href="#b"/><circle cx="16" cy="15" r="14.5" stroke="#000" stroke-opacity=".097"/><g fill="#FFF" filter="url(#d)" transform="translate(6 6)"><path fill-opacity=".4" d="M5 15.12l5-2.82v5.63l-5-2.8zm0-9l5-2.82v5.63l-5-2.8z"/><path fill-opacity=".7" d="M20 12.23l-5 2.9v-5.7l5 2.8zm0-9l-5 2.9V.43l5 2.8z"/><path fill-opacity=".8" d="M5 15.12v-5.7l5 2.88-5 2.82zm0-9V.42l5 2.88-5 2.82z"/><path d="M15 15.12l-5-2.82 5-2.87v5.7zm0-9L10 3.3l5-2.87v5.7z"/><path fill-opacity=".6" d="M15 15.12l-5 2.8V12.3l5 2.82zm0-9l-5 2.8V3.3l5 2.82z"/><path fill-opacity=".5" d="M5 9.43v5.7l-5-2.9 5-2.8zm0-9v5.7l-5-2.9 5-2.8z"/></g></g></svg>