<?xml version="1.0" standalone="no"?>
<!DOCTYPE svg PUBLIC "-//W3C//DTD SVG 20010904//EN"
 "http://www.w3.org/TR/2001/REC-SVG-20010904/DTD/svg10.dtd">
<svg version="1.0" xmlns="http://www.w3.org/2000/svg"
 width="250.000000pt" height="221.000000pt" viewBox="0 0 250.000000 221.000000"
 preserveAspectRatio="xMidYMid meet">
<metadata>
Created by potrace 1.16, written by Peter Selinger 2001-2019
</metadata>
<g transform="translate(0.000000,221.000000) scale(0.100000,-0.100000)"
fill="#000000" stroke="none">
<path d="M0 1105 l0 -1105 1250 0 1250 0 0 65 0 65 -785 0 c-691 0 -785 2
-785 15 0 11 -14 15 -57 16 -32 1 -69 3 -83 4 -54 6 -179 48 -236 79 -53 30
-59 37 -59 65 0 17 -5 31 -11 31 -6 0 -38 14 -72 31 -51 25 -66 39 -92 84 -50
88 -74 200 -67 325 7 131 32 222 101 365 85 176 209 335 370 477 l90 78 -3 48
-2 48 75 43 c156 89 342 157 510 186 72 12 186 15 597 15 l509 0 0 85 0 85
-1250 0 -1250 0 0 -1105z"/>
<path d="M2219 1840 c25 -11 52 -26 60 -32 9 -6 3 1 -12 16 -16 15 -43 30 -60
32 -29 4 -28 3 12 -16z"/>
<path d="M1465 359 c-33 -22 -120 -69 -192 -105 -73 -37 -133 -68 -133 -70 0
-2 17 -3 38 -3 22 1 29 3 17 6 -13 4 16 17 82 38 57 18 139 50 183 71 76 36
80 39 80 71 0 18 -3 33 -7 32 -5 0 -35 -18 -68 -40z"/>
</g>
</svg>
