<svg xmlns="http://www.w3.org/2000/svg" width="32" height="32" xmlns:xlink="http://www.w3.org/1999/xlink"><defs><linearGradient id="c" x1="50%" x2="50%" y1="0%" y2="100%"><stop offset="0%" stop-color="#FFF" stop-opacity=".5"/><stop offset="100%" stop-opacity=".5"/></linearGradient><circle id="b" cx="16" cy="15" r="15"/><filter id="a" width="111.7%" height="111.7%" x="-5.8%" y="-4.2%" filterUnits="objectBoundingBox"><feOffset dy=".5" in="SourceAlpha" result="shadowOffsetOuter1"/><feGaussianBlur in="shadowOffsetOuter1" result="shadowBlurOuter1" stdDeviation=".5"/><feComposite in="shadowBlurOuter1" in2="SourceAlpha" operator="out" result="shadowBlurOuter1"/><feColorMatrix in="shadowBlurOuter1" values="0 0 0 0 0 0 0 0 0 0 0 0 0 0 0 0 0 0 0.199473505 0"/></filter><path id="e" d="M22.3 8c.5.06 1 .1 1.5.18.96.18 1.28.64 1.1 1.57-.05.38-.3.6-.68.68-.23.03-.46.04-.7.05-3.18 0-6.36 0-9.53.02-.5 0-.97.05-1.44.12-1.57.25-2.17.87-2.3 2.4-.06.7-.06.7.7.7 4.2 0 8.43 0 12.65 0 .13 0 .25 0 .38 0 .2 0 .4.05.56.15.58.36.43.9.4 1.42-.03.4-.28.62-.72.7-.2.03-.38.04-.56.04-4.34 0-8.67 0-13 0-.47 0-.47 0-.43.45.04.4.06.82.17 1.22.2.75.67 1.22 1.45 1.43.86.23 1.75.28 2.64.3 3.1 0 6.2 0 9.3 0 .4 0 .76.05 1 .4.44.66.1 1.6-.7 1.84-.66.2-1.37.24-2.07.25-2.9.05-5.82.06-8.73 0-.88-.02-1.78-.13-2.66-.3-2.07-.4-3.1-1.4-3.46-3.4-.07-.47-.12-.93-.18-1.4 0-1.2 0-2.42 0-3.63.04-.36.07-.72.12-1.07C7.4 9.9 8.45 8.8 10.77 8.3c.82-.17 1.66-.2 2.5-.3 3 0 6.02 0 9.04 0z"/><filter id="d" width="119.4%" height="125%" x="-9.7%" y="-8.9%" filterUnits="objectBoundingBox"><feOffset dy=".5" in="SourceAlpha" result="shadowOffsetOuter1"/><feGaussianBlur in="shadowOffsetOuter1" result="shadowBlurOuter1" stdDeviation=".5"/><feColorMatrix in="shadowBlurOuter1" values="0 0 0 0 0 0 0 0 0 0 0 0 0 0 0 0 0 0 0.204257246 0"/></filter></defs><g fill="none"><use fill="#000" filter="url(#a)" xlink:href="#b"/><use fill="#624DBF" fill-rule="evenodd" xlink:href="#b"/><use fill="url(#c)" fill-rule="evenodd" style="mix-blend-mode:soft-light" xlink:href="#b"/><circle cx="16" cy="15" r="14.5" stroke="#000" stroke-opacity=".097"/><use fill="#000" filter="url(#d)" xlink:href="#e"/><use fill="#FFF" fill-rule="evenodd" xlink:href="#e"/></g></svg>