<?xml version="1.0" standalone="yes"?>
<svg xmlns="http://www.w3.org/2000/svg" width="32" height="32">
<path style="fill:#59676a; stroke:none;" d="M0 0L1 11L2 11L3 3L13 1L0 0z"/>
<path style="fill:#f0f0f0; stroke:none;" d="M8 0L9 1L8 0z"/>
<path style="fill:#9c9c9c; stroke:none;" d="M9 0L10 1L9 0M3 23L4 23C3.22253 20.054 1.96126 17.0831 2.68133 14C7.11605 -4.98782 32.665 3.75077 28 22L29 22L32 15L27 2L24 3L25 1L21 2L21 1L23 1C7.76275 -4.36718 -2.47414 9.55943 3 23z"/>
<path style="fill:#59676a; stroke:none;" d="M19.6667 0.333334L20.3333 0.666666L19.6667 0.333334z"/>
<path style="fill:#111111; stroke:none;" d="M23 0L24 1L23 0z"/>
<path style="fill:#59676a; stroke:none;" d="M24 0L24 1C25.9601 1.65336 26.554 2 24 2L24 3L28 2L28 3L26 3L26 4L31 8L30 8L29 5L28 5L31 15L32 15L32 0L24 0z"/>
<path style="fill:#f0f0f0; stroke:none;" d="M6 1L5 3L6 1z"/>
<path style="fill:#9c9c9c; stroke:none;" d="M7 1L8 2L7 1z"/>
<path style="fill:#59676a; stroke:none;" d="M21 1L21 2L24 2L21 1z"/>
<path style="fill:#f0f0f0; stroke:none;" d="M25 1L26 2L25 1z"/>
<path style="fill:#59676a; stroke:none;" d="M12 3L12 4L20 4L20 3L16 4L12 3z"/>
<path style="fill:#f0f0f0; stroke:none;" d="M27 2L28 3L27 2z"/>
<path style="fill:#111111; stroke:none;" d="M3.33333 3.66667L3.66667 4.33333L3.33333 3.66667z"/>
<path style="fill:#2d2d2d; stroke:none;" d="M14 3L15 4L14 3M16.6667 3.33333L17.3333 3.66667L16.6667 3.33333z"/>
<path style="fill:#59676a; stroke:none;" d="M9.66667 4.33333L10.3333 4.66667L9.66667 4.33333z"/>
<path style="fill:#2d2d2d; stroke:none;" d="M5 13L3 12C5.60813 15.617 9.80946 15.4603 14 15L13 18L14 18L15 15L12 15L9 10C12.9836 6.97491 18.3654 4.65606 20 11L13 9L13 11L17 17L18 17L29 13L27 14C27.7331 1.16429 4.27678 0.41658 5 13z"/>
<path style="fill:#59676a; stroke:none;" d="M21 4L22 5L21 4z"/>
<path style="fill:#f0f0f0; stroke:none;" d="M28.6667 4.33333L29.3333 4.66667L28.6667 4.33333z"/>
<path style="fill:#59676a; stroke:none;" d="M7 5L8 6L7 5M12 5L13 6L12 5M19 5L20 6L19 5M23.6667 5.33333L24.3333 5.66667L23.6667 5.33333z"/>
<path style="fill:#9c9c9c; stroke:none;" d="M29 5L30 6L29 5M1 6L2 7L1 6z"/>
<path style="fill:#59676a; stroke:none;" d="M14 6L15 7L14 6z"/>
<path style="fill:#f0f0f0; stroke:none;" d="M11 10L21 10C18.2817 6.04897 13.6828 6.00403 11 10z"/>
<path style="fill:#9c9c9c; stroke:none;" d="M16 6L17 7L16 6z"/>
<path style="fill:#59676a; stroke:none;" d="M17 6L18 7L17 6M25 6L26 7L25 6z"/>
<path style="fill:#f0f0f0; stroke:none;" d="M29 6L30 7L29 6z"/>
<path style="fill:#111111; stroke:none;" d="M30 6L31 7L30 6z"/>
<path style="fill:#59676a; stroke:none;" d="M5 7L6 8L5 7M11 7L12 8L11 7z"/>
<path style="fill:#9c9c9c; stroke:none;" d="M12 7L13 8L12 7z"/>
<path style="fill:#59676a; stroke:none;" d="M19 7L20 8L19 7M26.3333 7.66667L26.6667 8.33333L26.3333 7.66667z"/>
<path style="fill:#9c9c9c; stroke:none;" d="M30 7L31 8L30 7z"/>
<path style="fill:#59676a; stroke:none;" d="M10.3333 8.66667L10.6667 9.33333L10.3333 8.66667z"/>
<path style="fill:#9c9c9c; stroke:none;" d="M14 8L15 9L14 8z"/>
<path style="fill:#59676a; stroke:none;" d="M16 8L17 9L16 8z"/>
<path style="fill:#9c9c9c; stroke:none;" d="M17 8L18 9L17 8M0 9L1 10L0 9z"/>
<path style="fill:#59676a; stroke:none;" d="M4 9L5 10L4 9z"/>
<path style="fill:#111111; stroke:none;" d="M9 9L10 10L9 9z"/>
<path style="fill:#9c9c9c; stroke:none;" d="M12 9L11 10L14 15L15 15L16 14L16 13L12 9z"/>
<path style="fill:#111111; stroke:none;" d="M17 9L18 10L17 9z"/>
<path style="fill:#9c9c9c; stroke:none;" d="M19 9L20 10L19 9z"/>
<path style="fill:#f0f0f0; stroke:none;" d="M0 10L1 11L0 10z"/>
<path style="fill:#111111; stroke:none;" d="M19 10L20 11L19 10z"/>
<path style="fill:#59676a; stroke:none;" d="M27 10L28 11L27 10z"/>
<path style="fill:#9c9c9c; stroke:none;" d="M31 10L32 11L31 10z"/>
<path style="fill:#111111; stroke:none;" d="M0 11L1 12L0 11z"/>
<path style="fill:#59676a; stroke:none;" d="M3 11L4 12L3 11z"/>
<path style="fill:#111111; stroke:none;" d="M4.33333 11.6667L4.66667 12.3333L4.33333 11.6667M10 11L12 15L13 15L10 11z"/>
<path style="fill:#59676a; stroke:none;" d="M11 11L13 13L11 11z"/>
<path style="fill:#f0f0f0; stroke:none;" d="M12 11L13 12L12 11z"/>
<path style="fill:#59676a; stroke:none;" d="M0 12L1 13L0 12z"/>
<path style="fill:#f0f0f0; stroke:none;" d="M13 12L14 13L13 12z"/>
<path style="fill:#111111; stroke:none;" d="M15 12L16 13L15 12M27.3333 12.6667L27.6667 13.3333L27.3333 12.6667z"/>
<path style="fill:#59676a; stroke:none;" d="M28 12L29 13L28 12M2.33333 13.6667L2.66667 14.3333L2.33333 13.6667z"/>
<path style="fill:#111111; stroke:none;" d="M3 13C3.45931 32.629 27.2753 33.6306 29 14L28 14L18 15L14 23L22 22C17.7296 25.2169 15.0699 25.2328 10 24L14 15L3 13z"/>
<path style="fill:#f0f0f0; stroke:none;" d="M14 13L15 14L14 13z"/>
<path style="fill:#111111; stroke:none;" d="M16 13L18 15L16 13z"/>
<path style="fill:#f0f0f0; stroke:none;" d="M15 14L12 21C14.7262 18.9084 16.7807 17.2829 15 14z"/>
<path style="fill:#59676a; stroke:none;" d="M16 14L17 15L16 14M29 14L30 15L29 14z"/>
<path style="fill:#2d2d2d; stroke:none;" d="M2.33333 15.6667L2.66667 16.3333L2.33333 15.6667M29.3333 15.6667L29.6667 16.3333L29.3333 15.6667z"/>
<path style="fill:#59676a; stroke:none;" d="M31 16L27 22L28 24C17.726 28.5842 14.6524 28.5731 4 25L5 22L1 17L0 17L0 32L32 32L31 16M2.33333 17.6667L2.66667 18.3333L2.33333 17.6667M16 17L17 18L16 17M29 17L30 18L29 17z"/>
<path style="fill:#9c9c9c; stroke:none;" d="M13 18L14 19L13 18z"/>
<path style="fill:#59676a; stroke:none;" d="M15 18L16 19L15 18z"/>
<path style="fill:#2d2d2d; stroke:none;" d="M28 18L29 19L28 18M3 19L4 20L3 19z"/>
<path style="fill:#9c9c9c; stroke:none;" d="M12 19L13 20L12 19M14 19L15 20L14 19z"/>
<path style="fill:#59676a; stroke:none;" d="M28 19L29 20L28 19z"/>
<path style="fill:#111111; stroke:none;" d="M31 19L32 20L31 19M0 20L1 21L0 20z"/>
<path style="fill:#59676a; stroke:none;" d="M3 20L4 21L3 20M11 20L12 21L11 20z"/>
<path style="fill:#9c9c9c; stroke:none;" d="M11 22L12 23L14 20L11 22z"/>
<path style="fill:#f0f0f0; stroke:none;" d="M0 21L1 22L0 21z"/>
<path style="fill:#2d2d2d; stroke:none;" d="M1 21L2 22L1 21M4 21L5 22L4 21M10 21L11 22L10 21M13.3333 21.6667L13.6667 22.3333L13.3333 21.6667M20 21L22 23L20 21M27 21L28 22L27 21z"/>
<path style="fill:#9c9c9c; stroke:none;" d="M31 21L32 22L31 21M0 22L1 23L0 22z"/>
<path style="fill:#59676a; stroke:none;" d="M10 22L11 23L10 22z"/>
<path style="fill:#f0f0f0; stroke:none;" d="M11 22C13.7206 25.5699 17.2991 24.7502 21 23L21 22L11 22z"/>
<path style="fill:#59676a; stroke:none;" d="M18 22L19 23L18 22z"/>
<path style="fill:#9c9c9c; stroke:none;" d="M19 22L20 23L19 22z"/>
<path style="fill:#f0f0f0; stroke:none;" d="M0 23L1 24L0 23z"/>
<path style="fill:#2d2d2d; stroke:none;" d="M10 23L11 24L10 23z"/>
<path style="fill:#9c9c9c; stroke:none;" d="M14 23L15 24L14 23z"/>
<path style="fill:#59676a; stroke:none;" d="M15.6667 23.3333L16.3333 23.6667L15.6667 23.3333z"/>
<path style="fill:#9c9c9c; stroke:none;" d="M20 23L21 24L20 23z"/>
<path style="fill:#2d2d2d; stroke:none;" d="M26 23L27 24L26 23z"/>
<path style="fill:#9c9c9c; stroke:none;" d="M27 23L28 24L27 23M4 24L5 25L4 24z"/>
<path style="fill:#2d2d2d; stroke:none;" d="M5 24L6 25L5 24z"/>
<path style="fill:#59676a; stroke:none;" d="M12 24L13 25L12 24z"/>
<path style="fill:#9c9c9c; stroke:none;" d="M13 24L14 25L13 24M18 24L19 25L18 24z"/>
<path style="fill:#2d2d2d; stroke:none;" d="M19 24L20 25L19 24z"/>
<path style="fill:#9c9c9c; stroke:none;" d="M30 24L31 25L30 24z"/>
<path style="fill:#2d2d2d; stroke:none;" d="M14 25L15 26L14 25z"/>
<path style="fill:#9c9c9c; stroke:none;" d="M15 25L16 26L15 25z"/>
<path style="fill:#59676a; stroke:none;" d="M16 25L17 26L16 25z"/>
<path style="fill:#2d2d2d; stroke:none;" d="M25 25L26 26L25 25M28 25L29 26L28 25z"/>
<path style="fill:#f0f0f0; stroke:none;" d="M29 25L30 26L29 25z"/>
<path style="fill:#111111; stroke:none;" d="M3 26L3 29L4 29L3 26z"/>
<path style="fill:#2d2d2d; stroke:none;" d="M7 26L8 27L7 26M23 26L24 27L23 26z"/>
<path style="fill:#9c9c9c; stroke:none;" d="M29 26L30 27L29 26z"/>
<path style="fill:#2d2d2d; stroke:none;" d="M10 27L11 28L10 27M21 27L22 28L21 27z"/>
<path style="fill:#111111; stroke:none;" d="M28.6667 27.3333L29.3333 27.6667L28.6667 27.3333z"/>
<path style="fill:#2d2d2d; stroke:none;" d="M12 28L13 29L12 28M25 28L26 29L25 28z"/>
<path style="fill:#9c9c9c; stroke:none;" d="M5 29L6 30L5 29z"/>
<path style="fill:#2d2d2d; stroke:none;" d="M8 29L9 30L8 29M16 29L17 30L16 29z"/>
<path style="fill:#9c9c9c; stroke:none;" d="M26 29L27 30L26 29z"/>
<path style="fill:#111111; stroke:none;" d="M27 29L28 30L27 29z"/>
<path style="fill:#9c9c9c; stroke:none;" d="M7 30L8 31L7 30z"/>
<path style="fill:#f0f0f0; stroke:none;" d="M23 30L24 31L23 30z"/>
<path style="fill:#111111; stroke:none;" d="M25 30L26 31L25 30M8 31L9 32L8 31z"/>
<path style="fill:#9c9c9c; stroke:none;" d="M21 31L22 32L21 31z"/>
</svg>
