<?xml version="1.0" standalone="no"?>
<!DOCTYPE svg PUBLIC "-//W3C//DTD SVG 20010904//EN"
 "http://www.w3.org/TR/2001/REC-SVG-20010904/DTD/svg10.dtd">
<svg version="1.0" xmlns="http://www.w3.org/2000/svg"
 width="250.000000pt" height="250.000000pt" viewBox="0 0 250.000000 250.000000"
 preserveAspectRatio="xMidYMid meet">
<metadata>
Created by potrace 1.16, written by Peter Selinger 2001-2019
</metadata>
<g transform="translate(0.000000,250.000000) scale(0.100000,-0.100000)"
fill="#000000" stroke="none">
<path d="M1025 2481 c-513 -92 -919 -502 -1010 -1018 -32 -186 -14 -439 45
-613 99 -295 321 -560 591 -707 85 -47 207 -89 219 -77 8 9 322 1535 317 1540
-1 2 -155 -117 -341 -263 l-338 -266 -30 30 -30 31 397 506 c218 278 400 506
404 506 4 0 123 -145 264 -322 141 -178 266 -334 279 -348 13 -14 20 -21 16
-16 -5 6 -8 214 -8 462 l0 453 -82 31 c-115 45 -159 57 -268 75 -124 20 -300
18 -425 -4z"/>
<path d="M1310 1603 c0 -11 310 -1515 315 -1530 3 -10 12 -9 37 1 18 7 38 11
45 9 6 -2 30 5 52 17 l41 20 0 550 0 549 -172 139 c-288 230 -318 253 -318
245z"/>
</g>
</svg>
