<svg xmlns="http://www.w3.org/2000/svg" width="32" height="32" xmlns:xlink="http://www.w3.org/1999/xlink"><defs><linearGradient id="c" x1="50%" x2="50%" y1="0%" y2="100%"><stop offset="0%" stop-color="#FFF" stop-opacity=".5"/><stop offset="100%" stop-opacity=".5"/></linearGradient><circle id="b" cx="16" cy="15" r="15"/><filter id="a" width="111.7%" height="111.7%" x="-5.8%" y="-4.2%" filterUnits="objectBoundingBox"><feOffset dy=".5" in="SourceAlpha" result="shadowOffsetOuter1"/><feGaussianBlur in="shadowOffsetOuter1" result="shadowBlurOuter1" stdDeviation=".5"/><feComposite in="shadowBlurOuter1" in2="SourceAlpha" operator="out" result="shadowBlurOuter1"/><feColorMatrix in="shadowBlurOuter1" values="0 0 0 0 0 0 0 0 0 0 0 0 0 0 0 0 0 0 0.199473505 0"/></filter><path id="e" d="M14.8 22H13l-1.1-4.25 2.66-1.38.86 2.46.64-3.25 3.5-1.83-.18.97 2.03.02c.8 0 1.4-.28 1.84-.8.43-.5.64-1.2.62-2.07 0-.12-.02-.23-.04-.34l2.74-1.43c.38.7.52 1.52.43 2.46-.15 1.37-.74 2.47-1.78 3.3-1.04.8-2.37 1.23-3.98 1.23l-2.3-.03-.98 4.92H14.8zm.4-11h1.76l-2.7 3.84-6.66 3.48 2.47-3.5L7.7 8h3.48l1.23 4.8 1.07-1.8h1.75-1.74l1.88-3h7.34c1.17.04 2.12.35 2.87.94l-2.8 1.46c-.07 0-.14-.02-.2-.02l-2.3-.02-.3 1.5-3.52 1.84.53-2.7H15.2zm-9.4 9.95l5.3-2.78L8.78 22H5l.77-1.08.02.03z"/><filter id="d" width="115.9%" height="125%" x="-8%" y="-8.9%" filterUnits="objectBoundingBox"><feOffset dy=".5" in="SourceAlpha" result="shadowOffsetOuter1"/><feGaussianBlur in="shadowOffsetOuter1" result="shadowBlurOuter1" stdDeviation=".5"/><feColorMatrix in="shadowBlurOuter1" values="0 0 0 0 0 0 0 0 0 0 0 0 0 0 0 0 0 0 0.204257246 0"/></filter></defs><g fill="none"><use fill="#000" filter="url(#a)" xlink:href="#b"/><use fill="#008200" xlink:href="#b"/><use fill="url(#c)" style="mix-blend-mode:soft-light" xlink:href="#b"/><circle cx="16" cy="15" r="14.5" stroke="#000" stroke-opacity=".097"/><use fill="#000" filter="url(#d)" xlink:href="#e"/><use fill="#FFF" fill-rule="evenodd" xlink:href="#e"/></g></svg>