<svg xmlns="http://www.w3.org/2000/svg" width="32" height="32" xmlns:xlink="http://www.w3.org/1999/xlink"><defs><linearGradient id="c" x1="50%" x2="50%" y1="0%" y2="100%"><stop offset="0%" stop-color="#FFF" stop-opacity=".5"/><stop offset="100%" stop-opacity=".5"/></linearGradient><circle id="b" cx="16" cy="15" r="15"/><filter id="a" width="111.7%" height="111.7%" x="-5.8%" y="-4.2%" filterUnits="objectBoundingBox"><feOffset dy=".5" in="SourceAlpha" result="shadowOffsetOuter1"/><feGaussianBlur in="shadowOffsetOuter1" result="shadowBlurOuter1" stdDeviation=".5"/><feComposite in="shadowBlurOuter1" in2="SourceAlpha" operator="out" result="shadowBlurOuter1"/><feColorMatrix in="shadowBlurOuter1" values="0 0 0 0 0 0 0 0 0 0 0 0 0 0 0 0 0 0 0.199473505 0"/></filter><path id="e" d="M7.7 9.63c-.05.23-.04.38.08.5-.15.26-.27.46-.38.68.1-.2.23-.4.38-.62.34.42 1.4.42 2.84-.04.17-.05.17.34.17.34 0 .2-.06.5-1.9.76-.5.08-1.22.04-1.55-.34-.1-.14-.13-.3-.13-.52 0-.04 0-.08.04-.17.02-.05.05-.12.1-.2.03-.12.1-.2.2-.33-.04.08-.13.25-.2.34.03-.12.1-.25.2-.33zm.24-.54c.06-.1.13-.2.22-.3l-.13.2s0 0-.03 0c.06-.06.1-.12.16-.2l-.13.2c-.03.03-.06.07-.1.1zm0 0c-.05.06-.1.13-.16.2 0 0 0 0-.02.03-.03.05-.07.1-.1.16zm.9-1.04c.13-.1.25-.22.38-.32-.13.17-.2.34-.25.5-.05.14-.05.27.04.35.27.33 1.2.23 2.35-.26.38-.17.76-.34 1.1-.55.13-.06.3.16.34.2.03.04.07.17 0 .25-.43.26-.9.5-1.4.68-1.47.62-2.64.72-2.96.32 0 0 0 0 0 .02-.06-.13-.1-.2-.06-.38 0-.05 0-.1.05-.14.03-.05.07-.1.12-.14-.06.06-.12.12-.17.18 0-.03.05-.1.05-.16.08-.17.16-.3.3-.46.02-.02.05-.05.08-.07.14-.16.33-.32.5-.5.35-.3.35-.3.5-.43.07-.04.1-.07.14-.1 0 0-.03.02-.04.04.1-.1.23-.17.36-.26 0 0 0 0 .02 0 .02-.03.04-.04.06-.05.58-.4 1.25-.75 1.93-1.03.1-.06.22-.1.33-.16-.06.03-.12.06-.18.08-.03.02-.06.03-.1.05-.06.02-.13.05-.22.08-.17.06-.17.06-.5.23-.18.08-.18.08-.47.25-.13.1-.13.1-.43.26-.1.07-.12.08-.36.25 2.78-1.38 2.58-1.3 2.4-1.24-.23.06-.47.15-.72.25-1 .44-1.9 1.03-2.5 1.58-.07.07-.1.1-.2.2.04-.04.1-.1.15-.14-.1.1-.18.2-.25.28-.13.14-.27.25-.38.37zm-2.4 9.83c0 .03.02.06.03.1.04.12.08.2.17.3-.08-.23-.15-.45-.23-.7 0 .27.1.5.25.7-.1-.26-.17-.5-.22-.8.77 1.05 3.65.8 7.33-.78 4.7-2 9-5.38 9.58-7.58.13-.55.04-.93-.25-1.23.2.2.4.48.62.7.27.3.3.67.18 1.2-.6 2.22-4.96 5.65-9.8 7.7-4.18 1.8-7.34 1.9-7.65.4-.07-.25-.14-.57-.22-.8.05.13.1.26.18.4 0 .02.03.05.04.1 0 .03 0 .1 0 .14 0-.05 0-.1 0-.15 0-.07 0-.1.02-.15 0 .04 0 .08 0 .13zM13.3 5.35c.03 0 .05 0 .07-.02 1.27-.34 2.08-.17 1.9.55-.03.23-.2.5-.46.74-.2.1-.65 0-.74-.08.2-.26.34-.47.38-.64.13-.56-.48-.7-1.47-.45 0 0-.03 0-.04.02zm-.06.03c.05-.03.1-.05.18-.07-.04 0-.07 0-.1.02zm-7.03 11s0 .02 0 .03c-.1-.12-.14-.28-.15-.47 0-.08 0-.17 0-.26 0 .1 0 .16 0 .23 0 0 0 .02 0 .02 0-.08 0-.16 0-.25-.02-.22-.04-.47-.04-.66 0 .25.1.42.18.6 0 .12 0 .26.02.4-.03-.14-.03-.28-.03-.4 2.84 3 15.6-4.8 15.72-8.1.02-.6-.3-.8-.5-.93l.35.23.43.3c.33.3.45.72.33 1.27-.55 2.1-4.7 5.37-9.23 7.28-3.6 1.54-6.37 1.75-7.1.73zm0-3.23l.06-.26c-.08.35-.04.65.13.8 0 0 0 0 0 .03.07.1.2.17.33.24.13.17.04.6.04.6-.04.12-.08.3-.17.25-.43-.2-.6-.55-.56-1.06-.04.3.04.55.17.72 0-.02 0-.03.03-.03-.1-.2-.17-.4-.14-.66v-.1c0 .03 0 .07 0 .1l.1-.6.06-.33c0-.04 0-.04 0-.08-.02.1-.04.24-.06.37zm.6-1.04c-.06.18-.13.36-.15.53-.13-.17-.17-.38-.13-.64 0-.08 0-.12.05-.2.1-.26.17-.48.3-.73-.1.3-.04.54.08.75 0 .02-.02.05-.03.07.54.7 2.47.52 4.95-.53 3.18-1.4 6.1-3.7 6.48-5.14.13-.55-.04-.9-.5-1.06.08-.03.08-.03.33.05.17.05.3.1.38.1.55.2.77.58.6 1.18-.43 1.6-3.6 4.1-7.08 5.6-2.75 1.13-4.87 1.34-5.42.54l.17-.53zm6.56 12.2c-.5.02-.93-.03-1.25-.15-.24-.14-.6-.26-.8-.4.5.22 1.2.28 1.98.2 0-.05 0-.1.02-.15-.02.05-.03.1-.03.15 4.47-.44 12.3-5.13 12.73-8.2l-.04.13c-.04.26-.1.56-.1.77 0 .03 0 .08-.03.12-.5 1.8-4.1 4.65-8.05 6.34-1.78.76-3.3 1.14-4.43 1.18.02.03.04.06.07.1-.03-.04-.05-.07-.07-.1zm.5-1.74c.02-.04.05-.08.07-.1-.02.02-.05.06-.07.1.64-.2 1.33-.4 2.07-.7.46-.13.63.16.63.16.04.05.04.2-.2.34-1.08.43-2.06.73-2.92.9 0 .02 0 .03 0 .04 0 0 0-.02 0-.03-1.5.33-2.64.3-3.24-.12-.22-.17-.5-.38-.73-.55.7.6 2.27.58 4.38-.02zm-5.3-.9c-.18-.23-.4-.44-.52-.65.17.2.43.5.6.72 0-.05-.05-.1-.1-.1zM15.3 5.02c.24 0 .6-.04.84-.04.9 0 1.3.33 1.14 1-.2.8-1.35 1.96-2.84 2.97-.3.13-.6-.25-.5-.42 0-.04.04-.04.04-.04 1.3-.9 2.28-1.86 2.5-2.6.17-.66-.4-.95-1.36-.87h.18zm5.07.98c.5.26.72.68.56 1.3-.5 1.93-4.24 4.85-8.3 6.6-.77.33-1.54.6-2.2.8-.4.03-.44-.47-.27-.73.04-.08.1-.08.13-.13.63-.17 1.3-.42 2.02-.72 3.87-1.65 7.4-4.44 7.85-6.22.17-.63-.08-1.05-.63-1.26.25.12.6.25.84.38zm4.4 4.2l.14.2c.14.35.14.35.14.5v.06c-.13-.04-.4-.55-.43-.76 0-.24-.03-.4-.16-.58l.34.6zm.9 2.25c.04.2.04.46-.04.76-.5 1.87-3.7 4.63-7.54 6.6-.44.2-.7-.1-.6-.4.04-.13.12-.2.2-.26 3.9-2.03 7.17-4.83 7.67-6.74.1-.33.1-.62 0-.88.13.34.26.68.3.94zm.3 1.78v.33c0 .17 0 .3-.04.5-.3 1.16-1.7 2.64-3.6 4.08-.3.2-.47-.1-.43-.3.03-.17.16-.3.2-.34 2-1.47 3.43-3 3.73-4.18.04-.2.1-.42.04-.64l.1.56zM8.42 9.28c-.05-.13-.1-.2-.05-.38-.04.17 0 .25.05.38zm-1.06 1.6c-.1-.12-.13-.3-.13-.5 0 .2 0 .34.13.5zm-.72 1.8c-.13-.18-.17-.4-.13-.65-.02.26 0 .47.15.64zm15.97 1.47c.1.25 0 .42-.06.55-1.87 1.7-4.62 3.4-7.5 4.62-4.28 1.78-7.5 1.9-7.8.38-.04-.13 0-.04.04-.08 0 .04 0 .25.17.5-.04-.08-.08-.12-.13-.2-.03-.05-.03-.1-.07-.13-.1-.15-.13-.3-.2-.45.8 1.06 3.76.85 7.57-.8 2.88-1.23 5.64-2.97 7.5-4.62.34-.17.47.08.5.2zM11.9 21.9c.03.1.07.26-.1.3-1.52.25-2.62.13-3.13-.42-.17-.22-.42-.5-.6-.72.47.6 1.62.76 3.27.5.3 0 .5.26.55.34zm13.34-3.1c.12-.24.25-.62.34-.88-.5 1.65-3.77 4.2-7.33 5.72-2.2.93-4.03 1.27-5 .97.25.1.63.2.93.24 2.7.42 9.57-2.97 11.06-6.02zm-2.2 3.06c0 .04-.1.17-.26.3-.93.76-2.2 1.52-3.52 2.07-1.1.47-2.07.72-2.8.77-.3 0-.7 0-1.05 0 .86.04 2.1-.26 3.58-.85 1.48-.64 2.92-1.48 3.98-2.37.04 0 .04-.05.08-.05 0 0 0 .05.05.05 0 0 0 .04-.06.08zm-16.53-10c0-.04.06-.12.06-.17.1-.27.26-.65.34-.9 0 .12-.05.2-.1.33-.12.2-.2.47-.3.72z"/><filter id="d" width="117.5%" height="117.5%" x="-8.8%" y="-6.2%" filterUnits="objectBoundingBox"><feOffset dy=".5" in="SourceAlpha" result="shadowOffsetOuter1"/><feGaussianBlur in="shadowOffsetOuter1" result="shadowBlurOuter1" stdDeviation=".5"/><feColorMatrix in="shadowBlurOuter1" values="0 0 0 0 0 0 0 0 0 0 0 0 0 0 0 0 0 0 0.204257246 0"/></filter></defs><g fill="none"><use fill="#000" filter="url(#a)" xlink:href="#b"/><use fill="#417BA4" xlink:href="#b"/><use fill="url(#c)" style="mix-blend-mode:soft-light" xlink:href="#b"/><circle cx="16" cy="15" r="14.5" stroke="#000" stroke-opacity=".097"/><use fill="#000" filter="url(#d)" xlink:href="#e"/><use fill="#FFF" fill-rule="evenodd" xlink:href="#e"/></g></svg>