<svg xmlns="http://www.w3.org/2000/svg" width="32" height="32" xmlns:xlink="http://www.w3.org/1999/xlink"><defs><linearGradient id="c" x1="50%" x2="50%" y1="0%" y2="100%"><stop offset="0%" stop-color="#FFF" stop-opacity=".5"/><stop offset="100%" stop-opacity=".5"/></linearGradient><circle id="b" cx="16" cy="15" r="15"/><filter id="a" width="111.7%" height="111.7%" x="-5.8%" y="-4.2%" filterUnits="objectBoundingBox"><feOffset dy=".5" in="SourceAlpha" result="shadowOffsetOuter1"/><feGaussianBlur in="shadowOffsetOuter1" result="shadowBlurOuter1" stdDeviation=".5"/><feComposite in="shadowBlurOuter1" in2="SourceAlpha" operator="out" result="shadowBlurOuter1"/><feColorMatrix in="shadowBlurOuter1" values="0 0 0 0 0 0 0 0 0 0 0 0 0 0 0 0 0 0 0.199473505 0"/></filter><path id="e" d="M15.93 11.9c.37-1.55.82-2.96 1.3-3.88.17-.44.88-1.48 1.66-2.18 1.3-1.15 2.73-1.45 4.25-.5l-.13.22.13-.2c.77.47 1.08.97.95 1.44-.1.35-.48.63-.68.6-.3.03-.6-.03-.9-.24-.2-.16-.4-.4-.53-.72-.23-.5-.5-.67-.85-.63-.25.05-.54.2-.63.3-.04.06-.2.23-.23.27-.23.24-.36.4-.5.64-.47.8-.9 2.25-1.5 5.26l4 .6-.2 1.6-4.1-.6-.18 1.07c0 .05-.02.14-.04.27-.04.13-.06.28-.1.44l4.14.6-.24 1.62-4.23-.62c-.5 2.08-1.13 4.3-1.6 5.18-.16.44-.87 1.5-1.65 2.18-1.3 1.16-2.75 1.45-4.27.5-.77-.5-1.08-.98-.94-1.45.1-.35.5-.63.7-.6.3-.04.6.02.87.24.23.14.4.4.55.7.2.5.48.67.83.63.24-.03.53-.2.62-.3.9-1 1.63-2.95 2.54-7.45l-4.03-.6.22-1.6 4.1.6.16-1.08c0-.05.03-.14.05-.26.03-.14.06-.3.1-.45l-4.13-.6.24-1.6 4.2.6z"/><filter id="d" width="122.9%" height="116.8%" x="-11.5%" y="-6%" filterUnits="objectBoundingBox"><feOffset dy=".5" in="SourceAlpha" result="shadowOffsetOuter1"/><feGaussianBlur in="shadowOffsetOuter1" result="shadowBlurOuter1" stdDeviation=".5"/><feColorMatrix in="shadowBlurOuter1" values="0 0 0 0 0 0 0 0 0 0 0 0 0 0 0 0 0 0 0.204257246 0"/></filter></defs><g fill="none"><use fill="#000" filter="url(#a)" xlink:href="#b"/><use fill="#42C1CA" fill-rule="evenodd" xlink:href="#b"/><use fill="url(#c)" fill-rule="evenodd" style="mix-blend-mode:soft-light" xlink:href="#b"/><circle cx="16" cy="15" r="14.5" stroke="#000" stroke-opacity=".097"/><use fill="#000" filter="url(#d)" xlink:href="#e"/><use fill="#FFF" fill-rule="evenodd" xlink:href="#e"/></g></svg>