<svg xmlns="http://www.w3.org/2000/svg" width="32" height="32" xmlns:xlink="http://www.w3.org/1999/xlink"><defs><linearGradient id="c" x1="50%" x2="50%" y1="0%" y2="100%"><stop offset="0%" stop-color="#FFF" stop-opacity=".5"/><stop offset="100%" stop-opacity=".5"/></linearGradient><circle id="b" cx="16" cy="15" r="15"/><filter id="a" width="111.7%" height="111.7%" x="-5.8%" y="-4.2%" filterUnits="objectBoundingBox"><feOffset dy=".5" in="SourceAlpha" result="shadowOffsetOuter1"/><feGaussianBlur in="shadowOffsetOuter1" result="shadowBlurOuter1" stdDeviation=".5"/><feComposite in="shadowBlurOuter1" in2="SourceAlpha" operator="out" result="shadowBlurOuter1"/><feColorMatrix in="shadowBlurOuter1" values="0 0 0 0 0 0 0 0 0 0 0 0 0 0 0 0 0 0 0.199473505 0"/></filter><path id="e" d="M15.98 19.3c-1.14 1.3-1.17 3.1 0 4.3 1.13-1.1 1.14-3.1 0-4.3m0-12.2c-2.7 3.13-2.6 6.83 0 9.9 2.65-3.13 2.65-6.8 0-9.9m1.9 9.03c2.26-2.3 5-2.83 8.12-2.33-1 2.3-2.42 4.14-4.92 5.1.55-.43 1.06-.8 1.5-1.2.77-.67 1.3-1.5 1.58-2.48.08-.3-.03-.4-.3-.44-1.06-.17-2.04.05-2.98.48-1.58.72-2.87 1.83-4.07 3.03 0 0-.02.04-.05.1 2.36.1 4.16 1.04 5.23 3.2-1.4.33-2.65.27-3.83-.5.9.28 1.77.48 2.74 0-.13-.2-.2-.42-.36-.55-.44-.35-.88-.7-1.38-1-.76-.4-1.62-.6-2.57-.8 1.27 2.24.95 4.27-.6 6.24-.74-.93-1.24-1.88-1.38-3-.13-1.15.2-2.18.73-3.16-1.2-.2-3.82 1.2-4.22 2.3.94.46 1.86.24 2.8-.1-.68.7-2.63.97-3.9.56 1.06-2.14 2.85-3.1 5.27-3.18-.18-.18-.3-.32-.45-.45-1-.97-2.07-1.86-3.33-2.5-1.04-.54-2.1-.87-3.3-.7-.14.02-.28.06-.47.1.36 1.85 1.6 3 3.13 3.96-1.6-.2-4.33-3-4.86-5.03 3.1-.5 5.87.05 8.1 2.4C12.27 12.07 13.25 8.42 16 5c2.7 3.4 3.7 7.02 1.9 11.13"/><filter id="d" width="117.5%" height="117.5%" x="-8.8%" y="-6.2%" filterUnits="objectBoundingBox"><feOffset dy=".5" in="SourceAlpha" result="shadowOffsetOuter1"/><feGaussianBlur in="shadowOffsetOuter1" result="shadowBlurOuter1" stdDeviation=".5"/><feColorMatrix in="shadowBlurOuter1" values="0 0 0 0 0 0 0 0 0 0 0 0 0 0 0 0 0 0 0.204257246 0"/></filter></defs><g fill="none"><use fill="#000" filter="url(#a)" xlink:href="#b"/><use fill="#2080A2" xlink:href="#b"/><use fill="url(#c)" style="mix-blend-mode:soft-light" xlink:href="#b"/><circle cx="16" cy="15" r="14.5" stroke="#000" stroke-opacity=".097"/><use fill="#000" filter="url(#d)" xlink:href="#e"/><use fill="#FFF" xlink:href="#e"/></g></svg>