<?xml version="1.0" standalone="no"?>
<!DOCTYPE svg PUBLIC "-//W3C//DTD SVG 20010904//EN"
 "http://www.w3.org/TR/2001/REC-SVG-20010904/DTD/svg10.dtd">
<svg version="1.0" xmlns="http://www.w3.org/2000/svg"
 width="250.000000pt" height="240.000000pt" viewBox="0 0 250.000000 240.000000"
 preserveAspectRatio="xMidYMid meet">

<g transform="translate(0.000000,240.000000) scale(0.100000,-0.100000)"
fill="#000000" stroke="none">
<path d="M533 1921 c-51 -54 -93 -102 -93 -107 0 -4 50 -56 112 -114 l112
-106 -37 -77 c-94 -192 -95 -427 -2 -611 l34 -69 -119 -125 c-66 -69 -120
-128 -120 -133 0 -4 46 -51 103 -104 l102 -97 120 127 120 126 35 -22 c107
-67 293 -106 428 -89 93 12 124 21 225 68 l77 35 119 -116 c66 -65 123 -117
128 -117 5 0 53 45 108 100 l100 100 -125 118 -125 119 37 79 c52 111 68 184
68 306 0 118 -22 212 -71 309 l-30 60 115 122 116 122 -78 78 c-42 43 -90 88
-106 100 l-30 21 -110 -117 -111 -117 -80 40 c-108 54 -178 70 -305 70 -123 0
-192 -15 -303 -67 l-77 -36 -114 111 c-63 62 -118 112 -123 111 -4 0 -50 -45
-100 -98z m796 -301 c216 -41 369 -258 334 -473 -47 -282 -345 -436 -601 -311
-73 36 -150 113 -186 186 -152 312 113 663 453 598z"/>
</g>
</svg>
