<svg xmlns="http://www.w3.org/2000/svg" width="32" height="32" xmlns:xlink="http://www.w3.org/1999/xlink"><defs><linearGradient id="c" x1="50%" x2="50%" y1="0%" y2="100%"><stop offset="0%" stop-color="#FFF" stop-opacity=".5"/><stop offset="100%" stop-opacity=".5"/></linearGradient><circle id="b" cx="16" cy="15" r="15"/><filter id="a" width="111.7%" height="111.7%" x="-5.8%" y="-4.2%" filterUnits="objectBoundingBox"><feOffset dy=".5" in="SourceAlpha" result="shadowOffsetOuter1"/><feGaussianBlur in="shadowOffsetOuter1" result="shadowBlurOuter1" stdDeviation=".5"/><feComposite in="shadowBlurOuter1" in2="SourceAlpha" operator="out" result="shadowBlurOuter1"/><feColorMatrix in="shadowBlurOuter1" values="0 0 0 0 0 0 0 0 0 0 0 0 0 0 0 0 0 0 0.199473505 0"/></filter><path id="e" d="M25 10.84c-.93-.97-2.84-1.8-6.4-2.3-1.18-.15-2.32-.28-3.4-.36-.88-.05-1.73-.1-2.56-.1-1.37 2.05-2.67 4.53-3.8 7.5C7.6 18.88 6.48 22.1 5.7 25h-.23c.08-3.14.6-6.7 1.66-10.4.7-2.4 1.53-4.5 2.46-6.34C5.4 8.7 2.4 10 1 11.86c1.2-2.94 4.73-5.42 10.14-6.3C14 1.3 17.4-.64 20.22.2c.98.28 1.8.92 2.48 1.8-.08-.04-.16-.1-.26-.12-2.07-.84-4.86.37-7.58 3.38.05 0 .08 0 .13 0 6.06-.03 9.14 2.55 10 5.58zm-7.6 3.96c1.65 0 3 1.4 3 3.1 0 1.72-1.35 3.12-3 3.12-1.66 0-3-1.4-3-3.1 0-1.75 1.34-3.12 3-3.12z"/><filter id="d" width="114.6%" height="114%" x="-7.3%" y="-5%" filterUnits="objectBoundingBox"><feOffset dy=".5" in="SourceAlpha" result="shadowOffsetOuter1"/><feGaussianBlur in="shadowOffsetOuter1" result="shadowBlurOuter1" stdDeviation=".5"/><feColorMatrix in="shadowBlurOuter1" values="0 0 0 0 0 0 0 0 0 0 0 0 0 0 0 0 0 0 0.204257246 0"/></filter></defs><g fill="none"><use fill="#000" filter="url(#a)" xlink:href="#b"/><use fill="#1D9AD7" xlink:href="#b"/><use fill="url(#c)" style="mix-blend-mode:soft-light" xlink:href="#b"/><circle cx="16" cy="15" r="14.5" stroke="#000" stroke-opacity=".097"/><use fill="#000" filter="url(#d)" xlink:href="#e"/><use fill="#FFF" xlink:href="#e"/></g></svg>