<?xml version="1.0" standalone="no"?>
<!DOCTYPE svg PUBLIC "-//W3C//DTD SVG 20010904//EN"
 "http://www.w3.org/TR/2001/REC-SVG-20010904/DTD/svg10.dtd">
<svg version="1.0" xmlns="http://www.w3.org/2000/svg"
 width="250.000000pt" height="250.000000pt" viewBox="0 0 250.000000 250.000000"
 preserveAspectRatio="xMidYMid meet">

<g transform="translate(0.000000,250.000000) scale(0.100000,-0.100000)"
fill="#000000" stroke="none">
<path d="M1183 2486 c-11 -19 -48 -36 -76 -36 -13 0 -34 -9 -47 -20 -13 -11
-31 -20 -40 -20 -10 0 -23 -7 -30 -15 -6 -8 -21 -17 -32 -21 -11 -3 -35 -16
-54 -29 -19 -13 -55 -33 -79 -45 -25 -12 -45 -25 -45 -30 0 -4 -11 -11 -24
-14 -13 -3 -48 -21 -78 -40 -110 -70 -120 -76 -132 -76 -8 0 -19 -7 -26 -16
-8 -8 -27 -22 -44 -30 -17 -8 -49 -25 -71 -39 -22 -13 -47 -27 -55 -31 -8 -4
-26 -16 -39 -26 -13 -10 -31 -18 -40 -18 -9 0 -24 -9 -34 -20 -9 -11 -23 -20
-30 -20 -7 0 -28 -10 -46 -23 l-33 -23 1 -597 1 -598 23 -31 c31 -45 87 -97
122 -114 17 -8 48 -25 70 -39 22 -13 52 -29 68 -36 15 -6 27 -15 27 -19 0 -5
16 -14 35 -20 19 -6 35 -15 35 -20 0 -5 16 -14 35 -20 19 -6 35 -15 35 -20 0
-4 12 -13 28 -19 15 -7 45 -23 67 -36 22 -14 54 -32 70 -41 17 -8 48 -26 70
-40 22 -13 52 -29 68 -35 15 -6 27 -15 27 -19 0 -5 15 -14 34 -20 19 -6 37
-17 40 -25 3 -8 14 -15 25 -15 11 0 26 -7 35 -15 8 -8 25 -20 38 -26 13 -6 43
-21 68 -34 28 -15 49 -20 55 -14 5 5 17 9 26 9 10 0 24 7 33 15 8 8 25 20 38
25 13 6 41 22 63 35 22 14 54 32 70 41 17 8 48 26 70 40 22 13 54 31 70 39 17
9 48 27 70 40 22 13 51 30 65 37 14 7 43 25 65 39 44 28 83 50 131 73 17 8 36
22 44 30 7 9 20 16 30 16 10 0 23 6 29 14 7 8 38 27 69 42 71 35 167 130 176
174 3 18 6 153 6 301 0 271 5 313 37 327 10 4 35 18 56 31 l37 23 0 171 c0 95
3 182 6 195 5 18 2 22 -19 22 -14 0 -27 -6 -30 -14 -3 -8 -19 -17 -36 -21 -17
-4 -33 -11 -37 -16 -3 -5 -20 -16 -37 -24 -18 -8 -39 -19 -47 -24 -8 -5 -26
-14 -40 -20 -14 -7 -74 -38 -135 -71 -60 -33 -121 -64 -135 -71 -14 -6 -32
-15 -40 -20 -8 -5 -29 -16 -47 -24 -17 -8 -34 -19 -37 -24 -3 -4 -19 -11 -36
-14 l-30 -7 2 -201 c3 -213 7 -230 46 -191 11 11 31 23 44 27 12 4 30 13 38
20 16 13 86 45 101 45 4 0 15 -7 23 -16 13 -12 16 -39 16 -131 0 -100 -3 -119
-21 -144 -11 -16 -26 -29 -33 -29 -7 0 -21 -9 -31 -20 -10 -11 -26 -20 -35
-20 -9 0 -25 -9 -35 -20 -10 -11 -23 -20 -29 -20 -6 0 -35 -16 -65 -35 -29
-19 -63 -38 -76 -41 -13 -3 -26 -12 -29 -19 -2 -7 -18 -16 -35 -20 -17 -4 -34
-12 -38 -19 -8 -13 -37 -30 -99 -59 -17 -8 -35 -20 -38 -26 -4 -6 -15 -11 -25
-11 -10 0 -24 -7 -31 -16 -8 -8 -27 -22 -44 -30 -17 -8 -42 -21 -56 -30 -31
-19 -82 -12 -117 15 -14 12 -34 21 -45 21 -10 0 -21 6 -24 14 -3 8 -18 20 -32
26 -15 6 -45 22 -67 35 -22 13 -53 31 -70 40 -16 8 -48 26 -70 40 -22 13 -53
31 -70 40 -16 9 -43 25 -60 35 -16 11 -45 27 -62 35 -30 14 -93 70 -136 122
-10 11 -27 56 -38 98 -17 69 -19 115 -19 397 0 343 3 366 53 389 12 5 40 21
62 34 22 14 54 32 70 41 17 8 48 26 70 39 22 14 51 30 65 37 14 7 28 18 33 25
4 6 20 14 36 18 16 3 32 12 34 19 3 8 17 16 32 20 14 4 48 22 75 41 28 19 54
35 59 35 4 0 19 8 32 18 39 30 132 44 203 30 34 -6 70 -19 81 -28 11 -9 31
-22 45 -28 14 -7 39 -21 55 -32 17 -11 44 -26 60 -35 17 -8 48 -26 70 -40 22
-13 54 -31 70 -40 17 -9 48 -27 70 -40 22 -13 52 -29 67 -35 14 -6 29 -18 32
-26 3 -8 14 -14 24 -14 11 0 31 -9 45 -20 29 -23 79 -26 99 -7 12 13 28 22
103 62 17 9 48 27 70 41 22 13 52 30 68 36 44 20 36 26 -108 102 -16 9 -43 25
-60 36 -45 29 -95 57 -137 76 -21 9 -38 20 -38 25 0 4 -12 12 -27 18 -16 7
-46 23 -68 36 -22 13 -55 31 -72 39 -18 8 -33 19 -33 25 0 5 -13 12 -30 16
-16 4 -33 11 -36 17 -4 5 -21 17 -38 25 -46 21 -74 38 -94 56 -10 10 -25 17
-34 17 -8 0 -23 9 -33 20 -10 11 -26 20 -35 20 -10 0 -29 9 -43 20 -14 11 -39
20 -57 20 -19 0 -40 9 -55 24 -19 19 -27 22 -32 12z"/>
</g>
</svg>
