<svg xmlns="http://www.w3.org/2000/svg" width="32" height="32" xmlns:xlink="http://www.w3.org/1999/xlink"><defs><linearGradient id="c" x1="50%" x2="50%" y1="0%" y2="100%"><stop offset="0%" stop-color="#FFF" stop-opacity=".5"/><stop offset="100%" stop-opacity=".5"/></linearGradient><circle id="b" cx="16" cy="15" r="15"/><filter id="a" width="111.7%" height="111.7%" x="-5.8%" y="-4.2%" filterUnits="objectBoundingBox"><feOffset dy=".5" in="SourceAlpha" result="shadowOffsetOuter1"/><feGaussianBlur in="shadowOffsetOuter1" result="shadowBlurOuter1" stdDeviation=".5"/><feComposite in="shadowBlurOuter1" in2="SourceAlpha" operator="out" result="shadowBlurOuter1"/><feColorMatrix in="shadowBlurOuter1" values="0 0 0 0 0 0 0 0 0 0 0 0 0 0 0 0 0 0 0.199473505 0"/></filter><path id="e" d="M20.5 4.3l1.2 1.2-2.28 2.33c.48.73.74 1.6.74 2.48 0 1.2-.44 2.3-1.26 3.15-.6.64-1.37 1.06-2.2 1.23v2.04c.82.18 1.6.6 2.2 1.23.82.84 1.26 1.94 1.26 3.13 0 1.2-.44 2.3-1.26 3.14-.8.84-1.9 1.3-3.07 1.3-1.16 0-2.25-.46-3.07-1.3-.8-.84-1.26-1.96-1.26-3.14 0-1.18.45-2.3 1.26-3.13.6-.64 1.37-1.06 2.22-1.22V14.7c-.84-.17-1.6-.6-2.22-1.22-.8-.84-1.26-1.96-1.26-3.14 0-1.17.45-2.3 1.26-3.12.82-.84 1.9-1.3 3.07-1.3.86 0 1.7.26 2.4.74L20.5 4.3zm-4.67 14.04c-.7 0-1.37.28-1.85.8-.5.5-.78 1.2-.78 1.92 0 .73.27 1.4.78 1.93.5.5 1.15.77 1.85.77.7 0 1.37-.28 1.86-.8.5-.5.75-1.2.75-1.92s-.27-1.4-.78-1.93c-.48-.5-1.14-.8-1.85-.8zm1.85-6.1c.5-.5.78-1.2.78-1.92 0-.74-.27-1.42-.77-1.92s-1.18-.8-1.88-.8-1.37.28-1.85.8c-.5.5-.78 1.2-.78 1.92 0 .73.26 1.4.77 1.93.5.5 1.15.8 1.85.8.7 0 1.37-.3 1.85-.8z"/><filter id="d" width="134.3%" height="116.5%" x="-17.2%" y="-5.9%" filterUnits="objectBoundingBox"><feOffset dy=".5" in="SourceAlpha" result="shadowOffsetOuter1"/><feGaussianBlur in="shadowOffsetOuter1" result="shadowBlurOuter1" stdDeviation=".5"/><feColorMatrix in="shadowBlurOuter1" values="0 0 0 0 0 0 0 0 0 0 0 0 0 0 0 0 0 0 0.204257246 0"/></filter></defs><g fill="none"><use fill="#000" filter="url(#a)" xlink:href="#b"/><use fill="#001D57" xlink:href="#b"/><use fill="url(#c)" style="mix-blend-mode:soft-light" xlink:href="#b"/><circle cx="16" cy="15" r="14.5" stroke="#000" stroke-opacity=".097"/><use fill="#000" filter="url(#d)" xlink:href="#e"/><use fill="#FFF" fill-rule="evenodd" xlink:href="#e"/></g></svg>