<svg xmlns="http://www.w3.org/2000/svg" width="32" height="32" xmlns:xlink="http://www.w3.org/1999/xlink"><defs><linearGradient id="c" x1="50%" x2="50%" y1="0%" y2="100%"><stop offset="0%" stop-color="#FFF" stop-opacity=".5"/><stop offset="100%" stop-opacity=".5"/></linearGradient><circle id="b" cx="16" cy="15" r="15"/><filter id="a" width="111.7%" height="111.7%" x="-5.8%" y="-4.2%" filterUnits="objectBoundingBox"><feOffset dy=".5" in="SourceAlpha" result="shadowOffsetOuter1"/><feGaussianBlur in="shadowOffsetOuter1" result="shadowBlurOuter1" stdDeviation=".5"/><feComposite in="shadowBlurOuter1" in2="SourceAlpha" operator="out" result="shadowBlurOuter1"/><feColorMatrix in="shadowBlurOuter1" values="0 0 0 0 0 0 0 0 0 0 0 0 0 0 0 0 0 0 0.199473505 0"/></filter><path id="e" d="M16.05 4c.53.32 1.06.65 1.6.96 2.53 1.47 5.06 2.93 7.6 4.4.17.1.24.2.24.4 0 3.5 0 7 0 10.48 0 .23-.1.33-.28.42-3.02 1.75-6.03 3.5-9.05 5.25-.04.04-.08.08-.13.1h-.1c-.92-.53-1.83-1.07-2.74-1.6-2.14-1.25-4.3-2.5-6.46-3.74-.18-.1-.24-.23-.24-.44 0-3.45 0-6.9 0-10.38 0-.25.1-.37.3-.5 2.98-1.7 5.97-3.44 8.95-5.17.07-.04.13-.1.2-.15h.1zm2.8 17.48c.42.28.83.58 1.24.88 0 0 .04-.02.07-.04 1.35-.78 2.7-1.56 4.05-2.35.08-.05.15-.2.15-.28 0-3.15 0-6.27 0-9.4 0-.1-.08-.23-.16-.27-1.32-.78-2.66-1.55-4-2.33-.13-.07-.2-.05-.32.04-.33.26-3.5 2.2-4.75 2.94-.98.6-1.93 1.2-2.68 2.07-1.03 1.2-1.13 2.88-.22 4.2.44.64 1.04 1.13 1.7 1.57.5.35 1.03.67 1.55 1-.02.03-.03.05-.04.06-.7.4-1.37.8-2.06 1.18-.07.04-.2 0-.3-.04-.73-.47-1.4-1.05-2-1.68-1.73-1.82-2.08-4.8-.82-6.96.6-1.02 1.4-1.85 2.36-2.48 1.26-.82 4.77-2.9 5.23-3.2-.03-.04-.05-.07-.07-.08-.55-.33-1.1-.65-1.66-.96-.08-.05-.23-.03-.32.02-.3.15-.6.34-.9.5-.26.17-.53.32-.83.5.5.32.95.6 1.43.9-.74.44-1.43.86-2.13 1.26-.06.03-.18 0-.24-.04-.35-.23-.7-.47-1.02-.74-.13-.1-.23-.12-.4-.03-1.3.77-2.6 1.52-3.93 2.28-.14.1-.2.2-.2.37.02 3.1.02 6.2 0 9.3 0 .16.05.25.2.34 1.3.76 2.6 1.5 3.9 2.27.15.1.25.1.4 0 .93-.63 5.2-3.3 6.38-4.04.2-.13.37-.3.55-.46 0-.03-.02-.05-.03-.07h-4.43c.45-.8.87-1.53 1.3-2.26.05-.07.2-.1.3-.1 2 0 4 0 6 0 .1 0 .17 0 .27.02 0 .1.04.18 0 .25-.1.57-.2 1.14-.4 1.66-.47 1.25-1.35 2.2-2.42 2.94-1.16.8-4.9 3-5.52 3.37.03.05.03.07.05.08.4.23.8.42 1.15.7.5.38.95.38 1.46 0 .37-.3.8-.48 1.24-.74-.52-.3-1-.6-1.47-.9.03-.03.06-.06.08-.1.67-.37 1.34-.76 2.02-1.14.06-.03.2 0 .26.03zm2.9-9.34c.35.6.6 1.4.64 2-.7 0-1.35 0-2 0-.06 0-.16-.07-.18-.12-.32-1-1-1.7-1.8-2.28-.58-.42-1.2-.8-1.78-1.18-.05-.04-.1-.07-.18-.13.13-.08.24-.14.35-.2.56-.33 1.1-.65 1.66-.96.1-.06.3-.1.37-.04 1.17.77 2.2 1.67 2.9 2.9z"/><filter id="d" width="118.4%" height="115.9%" x="-9.2%" y="-5.7%" filterUnits="objectBoundingBox"><feOffset dy=".5" in="SourceAlpha" result="shadowOffsetOuter1"/><feGaussianBlur in="shadowOffsetOuter1" result="shadowBlurOuter1" stdDeviation=".5"/><feColorMatrix in="shadowBlurOuter1" values="0 0 0 0 0 0 0 0 0 0 0 0 0 0 0 0 0 0 0.204257246 0"/></filter></defs><g fill="none"><use fill="#000" filter="url(#a)" xlink:href="#b"/><use fill="#5411B3" xlink:href="#b"/><use fill="url(#c)" style="mix-blend-mode:soft-light" xlink:href="#b"/><circle cx="16" cy="15" r="14.5" stroke="#000" stroke-opacity=".097"/><use fill="#000" filter="url(#d)" xlink:href="#e"/><use fill="#FFF" xlink:href="#e"/></g></svg>