<svg xmlns="http://www.w3.org/2000/svg" width="32" height="32" xmlns:xlink="http://www.w3.org/1999/xlink"><defs><linearGradient id="c" x1="50%" x2="50%" y1="0%" y2="100%"><stop offset="0%" stop-color="#FFF" stop-opacity=".5"/><stop offset="100%" stop-opacity=".5"/></linearGradient><circle id="b" cx="16" cy="15" r="15"/><filter id="a" width="111.7%" height="111.7%" x="-5.8%" y="-4.2%" filterUnits="objectBoundingBox"><feOffset dy=".5" in="SourceAlpha" result="shadowOffsetOuter1"/><feGaussianBlur in="shadowOffsetOuter1" result="shadowBlurOuter1" stdDeviation=".5"/><feComposite in="shadowBlurOuter1" in2="SourceAlpha" operator="out" result="shadowBlurOuter1"/><feColorMatrix in="shadowBlurOuter1" values="0 0 0 0 0 0 0 0 0 0 0 0 0 0 0 0 0 0 0.199473505 0"/></filter><path id="e" d="M15.38 13H8.02v7.22c0 .74.3 1.45.82 1.97.53.5 1.26.8 2 .8h4.54V13zm.17-3.78h.8c.77-1.35 1.5-2.27 2.16-2.76.86-.62 1.7-.62 2.38.03.62.6.74 1.37.33 2.1-.1.2-.26.4-.46.6h2.9c.7 0 1.37.57 1.37 1.34 0 .67-.56 1.34-1.35 1.34H16.5v-1.8h-1.1v1.8H8.36c-.68 0-1.36-.57-1.36-1.35 0-.66.57-1.33 1.36-1.33h2.94c-.2-.2-.36-.38-.5-.57-.48-.74-.42-1.53.22-2.16.66-.66 1.52-.66 2.35-.04.67.5 1.4 1.4 2.18 2.76zm-1.32 0c-.58-.92-1.1-1.55-1.54-1.87-.43-.3-.65-.3-.9-.07-.24.24-.26.45-.05.77.24.36.73.76 1.45 1.17h1.03zm3.42 0h1.22c.7-.4 1.14-.8 1.33-1.14.17-.3.14-.53-.13-.8-.24-.24-.47-.23-.88.07-.46.32-.98.95-1.56 1.87zM16.5 13h7.37v7.22c0 .74-.3 1.45-.83 1.97s-1.25.8-2 .8H16.5V13z"/><filter id="d" width="119.4%" height="120.6%" x="-9.7%" y="-7.4%" filterUnits="objectBoundingBox"><feOffset dy=".5" in="SourceAlpha" result="shadowOffsetOuter1"/><feGaussianBlur in="shadowOffsetOuter1" result="shadowBlurOuter1" stdDeviation=".5"/><feColorMatrix in="shadowBlurOuter1" values="0 0 0 0 0 0 0 0 0 0 0 0 0 0 0 0 0 0 0.204257246 0"/></filter></defs><g fill="none"><use fill="#000" filter="url(#a)" xlink:href="#b"/><use fill="#7F27FF" fill-rule="evenodd" xlink:href="#b"/><use fill="url(#c)" fill-rule="evenodd" style="mix-blend-mode:soft-light" xlink:href="#b"/><circle cx="16" cy="15" r="14.5" stroke="#000" stroke-opacity=".097"/><use fill="#000" filter="url(#d)" xlink:href="#e"/><use fill="#FFF" fill-rule="evenodd" xlink:href="#e"/></g></svg>