<svg xmlns="http://www.w3.org/2000/svg" width="32" height="32" xmlns:xlink="http://www.w3.org/1999/xlink"><defs><linearGradient id="c" x1="50%" x2="50%" y1="0%" y2="100%"><stop offset="0%" stop-color="#FFF" stop-opacity=".5"/><stop offset="100%" stop-opacity=".5"/></linearGradient><circle id="b" cx="16" cy="15" r="15"/><filter id="a" width="111.7%" height="111.7%" x="-5.8%" y="-4.2%" filterUnits="objectBoundingBox"><feOffset dy=".5" in="SourceAlpha" result="shadowOffsetOuter1"/><feGaussianBlur in="shadowOffsetOuter1" result="shadowBlurOuter1" stdDeviation=".5"/><feComposite in="shadowBlurOuter1" in2="SourceAlpha" operator="out" result="shadowBlurOuter1"/><feColorMatrix in="shadowBlurOuter1" values="0 0 0 0 0 0 0 0 0 0 0 0 0 0 0 0 0 0 0.199473505 0"/></filter><path id="e" d="M7.02 6.03c1.27-1.33 3.6-1.38 4.9-.1C13.3 7.3 14.65 8.63 16 10c1.42-1.36 2.75-2.8 4.2-4.16 1.35-1.23 3.67-1.1 4.88.3 1.24 1.3 1.22 3.57-.07 4.83-1.3 1.35-2.65 2.68-4 4.02 1.38 1.4 2.8 2.75 4.16 4.17 1.22 1.34 1.1 3.6-.2 4.83-1.3 1.32-3.64 1.33-4.93 0-1.35-1.3-2.67-2.66-4-4-1.43 1.38-2.8 2.82-4.24 4.18-1.4 1.23-3.7 1.05-4.9-.36-1.2-1.3-1.18-3.5.07-4.77 1.17-1.2 2.37-2.4 3.56-3.57.5.5 1 1 1.5 1.5-1.16 1.22-2.4 2.38-3.56 3.62-.78.8-.1 2.3 1 2.27.67.06 1.13-.5 1.56-.9 1.15-1.18 2.3-2.32 3.46-3.5-2.5-2.5-5.05-5-7.54-7.53-1.3-1.3-1.26-3.64.07-4.9zm1.45 3.4c1.33 1.37 2.7 2.7 4.05 4.06.65-.68 1.3-1.34 1.96-2-1.3-1.3-2.6-2.62-3.92-3.92-.42-.46-1.14-.63-1.7-.3-.76.36-1 1.5-.4 2.12zm12.94-1.8c-2.46 2.44-4.9 4.93-7.37 7.38.67.67 1.33 1.3 1.98 1.98.5-.5 1-1 1.5-1.5.5.5 1 1.02 1.5 1.52-.5.5-.97.98-1.47 1.48 1.34 1.34 2.65 2.72 4.04 4.02.7.74 2.06.3 2.27-.68.22-.7-.28-1.3-.75-1.72-2.2-2.2-4.4-4.4-6.6-6.6.5-.5 1-1 1.5-1.5.5.5 1 1 1.5 1.48 1.3-1.36 2.7-2.65 4-4.03.66-.64.4-1.85-.43-2.2-.56-.28-1.24-.08-1.65.38z"/><filter id="d" width="117.5%" height="117.5%" x="-8.8%" y="-6.3%" filterUnits="objectBoundingBox"><feOffset dy=".5" in="SourceAlpha" result="shadowOffsetOuter1"/><feGaussianBlur in="shadowOffsetOuter1" result="shadowBlurOuter1" stdDeviation=".5"/><feColorMatrix in="shadowBlurOuter1" values="0 0 0 0 0 0 0 0 0 0 0 0 0 0 0 0 0 0 0.204257246 0"/></filter></defs><g fill="none"><use fill="#000" filter="url(#a)" xlink:href="#b"/><use fill="#35A5F3" fill-rule="evenodd" xlink:href="#b"/><use fill="url(#c)" fill-rule="evenodd" style="mix-blend-mode:soft-light" xlink:href="#b"/><circle cx="16" cy="15" r="14.5" stroke="#000" stroke-opacity=".097"/><use fill="#000" filter="url(#d)" xlink:href="#e"/><use fill="#FFF" fill-rule="evenodd" xlink:href="#e"/></g></svg>