<svg xmlns="http://www.w3.org/2000/svg" width="32" height="32" xmlns:xlink="http://www.w3.org/1999/xlink"><defs><linearGradient id="c" x1="50%" x2="50%" y1="0%" y2="100%"><stop offset="0%" stop-color="#FFF" stop-opacity=".5"/><stop offset="100%" stop-opacity=".5"/></linearGradient><circle id="b" cx="16" cy="15" r="15"/><filter id="a" width="111.7%" height="111.7%" x="-5.8%" y="-4.2%" filterUnits="objectBoundingBox"><feOffset dy=".5" in="SourceAlpha" result="shadowOffsetOuter1"/><feGaussianBlur in="shadowOffsetOuter1" result="shadowBlurOuter1" stdDeviation=".5"/><feComposite in="shadowBlurOuter1" in2="SourceAlpha" operator="out" result="shadowBlurOuter1"/><feColorMatrix in="shadowBlurOuter1" values="0 0 0 0 0 0 0 0 0 0 0 0 0 0 0 0 0 0 0.199473505 0"/></filter><path id="e" d="M10.75 6.5h4.35c-.52.83-.84 1.75-.82 2.74 1.3 0 2.6 0 3.9 0 0-1-.26-1.93-.83-2.74h4.4c-.3.63-.83 1.22-.78 1.96-.02 3.33 0 6.65 0 9.98.43 0 .86 0 1.3 0 .32-.63.6-1.27.82-1.94 1.3.03 2.6-.04 3.9.14-1.3 1.1-1.96 2.68-2.8 4.1-3.3.02-6.6 0-9.94.02-.16 1.2.6 2.04 1.45 2.74h-5.6c.5-.64 1.48-1.06 1.38-2 .02-3.2 0-6.43 0-9.65h2.84v1.98h3.77v-2.27h-7.87C9.6 12.7 8.93 13.86 8.3 15c.64 1.15 1.3 2.3 1.95 3.44h.96v2.3H8.27c-1.1-1.9-2.2-3.8-3.26-5.74 1.06-1.93 2.18-3.83 3.25-5.75 1.1 0 2.2 0 3.3 0 .02-1-.25-1.93-.8-2.75zm3.6 9.67v2.27h3.76v-2.27h-3.75zm6.9-6.92h2.96c.8 1.3 1.38 2.8 2.55 3.84.02.06.06.2.1.3-1.26.15-2.52.03-3.78.1-.16-.7-.47-1.34-.82-1.95-.25 0-.74 0-.98 0v-2.3zm-3.04 11.8c.9 0 1.77 0 2.64 0-.02 1.1.76 1.8 1.52 2.45h-5.63c.72-.7 1.56-1.34 1.5-2.46z"/><filter id="d" width="115.9%" height="120.6%" x="-8%" y="-7.4%" filterUnits="objectBoundingBox"><feOffset dy=".5" in="SourceAlpha" result="shadowOffsetOuter1"/><feGaussianBlur in="shadowOffsetOuter1" result="shadowBlurOuter1" stdDeviation=".5"/><feColorMatrix in="shadowBlurOuter1" values="0 0 0 0 0 0 0 0 0 0 0 0 0 0 0 0 0 0 0.204257246 0"/></filter></defs><g fill="none"><use fill="#000" filter="url(#a)" xlink:href="#b"/><use fill="#56428E" fill-rule="evenodd" xlink:href="#b"/><use fill="url(#c)" fill-rule="evenodd" style="mix-blend-mode:soft-light" xlink:href="#b"/><circle cx="16" cy="15" r="14.5" stroke="#000" stroke-opacity=".097"/><use fill="#000" filter="url(#d)" xlink:href="#e"/><use fill="#FFF" fill-rule="evenodd" xlink:href="#e"/></g></svg>