<?xml version="1.0" standalone="no"?>
<!DOCTYPE svg PUBLIC "-//W3C//DTD SVG 20010904//EN"
 "http://www.w3.org/TR/2001/REC-SVG-20010904/DTD/svg10.dtd">
<svg version="1.0" xmlns="http://www.w3.org/2000/svg"
 width="250.000000pt" height="246.000000pt" viewBox="0 0 250.000000 246.000000"
 preserveAspectRatio="xMidYMid meet">

<g transform="translate(0.000000,246.000000) scale(0.100000,-0.100000)"
fill="#000000" stroke="none">
<path d="M452 1333 c-57 -68 -82 -101 -82 -112 0 -5 -11 -20 -24 -33 -13 -13
-26 -35 -30 -49 -8 -35 -44 -49 -129 -49 -87 0 -112 -14 -121 -67 -16 -91 -31
-139 -48 -155 -24 -22 -24 -75 2 -96 15 -13 21 -37 28 -109 6 -55 16 -103 26
-117 9 -14 16 -34 16 -44 0 -10 11 -33 25 -52 14 -19 25 -38 25 -42 0 -18 110
-147 162 -190 83 -70 171 -121 229 -133 19 -4 45 -13 59 -20 32 -16 191 -28
209 -16 12 8 -2 26 -63 87 -43 43 -82 88 -87 99 -5 11 -25 45 -44 75 -19 30
-34 62 -35 70 0 8 -7 29 -16 45 -18 32 -38 119 -54 225 -7 51 -5 94 11 204 11
76 26 148 34 160 8 11 15 32 15 47 0 14 9 38 20 52 11 14 20 35 20 46 0 12 9
38 20 58 21 39 24 69 14 122 l-6 31 -72 0 c-70 0 -72 -1 -104 -37z m-197 -272
c3 -5 1 -12 -5 -16 -5 -3 -10 1 -10 9 0 18 6 21 15 7z"/>
</g>
</svg>
