<svg xmlns="http://www.w3.org/2000/svg" width="32" height="32" xmlns:xlink="http://www.w3.org/1999/xlink"><defs><linearGradient id="c" x1="50%" x2="50%" y1="0%" y2="100%"><stop offset="0%" stop-color="#FFF" stop-opacity=".5"/><stop offset="100%" stop-opacity=".5"/></linearGradient><circle id="b" cx="16" cy="15" r="15"/><filter id="a" width="111.7%" height="111.7%" x="-5.8%" y="-4.2%" filterUnits="objectBoundingBox"><feOffset dy=".5" in="SourceAlpha" result="shadowOffsetOuter1"/><feGaussianBlur in="shadowOffsetOuter1" result="shadowBlurOuter1" stdDeviation=".5"/><feComposite in="shadowBlurOuter1" in2="SourceAlpha" operator="out" result="shadowBlurOuter1"/><feColorMatrix in="shadowBlurOuter1" values="0 0 0 0 0 0 0 0 0 0 0 0 0 0 0 0 0 0 0.199473505 0"/></filter><filter id="d" width="115.9%" height="115.9%" x="-8%" y="-5.7%" filterUnits="objectBoundingBox"><feOffset dy=".5" in="SourceAlpha" result="shadowOffsetOuter1"/><feGaussianBlur in="shadowOffsetOuter1" result="shadowBlurOuter1" stdDeviation=".5"/><feColorMatrix in="shadowBlurOuter1" result="shadowMatrixOuter1" values="0 0 0 0 0 0 0 0 0 0 0 0 0 0 0 0 0 0 0.204257246 0"/><feMerge><feMergeNode in="shadowMatrixOuter1"/><feMergeNode in="SourceGraphic"/></feMerge></filter></defs><g fill="none"><use fill="#000" filter="url(#a)" xlink:href="#b"/><use fill="#B2A3F6" xlink:href="#b"/><use fill="url(#c)" style="mix-blend-mode:soft-light" xlink:href="#b"/><circle cx="16" cy="15" r="14.5" stroke="#000" stroke-opacity=".097"/><g fill="#FFF" filter="url(#d)" transform="translate(5 4)"><path d="M8.45 7.3c-.76 0-1.38-.6-1.38-1.36 0-.74.62-1.34 1.38-1.34.75 0 1.37.6 1.37 1.34 0 .75-.62 1.35-1.37 1.35zm3.92-1.55c-.76 0-1.37-.6-1.37-1.34 0-.72.6-1.32 1.37-1.32.76 0 1.38.6 1.38 1.34 0 .75-.62 1.35-1.38 1.35zm1.58 9.2c-.76 0-1.38-.6-1.38-1.33 0-.75.62-1.35 1.38-1.35.75 0 1.37.6 1.37 1.35 0 .74-.62 1.34-1.37 1.34zM.8 13.05c-.45 0-.8-.34-.8-.77 0-.42.35-.76.8-.76.42 0 .77.35.77.77 0 .42-.35.76-.78.76zm2.15 5c-.33 0-.6-.27-.6-.6 0-.3.27-.56.6-.56.32 0 .6.24.6.56 0 .32-.28.58-.6.58zm6.28 3.82c-.32 0-.6-.25-.6-.57 0-.33.28-.6.6-.6.33 0 .6.27.6.6 0 .3-.27.56-.6.56zm10.22-3.45c-.33 0-.6-.25-.6-.56 0-.32.27-.58.6-.58.32 0 .6.26.6.58 0 .3-.28.57-.6.57zm-6.3-1.14c-.32 0-.58-.26-.58-.57 0-.32.26-.6.6-.6.32 0 .58.28.58.6 0 .3-.26.57-.6.57zm3.55-2.68c-.33 0-.6-.26-.6-.58 0-.32.27-.58.6-.58.32 0 .6.26.6.58 0 .32-.28.58-.6.58zm-4.13 7.28c-.43 0-.78-.34-.78-.76 0-.43.33-.77.76-.77s.8.34.8.77c0 .42-.37.76-.8.76zm3.54-9.6c-.42 0-.77-.33-.77-.75s.35-.76.8-.76c.42 0 .77.34.77.77s-.36.77-.8.77zm1.2 7.68c-.44 0-.8-.34-.8-.76 0-.43.36-.77.8-.77.43 0 .78.35.78.78 0 .43-.35.77-.78.77zM1.77 16.1c-.55 0-1-.42-1-.95s.45-.96 1-.96c.54 0 .98.4.98.94s-.44.96-.98.96zm9.43 3.84c-.77 0-1.4-.6-1.4-1.34 0-.74.63-1.34 1.4-1.34.74 0 1.36.6 1.36 1.34 0 .74-.62 1.34-1.37 1.34zM3.7 13.42c-.76 0-1.37-.6-1.37-1.34 0-.74.6-1.34 1.37-1.34.76 0 1.38.6 1.38 1.34 0 .74-.6 1.34-1.37 1.34zm7.47 3.07c-.56 0-1-.45-1-.98s.44-.95 1-.95c.53 0 .97.42.97.95s-.44.96-.98.96zM6.47 8.04c-.32 0-.6-.26-.6-.58 0-.32.28-.58.6-.58.33 0 .6.25.6.57 0 .32-.27.58-.6.58zm3.73 2.3c-.63 0-1.15-.52-1.15-1.15 0-.63.52-1.15 1.17-1.15.66 0 1.2.52 1.2 1.16 0 .65-.54 1.17-1.2 1.17zm2.77 1.15c-.43 0-.78-.34-.78-.76s.34-.77.77-.77c.44 0 .8.35.8.77 0 .42-.36.77-.8.77zm1.38-9.58c-.33 0-.6-.26-.6-.58 0-.32.27-.57.6-.57.32 0 .6.25.6.57 0 .32-.28.58-.6.58zm-2.75 0c-.55 0-1-.43-1-.96s.45-.96 1-.96c.53 0 .97.43.97.96s-.44.96-.98.96zm.58 6.13c-.44 0-.8-.34-.8-.76 0-.45.36-.8.8-.8.43 0 .78.35.78.78 0 .4-.35.75-.78.75zM4.7 16.5c-.64 0-1.16-.52-1.16-1.16 0-.63.52-1.15 1.17-1.15.67 0 1.2.5 1.2 1.13 0 .64-.53 1.15-1.2 1.15zm11.4 1.14c-.64 0-1.17-.5-1.17-1.15 0-.65.53-1.17 1.18-1.17.67 0 1.2.52 1.2 1.15 0 .63-.53 1.14-1.18 1.14zm-1.56 2.7c-.66 0-1.18-.53-1.18-1.16 0-.64.52-1.15 1.18-1.15.65 0 1.17.5 1.17 1.15 0 .63-.5 1.15-1.15 1.15zm-9.24 0c-.76 0-1.37-.6-1.37-1.35 0-.77.6-1.37 1.37-1.37.76 0 1.38.6 1.38 1.35 0 .73-.62 1.33-1.38 1.33zm-4.12-9.98C.53 10.36 0 9.84 0 9.2c0-.63.53-1.15 1.18-1.15.65 0 1.18.52 1.18 1.16 0 .65-.53 1.17-1.18 1.17z"/><path d="M7.07 12.27c-.87 0-1.57-.68-1.57-1.53S6.2 9.2 7.07 9.2c.87 0 1.57.7 1.57 1.54 0 .85-.7 1.53-1.57 1.53zm8.25-2.3c-.87 0-1.57-.68-1.57-1.53s.7-1.54 1.57-1.54c.87 0 1.57.7 1.57 1.54 0 .85-.7 1.53-1.6 1.53zm4.32 6.52c-.65 0-1.18-.53-1.18-1.17 0-.63.53-1.15 1.18-1.15.65 0 1.18.5 1.18 1.14 0 .64-.53 1.15-1.18 1.15zm1.18-4.6c-.65 0-1.18-.53-1.18-1.17 0-.64.53-1.15 1.18-1.15.65 0 1.18.5 1.18 1.14 0 .64-.53 1.15-1.18 1.15zM16.3 6.5c-.54 0-.98-.43-.98-.96s.44-.96.98-.96c.55 0 1 .43 1 .96s-.45.96-1 .96zm.2-3.07c-.44 0-.8-.34-.8-.76 0-.44.36-.78.8-.78.43 0 .78.33.78.76 0 .4-.35.75-.78.75zm1.77.77c-.33 0-.6-.26-.6-.58 0-.3.27-.57.6-.57.32 0 .6.26.6.57 0 .32-.28.58-.6.58zm3.14 4.6c-.3 0-.57-.26-.57-.57 0-.32.26-.58.6-.58.32 0 .58.26.58.58 0 .3-.25.57-.6.57zM4.54 3.84c-.33 0-.6-.26-.6-.58 0-.32.27-.57.6-.57.32 0 .6.23.6.55 0 .32-.28.58-.6.58zm-.8 4.98c-.3 0-.58-.26-.58-.57 0-.32.27-.58.6-.58.32 0 .58.26.58.58 0 .3-.26.57-.6.57zm1.58.77c-.3 0-.6-.28-.6-.6 0-.3.3-.57.6-.57.34 0 .6.26.6.57 0 .33-.26.6-.6.6zM7.3 2.3c-.33 0-.6-.27-.6-.58 0-.32.27-.58.6-.58.32 0 .6.26.6.58 0 .3-.28.57-.6.57zM21.4 13.8c-.32 0-.58-.25-.58-.57 0-.3.26-.57.6-.57.32 0 .58.26.58.57 0 .32-.26.58-.6.58zm-1.95-6.13c-.76 0-1.38-.6-1.38-1.34 0-.74.62-1.34 1.38-1.34.75 0 1.37.6 1.37 1.32 0 .74-.62 1.34-1.37 1.34zm-1.18 3.07c-.55 0-1-.43-1-.96s.45-.96 1-.96c.54 0 .98.43.98.96s-.44.96-.98.96zM4.9 6.52c-.53 0-.97-.43-.97-.96s.44-.96.98-.96c.56 0 1 .43 1 .96s-.44.96-1 .96zm4.33-2.7c-.54 0-.98-.4-.98-.94 0-.53.44-.96.98-.96s.98.43.98.96-.42.95-.96.95zm-2.55.4c-.44 0-.8-.34-.8-.77 0-.42.36-.76.8-.76.43 0 .78.32.78.74 0 .43-.35.77-.78.77zM2.36 7.3c-.44 0-.8-.36-.8-.78 0-.42.36-.77.8-.77.43 0 .78.35.78.77 0 .42-.35.77-.78.77zm16.5 6.12c-.44 0-.8-.34-.8-.76 0-.43.36-.77.8-.77.43 0 .78.32.78.75 0 .42-.35.76-.78.76zm-8.45.4c-.74 0-1.35-.6-1.35-1.35 0-.75.6-1.35 1.37-1.35.77 0 1.4.6 1.4 1.35 0 .74-.63 1.34-1.4 1.34zm-2.53.76c-.44 0-.8-.35-.8-.77 0-.4.36-.75.8-.75.43 0 .78.35.78.77 0 .43-.35.78-.78.78zm.4 3.06c-.66 0-1.2-.5-1.2-1.15 0-.65.54-1.17 1.2-1.17.64 0 1.17.52 1.17 1.15 0 .63-.53 1.14-1.18 1.14zm0 2.3c-.45 0-.8-.34-.8-.76 0-.43.35-.77.8-.77.42 0 .77.36.77.8 0 .4-.35.75-.78.75z" opacity=".5"/></g></g></svg>