<svg xmlns="http://www.w3.org/2000/svg" width="32" height="32" xmlns:xlink="http://www.w3.org/1999/xlink"><defs><linearGradient id="c" x1="50%" x2="50%" y1="0%" y2="100%"><stop offset="0%" stop-color="#FFF" stop-opacity=".5"/><stop offset="100%" stop-opacity=".5"/></linearGradient><circle id="b" cx="16" cy="15" r="15"/><filter id="a" width="111.7%" height="111.7%" x="-5.8%" y="-4.2%" filterUnits="objectBoundingBox"><feOffset dy=".5" in="SourceAlpha" result="shadowOffsetOuter1"/><feGaussianBlur in="shadowOffsetOuter1" result="shadowBlurOuter1" stdDeviation=".5"/><feComposite in="shadowBlurOuter1" in2="SourceAlpha" operator="out" result="shadowBlurOuter1"/><feColorMatrix in="shadowBlurOuter1" values="0 0 0 0 0 0 0 0 0 0 0 0 0 0 0 0 0 0 0.199473505 0"/></filter><path id="e" d="M24.25 18.35c.45.17.75.6.75 1.08 0 .4-.2.8-.57 1-.35.2-.8.2-1.15 0l-6.03 3.3c0 .03 0 .06 0 .1.02.63-.5 1.16-1.13 1.17-.64 0-1.18-.5-1.2-1.13L12 22.2h-.08v-.05l-3.1-1.77c-.2.13-.42.2-.65.2-.58 0-1.08-.42-1.16-1-.06-.56.3-1.1.85-1.26V11.7c-.46-.13-.8-.53-.84-1-.03-.5.24-.94.67-1.15.44-.2.96-.12 1.3.2l5.98-3.4c0-.07-.02-.13-.02-.2 0-.63.53-1.15 1.17-1.15.63 0 1.15.52 1.15 1.15 0 .1 0 .17-.02.25l5.82 3.34c.22-.2.5-.3.78-.3.56 0 1.05.4 1.15.94.1.55-.2 1.1-.73 1.3v6.67zm-4.12-2.6v5.68l2.67-1.46c-.1-.17-.13-.35-.13-.54 0-.55.4-1.02.93-1.13v-6.57c-.54-.1-.94-.6-.94-1.14 0-.1.02-.23.05-.33l-2.5-1.44v5.28l-.02.37-.14.06-.9.55.86.52.14.06v.08zM16.1 7.3c-.34 0-.66-.13-.88-.38l-2.65 1.52v5.6l1.1.66 1.36-.8c0-.07 0-.14-.02-.2 0-.57.5-1.02 1.05-1.02.57 0 1.03.45 1.03 1.02 0 .05 0 .1 0 .15l1.4.85 1.06-.63v-5.6l-2.6-1.5c-.23.2-.53.34-.84.34zm.67 8.43l1.08-.65-1.1-.65c-.38.38-1 .4-1.4.02l-1.07.62 1.06.64c.4-.36 1.04-.35 1.43.04zm-7.53 4.15l2.68 1.53v-5.65l.05-.04.22-.12.82-.5-.75-.44-.35-.17V8.8l-2.64 1.5c.15.62-.2 1.23-.8 1.4v6.62c.3.1.57.32.72.62.14.3.15.64.02.94zm6.85 2.8c.34 0 .7.16.9.45l2.48-1.35v-5.73l-1.02-.6-1.42.85c0 .05 0 .1 0 .15 0 .56-.45 1.02-1.02 1.02-.56 0-1.03-.46-1.03-1.02 0-.06 0-.12.02-.18l-1.4-.83-1.06.63v5.7l2.52 1.46c.2-.35.58-.56 1-.56z"/><filter id="d" width="119.4%" height="117.5%" x="-9.7%" y="-6.2%" filterUnits="objectBoundingBox"><feOffset dy=".5" in="SourceAlpha" result="shadowOffsetOuter1"/><feGaussianBlur in="shadowOffsetOuter1" result="shadowBlurOuter1" stdDeviation=".5"/><feColorMatrix in="shadowBlurOuter1" values="0 0 0 0 0 0 0 0 0 0 0 0 0 0 0 0 0 0 0.204257246 0"/></filter></defs><g fill="none"><use fill="#000" filter="url(#a)" xlink:href="#b"/><use fill="#102044" xlink:href="#b"/><use fill="url(#c)" style="mix-blend-mode:soft-light" xlink:href="#b"/><circle cx="16" cy="15" r="14.5" stroke="#000" stroke-opacity=".097"/><use fill="#000" filter="url(#d)" xlink:href="#e"/><use fill="#FFF" fill-rule="evenodd" xlink:href="#e"/></g></svg>