<svg xmlns="http://www.w3.org/2000/svg" width="32" height="32" xmlns:xlink="http://www.w3.org/1999/xlink"><defs><linearGradient id="c" x1="50%" x2="50%" y1="0%" y2="100%"><stop offset="0%" stop-color="#FFF" stop-opacity=".5"/><stop offset="100%" stop-opacity=".5"/></linearGradient><circle id="b" cx="16" cy="15" r="15"/><filter id="a" width="111.7%" height="111.7%" x="-5.8%" y="-4.2%" filterUnits="objectBoundingBox"><feOffset dy=".5" in="SourceAlpha" result="shadowOffsetOuter1"/><feGaussianBlur in="shadowOffsetOuter1" result="shadowBlurOuter1" stdDeviation=".5"/><feComposite in="shadowBlurOuter1" in2="SourceAlpha" operator="out" result="shadowBlurOuter1"/><feColorMatrix in="shadowBlurOuter1" values="0 0 0 0 0 0 0 0 0 0 0 0 0 0 0 0 0 0 0.199473505 0"/></filter><path id="e" d="M16 25c-.65 0-1.28-.17-1.84-.5l-5.3-3.13C7.7 20.7 7 19.47 7 18.12v-6.24c0-1.34.7-2.58 1.85-3.25l5.3-3.12c.57-.32 1.2-.5 1.86-.5.66 0 1.3.18 1.85.5l5.3 3.14C24.3 9.3 25 10.54 25 11.9v6.23c0 1.34-.7 2.58-1.84 3.25l-5.3 3.12c-.57.33-1.2.5-1.85.5zm-3.05-6.43l-.98 1c.5.53 1.22.83 1.95.82 1.53 0 2.77-1.28 2.78-2.84v-.85c.42.26.9.4 1.38.38.74 0 1.45-.28 1.96-.82l-.98-1c-.26.27-.6.42-.98.42-.76 0-1.38-.63-1.38-1.4V9.6h-1.4v7.98c0 .78-.6 1.4-1.37 1.4-.37 0-.72-.14-.98-.4z"/><filter id="d" width="119.4%" height="117.5%" x="-9.7%" y="-6.2%" filterUnits="objectBoundingBox"><feOffset dy=".5" in="SourceAlpha" result="shadowOffsetOuter1"/><feGaussianBlur in="shadowOffsetOuter1" result="shadowBlurOuter1" stdDeviation=".5"/><feColorMatrix in="shadowBlurOuter1" values="0 0 0 0 0 0 0 0 0 0 0 0 0 0 0 0 0 0 0.204257246 0"/></filter></defs><g fill="none"><use fill="#000" filter="url(#a)" xlink:href="#b"/><use fill="#0050DB" xlink:href="#b"/><use fill="url(#c)" style="mix-blend-mode:soft-light" xlink:href="#b"/><circle cx="16" cy="15" r="14.5" stroke="#000" stroke-opacity=".097"/><use fill="#000" filter="url(#d)" xlink:href="#e"/><use fill="#FFF" fill-rule="evenodd" xlink:href="#e"/></g></svg>