<?xml version="1.0" standalone="no"?>
<!DOCTYPE svg PUBLIC "-//W3C//DTD SVG 20010904//EN"
 "http://www.w3.org/TR/2001/REC-SVG-20010904/DTD/svg10.dtd">
<svg version="1.0" xmlns="http://www.w3.org/2000/svg"
 width="250.000000pt" height="250.000000pt" viewBox="0 0 250.000000 250.000000"
 preserveAspectRatio="xMidYMid meet">

<g transform="translate(0.000000,250.000000) scale(0.100000,-0.100000)"
fill="#000000" stroke="none">
<path d="M1253 1991 c4 -98 9 -185 12 -193 4 -10 24 -15 61 -17 30 -1 86 -8
124 -15 39 -8 70 -12 70 -11 0 4 -101 170 -191 312 -35 57 -68 103 -73 103 -5
0 -6 -74 -3 -179z"/>
<path d="M670 1273 c-27 -51 -80 -215 -80 -250 0 -18 35 -16 50 2 7 8 16 15
21 15 4 0 28 12 54 28 44 26 46 28 41 66 -3 27 -2 35 5 25 5 -7 9 -9 10 -4 0
6 2 32 3 58 2 27 9 52 16 57 9 6 7 10 -9 15 -11 3 -21 10 -21 14 0 7 -43 31
-55 31 -2 0 -18 -26 -35 -57z"/>
<path d="M1742 1301 c-24 -17 -37 -31 -30 -33 8 -3 13 -23 14 -49 1 -24 5 -61
9 -81 7 -37 25 -51 132 -102 13 -6 23 -14 23 -18 0 -5 5 -8 10 -8 38 0 -63
304 -105 317 -5 1 -29 -10 -53 -26z"/>
</g>
</svg>
