<svg xmlns="http://www.w3.org/2000/svg" width="32" height="32" xmlns:xlink="http://www.w3.org/1999/xlink"><defs><linearGradient id="c" x1="50%" x2="50%" y1="0%" y2="100%"><stop offset="0%" stop-color="#FFF" stop-opacity=".5"/><stop offset="100%" stop-opacity=".5"/></linearGradient><circle id="b" cx="16" cy="15" r="15"/><filter id="a" width="111.7%" height="111.7%" x="-5.8%" y="-4.2%" filterUnits="objectBoundingBox"><feOffset dy=".5" in="SourceAlpha" result="shadowOffsetOuter1"/><feGaussianBlur in="shadowOffsetOuter1" result="shadowBlurOuter1" stdDeviation=".5"/><feComposite in="shadowBlurOuter1" in2="SourceAlpha" operator="out" result="shadowBlurOuter1"/><feColorMatrix in="shadowBlurOuter1" values="0 0 0 0 0 0 0 0 0 0 0 0 0 0 0 0 0 0 0.199473505 0"/></filter><path id="e" d="M15.8 5.05c.13-.07.27-.07.4 0l8.2 4.62c.13.06.2.18.2.3 0 .14-.07.26-.2.32l-7.14 4.02c-.25-.3-.6-.48-.98-.54v-2.2c.78-.13 1.37-.8 1.37-1.58 0-.9-.74-1.6-1.65-1.6-.9 0-1.64.7-1.64 1.6 0 .8.58 1.44 1.35 1.57v2.2c-.35.06-.7.25-.94.53l-7.16-4c-.25-.13-.25-.48 0-.62l8.2-4.63m8.63 5.82c.12-.07.26-.07.38 0 .13.06.2.18.2.3v8.98c0 .13-.06.25-.2.3l-7.94 4.5c-.25.14-.56-.03-.56-.3l-.02-7.7c.4-.07.74-.27 1-.56l1.98 1.1c-.05.2-.07.4-.04.62.13.88.96 1.5 1.86 1.37.9-.14 1.53-.95 1.4-1.83-.12-.87-.96-1.48-1.86-1.36-.45.07-.86.3-1.12.7l-1.95-1.1c.14-.38.13-.78-.02-1.15l6.9-3.9M7 11.2c0-.2.2-.36.38-.36.07 0 .13 0 .2.05l6.9 3.9c-.15.35-.16.76-.02 1.13L12.5 17c-.25-.37-.66-.62-1.1-.68-.9-.12-1.74.5-1.87 1.36-.13.88.5 1.7 1.4 1.82.9.12 1.73-.5 1.86-1.37 0-.2 0-.42-.06-.63l2-1.1c.24.28.58.48.97.54v7.7c0 .28-.3.45-.56.3L7.2 20.47c-.13-.06-.2-.18-.2-.3V11.2"/><filter id="d" width="119.4%" height="117.5%" x="-9.7%" y="-6.2%" filterUnits="objectBoundingBox"><feOffset dy=".5" in="SourceAlpha" result="shadowOffsetOuter1"/><feGaussianBlur in="shadowOffsetOuter1" result="shadowBlurOuter1" stdDeviation=".5"/><feColorMatrix in="shadowBlurOuter1" values="0 0 0 0 0 0 0 0 0 0 0 0 0 0 0 0 0 0 0.204257246 0"/></filter></defs><g fill="none"><use fill="#000" filter="url(#a)" xlink:href="#b"/><use fill="#F55749" fill-rule="evenodd" xlink:href="#b"/><use fill="url(#c)" fill-rule="evenodd" style="mix-blend-mode:soft-light" xlink:href="#b"/><circle cx="16" cy="15" r="14.5" stroke="#000" stroke-opacity=".097"/><use fill="#000" filter="url(#d)" xlink:href="#e"/><use fill="#FFF" fill-rule="evenodd" xlink:href="#e"/></g></svg>