<?xml version="1.0" standalone="no"?>
<!DOCTYPE svg PUBLIC "-//W3C//DTD SVG 20010904//EN"
 "http://www.w3.org/TR/2001/REC-SVG-20010904/DTD/svg10.dtd">
<svg version="1.0" xmlns="http://www.w3.org/2000/svg"
 width="250.000000pt" height="250.000000pt" viewBox="0 0 250.000000 250.000000"
 preserveAspectRatio="xMidYMid meet">
<metadata>
Created by potrace 1.16, written by Peter Selinger 2001-2019
</metadata>
<g transform="translate(0.000000,250.000000) scale(0.100000,-0.100000)"
fill="#000000" stroke="none">
<path d="M1 1993 c1 -280 5 -488 9 -463 8 47 40 141 51 150 4 3 10 21 14 40 4
19 25 67 46 106 21 39 39 83 39 97 0 19 33 58 132 159 162 163 232 218 358
279 25 12 47 25 50 29 3 4 27 15 55 24 27 10 54 21 60 26 6 5 50 18 99 29 48
10 90 22 93 25 4 3 -222 6 -500 6 l-507 0 1 -507z"/>
<path d="M1643 1928 c-13 -6 -23 -15 -23 -20 0 -17 -147 -58 -260 -73 -106
-14 -89 -26 30 -22 91 3 125 8 162 25 26 12 50 22 54 22 4 0 27 12 51 26 36
21 42 28 32 40 -13 16 -16 16 -46 2z"/>
<path d="M890 1161 c-8 -5 -33 -17 -55 -27 -54 -23 -125 -82 -125 -104 0 -10
-7 -34 -15 -54 -8 -19 -15 -39 -14 -43 3 -16 -2 -38 -10 -51 -7 -11 -16 -10
-50 7 -22 12 -41 17 -41 13 0 -5 16 -31 36 -58 138 -184 327 -307 554 -359 41
-9 88 -21 104 -26 37 -12 146 -12 146 0 0 11 -18 18 -108 42 -82 22 -178 62
-204 86 -10 9 -18 26 -18 39 0 13 -4 25 -9 28 -19 12 -3 38 52 87 31 28 57 56
56 62 0 12 -97 93 -122 103 -12 4 -12 15 4 65 23 74 26 184 5 176 -8 -3 -17
-3 -21 1 -4 4 -23 8 -43 9 -21 1 -53 5 -72 8 -19 2 -42 1 -50 -4z"/>
<path d="M1882 713 c-8 -28 -29 -77 -48 -109 -40 -67 -42 -75 -9 -44 30 28 78
147 73 181 -2 18 -6 11 -16 -28z"/>
</g>
</svg>
