<svg xmlns="http://www.w3.org/2000/svg" width="32" height="32" xmlns:xlink="http://www.w3.org/1999/xlink"><defs><linearGradient id="c" x1="50%" x2="50%" y1="0%" y2="100%"><stop offset="0%" stop-color="#FFF" stop-opacity=".5"/><stop offset="100%" stop-opacity=".5"/></linearGradient><circle id="b" cx="16" cy="15" r="15"/><filter id="a" width="111.7%" height="111.7%" x="-5.8%" y="-4.2%" filterUnits="objectBoundingBox"><feOffset dy=".5" in="SourceAlpha" result="shadowOffsetOuter1"/><feGaussianBlur in="shadowOffsetOuter1" result="shadowBlurOuter1" stdDeviation=".5"/><feComposite in="shadowBlurOuter1" in2="SourceAlpha" operator="out" result="shadowBlurOuter1"/><feColorMatrix in="shadowBlurOuter1" values="0 0 0 0 0 0 0 0 0 0 0 0 0 0 0 0 0 0 0.199473505 0"/></filter><path id="e" d="M20.66 7c1.22 1.3 1.84 2.92 1.84 4.83 0 1.94-.62 3.57-1.84 4.87-.97 1.02-2.13 1.63-3.48 1.85v1.14h2.75v1.22h-2.78v.67h2.78v1.15h-2.75V25h-2.36v-2.24H12.1V21.6h2.75v-.67H12.1V19.7h2.72v-1.17c-1.32-.22-2.48-.83-3.46-1.86-1.24-1.3-1.86-2.93-1.86-4.87 0-1.96.6-3.6 1.84-4.86C12.58 5.64 14.12 5 16 5c1.88 0 3.42.64 4.66 2zm-2.54 7.38c.52-.67.8-1.52.8-2.57 0-1-.28-1.87-.85-2.53-.54-.7-1.25-1.02-2.06-1.02-.8 0-1.52.33-2.06 1-.54.66-.8 1.5-.8 2.54 0 1.07.26 1.92.8 2.6.54.65 1.25 1 2.08 1 .88 0 1.6-.35 2.12-1z"/><filter id="d" width="126.9%" height="117.5%" x="-13.5%" y="-6.2%" filterUnits="objectBoundingBox"><feOffset dy=".5" in="SourceAlpha" result="shadowOffsetOuter1"/><feGaussianBlur in="shadowOffsetOuter1" result="shadowBlurOuter1" stdDeviation=".5"/><feColorMatrix in="shadowBlurOuter1" values="0 0 0 0 0 0 0 0 0 0 0 0 0 0 0 0 0 0 0.204257246 0"/></filter></defs><g fill="none"><use fill="#000" filter="url(#a)" xlink:href="#b"/><use fill="#01A64F" fill-rule="evenodd" xlink:href="#b"/><use fill="url(#c)" fill-rule="evenodd" style="mix-blend-mode:soft-light" xlink:href="#b"/><circle cx="16" cy="15" r="14.5" stroke="#000" stroke-opacity=".097"/><use fill="#000" filter="url(#d)" xlink:href="#e"/><use fill="#FFF" fill-rule="evenodd" xlink:href="#e"/></g></svg>