<?xml version="1.0" standalone="no"?>
<!DOCTYPE svg PUBLIC "-//W3C//DTD SVG 20010904//EN"
 "http://www.w3.org/TR/2001/REC-SVG-20010904/DTD/svg10.dtd">
<svg version="1.0" xmlns="http://www.w3.org/2000/svg"
 width="250.000000pt" height="250.000000pt" viewBox="0 0 250.000000 250.000000"
 preserveAspectRatio="xMidYMid meet">
<metadata>
Created by potrace 1.16, written by Peter Selinger 2001-2019
</metadata>
<g transform="translate(0.000000,250.000000) scale(0.100000,-0.100000)"
fill="#000000" stroke="none">
<path d="M2 1993 c1 -280 4 -472 5 -427 4 77 5 82 38 114 30 29 35 41 35 78 0
38 6 51 40 88 26 29 40 53 40 71 0 22 25 53 113 143 61 64 141 139 177 167 36
29 72 58 81 65 32 26 191 111 229 123 14 4 45 16 69 27 24 11 71 25 105 30 33
6 65 15 71 20 5 4 -219 8 -498 8 l-507 0 2 -507z"/>
<path d="M2205 2093 c17 -3 48 -21 70 -41 l40 -37 -40 43 c-31 33 -46 42 -70
41 l-30 -2 30 -4z"/>
<path d="M1621 1980 c-122 -21 -257 -82 -334 -151 -47 -40 -47 -42 -27 -56 20
-14 20 -23 20 -404 l0 -389 40 0 c39 0 40 0 40 -37 l0 -37 40 39 c25 25 40 48
40 64 0 13 7 32 15 41 8 9 19 54 24 104 6 49 12 91 14 93 2 2 15 0 28 -4 13
-5 238 -8 499 -8 l475 0 0 37 c0 21 -3 38 -6 38 -3 0 -9 30 -13 66 -13 128
-93 290 -194 393 -175 177 -418 255 -661 211z m-71 -710 c0 -5 -2 -10 -4 -10
-3 0 -8 5 -11 10 -3 6 -1 10 4 10 6 0 11 -4 11 -10z"/>
<path d="M2480 717 l0 -292 -160 -160 c-141 -141 -160 -164 -160 -192 l0 -33
-162 -2 -163 -2 185 -7 c102 -3 251 -7 333 -8 l147 -1 0 495 c0 323 -3 495
-10 495 -6 0 -10 -104 -10 -293z"/>
<path d="M1309 773 c-13 -16 -12 -17 4 -4 16 13 21 21 13 21 -2 0 -10 -8 -17
-17z"/>
<path d="M2090 310 c0 -5 5 -10 10 -10 6 0 10 5 10 10 0 6 -4 10 -10 10 -5 0
-10 -4 -10 -10z"/>
</g>
</svg>
