<svg xmlns="http://www.w3.org/2000/svg" width="32" height="32" xmlns:xlink="http://www.w3.org/1999/xlink"><defs><linearGradient id="c" x1="50%" x2="50%" y1="0%" y2="100%"><stop offset="0%" stop-color="#FFF" stop-opacity=".5"/><stop offset="100%" stop-opacity=".5"/></linearGradient><circle id="b" cx="16" cy="15" r="15"/><filter id="a" width="111.7%" height="111.7%" x="-5.8%" y="-4.2%" filterUnits="objectBoundingBox"><feOffset dy=".5" in="SourceAlpha" result="shadowOffsetOuter1"/><feGaussianBlur in="shadowOffsetOuter1" result="shadowBlurOuter1" stdDeviation=".5"/><feComposite in="shadowBlurOuter1" in2="SourceAlpha" operator="out" result="shadowBlurOuter1"/><feColorMatrix in="shadowBlurOuter1" values="0 0 0 0 0 0 0 0 0 0 0 0 0 0 0 0 0 0 0.199473505 0"/></filter><path id="e" d="M18.16 18.9c-.02-.04-.02-.05-.02-.05-.62-.3-1.24-.6-1.87-.88-.03 0-.1 0-.12.02-.27.27-.53.56-.8.86.2.14 2.64.14 2.8.02M12.5 11.7s-.03-.07-.06-.13c-.05.03-.12.06-.15.1-.6.86-1.16 1.7-1.7 2.57-.06.06-.06.13-.07.2.08 0 .16 0 .2-.04.5-.3.98-.6 1.46-.9.06-.05.14-.16.15-.25.06-.5.1-1 .16-1.56m12 7.24c.28 0 .56 0 .83 0 .16 0 .22-.06.12-.2-.52-.8-1.04-1.6-1.57-2.4-.03-.06-.1-.08-.14-.1-.02.04-.06.1-.06.15-.07.77-.12 1.55-.18 2.33 0 .15.04.22.2.22.27 0 .54 0 .82 0M6.74 18.9c.13.04.2.07.25.07.9 0 1.77 0 2.66 0 .17 0 .22-.06.15-.22-.27-.64-.55-1.28-.82-1.92-.08-.18-.16-.17-.28-.04-.47.5-.96 1-1.43 1.5-.18.2-.34.37-.56.6m13.2-4.6c.07.1.1.15.1.2.4.6.8 1.16 1.2 1.75.5.72 1 1.45 1.5 2.17.06.05.1.08.17.12.03-.06.07-.12.08-.18.02-.17.02-.34.04-.5.04-.8.1-1.56.14-2.34.02-.33-.12-.5-.43-.57-.83-.2-1.66-.42-2.5-.63-.07-.02-.15-.02-.3-.03m-.2-5.14c-.03 0-.05 0-.1 0 0 .16 0 .32 0 .47-.05 1.26-.08 2.52-.1 3.77 0 .15.02.22.16.26.86.2 1.72.43 2.6.64.06.02.14 0 .22 0-.02-.08-.02-.16-.06-.23-.86-1.57-1.73-3.14-2.6-4.7-.03-.08-.1-.14-.13-.2m-3.9 7.7c.03-.13.05-.2.05-.3 0-.4 0-.83.03-1.25 0-.33-.08-.62-.27-.9-.8-1.1-1.6-2.2-2.37-3.3-.03-.05-.05-.1-.07-.17-.02.02-.06.04-.1.06 0 .1-.05.18-.05.27-.06.68-.12 1.36-.2 2.04-.02.17 0 .28.13.4.9 1 1.78 2 2.67 3 .05.06.1.1.2.18m.58-.2c.02 0 .04.02.06.03.06-.03.12-.06.16-.12.76-.92 1.52-1.84 2.28-2.77.04-.05.07-.13.08-.2.03-1.23.06-2.47.1-3.7 0-.07-.05-.14-.07-.2-.06.05-.14.1-.17.15-.7 1.48-1.37 2.98-2.1 4.44-.4.77-.33 1.57-.35 2.37m-3.5 2.3c.48 0 .96.02 1.44 0 .1 0 .23-.04.3-.12.33-.35.64-.72.98-1.07.12-.13.1-.2 0-.33-.57-.6-1.14-1.22-1.7-1.85-.12-.16-.2-.16-.32 0-.76 1.05-1.53 2.08-2.3 3.12-.03.05-.05.12-.07.18.07.03.14.07.2.07.5 0 1 0 1.48 0m.5-3.96c-.27-.3-.53-.6-.78-.9-.1-.1-.18-.13-.32-.04-.84.53-1.68 1.04-2.52 1.57-.15.1-.27.24-.4.37-.1.12-.1.25-.03.4.32.74.64 1.5.96 2.23.1.28.16.3.34.04.5-.66 1-1.32 1.5-2 .4-.54.8-1.1 1.24-1.66m5.8-.77c-.08.1-.1.17-.15.22-.8.97-1.58 1.93-2.38 2.9-.14.15-.08.2.07.28.92.42 1.83.85 2.75 1.27.1.04.25.07.37.07.75 0 1.5 0 2.26 0 .07 0 .15-.03.22-.05-.03-.07-.04-.16-.08-.22-.7-1.02-1.4-2.04-2.1-3.05-.3-.45-.62-.9-1-1.43M16 20c-3.45 0-6.9 0-10.33 0-.27 0-.5-.03-.63-.32-.1-.27.02-.47.2-.66 1.03-1.1 2.07-2.2 3.07-3.3.4-.44.7-.95 1-1.43 1.05-1.57 2.08-3.1 3.1-4.66.1-.16.28-.3.44-.37.23-.08.42.05.56.25.83 1.2 1.68 2.4 2.52 3.6.17.23.23.22.36-.06.86-1.88 1.73-3.76 2.6-5.65.1-.2.23-.4.5-.4s.43.15.56.4c1.3 2.34 2.58 4.72 3.93 7.06.82 1.4 1.77 2.74 2.65 4.1.1.17.23.34.33.5.13.2.2.44.1.67-.13.22-.35.26-.6.26-3.44 0-6.9 0-10.36 0"/><filter id="d" width="115.9%" height="126.9%" x="-8%" y="-9.6%" filterUnits="objectBoundingBox"><feOffset dy=".5" in="SourceAlpha" result="shadowOffsetOuter1"/><feGaussianBlur in="shadowOffsetOuter1" result="shadowBlurOuter1" stdDeviation=".5"/><feColorMatrix in="shadowBlurOuter1" values="0 0 0 0 0 0 0 0 0 0 0 0 0 0 0 0 0 0 0.204257246 0"/></filter></defs><g fill="none"><use fill="#000" filter="url(#a)" xlink:href="#b"/><use fill="#00316D" xlink:href="#b"/><use fill="url(#c)" style="mix-blend-mode:soft-light" xlink:href="#b"/><circle cx="16" cy="15" r="14.5" stroke="#000" stroke-opacity=".097"/><use fill="#000" filter="url(#d)" xlink:href="#e"/><use fill="#FFF" fill-rule="evenodd" xlink:href="#e"/></g></svg>