<svg xmlns="http://www.w3.org/2000/svg" width="32" height="32" xmlns:xlink="http://www.w3.org/1999/xlink"><defs><linearGradient id="c" x1="50%" x2="50%" y1="0%" y2="100%"><stop offset="0%" stop-color="#FFF" stop-opacity=".5"/><stop offset="100%" stop-opacity=".5"/></linearGradient><circle id="b" cx="16" cy="15" r="15"/><filter id="a" width="111.7%" height="111.7%" x="-5.8%" y="-4.2%" filterUnits="objectBoundingBox"><feOffset dy=".5" in="SourceAlpha" result="shadowOffsetOuter1"/><feGaussianBlur in="shadowOffsetOuter1" result="shadowBlurOuter1" stdDeviation=".5"/><feComposite in="shadowBlurOuter1" in2="SourceAlpha" operator="out" result="shadowBlurOuter1"/><feColorMatrix in="shadowBlurOuter1" values="0 0 0 0 0 0 0 0 0 0 0 0 0 0 0 0 0 0 0.199473505 0"/></filter><path id="e" d="M21.05 20c-.6 0-1.26-.3-1.26-1.2 0-.46.33-1.84 1.03-4.14.14-.36.2-.68.2-.96 0-.55-.4-1.1-1.2-1.1-.45 0-1.44.2-1.74 1.16-.2.64-.67 2.36-1.4 5.15-.27.75-.77 1.1-1.5 1.1-1.07 0-1.25-.8-1.25-1.26 0-.2.28-1.36.86-3.48.24-.7.35-1.23.35-1.55 0-.5-.36-1.1-1.2-1.1-.85 0-1.63.6-2 1.96-.23.88-.57 2.22-1 4-.25.97-.8 1.45-1.63 1.45-.76 0-1.16-.4-1.2-1.26l1.38-5.76H6.45c-.8 0-1.44-.64-1.44-1.42 0-.8.64-1.43 1.4-1.43.03 0 1.74 0 5.16 0 .72 0 1.16.34 1.32 1.03.73-.9 1.7-1.15 2.53-1.15.85 0 1.93.5 2.4 1.6.67-.74 1.8-1.6 3.44-1.6 1.5 0 2.76 1.04 2.76 2.86 0 .7-.35 2.12-1.03 4.3l2.64-.02c.8 0 1.4.65 1.4 1.44 0 .8-.6 1.43-1.37 1.43h-4.57z"/><filter id="d" width="115.9%" height="135%" x="-8%" y="-12.5%" filterUnits="objectBoundingBox"><feOffset dy=".5" in="SourceAlpha" result="shadowOffsetOuter1"/><feGaussianBlur in="shadowOffsetOuter1" result="shadowBlurOuter1" stdDeviation=".5"/><feColorMatrix in="shadowBlurOuter1" values="0 0 0 0 0 0 0 0 0 0 0 0 0 0 0 0 0 0 0.204257246 0"/></filter></defs><g fill="none"><use fill="#000" filter="url(#a)" xlink:href="#b"/><use fill="#EC1076" fill-rule="evenodd" xlink:href="#b"/><use fill="url(#c)" fill-rule="evenodd" style="mix-blend-mode:soft-light" xlink:href="#b"/><circle cx="16" cy="15" r="14.5" stroke="#000" stroke-opacity=".097"/><use fill="#000" filter="url(#d)" xlink:href="#e"/><use fill="#FFF" xlink:href="#e"/></g></svg>