<svg xmlns="http://www.w3.org/2000/svg" width="32" height="32" xmlns:xlink="http://www.w3.org/1999/xlink"><defs><linearGradient id="c" x1="50%" x2="50%" y1="0%" y2="100%"><stop offset="0%" stop-color="#FFF" stop-opacity=".5"/><stop offset="100%" stop-opacity=".5"/></linearGradient><circle id="b" cx="16" cy="15" r="15"/><filter id="a" width="111.7%" height="111.7%" x="-5.8%" y="-4.2%" filterUnits="objectBoundingBox"><feOffset dy=".5" in="SourceAlpha" result="shadowOffsetOuter1"/><feGaussianBlur in="shadowOffsetOuter1" result="shadowBlurOuter1" stdDeviation=".5"/><feComposite in="shadowBlurOuter1" in2="SourceAlpha" operator="out" result="shadowBlurOuter1"/><feColorMatrix in="shadowBlurOuter1" values="0 0 0 0 0 0 0 0 0 0 0 0 0 0 0 0 0 0 0.199473505 0"/></filter><path id="e" d="M16.8 10.57v1.86h2.23l-1 1.15h-1.5v1.44h1.55l-.75 1.15h-.8v2.94l-1.27 1.76v-4.68H13.5l.98-1.15h.78V13.6h-2.48l1-1.16h1.48V10.5c-.73-.8-1.74-1.2-3.03-1.2-2.47 0-4.43 2.64-4.43 5.26 0 1.75.4 3.23 1.2 4.45l-1.38 1.6C6.54 19 6 17.2 6 15.14 6 10.63 9.9 8 12.64 8c1.68 0 2.97.7 3.87 2.12 1.74-1.18 3.5-1.77 5.28-1.77C24.5 8.35 26 11.7 26 14.9c0 4.26-2.87 5.9-3.9 6.1-.1 0-.17-.02-.22-.1-.06-.08-.04-.2.05-.26 1.62-1.1 2.43-2.76 2.43-5 0-4.9-2.5-6.04-4.36-6.04-1.15 0-2.2.33-3.2.97z"/><filter id="d" width="117.5%" height="126.9%" x="-8.8%" y="-9.6%" filterUnits="objectBoundingBox"><feOffset dy=".5" in="SourceAlpha" result="shadowOffsetOuter1"/><feGaussianBlur in="shadowOffsetOuter1" result="shadowBlurOuter1" stdDeviation=".5"/><feColorMatrix in="shadowBlurOuter1" values="0 0 0 0 0 0 0 0 0 0 0 0 0 0 0 0 0 0 0.204257246 0"/></filter></defs><g fill="none"><use fill="#000" filter="url(#a)" xlink:href="#b"/><use fill="#FFAA05" xlink:href="#b"/><use fill="url(#c)" style="mix-blend-mode:soft-light" xlink:href="#b"/><circle cx="16" cy="15" r="14.5" stroke="#000" stroke-opacity=".097"/><use fill="#000" filter="url(#d)" xlink:href="#e"/><use fill="#FFF" xlink:href="#e"/></g></svg>