<svg xmlns="http://www.w3.org/2000/svg" width="32" height="32" xmlns:xlink="http://www.w3.org/1999/xlink"><defs><linearGradient id="c" x1="50%" x2="50%" y1="0%" y2="100%"><stop offset="0%" stop-color="#FFF" stop-opacity=".5"/><stop offset="100%" stop-opacity=".5"/></linearGradient><circle id="b" cx="16" cy="15" r="15"/><filter id="a" width="111.7%" height="111.7%" x="-5.8%" y="-4.2%" filterUnits="objectBoundingBox"><feOffset dy=".5" in="SourceAlpha" result="shadowOffsetOuter1"/><feGaussianBlur in="shadowOffsetOuter1" result="shadowBlurOuter1" stdDeviation=".5"/><feComposite in="shadowBlurOuter1" in2="SourceAlpha" operator="out" result="shadowBlurOuter1"/><feColorMatrix in="shadowBlurOuter1" values="0 0 0 0 0 0 0 0 0 0 0 0 0 0 0 0 0 0 0.199473505 0"/></filter><path id="e" d="M26.3 17.47c.2.08.25.32.16.54-.07.18-.2.28-.35.3l-2.2 4.1c.04.16-.02.36-.17.5-.12.13-.28.2-.43.18l-4.34 2.6c-.06.15-.2.28-.4.32-.23.03-.43-.05-.53-.2l-5.1-.35c-.1.1-.28.13-.45.1-.25-.06-.42-.26-.4-.47l-3.95-2.84c-.15.03-.32-.02-.46-.14-.18-.16-.24-.38-.17-.56L5.88 17.8c-.18-.05-.33-.22-.37-.45-.02-.2.05-.4.18-.5l.24-5.7c-.1-.12-.13-.32-.06-.5.08-.24.27-.4.46-.38l4.25-4.46c-.03-.2.13-.4.38-.5.17-.04.35 0 .47.07l6.12-1.1c.07-.2.3-.3.54-.25.22.05.4.2.43.37L21.3 6c.16-.06.33-.05.48.04.17.1.27.26.3.43l1.2.82c.15-.06.32-.04.47.07.22.16.3.45.18.64l1.77 3.5c.17-.02.35.1.4.3.07.25-.02.48-.2.54-.18.06-.4-.08-.45-.3 0-.03 0-.04-.02-.06L21.77 10c-.06.1-.14.15-.24.2V20c.2.1.34.3.34.53 0 .04 0 .08 0 .12l1.48 1.52c.08-.04.16-.05.24-.04l2.23-3.97c-.07-.1-.1-.28-.02-.43.1-.22.3-.33.5-.26zm0 .48c.05-.1.03-.18-.04-.2-.07-.04-.16 0-.2.1-.04.07 0 .17.06.2.07.03.16 0 .2-.1zm-2.65 4.8c.08-.1.1-.2.03-.27-.06-.07-.18-.06-.26.02-.08.08-.1.2-.03.27.04.06.16.05.24-.03zm-.63-.26c0-.03 0-.03 0-.04L21.6 21c-.08.07-.18.1-.28.1-.22 0-.4-.13-.5-.32H18.9c-.05.1-.13.2-.23.24l.2 2.7c.06.04.13.1.18.15l3.97-1.38zm-4.17 2.77l3.47-2.08-3.16 1.1c-.04.14-.16.27-.3.34l-.1.56c.03.03.06.05.1.08zm-.32.54c.1 0 .18-.1.17-.2-.02-.1-.12-.14-.23-.12-.1 0-.2.1-.17.2 0 .08.12.14.23.12zm-.5-.4c.05-.1.15-.2.28-.22l.1-.55c-.07-.03-.14-.08-.2-.14l-4 .64 3.83.27zm-3.73-4.33L13 24.9l5.02-.8-3.54-3.1c-.06.04-.12.07-.18.08zm-1.66 3.56L13.87 21c-.08-.06-.14-.13-.2-.22h-2.24c-.02.02-.03.05-.05.08l1.26 3.78zm-.16.73c.1.03.22-.03.24-.12.02-.1-.06-.18-.17-.2-.1-.03-.2.02-.23.1-.02.1.05.2.16.22zm-4.08-3.4l3.8 2.74-1.2-3.6c-.02 0-.05 0-.07 0-.16 0-.3-.07-.4-.18l-2.13.92c0 .04 0 .08 0 .12zm-.36-.6c.05 0 .1.05.15.08l2.16-.95c0-.1.04-.2.1-.3L7.1 16.7l.94 4.66zm-.02.6c.06-.07.04-.2-.05-.26-.08-.07-.2-.07-.26 0-.04.07-.02.18.07.26.08.08.2.08.26 0zm-1.8-4.33l1.17 2.7-.8-3.85-.3.65c0 .02 0 .04 0 .06.03.16 0 .32-.1.43zM6.2 13.3l-.14 3.35.28-.6c-.04-.07-.07-.16-.07-.25 0-.1.04-.2.1-.3l-.17-2.2zM6 10.65c-.04.1 0 .22.1.25.07.03.17-.03.2-.14.05-.1 0-.22-.08-.25-.08 0-.18.05-.22.16zm.84 5.15c0-.1-.08-.2-.18-.2-.1 0-.18.1-.18.2 0 .12.08.2.18.2.1 0 .18-.08.18-.2zm-.23-4.9c0 .1-.06.18-.1.24l.3 4L8.53 9.5l-1.9 1.3c0 .03-.02.07-.04.1zm3.05-3.57L7.2 9.88l1.25-.85c.02-.1.07-.2.14-.3.07-.1.2-.17.3-.2l.73-1.2zm1.25-1.2L9.3 8.7c.05.07.06.15.06.24l1.17.36c.1-.1.24-.17.4-.17.22 0 .4.13.5.32h1.96c.06-.16.2-.28.37-.3l1.07-2.3c-.05-.06-.1-.15-.1-.25l-3.27-.72c-.07.1-.18.18-.3.22-.1.03-.2.04-.3.02zm.05-.66c-.1.03-.17.13-.14.22.04.07.15.1.26.1.1-.05.17-.15.14-.24-.03-.1-.14-.13-.25-.1zm6.25-.76l-4.93.9 2.58.58c.1-.13.26-.22.44-.22.04 0 .1 0 .16.03l1.74-1.3zm.6.1l-1.83 1.37L21 6.3s.02-.02.02-.04l-2.67-1.52c-.1.08-.27.12-.43.1-.04 0-.08-.02-.1-.04zm.24-.6c-.1-.03-.2.03-.23.12 0 .1.1.2.2.2.1.03.2-.03.2-.12.04-.1-.04-.18-.15-.2zm3.24 2.72c-.07-.04-.13-.1-.18-.15l-5.26-.15c0 .03 0 .06-.02.1l2.12 2.44c.04 0 .08 0 .12 0 .22 0 .4.12.5.3h2.26c.05-.1.15-.2.26-.26l.2-2.27zm.04 2.57c-.13 0-.22.1-.22.2s.1.23.22.23.22-.1.22-.23-.1-.23-.22-.23zm.1-3.2c-.06.1-.02.2.1.27.1.07.22.04.28-.06.05-.1 0-.22-.1-.3-.1-.05-.23-.02-.3.08zm3.9 5.3L21.7 7l-.18 2.17c.2.07.33.26.35.48l3.46 1.93zm-2.27-4l-.82-.56 2.63 3.42-1.28-2.3c-.1 0-.2-.03-.3-.1-.16-.12-.25-.3-.23-.47zm.38-.07c-.06.08-.02.2.07.26.08.04.2.03.25-.04.05-.08.02-.2-.07-.26-.1-.05-.2-.05-.26.03zM17.85 9.7c0 .12.1.2.2.2.13 0 .23-.08.23-.2 0-.13-.1-.23-.22-.23s-.2.1-.2.22zm.12 4.77c-.13 0-.23.1-.23.22s.1.2.23.2c.12 0 .22-.1.22-.22s-.1-.23-.24-.23zm-2.9-8.03c0 .13.1.23.22.23.1 0 .2-.1.2-.23 0-.12-.1-.22-.2-.22-.14 0-.24.1-.24.22zm.16.64l-1 2.15c.13.1.22.27.22.46 0 .1-.03.2-.08.27l3.38 4.2c.03-.02.06-.03.1-.04V10.2c-.2-.07-.34-.27-.34-.5 0-.1.05-.2.1-.3l-2.06-2.37c-.07.03-.15.05-.24.05-.03 0-.05 0-.07 0zm-1.56 2.6c0 .14.1.24.22.24.1 0 .2-.1.2-.23s-.1-.24-.2-.24c-.14 0-.24.1-.24.22zm-2.96 0c0 .14.1.23.24.23.12 0 .2-.07.2-.2 0-.12-.08-.22-.2-.22-.12 0-.22.1-.22.22zm.24 10.62c-.13 0-.22.1-.22.23 0 .12.1.22.23.22.12 0 .22-.1.22-.22 0-.13-.1-.23-.22-.23zM8.74 8.84c-.08.1-.1.2 0 .27.05.08.16.06.24-.03.07-.08.08-.2 0-.26-.06-.05-.17-.03-.25.05zM7.1 15.5c.06.1.1.2.1.3 0 .1-.04.2-.1.3l3.6 3.72v-9.6c-.18-.1-.32-.28-.33-.5l-1.22-.38c-.04.03-.08.06-.12.08L7.1 15.5zm11.3 4.46c.24 0 .44.16.52.37h1.88c.05-.14.16-.26.3-.32v-9.8c-.14-.04-.25-.15-.3-.3h-2.22c-.05.15-.16.26-.3.3v4.03c.15.1.24.28.24.47 0 .3-.25.56-.55.56-.3 0-.56-.26-.56-.57 0-.1.03-.16.06-.2l-3.43-4.27c-.04 0-.08.02-.13.02-.25 0-.45-.15-.53-.37h-1.92c-.06.14-.17.25-.3.3V20c.13.07.24.2.3.33h2.2c.07-.14.18-.26.32-.32v-4.05c-.16-.1-.27-.28-.27-.48 0-.32.25-.57.55-.57.3 0 .56.24.56.56 0 .06 0 .13-.02.2l3.5 4.32c.03 0 .08-.02.13-.02zm.24 4.05c-.12 0-.22.1-.22.2 0 .13.1.2.22.2s.22-.07.22-.2c0-.1-.1-.2-.22-.2zm-.46-3.46c0 .12.1.22.22.22s.22-.1.22-.22c0-.13-.1-.23-.22-.23s-.22.1-.22.24zm-4.15-5.07c0 .12.1.22.22.22.13 0 .23-.1.23-.23s-.1-.23-.23-.23c-.12 0-.22.1-.22.23zm.15 4.84c-.12 0-.22.1-.22.24 0 .12.1.22.22.22s.22-.1.22-.22c0-.13-.1-.23-.22-.23zm.22-.3c.2.1.34.3.34.54 0 .04 0 .08-.02.1l3.6 3.13c.03-.02.06-.03.1-.04l-.18-2.65c-.23-.07-.4-.3-.4-.54 0-.1.03-.2.08-.27L14.47 16c-.02 0-.05 0-.07 0v4zm7.14.54c0-.13-.1-.23-.22-.23-.13 0-.22.1-.22.24 0 .12.1.22.22.22s.22-.1.22-.22zM5.84 17.5c.08 0 .13-.1.12-.23-.02-.1-.1-.2-.2-.17-.1 0-.15.12-.13.23.02.1.1.2.2.18zm19.96-5.7c-.07.02-.1.1-.08.2.02.1.1.15.18.12.07-.02.1-.1.08-.2-.03-.1-.1-.15-.18-.13z"/><filter id="d" width="116.7%" height="115.9%" x="-8.3%" y="-5.7%" filterUnits="objectBoundingBox"><feOffset dy=".5" in="SourceAlpha" result="shadowOffsetOuter1"/><feGaussianBlur in="shadowOffsetOuter1" result="shadowBlurOuter1" stdDeviation=".5"/><feColorMatrix in="shadowBlurOuter1" values="0 0 0 0 0 0 0 0 0 0 0 0 0 0 0 0 0 0 0.204257246 0"/></filter></defs><g fill="none"><use fill="#000" filter="url(#a)" xlink:href="#b"/><use fill="#36A9CF" fill-rule="evenodd" xlink:href="#b"/><use fill="url(#c)" fill-rule="evenodd" style="mix-blend-mode:soft-light" xlink:href="#b"/><circle cx="16" cy="15" r="14.5" stroke="#000" stroke-opacity=".097"/><use fill="#000" filter="url(#d)" xlink:href="#e"/><use fill="#FFF" xlink:href="#e"/></g></svg>