<svg xmlns="http://www.w3.org/2000/svg" width="32" height="32" xmlns:xlink="http://www.w3.org/1999/xlink"><defs><linearGradient id="c" x1="50%" x2="50%" y1="0%" y2="100%"><stop offset="0%" stop-color="#FFF" stop-opacity=".5"/><stop offset="100%" stop-opacity=".5"/></linearGradient><circle id="b" cx="16" cy="15" r="15"/><filter id="a" width="111.7%" height="111.7%" x="-5.8%" y="-4.2%" filterUnits="objectBoundingBox"><feOffset dy=".5" in="SourceAlpha" result="shadowOffsetOuter1"/><feGaussianBlur in="shadowOffsetOuter1" result="shadowBlurOuter1" stdDeviation=".5"/><feComposite in="shadowBlurOuter1" in2="SourceAlpha" operator="out" result="shadowBlurOuter1"/><feColorMatrix in="shadowBlurOuter1" values="0 0 0 0 0 0 0 0 0 0 0 0 0 0 0 0 0 0 0.199473505 0"/></filter><path id="e" d="M14.1 17.67L13.46 19h-1.4l3.77-8 2.5 5.33h-1.4l-1.13-2.3-1.12 2.34-.6 1.3zm5.44 1.3l2.93-3.95-2.95-3.98h1.62l2.14 2.9-.78 1.08.78 1.07-2.14 2.9h-2.96l-.63-1.34h1.38l.6 1.3zM24.07 15l-.8-1.1 2.15-2.9H27l-2.93 4zm0 0L27 19h-1.58l-2.14-2.9.8-1.1zm-12.65-2.84c.72.74 1.1 1.77 1.1 2.84 0 1.07-.4 2.1-1.1 2.84-.72.8-1.6 1.16-2.67 1.16-1 .02-1.96-.4-2.66-1.16C5.35 17.1 4.96 16.07 5 15c0-.83.23-1.64.7-2.3l.9.97c-.23.4-.35.88-.35 1.37 0 .7.26 1.38.72 1.9.47.5 1.1.8 1.78.8.68 0 1.32-.3 1.78-.8.48-.5.74-1.2.73-1.9 0-.7-.26-1.4-.73-1.9-.46-.5-1.1-.8-1.78-.77-.44 0-.87.1-1.25.35l-.92-.98c.63-.5 1.4-.75 2.18-.74 1-.02 1.96.4 2.66 1.16z"/><filter id="d" width="115.9%" height="143.8%" x="-8%" y="-15.6%" filterUnits="objectBoundingBox"><feOffset dy=".5" in="SourceAlpha" result="shadowOffsetOuter1"/><feGaussianBlur in="shadowOffsetOuter1" result="shadowBlurOuter1" stdDeviation=".5"/><feColorMatrix in="shadowBlurOuter1" values="0 0 0 0 0 0 0 0 0 0 0 0 0 0 0 0 0 0 0.204257246 0"/></filter></defs><g fill="none"><use fill="#000" filter="url(#a)" xlink:href="#b"/><use fill="#164B79" fill-rule="evenodd" xlink:href="#b"/><use fill="url(#c)" fill-rule="evenodd" style="mix-blend-mode:soft-light" xlink:href="#b"/><circle cx="16" cy="15" r="14.5" stroke="#000" stroke-opacity=".097"/><use fill="#000" filter="url(#d)" xlink:href="#e"/><use fill="#FFF" fill-rule="evenodd" xlink:href="#e"/></g></svg>