<?xml version="1.0" standalone="no"?>
<!DOCTYPE svg PUBLIC "-//W3C//DTD SVG 20010904//EN"
 "http://www.w3.org/TR/2001/REC-SVG-20010904/DTD/svg10.dtd">
<svg version="1.0" xmlns="http://www.w3.org/2000/svg"
 width="250.000000pt" height="250.000000pt" viewBox="0 0 250.000000 250.000000"
 preserveAspectRatio="xMidYMid meet">
<metadata>
Created by potrace 1.16, written by Peter Selinger 2001-2019
</metadata>
<g transform="translate(0.000000,250.000000) scale(0.100000,-0.100000)"
fill="#000000" stroke="none">
<path d="M0 1250 l0 -1249 1250 0 1249 0 0 1249 1 1249 -1250 0 -1250 0 0
-1249z m1025 1230 c-16 -4 -39 -8 -50 -8 -16 0 -15 2 5 8 14 4 36 8 50 8 22 0
22 -1 -5 -8z m458 3 c-7 -2 -19 -2 -25 0 -7 3 -2 5 12 5 14 0 19 -2 13 -5z
m50 -10 c-7 -2 -19 -2 -25 0 -7 3 -2 5 12 5 14 0 19 -2 13 -5z m-586 -9 c-3
-3 -12 -4 -19 -1 -8 3 -5 6 6 6 11 1 17 -2 13 -5z m630 0 c-3 -3 -12 -4 -19
-1 -8 3 -5 6 6 6 11 1 17 -2 13 -5z m-742 -34 c-44 -16 -81 -27 -83 -25 -2 2
21 12 50 23 29 10 60 22 68 25 8 3 22 6 30 6 8 0 -21 -13 -65 -29z m782 24
c-3 -3 -12 -4 -19 -1 -8 3 -5 6 6 6 11 1 17 -2 13 -5z m93 -30 c23 -9 39 -18
37 -20 -2 -3 -24 4 -48 15 -54 24 -45 27 11 5z m-971 -28 c-11 -10 -163 -87
-154 -78 13 13 137 81 149 82 5 0 7 -2 5 -4z m1061 -11 c17 -9 30 -18 30 -21
0 -4 -59 23 -69 32 -10 9 13 3 39 -11z m100 -56 c23 -18 22 -18 -17 2 -24 11
-43 22 -43 24 0 8 38 -8 60 -26z m-1330 -23 c0 -2 -29 -25 -65 -51 -36 -25
-107 -88 -157 -138 -63 -63 -75 -73 -40 -32 57 65 127 129 206 187 53 39 56
41 56 34z m1420 -42 c0 -3 -13 4 -30 16 -16 12 -30 24 -30 26 0 3 14 -4 30
-16 17 -12 30 -24 30 -26z m202 -181 l50 -58 -52 55 c-29 30 -78 79 -109 108
l-56 54 58 -50 c33 -28 81 -76 109 -109z m-1972 -123 c-12 -16 -24 -30 -26
-30 -3 0 4 14 16 30 12 17 24 30 26 30 3 0 -4 -13 -16 -30z m2070 0 c12 -16
19 -30 16 -30 -2 0 -14 14 -26 30 -12 17 -19 30 -16 30 2 0 14 -13 26 -30z
m-2110 -60 c-6 -11 -13 -20 -16 -20 -2 0 0 9 6 20 6 11 13 20 16 20 2 0 0 -9
-6 -20z m2150 0 c6 -11 8 -20 6 -20 -3 0 -10 9 -16 20 -6 11 -8 20 -6 20 3 0
10 -9 16 -20z m24 -46 c3 -8 2 -12 -4 -9 -6 3 -10 10 -10 16 0 14 7 11 14 -7z
m-2221 -39 c-3 -9 -8 -14 -10 -11 -3 3 -2 9 2 15 9 16 15 13 8 -4z m2245 -10
c-3 -3 -9 2 -12 12 -6 14 -5 15 5 6 7 -7 10 -15 7 -18z m-2287 -82 c-12 -20
-14 -14 -5 12 4 9 9 14 11 11 3 -2 0 -13 -6 -23z m2329 -8 c0 -5 -5 -3 -10 5
-5 8 -10 20 -10 25 0 6 5 3 10 -5 5 -8 10 -19 10 -25z m-2349 -42 c-12 -20
-14 -14 -5 12 4 9 9 14 11 11 3 -2 0 -13 -6 -23z m2369 -8 c0 -5 -5 -3 -10 5
-5 8 -10 20 -10 25 0 6 5 3 10 -5 5 -8 10 -19 10 -25z m-2386 -49 c-3 -15 -8
-25 -11 -23 -2 3 -1 17 3 31 3 15 8 25 11 23 2 -3 1 -17 -3 -31z m2403 -18
c-3 -8 -6 -5 -6 6 -1 11 2 17 5 13 3 -3 4 -12 1 -19z m-1469 -5 c-10 -2 -26
-2 -35 0 -10 3 -2 5 17 5 19 0 27 -2 18 -5z m59 1 c-3 -3 -12 -4 -19 -1 -8 3
-5 6 6 6 11 1 17 -2 13 -5z m71 -18 c44 -23 113 -108 99 -122 -2 -3 -10 8 -16
25 -14 33 -53 72 -96 94 -16 9 -26 16 -22 17 4 0 20 -6 35 -14z m570 7 c-10
-2 -26 -2 -35 0 -10 3 -2 5 17 5 19 0 27 -2 18 -5z m-1651 -25 c-3 -8 -6 -5
-6 6 -1 11 2 17 5 13 3 -3 4 -12 1 -19z m1703 12 c8 -5 11 -10 5 -10 -5 0 -17
5 -25 10 -8 5 -10 10 -5 10 6 0 17 -5 25 -10z m727 -12 c-3 -8 -6 -5 -6 6 -1
11 2 17 5 13 3 -3 4 -12 1 -19z m-1587 8 c0 -2 -12 -11 -27 -20 l-28 -17 24
20 c23 21 31 25 31 17z m517 -28 c-3 -7 -5 -2 -5 12 0 14 2 19 5 13 2 -7 2
-19 0 -25z m384 5 c13 -16 12 -17 -3 -4 -10 7 -18 15 -18 17 0 8 8 3 21 -13z
m-1754 -35 c-3 -7 -5 -2 -5 12 0 14 2 19 5 13 2 -7 2 -19 0 -25z m2450 0 c-3
-7 -5 -2 -5 12 0 14 2 19 5 13 2 -7 2 -19 0 -25z m-1670 5 c-8 -10 -32 -45
-51 -77 -20 -33 -36 -55 -36 -50 0 20 85 144 98 144 3 0 -2 -8 -11 -17z m1033
-48 c0 -5 -9 5 -20 23 -26 42 -26 56 0 17 11 -16 20 -34 20 -40z m-1823 -7
c-3 -7 -5 -2 -5 12 0 14 2 19 5 13 2 -7 2 -19 0 -25z m908 12 c-16 -11 -42
-41 -57 -67 -15 -27 -28 -43 -28 -38 0 31 79 125 105 125 6 0 -3 -9 -20 -20z
m170 -21 c8 -15 15 -34 15 -41 -1 -7 -7 2 -16 21 -8 19 -22 40 -32 48 -16 12
-16 13 1 7 10 -4 24 -19 32 -35z m603 21 c12 -12 22 -24 22 -27 0 -4 -10 3
-23 15 -19 18 -37 22 -112 25 l-90 3 91 2 c79 2 93 -1 112 -18z m789 -12 c-3
-7 -5 -2 -5 12 0 14 2 19 5 13 2 -7 2 -19 0 -25z m-1110 -30 c-3 -7 -5 -2 -5
12 0 14 2 19 5 13 2 -7 2 -19 0 -25z m470 -45 c-2 -16 -4 -5 -4 22 0 28 2 40
4 28 2 -13 2 -35 0 -50z m-350 25 c-3 -7 -5 -2 -5 12 0 14 2 19 5 13 2 -7 2
-19 0 -25z m230 0 c-3 -8 -6 -5 -6 6 -1 11 2 17 5 13 3 -3 4 -12 1 -19z m-610
-85 c-2 -16 -4 -5 -4 22 0 28 2 40 4 28 2 -13 2 -35 0 -50z m610 45 c-3 -8 -6
-5 -6 6 -1 11 2 17 5 13 3 -3 4 -12 1 -19z m-490 -70 c-2 -18 -4 -6 -4 27 0
33 2 48 4 33 2 -15 2 -42 0 -60z m250 50 c-3 -7 -5 -2 -5 12 0 14 2 19 5 13 2
-7 2 -19 0 -25z m224 -21 c-10 -9 -11 -8 -5 6 3 10 9 15 12 12 3 -3 0 -11 -7
-18z m-1004 -9 c-3 -8 -6 -5 -6 6 -1 11 2 17 5 13 3 -3 4 -12 1 -19z m120 -30
c-3 -7 -5 -2 -5 12 0 14 2 19 5 13 2 -7 2 -19 0 -25z m650 0 c-3 -7 -5 -2 -5
12 0 14 2 19 5 13 2 -7 2 -19 0 -25z m223 17 c0 -7 -57 -35 -72 -35 -7 0 5 9
27 19 48 23 45 22 45 16z m-1003 -37 c-3 -7 -5 -2 -5 12 0 14 2 19 5 13 2 -7
2 -19 0 -25z m650 -10 c-3 -7 -5 -2 -5 12 0 14 2 19 5 13 2 -7 2 -19 0 -25z
m463 3 c-5 -11 -15 -23 -21 -27 -6 -3 -3 5 6 20 20 30 30 35 15 7z m-993 -13
c-3 -8 -6 -5 -6 6 -1 11 2 17 5 13 3 -3 4 -12 1 -19z m761 15 c-21 -2 -55 -2
-75 0 -21 2 -4 4 37 4 41 0 58 -2 38 -4z m-891 -85 c-2 -13 -4 -3 -4 22 0 25
2 35 4 23 2 -13 2 -33 0 -45z m538 12 c-4 -17 -9 -30 -11 -27 -2 2 -1 18 2 36
4 17 9 30 11 27 3 -2 2 -19 -2 -36z m545 35 c0 -9 -64 -45 -80 -45 -8 0 6 11
30 24 25 13 46 24 48 25 1 0 2 -1 2 -4z m-953 -67 c-2 -13 -4 -3 -4 22 0 25 2
35 4 23 2 -13 2 -33 0 -45z m273 5 c-11 -17 -11 -17 -6 0 3 10 7 26 7 35 1 15
2 15 6 0 2 -10 -1 -25 -7 -35z m237 -15 c-3 -7 -5 -2 -5 12 0 14 2 19 5 13 2
-7 2 -19 0 -25z m336 25 c-7 -2 -19 -2 -25 0 -7 3 -2 5 12 5 14 0 19 -2 13 -5z
m-80 -10 c-23 -2 -64 -2 -90 0 -26 2 -7 3 42 3 50 0 71 -1 48 -3z m-382 -47
c-14 -36 -22 -33 -9 5 6 16 12 28 14 26 3 -2 0 -16 -5 -31z m246 2 c-3 -7 -5
-2 -5 12 0 14 2 19 5 13 2 -7 2 -19 0 -25z m-750 -10 c-3 -7 -5 -2 -5 12 0 14
2 19 5 13 2 -7 2 -19 0 -25z m383 22 c0 -27 -111 -122 -126 -107 -3 2 9 10 26
17 30 13 90 72 90 90 0 6 2 10 5 10 3 0 5 -4 5 -10z m-250 -35 c0 -5 -5 -3
-10 5 -5 8 -10 20 -10 25 0 6 5 3 10 -5 5 -8 10 -19 10 -25z m487 -7 c-3 -7
-5 -2 -5 12 0 14 2 19 5 13 2 -7 2 -19 0 -25z m120 -20 c-3 -7 -5 -2 -5 12 0
14 2 19 5 13 2 -7 2 -19 0 -25z m-547 -33 c12 -4 19 -9 17 -12 -9 -8 -64 26
-71 44 -6 14 -3 14 13 -4 11 -12 30 -24 41 -28z m290 40 c0 -3 -21 -29 -47
-56 -43 -46 -90 -80 -110 -79 -4 1 8 10 28 20 20 11 56 42 80 69 45 51 49 55
49 46z m127 -27 c-3 -8 -6 -5 -6 6 -1 11 2 17 5 13 3 -3 4 -12 1 -19z m-583
-4 c3 -8 2 -12 -4 -9 -6 3 -10 10 -10 16 0 14 7 11 14 -7z m-707 -26 c-3 -7
-5 -2 -5 12 0 14 2 19 5 13 2 -7 2 -19 0 -25z m2470 0 c-3 -7 -5 -2 -5 12 0
14 2 19 5 13 2 -7 2 -19 0 -25z m-1060 -10 c-3 -7 -5 -2 -5 12 0 14 2 19 5 13
2 -7 2 -19 0 -25z m-597 -62 c19 -8 29 -15 22 -16 -23 0 -66 27 -97 62 l-30
33 35 -32 c19 -18 51 -39 70 -47z m-803 22 c-3 -7 -5 -2 -5 12 0 14 2 19 5 13
2 -7 2 -19 0 -25z m2450 0 c-3 -7 -5 -2 -5 12 0 14 2 19 5 13 2 -7 2 -19 0
-25z m-1061 -24 c-4 -10 -22 -14 -73 -12 l-68 2 68 3 c65 4 67 5 68 31 1 18 3
21 6 9 3 -10 2 -25 -1 -33z m-1379 -16 c-3 -8 -6 -5 -6 6 -1 11 2 17 5 13 3
-3 4 -12 1 -19z m2422 -32 c-6 -26 -13 -45 -16 -43 -2 3 1 26 8 51 6 26 13 45
16 43 2 -3 -1 -26 -8 -51z m-1521 27 c-10 -2 -26 -2 -35 0 -10 3 -2 5 17 5 19
0 27 -2 18 -5z m-879 -63 c0 -9 -4 -8 -9 5 -5 11 -9 27 -9 35 0 9 4 8 9 -5 5
-11 9 -27 9 -35z m21 -55 c0 -5 -5 -3 -10 5 -5 8 -10 20 -10 25 0 6 5 3 10 -5
5 -8 10 -19 10 -25z m2351 8 c-12 -20 -14 -14 -5 12 4 9 9 14 11 11 3 -2 0
-13 -6 -23z m-2331 -58 c0 -5 -5 -3 -10 5 -5 8 -10 20 -10 25 0 6 5 3 10 -5 5
-8 10 -19 10 -25z m2311 8 c-12 -20 -14 -14 -5 12 4 9 9 14 11 11 3 -2 0 -13
-6 -23z m-2277 -79 c3 -8 2 -12 -4 -9 -6 3 -10 10 -10 16 0 14 7 11 14 -7z
m24 -49 c-3 -3 -9 2 -12 12 -6 14 -5 15 5 6 7 -7 10 -15 7 -18z m2195 10 c-3
-9 -8 -14 -10 -11 -3 3 -2 9 2 15 9 16 15 13 8 -4z m-2173 -45 c6 -11 8 -20 6
-20 -3 0 -10 9 -16 20 -6 11 -8 20 -6 20 3 0 10 -9 16 -20z m2150 0 c-6 -11
-13 -20 -16 -20 -2 0 0 9 6 20 6 11 13 20 16 20 2 0 0 -9 -6 -20z m-2110 -60
c12 -16 19 -30 16 -30 -2 0 -14 14 -26 30 -12 17 -19 30 -16 30 2 0 14 -13 26
-30z m2070 0 c-12 -16 -24 -30 -26 -30 -3 0 4 14 16 30 12 17 24 30 26 30 3 0
-4 -13 -16 -30z m-1870 -230 l55 -52 -58 50 c-33 28 -81 76 -109 109 l-50 58
54 -56 c29 -31 78 -80 108 -109z m1772 104 c-28 -31 -76 -79 -109 -107 -32
-28 -11 -3 47 55 58 59 106 107 108 108 2 0 -19 -25 -46 -56z m-1622 -220 c0
-3 -20 9 -45 26 -25 17 -45 33 -45 36 0 3 20 -9 45 -26 25 -17 45 -33 45 -36z
m1420 42 c0 -3 -15 -14 -32 -26 l-33 -22 30 26 c31 27 35 29 35 22z m-1255
-134 c-4 -4 -136 66 -150 80 -5 5 27 -9 72 -33 45 -24 80 -45 78 -47z m1165
68 c-22 -17 -70 -37 -57 -24 7 7 71 43 77 43 3 0 -6 -8 -20 -19z m-70 -35 c0
-6 -56 -35 -67 -35 -4 1 8 9 27 20 39 22 40 22 40 15z m-1025 -56 c22 -10 29
-16 15 -13 -28 7 -80 33 -65 33 6 0 28 -9 50 -20z m925 7 c-14 -7 -36 -16 -50
-20 -14 -3 -7 3 15 13 45 22 73 27 35 7z m-795 -47 c14 -6 9 -7 -15 -3 -19 4
-44 11 -55 15 -14 6 -9 7 15 3 19 -4 44 -11 55 -15z m665 1 c-34 -11 -60 -11
-35 0 11 5 29 8 40 8 16 0 15 -2 -5 -8z m-607 -17 c-7 -2 -19 -2 -25 0 -7 3
-2 5 12 5 14 0 19 -2 13 -5z m540 0 c-7 -2 -19 -2 -25 0 -7 3 -2 5 12 5 14 0
19 -2 13 -5z m-490 -10 c-7 -2 -19 -2 -25 0 -7 3 -2 5 12 5 14 0 19 -2 13 -5z
m440 0 c-7 -2 -19 -2 -25 0 -7 3 -2 5 12 5 14 0 19 -2 13 -5z"/>
</g>
</svg>
