<?xml version="1.0" standalone="no"?>
<!DOCTYPE svg PUBLIC "-//W3C//DTD SVG 20010904//EN"
 "http://www.w3.org/TR/2001/REC-SVG-20010904/DTD/svg10.dtd">
<svg version="1.0" xmlns="http://www.w3.org/2000/svg"
 width="250.000000pt" height="218.000000pt" viewBox="0 0 250.000000 218.000000"
 preserveAspectRatio="xMidYMid meet">
<metadata>
Created by potrace 1.16, written by Peter Selinger 2001-2019
</metadata>
<g transform="translate(0.000000,218.000000) scale(0.100000,-0.100000)"
fill="#000000" stroke="none">
<path d="M1974 2155 c-124 -74 -141 -256 -33 -348 132 -114 332 -44 364 126
16 84 -36 187 -116 227 -58 30 -161 28 -215 -5z"/>
<path d="M1110 1811 l0 -148 68 -17 c202 -49 379 -209 438 -396 9 -30 21 -61
27 -67 6 -9 6 -13 -1 -13 -18 0 -92 -247 -104 -351 -15 -129 -6 -138 54 -61
55 71 111 102 187 102 119 0 220 -103 222 -227 l0 -48 16 40 c11 29 16 83 18
193 l2 154 44 87 c44 86 45 88 33 137 -7 27 -22 92 -34 145 -22 95 -23 97 -60
114 -28 13 -56 16 -99 13 -78 -6 -131 -41 -186 -125 -22 -34 -42 -62 -45 -63
-3 0 -15 41 -27 91 -49 203 -169 378 -337 492 -58 39 -178 96 -203 97 -10 0
-13 -36 -13 -149z"/>
</g>
</svg>
