<svg xmlns="http://www.w3.org/2000/svg" width="32" height="32" xmlns:xlink="http://www.w3.org/1999/xlink"><defs><linearGradient id="c" x1="50%" x2="50%" y1="0%" y2="100%"><stop offset="0%" stop-color="#FFF" stop-opacity=".5"/><stop offset="100%" stop-opacity=".5"/></linearGradient><circle id="b" cx="16" cy="15" r="15"/><filter id="a" width="111.7%" height="111.7%" x="-5.8%" y="-4.2%" filterUnits="objectBoundingBox"><feOffset dy=".5" in="SourceAlpha" result="shadowOffsetOuter1"/><feGaussianBlur in="shadowOffsetOuter1" result="shadowBlurOuter1" stdDeviation=".5"/><feComposite in="shadowBlurOuter1" in2="SourceAlpha" operator="out" result="shadowBlurOuter1"/><feColorMatrix in="shadowBlurOuter1" values="0 0 0 0 0 0 0 0 0 0 0 0 0 0 0 0 0 0 0.199473505 0"/></filter><path id="e" d="M16.86 24.5h-1.72c-1.3 0-1.65-1.2-1.65-2.1 0-.92.04-1.33.04-1.74 0-.65-.32-2.28-.92-2.96-1.16-1.32-1.9-2.5-1.9-4.23-1-.52-2.78-1-3.46-1.78C6.56 10.9 6 9.8 6 8.2c0-.4.1-.98.26-1.72.4 1.23 1 2.08 1.82 2.54 1.2.67 2.56 1.17 3.7 1.17h8.43c1.17 0 2.53-.5 3.73-1.17.82-.46 1.43-1.3 1.82-2.54.17.73.26 1.3.26 1.7 0 1.6-.57 2.7-1.26 3.48-.68.77-2.46 1.25-3.47 1.77 0 1.72-.73 2.9-1.9 4.23-.6.68-.9 2.3-.9 2.96 0 .4.05.82.05 1.73 0 .9-.35 2.1-1.64 2.1z"/><filter id="d" width="117.5%" height="119.4%" x="-8.8%" y="-6.9%" filterUnits="objectBoundingBox"><feOffset dy=".5" in="SourceAlpha" result="shadowOffsetOuter1"/><feGaussianBlur in="shadowOffsetOuter1" result="shadowBlurOuter1" stdDeviation=".5"/><feColorMatrix in="shadowBlurOuter1" values="0 0 0 0 0 0 0 0 0 0 0 0 0 0 0 0 0 0 0.204257246 0"/></filter></defs><g fill="none"><use fill="#000" filter="url(#a)" xlink:href="#b"/><use fill="#4392CD" fill-rule="evenodd" xlink:href="#b"/><use fill="url(#c)" fill-rule="evenodd" style="mix-blend-mode:soft-light" xlink:href="#b"/><circle cx="16" cy="15" r="14.5" stroke="#000" stroke-opacity=".097"/><use fill="#000" filter="url(#d)" xlink:href="#e"/><use fill="#FFF" xlink:href="#e"/></g></svg>