<svg xmlns="http://www.w3.org/2000/svg" width="32" height="32" xmlns:xlink="http://www.w3.org/1999/xlink"><defs><linearGradient id="c" x1="50%" x2="50%" y1="0%" y2="100%"><stop offset="0%" stop-color="#FFF" stop-opacity=".5"/><stop offset="100%" stop-opacity=".5"/></linearGradient><circle id="b" cx="16" cy="15" r="15"/><filter id="a" width="111.7%" height="111.7%" x="-5.8%" y="-4.2%" filterUnits="objectBoundingBox"><feOffset dy=".5" in="SourceAlpha" result="shadowOffsetOuter1"/><feGaussianBlur in="shadowOffsetOuter1" result="shadowBlurOuter1" stdDeviation=".5"/><feComposite in="shadowBlurOuter1" in2="SourceAlpha" operator="out" result="shadowBlurOuter1"/><feColorMatrix in="shadowBlurOuter1" values="0 0 0 0 0 0 0 0 0 0 0 0 0 0 0 0 0 0 0.199473505 0"/></filter><path id="e" d="M24.28 19.87c.08.86-.18 1.7-1.02 2.26-.4.26-.84.37-1.32.37-3.96 0-7.92 0-11.88 0-.1 0-.17 0-.26 0-.87-.06-1.7-.68-1.97-1.5-.12-.37-.14-.74-.12-1.13h.13c.77 0 1.53 0 2.3 0 .23 0 .38-.17.33-.38-.02-.1-.08-.18-.14-.24-.97-.98-1.96-1.96-2.94-2.94-.3-.3-.6-.6-.9-.9-.34-.33-.5-.74-.45-1.2.04-.24.12-.47.2-.7.42-1.27 1.07-2.42 1.96-3.44C9.42 8.62 11 7.6 12.83 7c1.2-.4 2.42-.56 3.67-.48 2.96.17 5.4 1.37 7.34 3.57 1 1.12 1.7 2.43 2.1 3.9.16.53.02 1-.38 1.4-.75.76-1.5 1.5-2.26 2.24-.56.55-1.1 1.1-1.67 1.65-.18.17-.16.4.05.5.06.04.13.05.2.05.76 0 1.52 0 2.28 0h.12zm-15.84.54c0 .34.1.6.3.87.3.42.72.62 1.24.62 4 0 8.02 0 12.03 0 .07 0 .1 0 .16 0 .47-.04.84-.26 1.12-.63.2-.25.28-.53.28-.85H8.46zm10.27-7.73c.05.02.07.03.1.04.97.75 1.6 1.7 1.84 2.9.13.68.1 1.33-.04 1.98-.15.6-.4 1.14-.76 1.64-.07.1-.1.2-.07.32.07.27.38.36.58.16.3-.3.6-.6.9-.9 1.2-1.17 2.38-2.36 3.58-3.55.26-.26.37-.57.3-.93-.02-.15-.08-.3-.13-.46-.4-1.13-.95-2.17-1.7-3.12-.55-.73-1.2-1.36-1.96-1.9-.03 0-.07-.06-.07-.1-.05-.46-.52-.73-.95-.56-.03.02-.1.02-.12 0-1.07-.5-2.2-.78-3.36-.86-.93-.07-1.86-.03-2.77.15-.77.15-1.5.4-2.2.73-.07.03-.12.03-.18 0-.46-.22-.97.1-.98.58 0 .06-.02.1-.07.13-.3.24-.62.47-.9.74C8.4 10.87 7.48 12.4 6.9 14.1c-.14.45-.04.82.28 1.15 1.2 1.17 2.37 2.36 3.56 3.53.3.3.6.6.9.9.17.16.43.13.54-.07.08-.12.06-.25-.03-.4-.48-.66-.77-1.4-.85-2.23-.07-.68 0-1.34.23-1.98.05-.16.1-.3.17-.45.48.28.95.56 1.4.83-.64 1.66.15 3.24 1.4 3.92 1.3.7 2.93.4 3.9-.75.46-.54.7-1.18.7-1.9.03-1.06-.4-1.9-1.24-2.57.3-.48.56-.94.85-1.42zm4.68 3.04c-.02-.16-.05-.3-.07-.46-.1-.57-.26-1.1-.5-1.64 0-.07-.02-.12 0-.18.18-.35 0-.76-.35-.9-.35-.15-.76.04-.88.4-.13.36.08.76.45.86.12.03.17.08.2.18.32.74.5 1.52.5 2.32 0 .04 0 .1-.03.13-.47.48-.93.94-1.4 1.4 0 0-.03.02-.04.03.44-2.17-.1-4.05-1.84-5.47-1.8-1.47-3.82-1.58-5.94-.63-.2-.35-.42-.72-.64-1.1.23-.12.45-.22.68-.32.58-.23 1.2-.37 1.82-.44.08 0 .14 0 .2.07.27.27.7.27.96 0 .05-.06.1-.08.17-.07 1.53.17 2.86.77 3.98 1.82.1.1.18.18.27.26.15.16.32.16.48 0 .35-.33.7-.67 1.05-1 .03-.03.06-.06.1-.1.13.16.25.32.37.48.7.94 1.2 1.95 1.55 3.06.05.14.02.27-.1.37-.3.3-.6.6-.9.92-.03.02-.05.03-.08.05zm-1.26-5.3c-.3.3-.6.57-.9.87-.02-.02-.04-.04-.06-.07-.96-.9-2.08-1.53-3.36-1.85-.35-.08-.72-.12-1.08-.18-.06 0-.1-.02-.14-.08-.27-.43-.86-.43-1.13 0-.03.02-.08.05-.13.05-2.3.26-4.13 1.34-5.46 3.24-.03.04-.07.06-.13.07-.46.08-.7.53-.5.96 0 .03 0 .08 0 .12-.28.64-.47 1.3-.56 2 0 .04 0 .1-.02.15-.04-.03-.06-.05-.1-.07-.28-.3-.56-.58-.85-.86-.13-.13-.18-.27-.1-.45.66-1.93 1.73-3.58 3.4-4.8 0-.03.03-.04.05-.05.06-.06.12-.07.2-.05.4.1.77-.13.84-.52 0-.04.03-.08.07-.1.43-.2.88-.38 1.34-.5 1.1-.32 2.23-.4 3.36-.32 1.04.07 2.05.3 3 .77.06.02.1.05.1.12.06.44.5.7.92.53.03 0 .08 0 .1 0 .42.28.8.6 1.14.96 0 0 0 0 0 .03zm-3.66 6.18c0 1.33-1.1 2.43-2.43 2.44-1.34 0-2.44-1.08-2.45-2.42 0-1.34 1.1-2.43 2.44-2.44 1.34 0 2.44 1.08 2.44 2.43zm-7.7 1.26c-.2-.22-.42-.42-.63-.63-.25-.25-.5-.5-.77-.77-.03-.03-.05-.08-.05-.13.03-.84.2-1.64.54-2.4.03-.07.06-.1.12-.1.45-.1.66-.5.5-.93 0-.03 0-.07 0-.1.5-.73 1.12-1.34 1.86-1.83 0 0 0 0 .02 0 .1.14.18.3.26.45.2.3.37.62.56.94.1.2.26.24.45.12.5-.3 1.07-.5 1.66-.6 1.02-.17 2-.02 2.93.45 0 0 0 0 .03.03-.3.48-.58.95-.85 1.4-1.6-.58-2.9-.23-3.96 1.1-.46-.28-.93-.55-1.4-.84.1-.18.23-.34.36-.5.05-.07.1-.13.16-.2.1-.1.1-.14 0-.23-.08-.08-.16-.16-.24-.23-.1-.1-.15-.1-.25 0-.43.46-.77.98-1.02 1.56-.33.83-.47 1.7-.38 2.57.02.28.08.56.13.86zm5.25-8c-.2 0-.37-.18-.37-.38s.18-.38.38-.38.38.18.38.38-.17.38-.38.37zM11.4 8.4c.2 0 .38.17.38.38 0 .2-.17.37-.38.37-.2 0-.38-.17-.38-.37 0-.2.17-.37.38-.37zm10.8 5.1c-.2 0-.38-.15-.38-.36 0-.2.17-.37.37-.37.2 0 .36.16.36.37 0 .2-.16.37-.37.37zm-1.6-5.1c.2 0 .37.17.37.38 0 .2-.17.37-.37.37-.2 0-.38-.16-.38-.37 0-.2.16-.37.37-.37zm-10.42 4.74c0 .2-.17.37-.38.37-.2 0-.38-.15-.37-.36 0-.2.16-.36.37-.36.2 0 .37.16.38.37z"/><filter id="d" width="117.5%" height="121.9%" x="-8.8%" y="-7.8%" filterUnits="objectBoundingBox"><feOffset dy=".5" in="SourceAlpha" result="shadowOffsetOuter1"/><feGaussianBlur in="shadowOffsetOuter1" result="shadowBlurOuter1" stdDeviation=".5"/><feColorMatrix in="shadowBlurOuter1" values="0 0 0 0 0 0 0 0 0 0 0 0 0 0 0 0 0 0 0.204257246 0"/></filter></defs><g fill="none"><use fill="#000" filter="url(#a)" xlink:href="#b"/><use fill="#1061E3" xlink:href="#b"/><use fill="url(#c)" style="mix-blend-mode:soft-light" xlink:href="#b"/><circle cx="16" cy="15" r="14.5" stroke="#000" stroke-opacity=".097"/><use fill="#000" filter="url(#d)" xlink:href="#e"/><use fill="#FFF" xlink:href="#e"/></g></svg>