<svg xmlns="http://www.w3.org/2000/svg" width="32" height="32" xmlns:xlink="http://www.w3.org/1999/xlink"><defs><linearGradient id="c" x1="50%" x2="50%" y1="0%" y2="100%"><stop offset="0%" stop-color="#FFF" stop-opacity=".5"/><stop offset="100%" stop-opacity=".5"/></linearGradient><circle id="b" cx="16" cy="15" r="15"/><filter id="a" width="111.7%" height="111.7%" x="-5.8%" y="-4.2%" filterUnits="objectBoundingBox"><feOffset dy=".5" in="SourceAlpha" result="shadowOffsetOuter1"/><feGaussianBlur in="shadowOffsetOuter1" result="shadowBlurOuter1" stdDeviation=".5"/><feComposite in="shadowBlurOuter1" in2="SourceAlpha" operator="out" result="shadowBlurOuter1"/><feColorMatrix in="shadowBlurOuter1" values="0 0 0 0 0 0 0 0 0 0 0 0 0 0 0 0 0 0 0.199473505 0"/></filter><path id="e" d="M15.08 19.16c.26-.1.56 0 .67.27.1.27-.02.57-.28.68l-3.4 1.43L11.6 24H9.28l.26-1.43-1.4.58c-.25.1-.55-.02-.65-.28-.1-.26 0-.56.26-.67l2-.83.14-.84-2.7 1.12c-.25.1-.55-.02-.66-.28-.1-.26.02-.56.28-.67l3.3-1.37L12.5 6h6.76c4.15-.13 6.22 1.25 6.22 4.16 0 3.7-2.7 6.56-7.28 6.56h-5.28l-.28 1.55 1.48-.6c.26-.12.56 0 .67.27.1.26 0 .56-.28.67l-2.1.9-.15.83 2.8-1.16zM14.5 8.1l-1.16 6.43h5.22c3.2 0 4.43-2.18 4.43-3.77 0-1.58-.8-2.65-3.35-2.65H14.5z"/><filter id="d" width="118.4%" height="119.4%" x="-9.2%" y="-6.9%" filterUnits="objectBoundingBox"><feOffset dy=".5" in="SourceAlpha" result="shadowOffsetOuter1"/><feGaussianBlur in="shadowOffsetOuter1" result="shadowBlurOuter1" stdDeviation=".5"/><feColorMatrix in="shadowBlurOuter1" values="0 0 0 0 0 0 0 0 0 0 0 0 0 0 0 0 0 0 0.204257246 0"/></filter></defs><g fill="none"><use fill="#000" filter="url(#a)" xlink:href="#b"/><use fill="#00ACFF" xlink:href="#b"/><use fill="url(#c)" style="mix-blend-mode:soft-light" xlink:href="#b"/><circle cx="16" cy="15" r="14.5" stroke="#000" stroke-opacity=".097"/><use fill="#000" filter="url(#d)" xlink:href="#e"/><use fill="#FFF" xlink:href="#e"/></g></svg>