<?xml version="1.0" standalone="no"?>
<!DOCTYPE svg PUBLIC "-//W3C//DTD SVG 20010904//EN"
 "http://www.w3.org/TR/2001/REC-SVG-20010904/DTD/svg10.dtd">
<svg version="1.0" xmlns="http://www.w3.org/2000/svg"
 width="250.000000pt" height="250.000000pt" viewBox="0 0 250.000000 250.000000"
 preserveAspectRatio="xMidYMid meet">
<metadata>
Created by potrace 1.16, written by Peter Selinger 2001-2019
</metadata>
<g transform="translate(0.000000,250.000000) scale(0.100000,-0.100000)"
fill="#000000" stroke="none">
<path d="M0 1250 l0 -1250 1250 0 1250 0 0 1250 0 1250 -1250 0 -1250 0 0
-1250z m1755 525 l0 -140 -427 -3 -428 -2 -2 -213 -3 -212 -140 0 -140 0 -3
345 c-1 190 0 351 3 358 3 10 122 12 572 10 l568 -3 0 -140z m285 -360 l0
-215 -140 0 -140 0 0 -140 0 -140 -430 0 -430 0 0 140 0 140 430 0 430 0 0
215 0 215 140 0 140 0 0 -215z m-1140 -715 l0 -210 -145 0 -145 0 0 210 0 210
145 0 145 0 0 -210z"/>
</g>
</svg>
