<svg xmlns="http://www.w3.org/2000/svg" width="32" height="32" xmlns:xlink="http://www.w3.org/1999/xlink"><defs><linearGradient id="c" x1="50%" x2="50%" y1="0%" y2="100%"><stop offset="0%" stop-color="#FFF" stop-opacity=".5"/><stop offset="100%" stop-opacity=".5"/></linearGradient><circle id="b" cx="16" cy="15" r="15"/><filter id="a" width="111.7%" height="111.7%" x="-5.8%" y="-4.2%" filterUnits="objectBoundingBox"><feOffset dy=".5" in="SourceAlpha" result="shadowOffsetOuter1"/><feGaussianBlur in="shadowOffsetOuter1" result="shadowBlurOuter1" stdDeviation=".5"/><feComposite in="shadowBlurOuter1" in2="SourceAlpha" operator="out" result="shadowBlurOuter1"/><feColorMatrix in="shadowBlurOuter1" values="0 0 0 0 0 0 0 0 0 0 0 0 0 0 0 0 0 0 0.199473505 0"/></filter><path id="e" d="M24.76 6.73c-.8-.8-1.88-1.23-3.02-1.23-1.14 0-2.2.44-3 1.23l-9.87 9.7c-.1.1-.15.25-.14.4v5L6 24.5h1.5l2.02-2h5.04c.15 0 .3-.04.38-.15l9.8-9.66.02-.03c.8-.8 1.24-1.84 1.24-2.96 0-1.12-.44-2.2-1.24-3zm-5.73 1.13l.4-.4c.62-.6 1.44-.95 2.3-.95.88 0 1.7.36 2.3.96.02 0 .03.03.05.04.6.6.9 1.37.9 2.2 0 .86-.33 1.67-.94 2.28l-.43.42h-3.8l2.5-2.47c.2-.2.2-.5.03-.7 0-.02 0-.03-.02-.04-.2-.2-.53-.2-.73 0l-2.52 2.46v-3.8zM10.55 21.5l2.06-2.02h3.83l-2.06 2.02h-3.8zm5.98-5.9l2.44-2.4h3.8l-2.42 2.4h-3.82zm2.98.82l-2.25 2.23h-3.8l2.26-2.23h3.8zm-3.73-5.34l2.44-2.4v3.8l-2.43 2.4v-3.8zm-3.1 3.06l2.26-2.24v3.8l-2.27 2.24v-3.8zM9.73 17l2.1-2.04v3.8l-2.1 2.04V17z"/><filter id="d" width="117.5%" height="118.4%" x="-8.8%" y="-6.6%" filterUnits="objectBoundingBox"><feOffset dy=".5" in="SourceAlpha" result="shadowOffsetOuter1"/><feGaussianBlur in="shadowOffsetOuter1" result="shadowBlurOuter1" stdDeviation=".5"/><feColorMatrix in="shadowBlurOuter1" values="0 0 0 0 0 0 0 0 0 0 0 0 0 0 0 0 0 0 0.204257246 0"/></filter></defs><g fill="none"><use fill="#000" filter="url(#a)" xlink:href="#b"/><use fill="#DCD6CC" xlink:href="#b"/><use fill="url(#c)" style="mix-blend-mode:soft-light" xlink:href="#b"/><circle cx="16" cy="15" r="14.5" stroke="#000" stroke-opacity=".097"/><use fill="#000" filter="url(#d)" xlink:href="#e"/><use fill="#FFF" fill-rule="evenodd" xlink:href="#e"/></g></svg>