<svg xmlns="http://www.w3.org/2000/svg" width="32" height="32" xmlns:xlink="http://www.w3.org/1999/xlink"><defs><linearGradient id="c" x1="50%" x2="50%" y1="0%" y2="100%"><stop offset="0%" stop-color="#FFF" stop-opacity=".5"/><stop offset="100%" stop-opacity=".5"/></linearGradient><circle id="b" cx="16" cy="15" r="15"/><filter id="a" width="111.7%" height="111.7%" x="-5.8%" y="-4.2%" filterUnits="objectBoundingBox"><feOffset dy=".5" in="SourceAlpha" result="shadowOffsetOuter1"/><feGaussianBlur in="shadowOffsetOuter1" result="shadowBlurOuter1" stdDeviation=".5"/><feComposite in="shadowBlurOuter1" in2="SourceAlpha" operator="out" result="shadowBlurOuter1"/><feColorMatrix in="shadowBlurOuter1" values="0 0 0 0 0 0 0 0 0 0 0 0 0 0 0 0 0 0 0.199473505 0"/></filter><path id="e" d="M5 23L16 4l11 19H5zm6.87-9.68c1.3-.85 2.66-1.3 4.13-1.3 1.47 0 2.84.45 4.13 1.3L16 6.2l-4.13 7.12zM9.92 16.7l-3 5.17h18.16l-3-5.18c-1.8 1.97-3.84 3-6.08 3s-4.27-1.03-6.08-3zM16 18.55c1.94 0 3.7-.9 5.34-2.7-1.63-1.8-3.4-2.7-5.34-2.7s-3.7.9-5.34 2.7c1.63 1.8 3.4 2.7 5.34 2.7zm0-.48c-1.16 0-2.1-.97-2.1-2.18 0-1.2.94-2.18 2.1-2.18 1.16 0 2.1.97 2.1 2.17s-.94 2.17-2.1 2.17zm0-1.13c.56 0 1-.47 1-1.05 0-.6-.44-1.05-1-1.05s-1 .46-1 1.04c0 .57.44 1.04 1 1.04z"/><filter id="d" width="115.9%" height="118.4%" x="-8%" y="-6.6%" filterUnits="objectBoundingBox"><feOffset dy=".5" in="SourceAlpha" result="shadowOffsetOuter1"/><feGaussianBlur in="shadowOffsetOuter1" result="shadowBlurOuter1" stdDeviation=".5"/><feColorMatrix in="shadowBlurOuter1" values="0 0 0 0 0 0 0 0 0 0 0 0 0 0 0 0 0 0 0.204257246 0"/></filter></defs><g fill="none"><use fill="#000" filter="url(#a)" xlink:href="#b"/><use fill="#444FA1" fill-rule="evenodd" xlink:href="#b"/><use fill="url(#c)" fill-rule="evenodd" style="mix-blend-mode:soft-light" xlink:href="#b"/><circle cx="16" cy="15" r="14.5" stroke="#000" stroke-opacity=".097"/><use fill="#000" filter="url(#d)" xlink:href="#e"/><use fill="#FFF" fill-rule="evenodd" xlink:href="#e"/></g></svg>