<svg xmlns="http://www.w3.org/2000/svg" width="32" height="32" xmlns:xlink="http://www.w3.org/1999/xlink"><defs><linearGradient id="c" x1="50%" x2="50%" y1="0%" y2="100%"><stop offset="0%" stop-color="#FFF" stop-opacity=".5"/><stop offset="100%" stop-opacity=".5"/></linearGradient><circle id="b" cx="16" cy="15" r="15"/><filter id="a" width="111.7%" height="111.7%" x="-5.8%" y="-4.2%" filterUnits="objectBoundingBox"><feOffset dy=".5" in="SourceAlpha" result="shadowOffsetOuter1"/><feGaussianBlur in="shadowOffsetOuter1" result="shadowBlurOuter1" stdDeviation=".5"/><feComposite in="shadowBlurOuter1" in2="SourceAlpha" operator="out" result="shadowBlurOuter1"/><feColorMatrix in="shadowBlurOuter1" values="0 0 0 0 0 0 0 0 0 0 0 0 0 0 0 0 0 0 0.199473505 0"/></filter><path id="e" d="M12.03 17.18c-.13.68-.26 1.33-.4 2-.22 1.2-.46 2.42-.7 3.64-.02.1-.04.18-.18.18-.9 0-1.77-.02-2.65-.03-.02 0-.04 0-.1-.04.66-3.3 1.32-6.6 2-9.94H8.3c.02-.1 0-.13.02-.18.1-.53.22-1.07.3-1.6.04-.16.1-.2.24-.2.4 0 .82 0 1.23 0 .2.02.25-.04.3-.23.22-1.2.46-2.38.7-3.57.02-.14.05-.24.24-.24 2 0 4 0 6.02 0 1.17.02 2.35.1 3.5.32.4.08.8.18 1.17.35 1.06.47 1.7 1.28 1.87 2.4.3 1.76-.08 3.37-1.2 4.77-.84 1.03-1.98 1.6-3.25 1.96-1 .3-2.04.38-3.08.38-1.36 0-2.7 0-4.06 0-.07 0-.15 0-.26 0zm.56-2.74c.1 0 .2 0 .26 0 1.43 0 2.87 0 4.3 0 .3 0 .6 0 .92-.05 1.14-.16 2.02-.7 2.6-1.7.24-.47.3-.95.2-1.45-.1-.7-.52-1.16-1.23-1.28-.5-.1-1.04-.17-1.56-.17-1.48-.02-2.95 0-4.4 0-.08 0-.13 0-.2 0-.08.4-.16.8-.24 1.25h4.1c-.14.66-.26 1.3-.4 1.94h-4.1c-.1.46-.18.93-.28 1.43z"/><filter id="d" width="121.9%" height="121.9%" x="-10.9%" y="-7.8%" filterUnits="objectBoundingBox"><feOffset dy=".5" in="SourceAlpha" result="shadowOffsetOuter1"/><feGaussianBlur in="shadowOffsetOuter1" result="shadowBlurOuter1" stdDeviation=".5"/><feColorMatrix in="shadowBlurOuter1" values="0 0 0 0 0 0 0 0 0 0 0 0 0 0 0 0 0 0 0.204257246 0"/></filter></defs><g fill="none"><use fill="#000" filter="url(#a)" xlink:href="#b"/><use fill="#105B2F" xlink:href="#b"/><use fill="url(#c)" style="mix-blend-mode:soft-light" xlink:href="#b"/><circle cx="16" cy="15" r="14.5" stroke="#000" stroke-opacity=".097"/><use fill="#000" filter="url(#d)" xlink:href="#e"/><use fill="#FFF" xlink:href="#e"/></g></svg>