<?xml version="1.0" standalone="no"?>
<!DOCTYPE svg PUBLIC "-//W3C//DTD SVG 20010904//EN"
 "http://www.w3.org/TR/2001/REC-SVG-20010904/DTD/svg10.dtd">
<svg version="1.0" xmlns="http://www.w3.org/2000/svg"
 width="250.000000pt" height="250.000000pt" viewBox="0 0 250.000000 250.000000"
 preserveAspectRatio="xMidYMid meet">
<metadata>
Created by potrace 1.16, written by Peter Selinger 2001-2019
</metadata>
<g transform="translate(0.000000,250.000000) scale(0.100000,-0.100000)"
fill="#000000" stroke="none">
<path d="M1 1963 c1 -296 4 -524 6 -508 17 119 84 308 153 425 185 316 519
552 860 609 37 6 -124 9 -482 10 l-538 1 1 -537z"/>
<path d="M1480 2489 c341 -57 675 -293 860 -609 69 -117 136 -306 153 -425 2
-16 5 212 6 508 l1 537 -537 -1 c-359 -1 -520 -4 -483 -10z"/>
<path d="M1 538 l-1 -538 538 1 c358 1 519 4 482 10 -341 57 -675 293 -860
609 -69 117 -136 306 -153 425 -2 17 -5 -212 -6 -507z"/>
<path d="M2490 1044 c0 -79 -79 -303 -150 -424 -185 -316 -519 -552 -860 -609
-37 -6 124 -9 483 -10 l537 -1 0 535 c0 294 -2 535 -5 535 -3 0 -5 -12 -5 -26z"/>
</g>
</svg>
