<svg xmlns="http://www.w3.org/2000/svg" width="32" height="32" xmlns:xlink="http://www.w3.org/1999/xlink"><defs><linearGradient id="c" x1="50%" x2="50%" y1="0%" y2="100%"><stop offset="0%" stop-color="#FFF" stop-opacity=".5"/><stop offset="100%" stop-opacity=".5"/></linearGradient><circle id="b" cx="16" cy="15" r="15"/><filter id="a" width="111.7%" height="111.7%" x="-5.8%" y="-4.2%" filterUnits="objectBoundingBox"><feOffset dy=".5" in="SourceAlpha" result="shadowOffsetOuter1"/><feGaussianBlur in="shadowOffsetOuter1" result="shadowBlurOuter1" stdDeviation=".5"/><feComposite in="shadowBlurOuter1" in2="SourceAlpha" operator="out" result="shadowBlurOuter1"/><feColorMatrix in="shadowBlurOuter1" values="0 0 0 0 0 0 0 0 0 0 0 0 0 0 0 0 0 0 0.199473505 0"/></filter><path id="e" d="M25.63 20.2c.2 0 .37.18.37.4v1.9h-6.28l-.02-1.66c0-.1.05-.2.13-.28.02-.04.05-.07.08-.1 2.8-1.92 3.85-5.6 2.57-8.77-1.3-3.2-4.58-5-7.85-4.33-3.27.68-5.62 3.65-5.62 7.1 0 2.35 1.12 4.55 3 5.9.04 0 .07.05.1.1.13.05.22.2.22.35l-.02 1.66H6v-1.92c0-.2.17-.38.37-.38.2 0 .37.17.37.38v1.15h4.8l.02-.7c-2.8-2-3.96-5.6-2.96-8.9 1-3.32 4-5.58 7.37-5.58s6.35 2.26 7.37 5.58c1.06 3.3-.14 6.9-2.9 8.9v.74h4.82V20.6c0-.22.16-.4.37-.4zm-4.96-5.17c.83 1.06 1.08 2 .72 2.62-.3.48-.88.74-1.74.74-.53-.03-1.06-.1-1.58-.26-.48 1.64-1.24 2.7-2.1 2.7-.86 0-1.62-1.06-2.08-2.7-.5.15-1.05.23-1.58.24-.85 0-1.44-.27-1.72-.75-.44-.77.06-1.97 1.2-3.2-.16-.18-.32-.37-.48-.57-.83-1.05-1.08-1.98-.72-2.62.28-.5.87-.75 1.72-.75.53.02 1.07.1 1.58.24.47-1.64 1.23-2.7 2.1-2.7.86 0 1.6 1.06 2.07 2.7.5-.13 1.04-.2 1.57-.23.86 0 1.44.27 1.72.76.35.64.1 1.57-.73 2.62-.15.2-.32.38-.5.56.18.18.35.37.5.57zm-.98-4.05c-.5.02-1 .1-1.5.2.13.6.22 1.2.27 1.8.48.35.93.73 1.36 1.14.17-.18.33-.36.47-.54.7-.88.95-1.63.7-2.1-.23-.4-.85-.5-1.3-.5zm-2.67 5.34c.35-.2.7-.43 1-.66.04-.4.05-.8.05-1.2 0-.43-.04-.84-.06-1.22-.3-.23-.65-.44-1-.65-.34-.2-.7-.4-1.04-.57-.36.16-.7.35-1.04.55-.36.2-.7.4-1 .64-.04.38-.05.8-.05 1.2 0 .43.03.84.05 1.22.3.23.65.44 1 .65.34.2.7.4 1.04.57.35-.17.7-.35 1.03-.56zm.95-.04c-.25.15-.48.3-.72.45-.24.15-.48.28-.72.4.4.2.8.34 1.22.47.08-.4.15-.85.2-1.32zm-2.54.86l-.72-.4c-.24-.16-.48-.3-.7-.46.03.45.1.88.2 1.32.42-.13.82-.3 1.22-.46zM13.5 15.3c-.02-.27-.03-.55-.03-.85 0-.3 0-.57.02-.85-.37.26-.7.54-1 .85.3.3.63.6 1 .86zm.53-2.66c.23-.16.45-.3.7-.44.25-.15.5-.3.73-.4-.4-.2-.8-.34-1.2-.47-.1.4-.17.84-.23 1.3zm2.52-.85c.24.1.48.24.72.4.24.14.48.3.7.43-.03-.44-.1-.88-.2-1.3-.42.12-.82.27-1.22.45zm1.98 1.8c.02.3.03.56.03.85 0 .3 0 .6-.03.86.35-.3.7-.56 1-.85-.32-.3-.65-.6-1-.85zM16 8.53c-.6 0-1.22.87-1.63 2.34.56.18 1.1.4 1.64.64.56-.24 1.1-.45 1.67-.63-.4-1.48-1.05-2.35-1.65-2.35zm-4.97 2.96c-.26.45 0 1.22.68 2.07.17.2.3.36.5.55.42-.4.87-.8 1.35-1.14.05-.6.15-1.2.28-1.8-.5-.12-.98-.2-1.48-.2-.47 0-1.07.1-1.3.5zm1.3 6.43c.5 0 1-.08 1.5-.22-.14-.57-.24-1.17-.3-1.77-.47-.34-.93-.72-1.36-1.13-1.03 1.1-1.44 2.08-1.14 2.62.23.42.84.5 1.3.5zM16 20.38c.6 0 1.26-.86 1.67-2.34-.56-.17-1.1-.4-1.65-.64-.52.25-1.07.47-1.63.64.4 1.48 1.03 2.34 1.63 2.34zm5-2.96c.26-.44 0-1.2-.7-2.1-.12-.16-.3-.35-.45-.52-.43.4-.88.8-1.36 1.14-.06.6-.15 1.2-.28 1.78.5.13 1 .2 1.5.2.45 0 1.05-.08 1.3-.5zm-5-4.78c1 0 1.78.8 1.8 1.8 0 1-.8 1.82-1.76 1.82-.97 0-1.75-.8-1.76-1.8 0-1 .78-1.8 1.74-1.82zm0 3.16c.74 0 1.3-.6 1.3-1.34 0-.74-.56-1.33-1.3-1.33-.7 0-1.27.6-1.27 1.33 0 .74.58 1.34 1.3 1.34z"/><filter id="d" width="117.5%" height="121.9%" x="-8.8%" y="-7.8%" filterUnits="objectBoundingBox"><feOffset dy=".5" in="SourceAlpha" result="shadowOffsetOuter1"/><feGaussianBlur in="shadowOffsetOuter1" result="shadowBlurOuter1" stdDeviation=".5"/><feColorMatrix in="shadowBlurOuter1" values="0 0 0 0 0 0 0 0 0 0 0 0 0 0 0 0 0 0 0.204257246 0"/></filter></defs><g fill="none"><use fill="#000" filter="url(#a)" xlink:href="#b"/><use fill="#252525" xlink:href="#b"/><use fill="url(#c)" style="mix-blend-mode:soft-light" xlink:href="#b"/><circle cx="16" cy="15" r="14.5" stroke="#000" stroke-opacity=".097"/><use fill="#000" filter="url(#d)" xlink:href="#e"/><use fill="#FFF" fill-rule="evenodd" xlink:href="#e"/></g></svg>