<svg xmlns="http://www.w3.org/2000/svg" width="32" height="32" xmlns:xlink="http://www.w3.org/1999/xlink"><defs><linearGradient id="c" x1="50%" x2="50%" y1="0%" y2="100%"><stop offset="0%" stop-color="#FFF" stop-opacity=".5"/><stop offset="100%" stop-opacity=".5"/></linearGradient><circle id="b" cx="16" cy="15" r="15"/><filter id="a" width="111.7%" height="111.7%" x="-5.8%" y="-4.2%" filterUnits="objectBoundingBox"><feOffset dy=".5" in="SourceAlpha" result="shadowOffsetOuter1"/><feGaussianBlur in="shadowOffsetOuter1" result="shadowBlurOuter1" stdDeviation=".5"/><feComposite in="shadowBlurOuter1" in2="SourceAlpha" operator="out" result="shadowBlurOuter1"/><feColorMatrix in="shadowBlurOuter1" values="0 0 0 0 0 0 0 0 0 0 0 0 0 0 0 0 0 0 0.199473505 0"/></filter><path id="e" d="M11.47 6.66c2.1 0 3.8 1.7 3.8 3.8 0 2.1-1.7 3.82-3.8 3.82-2.1 0-3.8-1.7-3.8-3.8 0-2.1 1.7-3.82 3.8-3.82zm3.8 12.87c0 2.1-1.7 3.8-3.8 3.8-2.1 0-3.8-1.7-3.8-3.8 0-2.1 1.7-3.8 3.8-3.8 2.9 0 5.25-2.36 5.25-5.26 0-2.1 1.7-3.8 3.8-3.8 2.1 0 3.82 1.7 3.82 3.8 0 2.1-1.7 3.8-3.8 3.8-2.9 0-5.26 2.36-5.26 5.26zm5.26 3.8c-2.1 0-3.8-1.7-3.8-3.8 0-2.1 1.7-3.8 3.8-3.8 2.1 0 3.8 1.7 3.8 3.8 0 2.1-1.7 3.8-3.8 3.8zm0-2.65c.63 0 1.15-.52 1.15-1.15 0-.63-.52-1.15-1.15-1.15-.63 0-1.15.52-1.15 1.15 0 .63.52 1.15 1.15 1.15zm-9.06 0c.63 0 1.15-.52 1.15-1.15 0-.63-.52-1.15-1.15-1.15-.63 0-1.15.52-1.15 1.15 0 .63.52 1.15 1.15 1.15zm9.06-9.06c.63 0 1.15-.52 1.15-1.15 0-.63-.52-1.15-1.15-1.15-.63 0-1.15.52-1.15 1.15 0 .63.52 1.15 1.15 1.15zm-9.06 0c.63 0 1.15-.52 1.15-1.15 0-.63-.52-1.15-1.15-1.15-.63 0-1.15.52-1.15 1.15 0 .63.52 1.15 1.15 1.15z"/><filter id="d" width="121%" height="121%" x="-10.5%" y="-7.5%" filterUnits="objectBoundingBox"><feOffset dy=".5" in="SourceAlpha" result="shadowOffsetOuter1"/><feGaussianBlur in="shadowOffsetOuter1" result="shadowBlurOuter1" stdDeviation=".5"/><feColorMatrix in="shadowBlurOuter1" values="0 0 0 0 0 0 0 0 0 0 0 0 0 0 0 0 0 0 0.204257246 0"/></filter></defs><g fill="none"><use fill="#000" filter="url(#a)" xlink:href="#b"/><use fill="#9D4BEF" xlink:href="#b"/><use fill="url(#c)" style="mix-blend-mode:soft-light" xlink:href="#b"/><circle cx="16" cy="15" r="14.5" stroke="#000" stroke-opacity=".097"/><use fill="#000" filter="url(#d)" xlink:href="#e"/><use fill="#FFF" fill-rule="evenodd" xlink:href="#e"/></g></svg>