<svg xmlns="http://www.w3.org/2000/svg" width="32" height="32" xmlns:xlink="http://www.w3.org/1999/xlink"><defs><linearGradient id="c" x1="50%" x2="50%" y1="0%" y2="100%"><stop offset="0%" stop-color="#FFF" stop-opacity=".5"/><stop offset="100%" stop-opacity=".5"/></linearGradient><circle id="b" cx="16" cy="15" r="15"/><filter id="a" width="111.7%" height="111.7%" x="-5.8%" y="-4.2%" filterUnits="objectBoundingBox"><feOffset dy=".5" in="SourceAlpha" result="shadowOffsetOuter1"/><feGaussianBlur in="shadowOffsetOuter1" result="shadowBlurOuter1" stdDeviation=".5"/><feComposite in="shadowBlurOuter1" in2="SourceAlpha" operator="out" result="shadowBlurOuter1"/><feColorMatrix in="shadowBlurOuter1" values="0 0 0 0 0 0 0 0 0 0 0 0 0 0 0 0 0 0 0.199473505 0"/></filter><path id="e" d="M11.82 8.24C13.48 7 15.5 6.2 17.57 6.04c.2-.04.44.1.43.32.02.56 0 1.13 0 1.7.02.16-.07.38-.27.4-1.84.2-3.6.95-5.12 2-.13.07-.1.26-.1.4.1.98.05 1.97.08 2.95 4.98.03 9.95 0 14.93.03.24-.02.5.1.48.38.02 1.68 0 3.36 0 5.03 0 .9-.2 1.85-.74 2.6-.87 1.17-2.4 1.87-3.85 1.6-1.04-.14-1.93-.78-2.55-1.6-1.7 1.28-3.74 2.06-5.85 2.22-.22 0-.38-.2-.35-.4 0-.6 0-1.2 0-1.77.06-.3.44-.25.67-.3 1.74-.28 3.4-1 4.83-2.04-.08-1.1-.1-2.18-.07-3.27-5-.04-10 0-14.98-.02-.22.03-.43-.14-.4-.37-.02-1.77 0-3.53 0-5.3 0-.9.3-1.85.9-2.55.8-.9 2.02-1.5 3.25-1.43 1.18.04 2.27.7 2.97 1.64zM6.7 10.88c0 1.04 0 2.07 0 3.1 1.24 0 2.47.02 3.7 0 0-1 .02-2.02 0-3.03-.02-.96-.9-1.82-1.87-1.8-.94-.04-1.8.8-1.83 1.73zm15.7 5.3c0 .97 0 1.96 0 2.94 0 .4.12.78.34 1.1.48.67 1.42.97 2.2.67.7-.28 1.18-1.03 1.17-1.78 0-1 0-1.97 0-2.96-1.22 0-2.45 0-3.7 0z"/><filter id="d" width="115%" height="119.4%" x="-7.5%" y="-6.9%" filterUnits="objectBoundingBox"><feOffset dy=".5" in="SourceAlpha" result="shadowOffsetOuter1"/><feGaussianBlur in="shadowOffsetOuter1" result="shadowBlurOuter1" stdDeviation=".5"/><feColorMatrix in="shadowBlurOuter1" values="0 0 0 0 0 0 0 0 0 0 0 0 0 0 0 0 0 0 0.204257246 0"/></filter></defs><g fill="none"><use fill="#000" filter="url(#a)" xlink:href="#b"/><use fill="#CC1E46" fill-rule="evenodd" xlink:href="#b"/><use fill="url(#c)" fill-rule="evenodd" style="mix-blend-mode:soft-light" xlink:href="#b"/><circle cx="16" cy="15" r="14.5" stroke="#000" stroke-opacity=".097"/><use fill="#000" filter="url(#d)" xlink:href="#e"/><use fill="#FFF" fill-rule="evenodd" xlink:href="#e"/></g></svg>