<svg xmlns="http://www.w3.org/2000/svg" width="32" height="32" xmlns:xlink="http://www.w3.org/1999/xlink"><defs><linearGradient id="c" x1="50%" x2="50%" y1="0%" y2="100%"><stop offset="0%" stop-color="#FFF" stop-opacity=".5"/><stop offset="100%" stop-opacity=".5"/></linearGradient><circle id="b" cx="16" cy="15" r="15"/><filter id="a" width="111.7%" height="111.7%" x="-5.8%" y="-4.2%" filterUnits="objectBoundingBox"><feOffset dy=".5" in="SourceAlpha" result="shadowOffsetOuter1"/><feGaussianBlur in="shadowOffsetOuter1" result="shadowBlurOuter1" stdDeviation=".5"/><feComposite in="shadowBlurOuter1" in2="SourceAlpha" operator="out" result="shadowBlurOuter1"/><feColorMatrix in="shadowBlurOuter1" values="0 0 0 0 0 0 0 0 0 0 0 0 0 0 0 0 0 0 0.199473505 0"/></filter><path id="e" d="M25.7 14.73c.72 0 1.3.57 1.3 1.28 0 .7-.58 1.3-1.3 1.3-.55 0-1.03-.34-1.22-.8h-3.72l-1.37 2.43c-.24.4-.86.28-.9-.17l-.33-2.6-1.14 8.44c-.07.55-.9.53-.95-.04l-.95-13.66-1 9.05c-.05.54-.84.57-.94.03l-1.04-5.75-.5 1.9c-.04.2-.23.35-.45.35H6.5c-.26 0-.48-.2-.48-.47 0-.24.22-.45.48-.45h4.36l.94-3.67c.12-.5.85-.47.94.03l.85 4.68L14.8 5.42c.05-.57.9-.55.94.02l.98 14.34 1.02-7.53c.07-.54.9-.54.95 0l.56 4.93.8-1.4c.07-.15.24-.24.4-.24h4c.2-.47.68-.8 1.23-.8z"/><filter id="d" width="116.7%" height="117.5%" x="-8.3%" y="-6.2%" filterUnits="objectBoundingBox"><feOffset dy=".5" in="SourceAlpha" result="shadowOffsetOuter1"/><feGaussianBlur in="shadowOffsetOuter1" result="shadowBlurOuter1" stdDeviation=".5"/><feColorMatrix in="shadowBlurOuter1" values="0 0 0 0 0 0 0 0 0 0 0 0 0 0 0 0 0 0 0.204257246 0"/></filter></defs><g fill="none"><use fill="#000" filter="url(#a)" xlink:href="#b"/><use fill="#8D181B" fill-rule="evenodd" xlink:href="#b"/><use fill="url(#c)" fill-rule="evenodd" style="mix-blend-mode:soft-light" xlink:href="#b"/><circle cx="16" cy="15" r="14.5" stroke="#000" stroke-opacity=".097"/><use fill="#000" filter="url(#d)" xlink:href="#e"/><use fill="#FFF" fill-rule="evenodd" xlink:href="#e"/></g></svg>