<?xml version="1.0" standalone="no"?>
<!DOCTYPE svg PUBLIC "-//W3C//DTD SVG 20010904//EN"
 "http://www.w3.org/TR/2001/REC-SVG-20010904/DTD/svg10.dtd">
<svg version="1.0" xmlns="http://www.w3.org/2000/svg"
 width="250.000000pt" height="250.000000pt" viewBox="0 0 250.000000 250.000000"
 preserveAspectRatio="xMidYMid meet">

<g transform="translate(0.000000,250.000000) scale(0.100000,-0.100000)"
fill="#000000" stroke="none">
<path d="M1065 2485 c-110 -21 -207 -48 -291 -83 -618 -252 -925 -954 -693
-1586 106 -287 333 -542 607 -680 304 -154 671 -174 996 -55 169 63 313 155
446 289 179 178 284 373 342 631 47 211 27 464 -53 683 -176 478 -622 796
-1139 811 -94 3 -160 0 -215 -10z m-170 -479 c58 -27 78 -47 100 -99 28 -68
14 -168 -33 -221 -23 -25 -110 -66 -143 -66 -15 0 -45 7 -67 14 -41 15 -42 15
-62 -14 -36 -51 -80 -155 -95 -226 -89 -422 226 -814 655 -814 369 0 669 298
670 666 1 280 -163 524 -420 627 -68 27 -161 47 -217 47 l-33 0 0 55 c0 53 1
55 26 55 14 0 70 -9 123 -20 315 -64 547 -296 611 -611 25 -122 25 -176 0
-298 -64 -315 -296 -547 -611 -611 -122 -25 -176 -25 -298 0 -251 51 -455 213
-560 444 -35 78 -71 237 -71 316 0 129 59 322 131 426 29 43 31 49 20 84 -32
107 21 216 124 254 57 21 93 19 150 -8z m485 -484 c60 -31 112 -83 141 -140
35 -68 35 -196 0 -264 -29 -57 -81 -109 -141 -140 -65 -33 -195 -33 -260 0
-60 31 -112 83 -141 140 -34 67 -35 197 -1 262 60 115 154 171 282 167 56 -2
87 -8 120 -25z"/>
<path d="M765 1908 c-47 -27 -62 -75 -40 -122 28 -59 103 -74 152 -32 23 20
28 32 28 71 0 39 -5 51 -28 71 -31 26 -78 31 -112 12z"/>
</g>
</svg>
