<svg xmlns="http://www.w3.org/2000/svg" width="32" height="32" xmlns:xlink="http://www.w3.org/1999/xlink"><defs><linearGradient id="c" x1="50%" x2="50%" y1="0%" y2="100%"><stop offset="0%" stop-color="#FFF" stop-opacity=".5"/><stop offset="100%" stop-opacity=".5"/></linearGradient><circle id="b" cx="16" cy="15" r="15"/><filter id="a" width="111.7%" height="111.7%" x="-5.8%" y="-4.2%" filterUnits="objectBoundingBox"><feOffset dy=".5" in="SourceAlpha" result="shadowOffsetOuter1"/><feGaussianBlur in="shadowOffsetOuter1" result="shadowBlurOuter1" stdDeviation=".5"/><feComposite in="shadowBlurOuter1" in2="SourceAlpha" operator="out" result="shadowBlurOuter1"/><feColorMatrix in="shadowBlurOuter1" values="0 0 0 0 0 0 0 0 0 0 0 0 0 0 0 0 0 0 0.199473505 0"/></filter><path id="e" d="M9.5 26l3.62-16.8 2.03 12.6L9.5 26zm3.7-16.9l5.5 12.72-3.46-.06L13.2 9.1zm.07-.08l7.2 1.02-1.67 11.78-5.53-12.8zm5.66 12.62l1.62-11.5 1.06 1.36-2.66 10.14zm1.52-11.7l-7.03-1 6.33-2.1.7 3.1zm-7.06-1.1l4.3-3 2.04.9-6.36 2.1zm-.13-.05l.83-1.6 3.52-1.4-4.34 3zm.83-1.68l.4-1.24 2.9-.1-3.3 1.33zm.38-1.34l.94-1 2 .9-2.94.1zm1-1.07l1.4-.67 1.8 2.12-3.2-1.44zm1.6-.6l2.08.93-.37 1.13-1.74-2.05zm1.78 2.1l.4-1.15.45 1.6-.83-.45zM16.92 4h1.53l.76.84c.03.02.03.04.03.05 0 0-.04.02-.07 0L16.92 4zm2.42.96l3.1.87c.03 0 .05.03.06.05 0 .04 0 .08-.05.1l-2.64.72-.45-1.74z"/><filter id="d" width="126.9%" height="115.9%" x="-13.5%" y="-5.7%" filterUnits="objectBoundingBox"><feOffset dy=".5" in="SourceAlpha" result="shadowOffsetOuter1"/><feGaussianBlur in="shadowOffsetOuter1" result="shadowBlurOuter1" stdDeviation=".5"/><feColorMatrix in="shadowBlurOuter1" values="0 0 0 0 0 0 0 0 0 0 0 0 0 0 0 0 0 0 0.204257246 0"/></filter></defs><g fill="none"><use fill="#000" filter="url(#a)" xlink:href="#b"/><use fill="#384182" xlink:href="#b"/><use fill="url(#c)" style="mix-blend-mode:soft-light" xlink:href="#b"/><circle cx="16" cy="15" r="14.5" stroke="#000" stroke-opacity=".097"/><use fill="#000" filter="url(#d)" xlink:href="#e"/><use fill="#FFF" xlink:href="#e"/></g></svg>