<svg xmlns="http://www.w3.org/2000/svg" width="32" height="32" xmlns:xlink="http://www.w3.org/1999/xlink"><defs><linearGradient id="c" x1="50%" x2="50%" y1="0%" y2="100%"><stop offset="0%" stop-color="#FFF" stop-opacity=".5"/><stop offset="100%" stop-opacity=".5"/></linearGradient><circle id="b" cx="16" cy="15" r="15"/><filter id="a" width="111.7%" height="111.7%" x="-5.8%" y="-4.2%" filterUnits="objectBoundingBox"><feOffset dy=".5" in="SourceAlpha" result="shadowOffsetOuter1"/><feGaussianBlur in="shadowOffsetOuter1" result="shadowBlurOuter1" stdDeviation=".5"/><feComposite in="shadowBlurOuter1" in2="SourceAlpha" operator="out" result="shadowBlurOuter1"/><feColorMatrix in="shadowBlurOuter1" values="0 0 0 0 0 0 0 0 0 0 0 0 0 0 0 0 0 0 0.199473505 0"/></filter><path id="e" d="M7.62 19.7c-.23-.48-.4-1-.5-1.54-.08-.35-.12-.7-.12-.85h.9c0 .04 0 .1 0 .2.03.17.06.33.1.5.1.48.24.94.44 1.37.53 1.13 1.35 1.78 2.53 1.78.92 0 1.64-.37 2.14-1.02.45-.55.7-1.28.7-1.9 0-.78-.3-1.36-.9-1.86-.48-.4-1.04-.68-2.2-1.15-.04 0-.2-.08-.2-.08-1.2-.5-1.74-.76-2.3-1.2-.72-.57-1.12-1.3-1.12-2.23 0-1.12.4-2.06 1.12-2.73.66-.62 1.56-.96 2.5-.96 1.27 0 2.25.54 2.9 1.48V8.2h2.88v12.74h.86v-3.57c0-.04 0-.07 0-.1l.9.04v.06c0 .06 0 .1 0 .17.03.14.05.3.1.48.08.47.22.94.42 1.37.54 1.13 1.35 1.78 2.53 1.78.9 0 1.62-.37 2.13-1.02.42-.55.67-1.28.67-1.9 0-.78-.3-1.36-.9-1.86-.47-.4-1.03-.68-2.18-1.15-.04 0-.2-.08-.2-.08-1.2-.5-1.75-.76-2.3-1.2-.73-.57-1.12-1.3-1.12-2.23 0-1.12.4-2.06 1.12-2.73.66-.62 1.56-.96 2.5-.96 1.27 0 2.25.54 2.9 1.48V8.25h.9v4.42h-.9c0-.92-.2-1.86-.63-2.55-.5-.82-1.25-1.26-2.3-1.26-.7 0-1.37.25-1.87.72-.54.5-.85 1.22-.85 2.1 0 .67.26 1.16.8 1.6.45.34.96.6 2.07 1.05 0 0 .16.07.2.1 1.24.5 1.85.8 2.43 1.28.78.67 1.2 1.5 1.2 2.53 0 .8-.3 1.7-.85 2.4C23.5 21.5 22.5 22 21.3 22c-.85 0-1.57-.26-2.17-.73-.35-.28-.65-.62-.9-1.03v1.56H15.6V9.06h-1.1v3.6h-.9c0-.9-.22-1.85-.63-2.54-.5-.82-1.23-1.26-2.28-1.26-.7 0-1.4.25-1.9.72-.53.5-.84 1.22-.84 2.1 0 .67.26 1.16.8 1.6.46.34.96.6 2.08 1.05 0 0 .16.07.2.1 1.24.5 1.85.8 2.42 1.28.8.67 1.2 1.5 1.2 2.53 0 .8-.3 1.7-.84 2.4-.67.88-1.65 1.38-2.86 1.38-.84 0-1.57-.25-2.16-.72-.35-.28-.65-.64-.9-1.05v1.53H7V17.3h.9v2.92c-.1-.16-.2-.33-.28-.5z"/><filter id="d" width="119.4%" height="125%" x="-9.7%" y="-8.9%" filterUnits="objectBoundingBox"><feOffset dy=".5" in="SourceAlpha" result="shadowOffsetOuter1"/><feGaussianBlur in="shadowOffsetOuter1" result="shadowBlurOuter1" stdDeviation=".5"/><feColorMatrix in="shadowBlurOuter1" values="0 0 0 0 0 0 0 0 0 0 0 0 0 0 0 0 0 0 0.204257246 0"/></filter></defs><g fill="none"><use fill="#000" filter="url(#a)" xlink:href="#b"/><use fill="#8E9495" xlink:href="#b"/><use fill="url(#c)" style="mix-blend-mode:soft-light" xlink:href="#b"/><circle cx="16" cy="15" r="14.5" stroke="#000" stroke-opacity=".097"/><use fill="#000" filter="url(#d)" xlink:href="#e"/><use fill="#FFF" fill-rule="evenodd" xlink:href="#e"/></g></svg>