<svg xmlns="http://www.w3.org/2000/svg" width="32" height="32" xmlns:xlink="http://www.w3.org/1999/xlink"><defs><linearGradient id="c" x1="50%" x2="50%" y1="0%" y2="100%"><stop offset="0%" stop-color="#FFF" stop-opacity=".5"/><stop offset="100%" stop-opacity=".5"/></linearGradient><circle id="b" cx="16" cy="15" r="15"/><filter id="a" width="111.7%" height="111.7%" x="-5.8%" y="-4.2%" filterUnits="objectBoundingBox"><feOffset dy=".5" in="SourceAlpha" result="shadowOffsetOuter1"/><feGaussianBlur in="shadowOffsetOuter1" result="shadowBlurOuter1" stdDeviation=".5"/><feComposite in="shadowBlurOuter1" in2="SourceAlpha" operator="out" result="shadowBlurOuter1"/><feColorMatrix in="shadowBlurOuter1" values="0 0 0 0 0 0 0 0 0 0 0 0 0 0 0 0 0 0 0.199473505 0"/></filter><path id="e" d="M11.92 21c.12.36 1.57 1.86 3.07 1.86 2.22 0 3.52-1.34 3.52-3.3 0-1.8-.9-2.83-3.2-3.84-2.75-1.1-4.45-2.75-4.45-5.47 0-3 2.18-5.25 5.47-5.25 1.73 0 3.48 1.1 4.07 1.82L19 8.27c-.54-.34-1.2-1.2-2.74-1.2-2.3 0-3.2 1.57-3.2 2.9 0 1.8 1.04 2.7 3.38 3.72 2.86 1.24 4.32 2.82 4.32 5.66 0 2.98-1.95 5.63-5.94 5.63-1.63 0-3.37-1.1-4.42-2.43L11.93 21zm1.86-10.3c-.35-.73-.1-1.46-.1-1.46 8.83-1.45 7.2 7.15 7.2 7.15-.7-1.35-1.4-1.6-1.4-1.6.12-4.96-5.7-4.1-5.7-4.1zm3.96 7.88c.35.84-.05 1.73-.05 1.73-10.1 1.3-7.37-7.9-7.38-7.9.54 1.4 1.2 1.75 1.2 1.75-.2 5.77 6.2 4.44 6.2 4.44z"/><filter id="d" width="131.8%" height="117.5%" x="-15.9%" y="-6.2%" filterUnits="objectBoundingBox"><feOffset dy=".5" in="SourceAlpha" result="shadowOffsetOuter1"/><feGaussianBlur in="shadowOffsetOuter1" result="shadowBlurOuter1" stdDeviation=".5"/><feColorMatrix in="shadowBlurOuter1" values="0 0 0 0 0 0 0 0 0 0 0 0 0 0 0 0 0 0 0.204257246 0"/></filter></defs><g fill="none"><use fill="#000" filter="url(#a)" xlink:href="#b"/><use fill="#FDA616" xlink:href="#b"/><use fill="url(#c)" style="mix-blend-mode:soft-light" xlink:href="#b"/><circle cx="16" cy="15" r="14.5" stroke="#000" stroke-opacity=".097"/><use fill="#000" filter="url(#d)" xlink:href="#e"/><use fill="#FFF" fill-rule="evenodd" xlink:href="#e"/></g></svg>