<svg xmlns="http://www.w3.org/2000/svg" width="32" height="32" xmlns:xlink="http://www.w3.org/1999/xlink"><defs><linearGradient id="c" x1="50%" x2="50%" y1="0%" y2="100%"><stop offset="0%" stop-color="#FFF" stop-opacity=".5"/><stop offset="100%" stop-opacity=".5"/></linearGradient><circle id="b" cx="16" cy="15" r="15"/><filter id="a" width="111.7%" height="111.7%" x="-5.8%" y="-4.2%" filterUnits="objectBoundingBox"><feOffset dy=".5" in="SourceAlpha" result="shadowOffsetOuter1"/><feGaussianBlur in="shadowOffsetOuter1" result="shadowBlurOuter1" stdDeviation=".5"/><feComposite in="shadowBlurOuter1" in2="SourceAlpha" operator="out" result="shadowBlurOuter1"/><feColorMatrix in="shadowBlurOuter1" values="0 0 0 0 0 0 0 0 0 0 0 0 0 0 0 0 0 0 0.199473505 0"/></filter><path id="e" d="M16 26c-6.07-.02-11-4.94-11-11S9.93 4.02 16 4c6.07.02 11 4.94 11 11s-4.93 11-11 11zm9.75-9.25c-.17.4-.56.67-1.02.67-.14 0-.3-.03-.42-.08.4.4.65.95.65 1.55 0 .15-.02.32-.06.5.4-.85.7-1.74.86-2.66zm-1.02.1c.3 0 .56-.24.56-.54 0-.3-.27-.53-.58-.53-.3 0-.55.24-.55.55 0 .3.25.56.55.56zm.25-6.02c.18.5.27 1.03.27 1.55 0 1.1-.4 2.15-1.1 3 .17-.1.37-.17.58-.17.58 0 1.05.46 1.1 1.03.05-.4.08-.8.08-1.2 0-1.46-.3-2.88-.9-4.2zm-.56 1.55c0-2.1-1.7-3.82-3.83-3.82s-3.84 1.7-3.84 3.82c0 2.1 1.7 3.8 3.82 3.8 2.1 0 3.82-1.7 3.82-3.8zm-3.98 6.5c0-.82.46-1.58 1.2-1.97-.94.24-1.92.16-2.8-.2.75.58 1.3 1.38 1.6 2.28 0-.03 0-.06 0-.08zm.22 1.5c0 .35-.05.72-.13 1.08.18-.37.55-.6.95-.6.06 0 .12 0 .17.02-.46-.24-.83-.64-1.04-1.12.05.2.07.4.07.6zm2.03-.08c.76 0 1.4-.64 1.4-1.4 0-.8-.64-1.42-1.4-1.42-.8 0-1.44.63-1.44 1.4 0 .8.64 1.42 1.42 1.42zm.9-4c0-.17.06-.36.15-.52-.4.37-.87.68-1.37.9.1-.02.18-.03.3-.03.4 0 .8.1 1.14.3-.14-.18-.22-.4-.22-.64zm-7.6-.6c.6 0 1.2.13 1.75.35-.94-.7-1.56-1.76-1.75-2.92-.2 1.2-.84 2.22-1.75 2.92.54-.2 1.13-.34 1.75-.34zm0-6.16c-.42 0-.84-.12-1.2-.34.63.66 1.05 1.5 1.2 2.4.15-.9.57-1.73 1.2-2.4-.36.22-.78.34-1.2.34zm2.27-2.26c0 .5-.17 1-.48 1.4.45-.36 1-.62 1.55-.78-.02 0-.04 0-.06 0-.47 0-.88-.28-1.04-.7 0 .03 0 .05 0 .08zM20 5.94c.25.2.4.5.4.85 0 .42-.25.82-.65 1 .28-.06.56-.08.84-.08 1.4 0 2.7.64 3.53 1.64-1.04-1.5-2.47-2.7-4.14-3.43zm-.7.3c-.3 0-.56.25-.56.56 0 .3.25.55.56.55.3 0 .55-.25.55-.55 0-.3-.25-.55-.55-.55zM16.7 5.1c.73.26 1.3.86 1.5 1.6.04-.55.5-1 1.1-1 .03 0 .07 0 .1 0-.85-.3-1.77-.5-2.7-.6zm-2.14 2.2c0 .78.64 1.43 1.43 1.43.8 0 1.42-.64 1.42-1.42 0-.8-.64-1.42-1.43-1.42-.8 0-1.44.64-1.44 1.43zM12.6 5.7c.03 0 .07-.02.1-.02.58 0 1.06.45 1.1 1.03.2-.74.76-1.34 1.5-1.6-.94.1-1.85.3-2.7.6zm1.13 1.58c0-.03 0-.05 0-.08-.16.42-.56.7-1.03.7-.02 0-.04 0-.06 0 .57.16 1.1.42 1.58.78-.32-.4-.5-.9-.5-1.4zm-1.58-.48c0 .3.25.55.55.55.3 0 .55-.25.55-.55 0-.3-.24-.55-.55-.55-.3 0-.55.24-.55.55zm-4.3 2.57c.86-1 2.13-1.64 3.56-1.64.3 0 .58.03.86.08-.35-.13-.6-.46-.65-.84-.04-.38.1-.76.4-1-1.66.73-3.1 1.93-4.14 3.42zm-.27 3c0 2.1 1.7 3.82 3.83 3.82s3.84-1.7 3.84-3.83c0-2.1-1.7-3.82-3.82-3.82-2.1 0-3.82 1.72-3.82 3.82zm3.98 6.52s0 .03 0 .06c.28-.9.84-1.7 1.6-2.3-.9.37-1.87.45-2.8.23.7.37 1.2 1.12 1.2 2zm-3.18-2.6c0 .24-.08.47-.22.65.35-.2.74-.3 1.15-.3.1 0 .2 0 .3 0-.5-.2-.96-.5-1.36-.88.1.16.15.35.15.53zm-.5 2.6c0 .76.65 1.4 1.43 1.4.8 0 1.43-.65 1.43-1.4 0-.8-.64-1.43-1.4-1.43-.8 0-1.43.63-1.43 1.4zm2.46 1.97c.05 0 .1-.02.17-.02.43 0 .8.23.98.6-.1-.36-.13-.73-.13-1.1 0-.2 0-.4.04-.6-.2.48-.58.88-1.05 1.12zM6.17 16.2c.04-.55.52-1 1.1-1 .2 0 .4.06.57.16-.7-.83-1.1-1.9-1.1-2.98 0-.55.1-1.06.27-1.55-.57 1.26-.9 2.68-.9 4.17 0 .4 0 .8.08 1.2zm1.1-.44c-.3 0-.56.25-.56.55 0 .33.27.58.58.58.3 0 .55-.25.55-.56 0-.3-.25-.54-.55-.54zm-.2 3.13c0-.6.22-1.16.62-1.57-.15.05-.3.08-.44.08-.46 0-.85-.27-1.02-.66.17.93.46 1.82.87 2.64-.03-.17-.05-.34-.05-.5zm2.83 2.14c-.2.06-.4.08-.6.08-.58 0-1.12-.23-1.52-.6.53.78 1.17 1.5 1.9 2.1-.15-.2-.25-.43-.25-.7 0-.34.18-.68.47-.88zm.1.9c0 .28.22.5.5.5.3 0 .53-.22.53-.5 0-.3-.23-.53-.52-.53-.27 0-.5.24-.5.53zm4.66 2.87c-1.45-.43-2.6-1.54-3.08-2.97 0 .04.02.07.02.1 0 .37-.2.72-.5.92-.32.2-.72.2-1.05.05 1.32 1 2.9 1.68 4.6 1.92zm5.16-4.44c0-2.1-1.7-3.8-3.82-3.82-2.1 0-3.82 1.7-3.82 3.82 0 2.1 1.7 3.8 3.82 3.8 2.1 0 3.82-1.7 3.82-3.8zm2.14 2.54c-.34.17-.73.15-1.05-.04-.3-.2-.5-.55-.5-.92 0-.03 0-.06.03-.1-.48 1.43-1.63 2.54-3.07 2.98 1.7-.24 3.28-.92 4.6-1.9zm.05-.96c0-.3-.2-.52-.5-.52s-.52.23-.52.52c0 .3.23.52.52.52.28 0 .5-.23.5-.52zm2.23-1.4c-.4.36-.94.6-1.53.6-.2 0-.4-.04-.6-.1.3.2.47.54.47.9 0 .26-.1.5-.25.68.73-.6 1.37-1.3 1.9-2.1z"/><filter id="d" width="115.9%" height="115.9%" x="-8%" y="-5.7%" filterUnits="objectBoundingBox"><feOffset dy=".5" in="SourceAlpha" result="shadowOffsetOuter1"/><feGaussianBlur in="shadowOffsetOuter1" result="shadowBlurOuter1" stdDeviation=".5"/><feColorMatrix in="shadowBlurOuter1" values="0 0 0 0 0 0 0 0 0 0 0 0 0 0 0 0 0 0 0.204257246 0"/></filter></defs><g fill="none"><use fill="#000" filter="url(#a)" xlink:href="#b"/><use fill="#0B1C26" fill-rule="evenodd" xlink:href="#b"/><use fill="url(#c)" fill-rule="evenodd" style="mix-blend-mode:soft-light" xlink:href="#b"/><circle cx="16" cy="15" r="14.5" stroke="#000" stroke-opacity=".097"/><use fill="#000" filter="url(#d)" xlink:href="#e"/><use fill="#FFF" fill-rule="evenodd" xlink:href="#e"/></g></svg>