<svg xmlns="http://www.w3.org/2000/svg" width="32" height="32" xmlns:xlink="http://www.w3.org/1999/xlink"><defs><linearGradient id="c" x1="50%" x2="50%" y1="0%" y2="100%"><stop offset="0%" stop-color="#FFF" stop-opacity=".5"/><stop offset="100%" stop-opacity=".5"/></linearGradient><circle id="b" cx="16" cy="15" r="15"/><filter id="a" width="111.7%" height="111.7%" x="-5.8%" y="-4.2%" filterUnits="objectBoundingBox"><feOffset dy=".5" in="SourceAlpha" result="shadowOffsetOuter1"/><feGaussianBlur in="shadowOffsetOuter1" result="shadowBlurOuter1" stdDeviation=".5"/><feComposite in="shadowBlurOuter1" in2="SourceAlpha" operator="out" result="shadowBlurOuter1"/><feColorMatrix in="shadowBlurOuter1" values="0 0 0 0 0 0 0 0 0 0 0 0 0 0 0 0 0 0 0.199473505 0"/></filter><path id="e" d="M8.46 21.14v.14H6.98v-2.66l-.04.14-1.42-.42.8-2.57-.1.14L5 15.1l1.53-2.24-.15.12-.93-1.13 2.2-1.76-.28.1-.53-1.37 2.63-1-.3.03-.1-1.45 2.75-.2-.25-.04.33-1.4 2.63.58-.17-.1L15.1 4l2.3 1.3-.1-.1 1.08-.98 1.8 1.88-.05-.07 1.33-.64 1.14 2.3v-.07l1.45-.23.43 2.68.03-.2 1.48.24-.44 2.7.1-.2 1.34.63-1.23 2.48.18-.2 1.08 1-1.9 2.02.23-.13.74 1.26-2.4 1.37.24-.06.34 1.4-2.65.6.2.02-.1 1.45-2.66-.2.14.06-.53 1.36-2.54-.97.17.13-.93 1.13-2.1-1.68.1.15-1.22.8-1.5-2.18.06.14-1.42.42-.78-2.53zm0-1.73l.92-.25.72 2.3.8-.53 1.36 2 .6-.74 1.9 1.5.33-.86 2.26.86.06-.93 2.44.16-.22-.93 2.4-.54-.5-.85 2.12-1.2-.73-.68 1.7-1.8-.9-.42 1.07-2.2-.97-.14.4-2.4-.95.14-.4-2.4-.83.4-1.08-2.16-.7.63-1.65-1.75-.48.8-2.1-1.2-.22.94-2.37-.54.07.97-2.43.17.34.92-2.3.87.62.74-1.92 1.54.8.56-1.37 2.02.93.28L7.5 17h.96v2.42zm7.25-2.7c0-.37-.1-.65-.37-.85-.26-.2-.73-.4-1.4-.62-.67-.22-1.2-.44-1.6-.65-1.07-.58-1.6-1.36-1.6-2.34 0-.5.14-.97.42-1.37.3-.4.7-.7 1.24-.94.53-.22 1.13-.34 1.8-.34.7 0 1.3.12 1.8.36.53.25.94.6 1.23 1.04.3.43.44.94.44 1.5h-1.94c0-.43-.14-.76-.4-1-.28-.24-.67-.36-1.16-.36-.47 0-.84.1-1.1.3-.27.2-.4.47-.4.8 0 .3.15.56.46.77.3.2.76.4 1.36.6 1.1.33 1.9.75 2.4 1.24.5.5.77 1.1.77 1.85 0 .8-.3 1.45-.93 1.9-.62.48-1.45.7-2.5.7-.72 0-1.38-.12-1.97-.4-.6-.26-1.05-.62-1.37-1.1-.32-.45-.48-1-.48-1.6h1.95c0 1.05.62 1.57 1.87 1.57.46 0 .82-.1 1.08-.28.26-.2.4-.46.4-.8zm5.95-5.8l-1.87 6.85-1.55-.1 1.17-7.07 2.24.32zM20 18.46l-.48 2.42-2.05-.6.47-2.32 2.07.5z"/><filter id="d" width="115.9%" height="115.9%" x="-8%" y="-5.7%" filterUnits="objectBoundingBox"><feOffset dy=".5" in="SourceAlpha" result="shadowOffsetOuter1"/><feGaussianBlur in="shadowOffsetOuter1" result="shadowBlurOuter1" stdDeviation=".5"/><feColorMatrix in="shadowBlurOuter1" values="0 0 0 0 0 0 0 0 0 0 0 0 0 0 0 0 0 0 0.204257246 0"/></filter></defs><g fill="none"><use fill="#000" filter="url(#a)" xlink:href="#b"/><use fill="#FF3B81" xlink:href="#b"/><use fill="url(#c)" style="mix-blend-mode:soft-light" xlink:href="#b"/><circle cx="16" cy="15" r="14.5" stroke="#000" stroke-opacity=".097"/><use fill="#000" filter="url(#d)" xlink:href="#e"/><use fill="#FFF" fill-rule="evenodd" xlink:href="#e"/></g></svg>