<?xml version="1.0" standalone="no"?>
<!DOCTYPE svg PUBLIC "-//W3C//DTD SVG 20010904//EN"
 "http://www.w3.org/TR/2001/REC-SVG-20010904/DTD/svg10.dtd">
<svg version="1.0" xmlns="http://www.w3.org/2000/svg"
 width="250.000000pt" height="250.000000pt" viewBox="0 0 250.000000 250.000000"
 preserveAspectRatio="xMidYMid meet">
<metadata>
Created by potrace 1.16, written by Peter Selinger 2001-2019
</metadata>
<g transform="translate(0.000000,250.000000) scale(0.100000,-0.100000)"
fill="#000000" stroke="none">
<path d="M0 1250 l0 -1250 1250 0 1250 0 0 1250 0 1250 -1250 0 -1250 0 0
-1250z m1285 1026 c98 -41 70 -181 -37 -181 -33 0 -45 6 -69 33 -44 49 -35
107 23 142 39 24 40 24 83 6z m-323 -161 l97 -85 189 0 190 0 97 85 c100 87
129 100 159 69 9 -8 16 -28 16 -43 0 -23 -18 -44 -89 -110 -70 -64 -88 -85
-84 -101 7 -26 -26 -54 -44 -38 -10 8 -25 1 -57 -26 -36 -29 -45 -43 -48 -74
-3 -36 -4 -37 -38 -32 -51 7 -159 6 -202 -2 l-38 -7 0 37 c0 35 -8 44 -156
175 -85 76 -160 149 -166 162 -9 19 -7 30 6 50 30 46 61 34 168 -60z m-250
-24 c18 -15 27 -36 37 -88 27 -148 32 -163 51 -163 26 0 37 -40 16 -56 -14
-10 -16 -22 -10 -62 7 -57 10 -61 47 -85 l28 -18 -31 -37 -31 -37 24 -21 c19
-16 22 -24 13 -43 -7 -17 -15 -21 -30 -16 -41 13 -48 9 -63 -30 -9 -22 -17
-42 -19 -43 -1 -2 -18 2 -36 8 -31 12 -50 7 -238 -54 -192 -63 -204 -65 -227
-51 -33 22 -39 43 -22 73 11 20 39 34 137 67 l124 41 93 160 92 161 -23 119
c-28 147 -29 149 -4 174 25 25 41 25 72 1z m1155 -10 c16 -20 17 -7 -12 -156
l-24 -128 92 -160 92 -160 111 -37 c133 -45 151 -54 159 -80 8 -26 -16 -65
-44 -73 -11 -2 -65 11 -122 29 -111 37 -125 40 -131 22 -7 -19 -58 0 -58 21 0
30 -92 58 -137 41 -19 -6 -36 -10 -37 -8 -2 1 -17 34 -34 71 -17 37 -47 87
-67 111 l-35 43 30 24 c28 23 32 36 70 219 22 107 43 203 46 213 12 37 75 42
101 8z m251 -272 c26 -7 51 -15 55 -19 9 -8 -9 -108 -23 -130 -5 -9 -23 -7
-69 5 -34 10 -64 21 -66 26 -10 15 28 129 42 129 8 0 35 -5 61 -11z m-803
-314 l50 -84 98 -22 c73 -17 97 -26 97 -38 0 -9 -27 -47 -60 -84 l-61 -69 7
-104 c8 -124 12 -121 -110 -68 l-84 36 -86 -37 c-99 -42 -121 -41 -113 8 3 17
9 61 12 97 l7 65 -66 74 c-37 41 -65 79 -63 85 2 6 46 21 98 33 102 25 100 23
160 126 22 37 45 67 52 67 7 0 35 -38 62 -85z m-917 -319 c87 -30 103 -32 110
-20 12 22 60 8 64 -19 2 -15 18 -25 57 -39 49 -16 57 -16 77 -3 34 22 40 19
52 -23 13 -43 79 -149 106 -171 17 -14 16 -17 -14 -41 -30 -24 -33 -35 -75
-235 -44 -214 -53 -235 -97 -235 -21 0 -58 34 -58 53 0 6 11 67 24 134 l23
123 -91 160 -91 160 -121 40 c-151 51 -176 74 -138 128 21 30 52 28 172 -12z
m1879 8 c15 -23 15 -29 2 -52 -11 -20 -40 -34 -138 -68 -69 -24 -128 -49 -133
-56 -5 -7 -46 -79 -93 -160 l-84 -147 25 -131 c27 -142 24 -165 -21 -176 -46
-11 -72 17 -85 94 -15 91 -34 164 -41 160 -11 -6 -39 25 -39 43 0 10 7 22 16
27 14 8 15 16 4 66 -6 32 -19 60 -28 66 -47 26 -47 26 -13 67 l32 38 -25 20
c-20 17 -22 24 -13 43 7 15 16 21 26 16 44 -18 49 -16 66 30 10 25 20 46 22
46 2 0 17 -7 32 -15 27 -13 39 -11 217 50 216 73 246 77 271 39z m-1791 -377
c4 -4 -27 -120 -35 -129 -5 -6 -61 6 -128 27 -9 3 -10 12 -3 32 5 15 14 47 20
70 l10 41 67 -18 c36 -11 67 -21 69 -23z m904 -104 c0 -29 16 -46 160 -174
142 -127 160 -146 160 -174 0 -39 -16 -55 -53 -55 -22 0 -52 20 -125 85 l-96
85 -187 0 -187 0 -97 -85 c-74 -65 -104 -85 -126 -85 -33 0 -64 38 -55 68 4
11 45 54 92 97 61 56 84 83 81 96 -7 24 26 53 52 44 31 -10 101 58 101 99 l0
31 140 0 140 0 0 -32z m-80 -318 c5 -3 17 -20 26 -36 30 -58 -9 -124 -79 -136
-32 -5 -41 -1 -73 31 -32 32 -36 41 -31 73 7 41 39 80 71 85 21 4 67 -5 86
-17z"/>
<path d="M1212 1445 c-38 -63 -60 -80 -117 -89 -58 -10 -75 -16 -75 -28 0 -5
21 -33 46 -61 l46 -52 -5 -77 c-3 -43 -2 -80 3 -83 4 -3 33 6 64 20 68 30 95
31 144 6 20 -10 47 -22 60 -26 23 -7 23 -6 21 72 -3 86 3 102 55 152 42 40 45
59 14 66 -138 30 -130 25 -168 92 -19 35 -40 63 -45 63 -6 0 -25 -25 -43 -55z
m79 -70 c16 -27 31 -38 64 -46 24 -6 46 -17 49 -25 3 -8 -9 -30 -26 -49 -26
-30 -30 -41 -25 -71 11 -65 -6 -77 -67 -47 -33 15 -38 15 -75 -1 -21 -10 -44
-15 -51 -11 -6 4 -10 28 -9 56 2 42 -2 53 -26 78 -35 37 -28 55 27 69 32 9 49
20 66 47 28 44 47 44 73 0z"/>
</g>
</svg>
