<?xml version="1.0" standalone="no"?>
<!DOCTYPE svg PUBLIC "-//W3C//DTD SVG 20010904//EN"
 "http://www.w3.org/TR/2001/REC-SVG-20010904/DTD/svg10.dtd">
<svg version="1.0" xmlns="http://www.w3.org/2000/svg"
 width="250.000000pt" height="250.000000pt" viewBox="0 0 250.000000 250.000000"
 preserveAspectRatio="xMidYMid meet">
<metadata>
Created by potrace 1.16, written by Peter Selinger 2001-2019
</metadata>
<g transform="translate(0.000000,250.000000) scale(0.100000,-0.100000)"
fill="#000000" stroke="none">
<path d="M1 1988 c1 -308 5 -493 10 -464 4 28 5 54 2 59 -3 6 -1 7 5 3 7 -4
14 4 17 21 3 15 15 46 26 68 10 22 21 51 23 65 7 41 17 60 29 53 6 -4 8 0 4
10 -3 9 1 23 9 32 9 8 12 15 8 15 -3 0 -2 6 4 13 5 6 13 28 17 47 5 25 28 56
78 108 71 71 92 86 81 57 -7 -16 7 -13 54 11 18 9 20 13 8 23 -7 6 -22 8 -31
4 -13 -4 -16 -3 -11 5 4 7 14 12 23 12 9 0 13 3 9 7 -7 8 73 93 88 93 5 0 -1
-11 -14 -25 -23 -25 -23 -25 -2 -25 15 0 20 -5 16 -15 -4 -10 0 -15 14 -15 11
0 22 -6 25 -12 2 -7 7 -10 11 -7 10 10 -5 39 -20 39 -26 0 -16 39 12 46 22 6
24 8 10 16 -19 10 -22 38 -4 38 6 0 23 10 36 23 20 17 24 18 19 5 -10 -29 11
-21 25 9 13 27 131 97 143 85 3 -3 5 0 5 6 0 6 14 14 32 17 18 4 48 16 68 26
19 10 64 23 100 30 36 7 69 16 75 21 5 4 -219 8 -498 8 l-507 0 1 -512z"/>
<path d="M620 2330 c0 -5 7 -10 15 -10 8 0 15 5 15 10 0 6 -7 10 -15 10 -8 0
-15 -4 -15 -10z"/>
<path d="M660 2310 c0 -5 5 -10 10 -10 6 0 10 5 10 10 0 6 -4 10 -10 10 -5 0
-10 -4 -10 -10z"/>
<path d="M760 2305 c-7 -9 -8 -15 -2 -15 5 0 12 7 16 15 3 8 4 15 2 15 -2 0
-9 -7 -16 -15z"/>
<path d="M1165 2314 c-177 -21 -282 -51 -415 -121 -191 -99 -356 -270 -460
-475 -27 -53 -40 -68 -62 -72 -15 -3 -28 -10 -28 -16 0 -7 7 -7 21 0 11 7 23
10 25 7 9 -9 -9 -37 -25 -37 -11 0 -13 -2 -4 -8 10 -6 10 -19 -1 -63 -63 -245
-40 -498 67 -729 138 -300 439 -536 767 -601 86 -17 256 -19 355 -4 485 72
858 466 906 957 26 255 -53 533 -210 740 -58 76 -180 192 -255 242 -199 132
-471 204 -681 180z m345 -147 c193 -56 356 -162 475 -307 381 -466 252 -1154
-272 -1446 -310 -174 -703 -154 -1003 49 -125 85 -259 246 -325 391 -63 140
-80 223 -79 396 0 139 3 165 28 250 15 52 32 100 37 106 5 6 15 29 23 50 18
51 72 137 137 214 48 58 185 176 219 188 8 3 31 15 50 27 55 34 163 74 258 95
124 28 332 22 452 -13z"/>
<path d="M765 2050 c-3 -5 1 -10 9 -10 9 0 16 5 16 10 0 6 -4 10 -9 10 -6 0
-13 -4 -16 -10z"/>
<path d="M1062 1974 c-21 -14 -22 -22 -22 -160 l0 -146 -160 3 c-139 3 -162 1
-177 -14 -15 -15 -17 -53 -15 -408 1 -343 3 -394 17 -408 12 -13 42 -16 143
-18 70 0 142 -2 160 -2 l32 -1 0 -139 c0 -133 1 -141 22 -155 29 -21 51 -20
71 2 13 14 17 45 19 157 l3 140 98 2 97 1 0 -139 c0 -126 2 -141 20 -159 25
-25 52 -26 73 -2 13 14 17 45 19 157 l3 140 162 5 c102 3 166 9 173 16 18 18
15 433 -3 451 -10 10 -89 14 -371 16 -344 2 -358 1 -372 -17 -21 -29 -17 -63
8 -80 19 -14 68 -16 330 -16 l308 0 0 -130 0 -130 -450 0 -450 0 0 310 0 310
489 0 c530 0 521 -1 521 53 0 49 -9 52 -182 57 l-163 5 -3 140 c-2 128 -4 141
-23 158 -27 22 -44 22 -69 -3 -18 -18 -20 -33 -20 -160 l0 -140 -100 0 -100 0
0 144 c0 138 -1 146 -22 160 -12 9 -27 16 -33 16 -6 0 -21 -7 -33 -16z"/>
<path d="M770 1929 c0 -5 5 -7 10 -4 6 3 10 8 10 11 0 2 -4 4 -10 4 -5 0 -10
-5 -10 -11z"/>
<path d="M559 1883 c-13 -15 -12 -15 9 -4 23 12 28 21 13 21 -5 0 -15 -7 -22
-17z"/>
<path d="M627 1824 c-4 -4 -7 -14 -7 -23 0 -11 3 -12 11 -4 6 6 10 16 7 23 -2
6 -7 8 -11 4z"/>
<path d="M385 1590 c3 -5 8 -10 11 -10 2 0 4 5 4 10 0 6 -5 10 -11 10 -5 0 -7
-4 -4 -10z"/>
<path d="M350 1510 c0 -5 5 -10 10 -10 6 0 10 5 10 10 0 6 -4 10 -10 10 -5 0
-10 -4 -10 -10z"/>
<path d="M485 1490 c3 -5 8 -10 11 -10 2 0 4 5 4 10 0 6 -5 10 -11 10 -5 0 -7
-4 -4 -10z"/>
<path d="M346 1473 c-3 -3 -3 -10 0 -14 7 -12 34 -11 34 0 0 11 -26 22 -34 14z"/>
<path d="M695 2260 c-3 -5 -1 -10 4 -10 6 0 11 5 11 10 0 6 -2 10 -4 10 -3 0
-8 -4 -11 -10z"/>
<path d="M690 2190 c-9 -6 -10 -10 -3 -10 6 0 15 5 18 10 8 12 4 12 -15 0z"/>
<path d="M600 2150 c0 -5 5 -10 11 -10 5 0 7 5 4 10 -3 6 -8 10 -11 10 -2 0
-4 -4 -4 -10z"/>
<path d="M550 2140 c-8 -5 -12 -12 -9 -15 4 -3 12 1 19 10 14 17 11 19 -10 5z"/>
<path d="M395 2131 l-30 -6 25 -18 c29 -20 50 -22 75 -4 13 11 15 16 6 22 -7
4 -18 2 -24 -4 -17 -17 -31 -13 -17 4 13 16 12 16 -35 6z"/>
<path d="M564 2115 c-12 -9 -14 -14 -6 -15 7 0 20 7 28 15 20 19 4 20 -22 0z"/>
<path d="M500 2097 c-12 -21 -12 -21 6 -7 10 8 20 15 22 16 2 1 -1 4 -5 7 -5
3 -15 -4 -23 -16z"/>
<path d="M376 2076 c-32 -18 -86 -68 -86 -79 0 -6 10 -1 23 11 24 23 47 29 47
13 0 -5 -7 -11 -15 -15 -8 -3 -15 -11 -15 -17 0 -8 4 -8 15 1 8 7 23 10 33 8
24 -7 47 19 33 36 -6 7 -8 15 -5 19 3 3 2 12 -3 20 -6 11 -12 12 -27 3z m24
-16 c0 -5 -5 -10 -11 -10 -8 0 -7 -5 1 -15 7 -9 10 -18 7 -21 -8 -9 -29 35
-22 46 8 13 25 13 25 0z"/>
<path d="M441 2077 c-17 -17 -13 -31 4 -17 9 8 15 9 15 2 0 -6 -4 -14 -10 -17
-15 -9 -12 -38 3 -32 6 2 11 10 9 17 -2 7 2 17 9 21 9 5 9 11 -3 22 -11 12
-18 13 -27 4z"/>
<path d="M275 2040 c-3 -6 1 -7 9 -4 18 7 21 14 7 14 -6 0 -13 -4 -16 -10z"/>
<path d="M256 2005 c-3 -8 -1 -15 4 -15 6 0 10 7 10 15 0 8 -2 15 -4 15 -2 0
-6 -7 -10 -15z"/>
<path d="M216 1955 c-3 -8 4 -21 17 -30 28 -20 41 -19 33 2 -4 9 -1 20 6 24 7
4 9 11 5 15 -4 4 -14 -1 -22 -12 -13 -17 -14 -17 -15 -1 0 21 -16 23 -24 2z"/>
<path d="M355 1959 c-11 -17 1 -21 15 -4 8 9 8 15 2 15 -6 0 -14 -5 -17 -11z"/>
<path d="M310 1950 c0 -5 7 -7 15 -4 8 4 15 8 15 10 0 2 -7 4 -15 4 -8 0 -15
-4 -15 -10z"/>
<path d="M382 1945 c-17 -19 -1 -19 24 0 14 11 15 14 4 14 -8 0 -21 -6 -28
-14z"/>
<path d="M203 1906 c4 -10 7 -19 7 -21 0 -2 9 -1 20 2 20 5 28 23 11 23 -5 0
-17 3 -27 7 -14 5 -16 3 -11 -11z"/>
<path d="M298 1913 c7 -3 16 -2 19 1 4 3 -2 6 -13 5 -11 0 -14 -3 -6 -6z"/>
<path d="M270 1890 c-8 -5 -12 -12 -9 -15 4 -3 12 1 19 10 14 17 11 19 -10 5z"/>
<path d="M167 1860 c-6 -16 -17 -30 -24 -30 -18 0 -16 -17 2 -24 10 -3 15 1
15 12 1 14 4 13 21 -7 18 -22 22 -23 47 -11 15 7 35 12 45 11 25 -3 21 16 -5
22 -13 3 -33 9 -45 12 -17 6 -23 3 -23 -9 0 -9 -6 -13 -15 -10 -13 5 -13 8 0
27 18 25 19 37 4 37 -6 0 -16 -13 -22 -30z m63 -40 c0 -5 -4 -10 -10 -10 -5 0
-10 5 -10 10 0 6 5 10 10 10 6 0 10 -4 10 -10z"/>
<path d="M320 1850 c0 -5 5 -10 10 -10 6 0 10 5 10 10 0 6 -4 10 -10 10 -5 0
-10 -4 -10 -10z"/>
<path d="M300 1820 c0 -5 5 -10 10 -10 6 0 10 5 10 10 0 6 -4 10 -10 10 -5 0
-10 -4 -10 -10z"/>
<path d="M165 1780 c3 -5 8 -10 11 -10 2 0 4 5 4 10 0 6 -5 10 -11 10 -5 0 -7
-4 -4 -10z"/>
<path d="M260 1769 c0 -5 5 -7 10 -4 6 3 10 8 10 11 0 2 -4 4 -10 4 -5 0 -10
-5 -10 -11z"/>
<path d="M230 1760 c0 -5 5 -10 11 -10 5 0 7 5 4 10 -3 6 -8 10 -11 10 -2 0
-4 -4 -4 -10z"/>
<path d="M115 1720 c3 -5 14 -10 23 -10 15 0 15 2 2 10 -20 13 -33 13 -25 0z"/>
<path d="M210 1721 c0 -5 9 -11 21 -14 16 -4 18 -3 8 9 -13 16 -29 19 -29 5z"/>
<path d="M97 1703 c9 -3 11 -14 6 -31 -6 -25 -5 -26 10 -10 9 9 17 21 17 26 0
9 -24 23 -38 21 -4 0 -1 -3 5 -6z"/>
<path d="M208 1688 c6 -6 18 -8 28 -6 14 3 12 5 -9 10 -19 3 -25 2 -19 -4z"/>
<path d="M183 1663 c-15 -5 -17 -23 -4 -23 5 0 11 7 15 15 3 8 4 15 3 14 -1 0
-8 -3 -14 -6z"/>
<path d="M128 1643 c7 -3 16 -2 19 1 4 3 -2 6 -13 5 -11 0 -14 -3 -6 -6z"/>
<path d="M80 1629 c0 -6 7 -8 16 -5 12 4 15 2 10 -9 -3 -8 -2 -15 3 -15 16 0
21 13 10 27 -14 16 -39 17 -39 2z"/>
<path d="M60 1600 c0 -5 5 -10 10 -10 6 0 10 5 10 10 0 6 -4 10 -10 10 -5 0
-10 -4 -10 -10z"/>
<path d="M95 1581 c-3 -2 -5 -9 -5 -14 0 -6 3 -7 7 -4 3 4 14 0 24 -9 16 -15
20 -14 40 5 13 12 18 21 11 21 -6 0 -14 -4 -17 -10 -9 -15 -25 -12 -19 3 4 12
-31 19 -41 8z"/>
<path d="M39 1562 c-37 -44 2 -101 42 -61 11 11 18 23 15 27 -4 3 -12 0 -18
-6 -18 -18 -28 -15 -28 8 0 11 5 20 10 20 6 0 10 7 10 15 0 20 -12 19 -31 -3z"/>
<path d="M97 1500 c-27 -26 -27 -28 -7 -33 14 -4 20 -1 18 8 -2 8 6 20 16 28
10 8 15 16 10 20 -5 3 -22 -7 -37 -23z"/>
<path d="M170 1520 c0 -5 5 -10 10 -10 6 0 10 5 10 10 0 6 -4 10 -10 10 -5 0
-10 -4 -10 -10z"/>
<path d="M20 1474 c0 -13 31 -35 41 -29 6 5 4 12 -8 21 -19 14 -33 18 -33 8z"/>
<path d="M132 1455 c-9 -18 -9 -25 0 -25 11 0 37 29 38 43 0 18 -28 5 -38 -18z"/>
<path d="M85 1439 c-4 -6 -22 -8 -46 -4 -23 4 -39 3 -39 -3 0 -18 19 -21 86
-13 14 1 27 31 14 31 -5 0 -12 -5 -15 -11z"/>
<path d="M110 1260 c0 -5 5 -10 10 -10 6 0 10 5 10 10 0 6 -4 10 -10 10 -5 0
-10 -4 -10 -10z"/>
<path d="M59 1223 c-13 -16 -12 -17 4 -4 9 7 17 15 17 17 0 8 -8 3 -21 -13z"/>
<path d="M135 1200 c4 -6 11 -8 16 -5 14 9 11 15 -7 15 -8 0 -12 -5 -9 -10z"/>
<path d="M20 1185 c0 -8 5 -15 10 -15 6 0 10 7 10 15 0 8 -4 15 -10 15 -5 0
-10 -7 -10 -15z"/>
<path d="M52 1106 c-8 -19 -7 -28 4 -43 15 -17 15 -17 10 1 -4 10 -1 25 5 33
8 9 9 17 2 24 -6 6 -13 1 -21 -15z"/>
<path d="M66 987 c3 -10 9 -15 12 -12 3 3 0 11 -7 18 -10 9 -11 8 -5 -6z"/>
<path d="M35 460 c0 -256 1 -360 2 -233 2 128 2 338 0 465 -1 128 -2 24 -2
-232z"/>
<path d="M65 415 c0 -231 1 -324 2 -207 2 117 2 306 0 420 -1 114 -2 18 -2
-213z"/>
<path d="M130 779 c0 -5 5 -7 10 -4 6 3 10 8 10 11 0 2 -4 4 -10 4 -5 0 -10
-5 -10 -11z"/>
<path d="M2464 710 c0 -13 4 -16 10 -10 7 7 7 13 0 20 -6 6 -10 3 -10 -10z"/>
<path d="M134 335 c0 -187 2 -262 3 -167 2 95 2 248 0 340 -1 92 -3 14 -3
-173z"/>
<path d="M2363 582 c0 -10 7 -19 13 -19 9 0 10 5 3 19 -5 10 -12 18 -14 18 -2
0 -3 -8 -2 -18z"/>
<path d="M2480 581 c0 -10 -6 -22 -12 -24 -10 -4 -9 -8 2 -16 13 -10 13 -12 0
-21 -8 -5 -19 -8 -25 -7 -21 7 -45 -30 -43 -64 3 -29 -1 -34 -19 -37 -21 -3
-23 0 -23 48 0 44 -3 51 -17 48 -15 -3 -18 -14 -18 -68 0 -64 0 -65 -30 -70
-34 -6 -35 -14 -9 -82 17 -45 17 -49 1 -83 -11 -24 -17 -61 -17 -110 0 -75 0
-75 -27 -76 l-28 -1 25 -8 c14 -4 78 -8 143 -9 l117 -1 0 295 c-1 173 -5 297
-11 300 -5 4 -9 -3 -9 -14z"/>
<path d="M2260 486 c0 -21 21 -31 31 -15 14 22 11 29 -11 29 -11 0 -20 -6 -20
-14z"/>
<path d="M2180 390 c0 -13 7 -20 20 -20 11 0 20 5 20 10 0 6 9 10 20 10 11 0
20 5 20 10 0 6 -18 10 -40 10 -33 0 -40 -3 -40 -20z"/>
<path d="M2184 266 c-8 -21 -1 -49 14 -54 8 -2 12 8 12 32 0 36 -16 49 -26 22z"/>
<path d="M622 138 c22 -22 47 -38 60 -38 l23 1 -24 19 c-12 11 -27 17 -33 14
-5 -3 -22 4 -37 17 -15 13 -10 7 11 -13z"/>
</g>
</svg>
