<svg xmlns="http://www.w3.org/2000/svg" width="32" height="32" xmlns:xlink="http://www.w3.org/1999/xlink"><defs><linearGradient id="c" x1="50%" x2="50%" y1="0%" y2="100%"><stop offset="0%" stop-color="#FFF" stop-opacity=".5"/><stop offset="100%" stop-opacity=".5"/></linearGradient><circle id="b" cx="16" cy="15" r="15"/><filter id="a" width="111.7%" height="111.7%" x="-5.8%" y="-4.2%" filterUnits="objectBoundingBox"><feOffset dy=".5" in="SourceAlpha" result="shadowOffsetOuter1"/><feGaussianBlur in="shadowOffsetOuter1" result="shadowBlurOuter1" stdDeviation=".5"/><feComposite in="shadowBlurOuter1" in2="SourceAlpha" operator="out" result="shadowBlurOuter1"/><feColorMatrix in="shadowBlurOuter1" values="0 0 0 0 0 0 0 0 0 0 0 0 0 0 0 0 0 0 0.199473505 0"/></filter><path id="e" d="M16.05 17.37l9.6-5.58-9.6-5.7-9.5 5.7 9.5 5.56zm-10-2.92c0 .27.14.52.37.66l9.63 5.63 9.78-5.8c.12-.06.25-.1.38-.1.4 0 .75.34.75.75v2.63c0 .27-.13.5-.36.64L16.42 24.9c-.23.13-.52.13-.75 0L5.26 18.77c-.25-.14-.33-.47-.2-.72.16-.25.48-.33.73-.2l10.24 6.05 9.85-5.88v-1.9l-9.5 5.6c-.22.14-.5.14-.73 0l-9.78-5.7c-.57-.32-.9-.92-.9-1.57v-2.47c0-.03 0-.07 0-.1.04-.3.3-.53.62-.53.1 0 .22.03.32.08l.6.36-.76.44c-.26.15-.58.06-.73-.2-.03-.04-.05-.1-.06-.17-.04-.2.05-.43.25-.54L15.68 5.1c.23-.13.5-.13.75 0l10.2 6.05c.12.07.2.16.27.27.2.36.08.8-.27 1l-10.2 5.96c-.24.13-.52.13-.75 0L5.42 12.34c.06.04.14.06.2.06.2 0 .36-.12.4-.3.02-.04.03-.08.03-.12v2.47z"/><filter id="d" width="115.9%" height="117.5%" x="-8%" y="-6.2%" filterUnits="objectBoundingBox"><feOffset dy=".5" in="SourceAlpha" result="shadowOffsetOuter1"/><feGaussianBlur in="shadowOffsetOuter1" result="shadowBlurOuter1" stdDeviation=".5"/><feColorMatrix in="shadowBlurOuter1" values="0 0 0 0 0 0 0 0 0 0 0 0 0 0 0 0 0 0 0.204257246 0"/></filter></defs><g fill="none"><use fill="#000" filter="url(#a)" xlink:href="#b"/><use fill="#1387C9" xlink:href="#b"/><use fill="url(#c)" style="mix-blend-mode:soft-light" xlink:href="#b"/><circle cx="16" cy="15" r="14.5" stroke="#000" stroke-opacity=".097"/><use fill="#000" filter="url(#d)" xlink:href="#e"/><use fill="#FFF" fill-rule="evenodd" xlink:href="#e"/></g></svg>