<?xml version="1.0" standalone="no"?>
<!DOCTYPE svg PUBLIC "-//W3C//DTD SVG 20010904//EN"
 "http://www.w3.org/TR/2001/REC-SVG-20010904/DTD/svg10.dtd">
<svg version="1.0" xmlns="http://www.w3.org/2000/svg"
 width="250.000000pt" height="250.000000pt" viewBox="0 0 250.000000 250.000000"
 preserveAspectRatio="xMidYMid meet">
<metadata>
Created by potrace 1.16, written by Peter Selinger 2001-2019
</metadata>
<g transform="translate(0.000000,250.000000) scale(0.100000,-0.100000)"
fill="#000000" stroke="none">
<path d="M0 1250 l0 -1250 1250 0 1250 0 0 1250 0 1250 -1250 0 -1250 0 0
-1250z m1854 878 c-17 -142 -59 -226 -168 -333 -65 -64 -100 -89 -176 -127
-106 -52 -261 -99 -393 -118 -48 -7 -85 -15 -83 -17 2 -3 49 -15 104 -28 210
-48 378 -118 507 -210 126 -89 169 -164 169 -290 0 -61 -5 -91 -22 -129 -48
-106 -140 -185 -278 -240 -37 -15 -171 -54 -299 -87 -355 -91 -432 -122 -505
-206 -17 -19 -33 -33 -36 -31 -11 11 -24 119 -24 197 0 138 45 210 176 284
122 69 319 128 534 162 57 9 106 18 108 19 2 2 -32 11 -75 21 -362 78 -647
245 -695 408 -18 60 -15 153 7 217 14 43 34 71 89 126 106 105 187 139 558
229 314 76 401 109 462 174 17 17 34 31 38 31 5 0 6 -24 2 -52z m-54 -423 c0
-84 -14 -159 -42 -225 -22 -51 -59 -110 -70 -110 -4 0 -45 21 -91 48 -46 26
-113 58 -150 72 -37 14 -66 29 -64 33 1 5 35 21 75 37 100 39 201 101 270 165
31 30 60 54 65 55 4 0 7 -34 7 -75z"/>
</g>
</svg>
