<?xml version="1.0" standalone="no"?>
<!DOCTYPE svg PUBLIC "-//W3C//DTD SVG 20010904//EN"
 "http://www.w3.org/TR/2001/REC-SVG-20010904/DTD/svg10.dtd">
<svg version="1.0" xmlns="http://www.w3.org/2000/svg"
 width="250.000000pt" height="250.000000pt" viewBox="0 0 250.000000 250.000000"
 preserveAspectRatio="xMidYMid meet">
<metadata>
Created by potrace 1.16, written by Peter Selinger 2001-2019
</metadata>
<g transform="translate(0.000000,250.000000) scale(0.100000,-0.100000)"
fill="#000000" stroke="none">
<path d="M0 1250 l0 -1250 1250 0 1250 0 0 1250 0 1250 -1250 0 -1250 0 0
-1250z m1107 1184 c-3 -3 -12 -4 -19 -1 -8 3 -5 6 6 6 11 1 17 -2 13 -5z m369
-164 c392 -90 683 -372 792 -769 23 -84 26 -115 26 -251 0 -129 -4 -169 -22
-238 -109 -405 -379 -675 -784 -784 -69 -18 -109 -22 -238 -22 -136 0 -167 3
-251 26 -101 28 -234 86 -309 134 -331 213 -514 588 -480 982 8 88 50 261 69
287 5 5 13 25 19 43 27 79 110 198 207 298 122 123 189 169 365 247 162 72
412 91 606 47z m984 -1019 c0 -44 -4 -83 -10 -86 -6 -4 -10 25 -10 79 0 51 4
86 10 86 6 0 10 -33 10 -79z m-1125 -1201 c-8 -13 -165 -13 -165 0 0 6 35 10
86 10 54 0 83 -4 79 -10z"/>
<path d="M1095 2140 c-299 -47 -510 -221 -559 -462 -20 -96 -20 -128 -1 -219
31 -147 149 -279 390 -434 33 -21 90 -58 127 -82 85 -56 172 -151 192 -211 18
-52 21 -108 6 -117 -5 -3 -10 2 -10 12 0 29 -47 95 -93 130 -23 17 -121 73
-217 124 -96 51 -211 116 -256 144 -148 96 -242 208 -288 347 l-24 72 -9 -40
c-15 -72 -9 -303 11 -374 69 -252 262 -481 506 -598 125 -60 208 -77 375 -77
183 0 256 16 404 87 91 44 116 62 191 137 131 131 176 241 168 412 -4 76 -9
97 -41 161 -74 148 -237 298 -445 408 -34 18 -61 35 -58 37 5 6 176 -62 223
-88 101 -57 132 -76 184 -116 135 -101 217 -233 228 -363 l6 -75 20 70 c16 57
20 101 20 235 0 153 -2 171 -28 253 -93 292 -324 514 -627 604 -96 28 -289 39
-395 23z m382 -85 c73 -12 187 -45 200 -59 3 -3 43 -315 43 -333 0 -10 -57
-33 -81 -33 -4 0 -14 24 -24 53 -65 201 -219 313 -380 277 -65 -14 -105 -42
-146 -103 -31 -46 -34 -56 -34 -126 0 -69 3 -81 32 -126 44 -68 112 -118 288
-212 83 -44 170 -92 195 -108 70 -44 169 -151 199 -214 24 -51 26 -67 26 -176
0 -104 -3 -127 -23 -170 -63 -138 -163 -233 -303 -289 -151 -60 -310 -61 -475
-4 -126 44 -215 95 -225 128 -11 38 -53 320 -48 324 2 2 23 7 46 11 l41 6 52
-101 c65 -125 157 -226 246 -267 84 -39 187 -39 259 0 110 61 151 192 97 318
-35 82 -118 148 -337 272 -185 104 -285 193 -334 297 -23 49 -26 67 -26 170 0
97 4 124 24 173 91 230 363 345 688 292z"/>
</g>
</svg>
