<svg xmlns="http://www.w3.org/2000/svg" width="32" height="32" xmlns:xlink="http://www.w3.org/1999/xlink"><defs><linearGradient id="c" x1="50%" x2="50%" y1="0%" y2="100%"><stop offset="0%" stop-color="#FFF" stop-opacity=".5"/><stop offset="100%" stop-opacity=".5"/></linearGradient><circle id="b" cx="16" cy="15" r="15"/><filter id="a" width="111.7%" height="111.7%" x="-5.8%" y="-4.2%" filterUnits="objectBoundingBox"><feOffset dy=".5" in="SourceAlpha" result="shadowOffsetOuter1"/><feGaussianBlur in="shadowOffsetOuter1" result="shadowBlurOuter1" stdDeviation=".5"/><feComposite in="shadowBlurOuter1" in2="SourceAlpha" operator="out" result="shadowBlurOuter1"/><feColorMatrix in="shadowBlurOuter1" values="0 0 0 0 0 0 0 0 0 0 0 0 0 0 0 0 0 0 0.199473505 0"/></filter><path id="e" d="M8.3 10.96h.1c.98-.02 1.8-.4 2.52-1.1.7-.74 1.04-1.6 1.04-2.56 0-.5.18-.9.53-1.27.34-.35.77-.53 1.3-.53.47 0 .9.18 1.25.53.35.36.53.78.53 1.27 0 .5-.18.9-.52 1.27-.33.35-.74.54-1.2.56-1.05-.04-1.94.32-2.68 1.06-.75.73-1.1 1.6-1.07 2.6.05 1.04.4 1.9 1.13 2.6.78.7 1.65 1.02 2.62 1 .47.02.88.2 1.2.56.35.36.52.77.52 1.24 0 .52-.2.96-.54 1.3-.36.37-.78.54-1.27.54-.52 0-.95-.17-1.3-.53-.36-.33-.54-.77-.54-1.3 0-.96-.35-1.8-1.04-2.5-.7-.7-1.53-1.07-2.5-1.1-.35 0-.65-.04-.9-.17-.24-.13-.44-.3-.6-.53-.15-.24-.26-.5-.32-.77-.07-.3-.08-.56-.04-.84.23-.9.82-1.35 1.74-1.35zm.03 5.45c.47 0 .88.2 1.24.54.35.35.54.76.56 1.23-.02 1 .33 1.87 1.04 2.62.7.72 1.56 1.1 2.56 1.1h.08c1 0 1.85-.38 2.56-1.1.73-.74 1.08-1.6 1.06-2.63 0-1-.38-1.85-1.1-2.54-.72-.68-1.56-1.03-2.5-1.03h-.03c-.05 0-.08 0-.1 0-.48-.03-.88-.22-1.2-.57-.36-.36-.5-.78-.5-1.27 0-.5.15-.92.5-1.27.3-.3.66-.5 1.07-.54.04 0 .08 0 .12 0h.03c.02 0 .04 0 .06 0 .02 0 .05 0 .1 0 .92-.02 1.73-.38 2.43-1.08.75-.75 1.1-1.64 1.1-2.65 0-.4.13-.77.4-1.1l.03-.02.03-.02c0-.02 0-.03.02-.03l.03-.02V6h.03c.02 0 .03-.02.03-.04l.03-.02h.05c0-.02 0-.03.03-.03h.03v-.04h.06s0-.02.02-.02l.03-.03.03-.02h.03c0-.02 0-.02.03-.02 0 0 .02 0 .02-.03h.03l.03-.03h.06v-.04h.03l.02-.02h.06V5.6h.05l.02-.02h.06l.03-.03h.1l.02-.02h.08s.02 0 .02-.03h.57c.02.02.03.03.05.03h.06c.02.02.03.02.05.02h.05l.03.03h.06l.02.03h.06c.02.04.03.05.05.05l.03.02h.05v.03h.03l.03.02c0 .02.02.03.03.03l.03.02h.03c0 .02 0 .03.04.03l.03.03v.02h.03c0 .02.03.03.06.03 0 .02 0 .03.03.03v.05l.03.02c.02.02.04.03.06.03l.02.02c0 .02 0 .03.02.03v.02h.03c0 .02 0 .03 0 .04.02.03.03.04.03.04 0 .02.02.02.03.02l.03.03s0 .02.02.03c0 0 0 .02 0 .02l.04.02.02.03v.05l.03.02v.03h.03c0 .02 0 .03 0 .04.02 0 .03 0 .03 0 0 .03 0 .04.02.04v.03c0 .04 0 .05.02.06l.04.04c0 .03.03.05.04.05v.02c0 .02 0 .04.02.04 0 .03 0 .04 0 .04v.05l.04.02v.1s.02.02.02.04v.08c0 .02.02.03.02.05v.22c0 .96.35 1.82 1.04 2.57.7.7 1.56 1.06 2.54 1.1.5-.04.93.13 1.3.5.4.34.58.77.58 1.3 0 .5-.18.92-.53 1.27-.36.36-.78.54-1.27.54-.5 0-.9-.17-1.27-.5-.35-.35-.54-.76-.56-1.25.02-1-.34-1.88-1.1-2.65-.72-.73-1.6-1.1-2.64-1.07-.98.04-1.8.4-2.5 1.12-.7.7-1.04 1.53-1.04 2.5 0 .04 0 .06 0 .1 0 .92.34 1.75 1 2.47.7.7 1.57 1.08 2.55 1.1.65-.04 1.15.2 1.5.7.34.5.45 1 .33 1.56-.27.9-.85 1.36-1.76 1.36h-.08c-1.02.04-1.87.4-2.54 1.12-.7.7-1.04 1.54-1.04 2.54 0 .5-.17.9-.53 1.27-.35.35-.77.53-1.27.53h-.05c-.5 0-.9-.18-1.25-.53-.34-.36-.5-.78-.5-1.27 0-1-.36-1.85-1.05-2.54-.7-.7-1.53-1.08-2.5-1.12-.54.02-1-.15-1.36-.5-.37-.36-.56-.8-.56-1.32 0-.5.18-.92.53-1.27.37-.36.8-.54 1.3-.54z"/><filter id="d" width="117.5%" height="117.5%" x="-8.8%" y="-6.2%" filterUnits="objectBoundingBox"><feOffset dy=".5" in="SourceAlpha" result="shadowOffsetOuter1"/><feGaussianBlur in="shadowOffsetOuter1" result="shadowBlurOuter1" stdDeviation=".5"/><feColorMatrix in="shadowBlurOuter1" values="0 0 0 0 0 0 0 0 0 0 0 0 0 0 0 0 0 0 0.204257246 0"/></filter></defs><g fill="none"><use fill="#000" filter="url(#a)" xlink:href="#b"/><use fill="#2DAEE4" xlink:href="#b"/><use fill="url(#c)" style="mix-blend-mode:soft-light" xlink:href="#b"/><circle cx="16" cy="15" r="14.5" stroke="#000" stroke-opacity=".097"/><use fill="#000" filter="url(#d)" xlink:href="#e"/><use fill="#FFF" xlink:href="#e"/></g></svg>