<?xml version="1.0" standalone="no"?>
<!DOCTYPE svg PUBLIC "-//W3C//DTD SVG 20010904//EN"
 "http://www.w3.org/TR/2001/REC-SVG-20010904/DTD/svg10.dtd">
<svg version="1.0" xmlns="http://www.w3.org/2000/svg"
 width="231.000000pt" height="250.000000pt" viewBox="0 0 231.000000 250.000000"
 preserveAspectRatio="xMidYMid meet">
<metadata>
Created by potrace 1.16, written by Peter Selinger 2001-2019
</metadata>
<g transform="translate(0.000000,250.000000) scale(0.100000,-0.100000)"
fill="#000000" stroke="none">
<path d="M2 1888 c1 -337 4 -568 5 -512 4 100 4 101 38 134 29 28 35 41 35 75
0 35 6 47 40 80 22 21 40 46 40 55 0 28 239 253 333 315 145 94 327 171 582
245 163 47 239 86 310 159 l59 61 -722 0 -722 0 2 -612z"/>
<path d="M1705 1429 c-84 -13 -116 -24 -240 -85 -60 -30 -138 -60 -173 -67
-34 -7 -60 -15 -57 -18 6 -7 -870 -791 -893 -800 -25 -9 85 -50 178 -66 108
-19 233 -6 364 38 206 69 301 150 431 369 109 184 209 287 345 354 128 63 221
80 397 73 76 -2 139 -9 146 -16 8 -6 35 -14 61 -17 l46 -7 0 72 0 71 -67 0
c-57 0 -79 6 -138 34 -122 60 -274 85 -400 65z"/>
<path d="M1985 435 c-59 -29 -154 -33 -230 -10 l-48 14 -426 -181 c-234 -99
-440 -187 -458 -194 -45 -19 -34 -44 18 -44 21 0 39 -4 39 -10 0 -7 245 -10
715 -10 l715 0 0 230 0 230 -137 0 c-126 0 -142 -2 -188 -25z"/>
</g>
</svg>
