<svg xmlns="http://www.w3.org/2000/svg" width="32" height="32" xmlns:xlink="http://www.w3.org/1999/xlink"><defs><linearGradient id="c" x1="50%" x2="50%" y1="0%" y2="100%"><stop offset="0%" stop-color="#FFF" stop-opacity=".5"/><stop offset="100%" stop-opacity=".5"/></linearGradient><circle id="b" cx="16" cy="15" r="15"/><filter id="a" width="111.7%" height="111.7%" x="-5.8%" y="-4.2%" filterUnits="objectBoundingBox"><feOffset dy=".5" in="SourceAlpha" result="shadowOffsetOuter1"/><feGaussianBlur in="shadowOffsetOuter1" result="shadowBlurOuter1" stdDeviation=".5"/><feComposite in="shadowBlurOuter1" in2="SourceAlpha" operator="out" result="shadowBlurOuter1"/><feColorMatrix in="shadowBlurOuter1" values="0 0 0 0 0 0 0 0 0 0 0 0 0 0 0 0 0 0 0.199473505 0"/></filter><path id="e" d="M18.2 25c-1.47 0-2.53-.34-3.2-1.03-.67-.7-1-1.43-1-2.22 0-.3.06-.54.17-.74.12-.17.28-.33.48-.45.2-.1.45-.17.74-.17.3 0 .53.06.73.17.2.12.36.28.48.47.1.2.18.46.18.75 0 .35-.1.63-.26.86-.18.23-.38.37-.6.44.2.28.5.47.95.6.42.1.85.17 1.3.17.6 0 1.14-.15 1.63-.47.5-.32.85-.8 1.08-1.42.25-.62.36-1.33.36-2.12 0-.87-.12-1.6-.38-2.2-.25-.63-.62-1.1-1.1-1.4-.5-.3-1.02-.44-1.6-.44-.36 0-.83.15-1.4.45l-1 .5v-.5l4.6-6.05H14v6.28c0 .52.1.95.35 1.28.23.35.6.52 1.07.52.37 0 .73-.12 1.07-.37.32-.23.62-.53.86-.9.04-.05.07-.1.12-.13.04-.03.1-.05.14-.05.1 0 .2.04.3.13.1.12.17.26.17.42 0 .08-.03.2-.06.32-.26.57-.63 1.02-1.1 1.32-.46.3-.97.46-1.53.46-1.37 0-2.33-.26-2.86-.8-.53-.53-.8-1.25-.8-2.17v-6.27H8.5V9h3.26V6.32l-.74-.73V5h2.16l.82.4V9l8.43-.04.84.83-5.17 5.06c.3-.12.63-.2.97-.23.56 0 1.2.18 1.9.53.7.35 1.24.82 1.62 1.42.36.6.6 1.16.72 1.7.1.56.17 1.05.17 1.48 0 .97-.2 1.88-.64 2.72-.42.84-1.05 1.47-1.9 1.88-.86.4-1.8.62-2.78.62z"/><filter id="d" width="123.3%" height="117.5%" x="-11.7%" y="-6.2%" filterUnits="objectBoundingBox"><feOffset dy=".5" in="SourceAlpha" result="shadowOffsetOuter1"/><feGaussianBlur in="shadowOffsetOuter1" result="shadowBlurOuter1" stdDeviation=".5"/><feColorMatrix in="shadowBlurOuter1" values="0 0 0 0 0 0 0 0 0 0 0 0 0 0 0 0 0 0 0.204257246 0"/></filter></defs><g fill="none"><use fill="#000" filter="url(#a)" xlink:href="#b"/><use fill="#A6E000" xlink:href="#b"/><use fill="url(#c)" style="mix-blend-mode:soft-light" xlink:href="#b"/><circle cx="16" cy="15" r="14.5" stroke="#000" stroke-opacity=".097"/><use fill="#000" filter="url(#d)" xlink:href="#e"/><use fill="#FFF" xlink:href="#e"/></g></svg>