<?xml version="1.0" standalone="no"?>
<!DOCTYPE svg PUBLIC "-//W3C//DTD SVG 20010904//EN"
 "http://www.w3.org/TR/2001/REC-SVG-20010904/DTD/svg10.dtd">
<svg version="1.0" xmlns="http://www.w3.org/2000/svg"
 width="250.000000pt" height="249.000000pt" viewBox="0 0 250.000000 249.000000"
 preserveAspectRatio="xMidYMid meet">

<g transform="translate(0.000000,249.000000) scale(0.100000,-0.100000)"
fill="#000000" stroke="none">
<path d="M2128 1262 c-138 -33 -198 -51 -198 -61 0 -7 -62 -111 -139 -230
-322 -502 -513 -814 -502 -820 18 -12 161 7 256 34 466 131 795 553 795 1020
0 58 -3 105 -7 104 -5 0 -97 -21 -205 -47z"/>
<path d="M960 990 c-63 -15 -248 -58 -410 -96 -162 -37 -298 -70 -303 -74 -12
-10 67 -161 130 -245 84 -113 243 -255 286 -255 8 0 54 64 102 142 148 239
335 548 335 553 0 8 -19 5 -140 -25z"/>
</g>
</svg>
