<svg xmlns="http://www.w3.org/2000/svg" width="32" height="32" xmlns:xlink="http://www.w3.org/1999/xlink"><defs><linearGradient id="c" x1="50%" x2="50%" y1="0%" y2="100%"><stop offset="0%" stop-color="#FFF" stop-opacity=".5"/><stop offset="100%" stop-opacity=".5"/></linearGradient><circle id="b" cx="16" cy="15" r="15"/><filter id="a" width="111.7%" height="111.7%" x="-5.8%" y="-4.2%" filterUnits="objectBoundingBox"><feOffset dy=".5" in="SourceAlpha" result="shadowOffsetOuter1"/><feGaussianBlur in="shadowOffsetOuter1" result="shadowBlurOuter1" stdDeviation=".5"/><feComposite in="shadowBlurOuter1" in2="SourceAlpha" operator="out" result="shadowBlurOuter1"/><feColorMatrix in="shadowBlurOuter1" values="0 0 0 0 0 0 0 0 0 0 0 0 0 0 0 0 0 0 0.199473505 0"/></filter><path id="e" d="M15.6 10.86l-.03.13-.26 1.2-1.7 7.3h-2.2l1.75-7.3H10.2l-1.64 7.3h-2.4l2.18-9h7.32l-.07.35zm4.14-.36h3.63c3.12.14 2.83 2.2 2.83 2.2h.8l-.3.87H26c-.2.8-1.67 1.22-1.67 1.22 1.68.2 1.6 1.5 1.6 1.5h.8l-.2.83h-.66c-.17 1.2-1.22 1.77-2.1 2.05-.5.15-1.06.23-1.6.23H17.6l2.17-8.92zM7.32 12.2H5l.44-1.7h2.32l-.44 1.7zm9.95 6.3l-1.9-4.43.8-3.43 1.9 4.22-.8 3.64zm5.56-4.43c.26 0 .5-.1.7-.28.17-.2.28-.45.28-.7 0-.26-.1-.5-.27-.68-.2-.2-.43-.3-.7-.3h-1.4l-.45 1.94h1.86zm-.5 3.72c.66 0 1.18-.5 1.18-1.13 0-.6-.5-1.1-1.15-1.1h-1.7l-.53 2.2h2.24z"/><filter id="d" width="115.9%" height="138.9%" x="-8%" y="-13.9%" filterUnits="objectBoundingBox"><feOffset dy=".5" in="SourceAlpha" result="shadowOffsetOuter1"/><feGaussianBlur in="shadowOffsetOuter1" result="shadowBlurOuter1" stdDeviation=".5"/><feColorMatrix in="shadowBlurOuter1" values="0 0 0 0 0 0 0 0 0 0 0 0 0 0 0 0 0 0 0.204257246 0"/></filter></defs><g fill="none"><use fill="#000" filter="url(#a)" xlink:href="#b"/><use fill="#FFC04E" xlink:href="#b"/><use fill="url(#c)" style="mix-blend-mode:soft-light" xlink:href="#b"/><circle cx="16" cy="15" r="14.5" stroke="#000" stroke-opacity=".097"/><use fill="#000" filter="url(#d)" xlink:href="#e"/><use fill="#FFF" fill-rule="evenodd" xlink:href="#e"/></g></svg>