<svg xmlns="http://www.w3.org/2000/svg" width="32" height="32" xmlns:xlink="http://www.w3.org/1999/xlink"><defs><linearGradient id="c" x1="50%" x2="50%" y1="0%" y2="100%"><stop offset="0%" stop-color="#FFF" stop-opacity=".5"/><stop offset="100%" stop-opacity=".5"/></linearGradient><circle id="b" cx="16" cy="15" r="15"/><filter id="a" width="111.7%" height="111.7%" x="-5.8%" y="-4.2%" filterUnits="objectBoundingBox"><feOffset dy=".5" in="SourceAlpha" result="shadowOffsetOuter1"/><feGaussianBlur in="shadowOffsetOuter1" result="shadowBlurOuter1" stdDeviation=".5"/><feComposite in="shadowBlurOuter1" in2="SourceAlpha" operator="out" result="shadowBlurOuter1"/><feColorMatrix in="shadowBlurOuter1" values="0 0 0 0 0 0 0 0 0 0 0 0 0 0 0 0 0 0 0.199473505 0"/></filter><path id="e" d="M10.12 6H21.9s.3 1.55 1.98 1.66c0 0 5.52 12.85-7.92 18.34 0 0-12.4-3.94-8.02-18.24 0 0 1.87-.1 2.18-1.76zm11.15 1.02H10.75v.23c-.1.5-.34.83-.7 1.06-.16.1-.34.2-.52.24-.06.02-.1.03-.16.04-.03 0-.05 0-.05 0l-.2.03-.04.18c-.97 3.3-1 6.17-.24 8.6.63 2 1.76 3.65 3.25 4.96.8.73 1.7 1.3 2.6 1.76.3.14.6.27.84.38.15.06.27.1.33.12l.1.03.1-.04c3.7-1.6 5.94-4 6.95-6.98.83-2.46.75-5.08.13-7.56-.1-.4-.2-.78-.32-1.1-.04-.12-.07-.22-.1-.3-.03-.06-.04-.1-.05-.1l-.07-.17h-.16c-.5-.05-.8-.25-1-.57-.06-.12-.12-.26-.15-.4 0-.07 0-.13 0-.16L21.25 7zm-10.04.55c6.36 0 9.55 0 9.55 0 .04.2.1.37.22.55.25.43.67.7 1.24.8.03.06.05.14.08.22.1.3.2.67.3 1.06.6 2.4.68 4.9-.1 7.26-.96 2.8-3.06 5.07-6.57 6.6-.06-.03-.12-.06-.2-.1-.24-.1-.52-.2-.8-.36-.86-.43-1.7-.98-2.5-1.67-1.42-1.25-2.5-2.8-3.1-4.7-.7-2.3-.68-5 .2-8.14.05-.03.1-.04.13-.05.23-.06.45-.16.66-.3.43-.27.74-.66.9-1.2zm7.36 5.58h-.33c.03-.6-.1-1.93-1.74-2.3-.48-.1-.98-.1-1.45.07-.65.22-1.42.8-1.45 2.23h-.22c-.46 0-.85.38-.85.86v3.6c0 .46.4.84.86.85h5.17c.46 0 .85-.4.85-.86V14c0-.47-.4-.85-.86-.85zm-2.03 4.04h-1.14l.3-1.53c-.3-.12-.46-.44-.4-.75.07-.3.35-.54.67-.54.33 0 .6.22.67.53.07.3-.1.64-.4.76l.3 1.5zm-2.18-4.06c0-.47.2-1.58 1.44-1.66 0 0 1.63-.1 1.6 1.65H14.4z"/><filter id="d" width="119.4%" height="117.5%" x="-9.7%" y="-6.2%" filterUnits="objectBoundingBox"><feOffset dy=".5" in="SourceAlpha" result="shadowOffsetOuter1"/><feGaussianBlur in="shadowOffsetOuter1" result="shadowBlurOuter1" stdDeviation=".5"/><feColorMatrix in="shadowBlurOuter1" values="0 0 0 0 0 0 0 0 0 0 0 0 0 0 0 0 0 0 0.204257246 0"/></filter></defs><g fill="none"><use fill="#000" filter="url(#a)" xlink:href="#b"/><use fill="#30C0F2" xlink:href="#b"/><use fill="url(#c)" style="mix-blend-mode:soft-light" xlink:href="#b"/><circle cx="16" cy="15" r="14.5" stroke="#000" stroke-opacity=".097"/><use fill="#000" filter="url(#d)" xlink:href="#e"/><use fill="#FFF" fill-rule="evenodd" xlink:href="#e"/></g></svg>