<?xml version="1.0" standalone="no"?>
<!DOCTYPE svg PUBLIC "-//W3C//DTD SVG 20010904//EN"
 "http://www.w3.org/TR/2001/REC-SVG-20010904/DTD/svg10.dtd">
<svg version="1.0" xmlns="http://www.w3.org/2000/svg"
 width="250.000000pt" height="250.000000pt" viewBox="0 0 250.000000 250.000000"
 preserveAspectRatio="xMidYMid meet">

<g transform="translate(0.000000,250.000000) scale(0.100000,-0.100000)"
fill="#000000" stroke="none">
<path d="M1085 2483 c-260 -33 -512 -159 -705 -351 -115 -115 -162 -177 -229
-304 -256 -483 -159 -1090 232 -1465 249 -237 533 -353 868 -353 338 0 637
124 875 364 244 246 364 535 364 877 0 338 -123 635 -364 875 -191 191 -415
308 -667 349 -85 14 -295 18 -374 8z m335 -108 c486 -73 878 -460 953 -940 15
-94 13 -112 -15 -121 -27 -8 -48 18 -48 58 0 40 -28 162 -52 228 -56 155 -139
289 -249 399 -161 163 -359 265 -588 305 -462 79 -932 -170 -1139 -604 -40
-85 -74 -194 -87 -280 -15 -104 -23 -118 -61 -103 -39 15 8 252 80 404 73 153
125 227 241 342 252 250 612 366 965 312z m317 -323 c16 -10 22 -52 12 -79
l-8 -23 -444 0 c-331 0 -446 3 -455 12 -15 15 -16 53 -2 79 10 18 26 19 448
19 240 0 442 -4 449 -8z m-487 -176 c0 -37 -15 -46 -77 -46 -32 0 -33 2 -33
40 l0 40 55 0 55 0 0 -34z m180 -6 c0 -37 -2 -40 -29 -40 -16 0 -43 3 -60 6
-26 5 -31 11 -31 34 0 37 6 40 67 40 l53 0 0 -40z m45 -93 c168 -47 283 -149
316 -280 18 -73 11 -77 -142 -77 l-129 0 -19 38 c-10 20 -31 48 -45 61 l-26
24 0 -127 0 -128 -30 6 c-16 3 -43 9 -60 12 l-30 6 0 129 0 129 -30 0 -30 0 0
-121 0 -121 -27 5 c-83 17 -83 17 -83 122 l0 96 -29 -17 c-66 -39 -79 -113
-31 -168 39 -44 79 -59 266 -101 171 -38 281 -79 346 -130 153 -116 171 -330
42 -474 -53 -58 -156 -114 -245 -133 l-59 -12 0 -55 c0 -62 -18 -91 -58 -91
-41 0 -62 27 -62 80 0 55 -3 59 -35 52 -22 -4 -24 -10 -27 -60 -3 -51 -6 -57
-30 -66 -18 -7 -35 -6 -53 2 -23 11 -25 17 -25 72 0 57 -1 60 -27 65 -144 29
-222 65 -295 133 -77 72 -134 207 -106 252 12 18 23 20 141 20 l128 0 18 -42
c36 -84 87 -120 196 -139 121 -21 234 7 288 70 48 58 34 140 -30 170 -23 11
-23 10 -23 -83 l0 -93 -37 -11 c-83 -25 -78 -32 -81 108 -3 127 -7 140 -44
140 -16 0 -18 -13 -18 -136 l0 -136 -47 7 c-27 4 -51 9 -55 12 -5 2 -8 67 -8
143 l0 140 -27 5 c-75 16 -184 61 -239 97 -94 63 -133 133 -134 245 -1 185
141 321 385 369 84 16 277 11 350 -9z m-1301 -603 c9 -8 16 -28 16 -44 0 -83
63 -286 121 -389 289 -514 908 -705 1429 -441 206 104 402 315 489 525 37 89
81 251 81 301 0 27 20 64 35 64 43 0 47 -74 10 -216 -80 -306 -262 -546 -539
-712 -258 -155 -617 -193 -911 -97 -308 100 -567 332 -696 623 -67 152 -111
372 -78 393 19 12 25 11 43 -7z"/>
</g>
</svg>
