<?xml version="1.0" standalone="no"?>
<!DOCTYPE svg PUBLIC "-//W3C//DTD SVG 20010904//EN"
 "http://www.w3.org/TR/2001/REC-SVG-20010904/DTD/svg10.dtd">
<svg version="1.0" xmlns="http://www.w3.org/2000/svg"
 width="250.000000pt" height="250.000000pt" viewBox="0 0 250.000000 250.000000"
 preserveAspectRatio="xMidYMid meet">
<metadata>
Created by potrace 1.16, written by Peter Selinger 2001-2019
</metadata>
<g transform="translate(0.000000,250.000000) scale(0.100000,-0.100000)"
fill="#000000" stroke="none">
<path d="M1130 2409 c-138 -16 -349 -79 -385 -116 -8 -8 -15 -11 -15 -7 0 4
-6 0 -13 -10 -7 -9 -17 -16 -22 -15 -6 1 -18 -1 -28 -6 -15 -6 -16 -10 -5 -17
9 -6 6 -7 -8 -3 -14 4 -31 -2 -50 -18 -16 -12 -42 -31 -57 -40 -15 -10 -26
-21 -23 -25 3 -5 0 -14 -6 -22 -8 -12 -9 -12 -4 3 3 9 2 17 -3 17 -14 0 -51
-46 -44 -55 5 -4 3 -5 -3 -2 -16 9 -108 -88 -99 -104 5 -7 4 -10 -3 -5 -14 8
-75 -70 -66 -85 4 -7 3 -9 -4 -5 -14 8 -66 -81 -114 -194 -153 -359 -112 -770
110 -1104 64 -97 209 -239 315 -310 347 -231 776 -259 1153 -76 307 149 529
423 621 767 23 87 26 117 26 268 1 126 -4 190 -16 245 -92 402 -362 713 -741
854 -145 55 -368 83 -516 65z m260 -124 c121 -18 215 -47 314 -97 285 -142
490 -403 562 -713 29 -122 26 -350 -5 -469 -50 -193 -144 -359 -281 -497 -144
-145 -331 -245 -545 -290 -92 -20 -304 -17 -405 4 -245 53 -477 202 -630 406
-149 197 -225 471 -200 717 17 161 82 358 151 455 11 16 17 34 14 39 -4 6 -2
9 4 8 5 -2 21 12 35 31 19 25 23 38 15 47 -7 9 -6 12 7 10 18 -3 71 51 66 67
-1 5 2 6 7 3 17 -11 73 55 67 78 -5 21 -5 21 10 1 15 -20 16 -19 48 19 19 21
38 36 44 32 6 -3 17 1 25 9 9 8 21 15 27 15 6 0 8 5 4 12 -4 7 -3 8 4 4 6 -4
37 6 69 22 173 87 388 119 593 87z m-760 -69 c0 -2 -7 -7 -16 -10 -8 -3 -12
-2 -9 4 6 10 25 14 25 6z m65 -46 c-3 -5 -12 -10 -18 -10 -7 0 -6 4 3 10 19
12 23 12 15 0z m-140 -9 c3 -5 2 -12 -3 -15 -5 -3 -9 1 -9 9 0 17 3 19 12 6z"/>
<path d="M1482 1658 c-21 -46 -81 -179 -133 -295 -51 -117 -98 -213 -102 -213
-4 0 -17 23 -29 50 l-21 50 -208 0 c-115 0 -209 -4 -209 -8 0 -5 47 -114 106
-243 58 -129 114 -255 126 -282 l21 -47 214 2 215 3 124 275 c68 151 137 303
154 337 l29 62 51 -3 51 -3 24 47 c13 26 21 50 18 54 -4 3 -28 6 -55 6 l-49 0
16 30 c14 28 20 30 71 30 l55 0 19 46 c11 25 20 48 20 50 0 2 -22 4 -50 4 -28
0 -50 5 -50 10 0 6 9 28 20 50 37 73 44 70 -185 70 l-205 0 -38 -82z"/>
<path d="M576 1693 c36 -85 35 -83 11 -84 -12 -1 -34 0 -49 1 -33 2 -33 -1
-12 -57 l17 -43 377 0 377 0 17 43 c9 23 16 46 16 50 0 4 -66 6 -147 5 l-148
-3 -27 60 -27 60 -211 3 -210 2 16 -37z"/>
<path d="M586 1441 c-3 -4 2 -27 11 -50 l16 -41 306 0 306 0 18 43 c9 23 17
46 17 50 0 10 -668 9 -674 -2z"/>
</g>
</svg>
