<svg xmlns="http://www.w3.org/2000/svg" width="32" height="32" xmlns:xlink="http://www.w3.org/1999/xlink"><defs><linearGradient id="c" x1="50%" x2="50%" y1="0%" y2="100%"><stop offset="0%" stop-color="#FFF" stop-opacity=".5"/><stop offset="100%" stop-opacity=".5"/></linearGradient><circle id="b" cx="16" cy="15" r="15"/><filter id="a" width="111.7%" height="111.7%" x="-5.8%" y="-4.2%" filterUnits="objectBoundingBox"><feOffset dy=".5" in="SourceAlpha" result="shadowOffsetOuter1"/><feGaussianBlur in="shadowOffsetOuter1" result="shadowBlurOuter1" stdDeviation=".5"/><feComposite in="shadowBlurOuter1" in2="SourceAlpha" operator="out" result="shadowBlurOuter1"/><feColorMatrix in="shadowBlurOuter1" values="0 0 0 0 0 0 0 0 0 0 0 0 0 0 0 0 0 0 0.199473505 0"/></filter><path id="e" d="M25.9 10.4c.15.25.13.53-.03.8-.23.37-.44.75-.66 1.12-.6 1.04-1.2 2.07-1.8 3.1-.64 1.1-1.3 2.2-1.93 3.28-.57.97-1.14 1.94-1.72 2.9-.16.28-.4.4-.7.4-.32 0-.53-.17-.68-.43-.15-.27-.3-.53-.46-.8-.5-.86-1-1.74-1.52-2.6-.12-.2-.23-.4-.36-.6-.12.2-.24.4-.36.6-.5.87-1.02 1.74-1.53 2.6-.15.27-.3.53-.45.8-.14.26-.36.42-.67.43-.3 0-.54-.12-.7-.4-.6-.96-1.15-1.93-1.72-2.9-.64-1.1-1.3-2.18-1.92-3.27-.6-1.04-1.22-2.07-1.82-3.1-.22-.38-.43-.76-.66-1.13-.17-.27-.2-.55-.04-.8.16-.27.4-.4.72-.4 1.96 0 3.93.02 5.9 0 .5 0 .8.2 1.03.6.5.9 1 1.76 1.52 2.63.22.37.43.75.65 1.12 0 .02.04.04.07.07.02-.02.05-.05.06-.07.22-.37.43-.75.65-1.12.52-.87 1.05-1.74 1.54-2.63.23-.4.52-.6 1.02-.6 1.97.02 3.94 0 5.9 0 .33 0 .57.13.72.4zm-10.85 5.74c.04-.07.04-.2 0-.26-.1-.2-.23-.4-.35-.6-.7-1.2-1.4-2.4-2.1-3.6-.08-.12-.16-.17-.3-.17-1.32.03-2.63.03-3.94.03-.07 0-.13 0-.22.02 1.6 2.73 3.2 5.44 4.8 8.18.14-.23.25-.4.36-.6.6-1 1.17-1.98 1.75-2.98zm4 3.58c1.6-2.74 3.2-5.45 4.8-8.18-.08 0-.14-.02-.2-.02-1.32 0-2.63 0-3.94 0-.13 0-.2.04-.3.16-.7 1.2-1.4 2.4-2.1 3.6-.1.2-.24.4-.34.6-.04.07-.04.2 0 .26.58 1 1.16 2 1.74 2.98.1.2.22.38.36.6z"/><filter id="d" width="117.5%" height="129.2%" x="-8.8%" y="-10.4%" filterUnits="objectBoundingBox"><feOffset dy=".5" in="SourceAlpha" result="shadowOffsetOuter1"/><feGaussianBlur in="shadowOffsetOuter1" result="shadowBlurOuter1" stdDeviation=".5"/><feColorMatrix in="shadowBlurOuter1" values="0 0 0 0 0 0 0 0 0 0 0 0 0 0 0 0 0 0 0.204257246 0"/></filter></defs><g fill="none"><use fill="#000" filter="url(#a)" xlink:href="#b"/><use fill="#B80000" xlink:href="#b"/><use fill="url(#c)" style="mix-blend-mode:soft-light" xlink:href="#b"/><circle cx="16" cy="15" r="14.5" stroke="#000" stroke-opacity=".097"/><use fill="#000" filter="url(#d)" xlink:href="#e"/><use fill="#FFF" fill-rule="evenodd" xlink:href="#e"/></g></svg>