<?xml version="1.0" standalone="no"?>
<!DOCTYPE svg PUBLIC "-//W3C//DTD SVG 20010904//EN"
 "http://www.w3.org/TR/2001/REC-SVG-20010904/DTD/svg10.dtd">
<svg version="1.0" xmlns="http://www.w3.org/2000/svg"
 width="250.000000pt" height="250.000000pt" viewBox="0 0 250.000000 250.000000"
 preserveAspectRatio="xMidYMid meet">
<metadata>
Created by potrace 1.16, written by Peter Selinger 2001-2019
</metadata>
<g transform="translate(0.000000,250.000000) scale(0.100000,-0.100000)"
fill="#000000" stroke="none">
<path d="M1190 2166 c-30 -18 -214 -124 -407 -236 -194 -111 -353 -205 -353
-208 0 -4 0 -218 -1 -477 l-1 -470 139 -81 c76 -44 261 -151 411 -237 l272
-157 378 217 c207 119 394 227 415 240 l37 23 0 469 c0 363 -3 471 -12 479 -7
5 -56 34 -108 64 -52 30 -233 134 -402 231 -169 98 -309 177 -310 177 -2 0
-28 -16 -58 -34z m348 -448 c144 -83 261 -152 260 -153 -2 -1 -63 -37 -136
-79 l-134 -77 -131 77 c-73 42 -136 77 -142 77 -15 0 -265 -144 -265 -153 0
-5 56 -41 125 -80 69 -40 125 -75 125 -79 0 -4 -58 -40 -129 -81 -71 -41 -127
-78 -125 -81 6 -10 253 -149 265 -149 6 0 71 34 143 76 l131 76 40 -22 c120
-68 225 -132 225 -138 0 -4 -107 -68 -237 -142 -130 -74 -251 -144 -269 -154
l-33 -19 -275 158 -276 158 0 317 0 317 273 157 c158 90 278 154 287 150 8 -3
133 -73 278 -156z"/>
</g>
</svg>
