<?xml version="1.0" standalone="no"?>
<!DOCTYPE svg PUBLIC "-//W3C//DTD SVG 20010904//EN"
 "http://www.w3.org/TR/2001/REC-SVG-20010904/DTD/svg10.dtd">
<svg version="1.0" xmlns="http://www.w3.org/2000/svg"
 width="250.000000pt" height="250.000000pt" viewBox="0 0 250.000000 250.000000"
 preserveAspectRatio="xMidYMid meet">
<metadata>
Created by potrace 1.16, written by Peter Selinger 2001-2019
</metadata>
<g transform="translate(0.000000,250.000000) scale(0.100000,-0.100000)"
fill="#000000" stroke="none">
<path d="M0 1250 l0 -1250 1250 0 1250 0 0 1250 0 1250 -1250 0 -1250 0 0
-1250z m1383 1032 c121 -60 187 -166 187 -302 0 -91 -27 -161 -88 -230 -60
-68 -82 -109 -82 -154 0 -124 129 -210 243 -163 18 8 54 35 81 62 75 73 142
100 246 100 73 0 93 -4 141 -28 67 -32 142 -109 172 -175 30 -66 30 -197 -1
-265 -30 -67 -112 -150 -175 -178 -78 -35 -202 -33 -278 2 -32 15 -75 45 -97
67 -54 54 -97 76 -152 76 -112 0 -188 -101 -166 -219 5 -25 25 -56 63 -97 80
-87 108 -153 108 -253 -1 -66 -6 -91 -28 -140 -96 -207 -366 -262 -536 -109
-29 26 -62 69 -78 102 -24 50 -28 69 -28 147 0 107 18 154 88 233 61 68 77
101 77 157 0 53 -16 88 -57 127 -78 74 -172 62 -268 -32 -27 -27 -76 -61 -108
-75 -51 -24 -68 -27 -145 -23 -106 4 -165 29 -234 101 -62 65 -91 139 -91 232
0 191 143 335 334 337 102 1 165 -26 254 -107 74 -68 136 -81 213 -44 61 30
95 84 95 152 0 64 -11 88 -74 152 -104 108 -133 254 -75 380 83 182 281 254
459 167z"/>
<path d="M1155 2163 c-79 -41 -118 -102 -118 -183 0 -210 278 -275 374 -88 21
41 25 120 8 165 -36 95 -177 152 -264 106z m128 -57 c18 -7 46 -28 61 -47 25
-29 28 -39 24 -88 -4 -47 -10 -59 -41 -87 -46 -43 -96 -52 -148 -29 -49 23
-79 69 -79 124 0 56 23 97 68 120 44 24 72 26 115 7z"/>
<path d="M1885 1441 c-187 -86 -134 -365 72 -379 73 -5 135 25 178 87 26 37
30 51 30 111 0 60 -4 74 -30 111 -57 81 -162 111 -250 70z m139 -55 c49 -20
80 -70 80 -126 0 -142 -180 -189 -254 -67 -40 66 -13 153 60 189 42 22 70 22
114 4z"/>
<path d="M456 1438 c-55 -15 -119 -81 -135 -141 -11 -37 -11 -56 -1 -94 57
-230 390 -195 390 41 0 59 -22 117 -56 147 -51 45 -133 64 -198 47z m131 -78
c115 -70 63 -250 -72 -250 -79 0 -135 59 -135 143 0 42 5 52 40 87 35 35 45
40 88 40 29 0 59 -7 79 -20z"/>
<path d="M1204 721 c-109 -28 -171 -130 -150 -246 8 -43 72 -117 116 -135 18
-7 56 -11 95 -8 53 3 71 9 102 34 95 75 108 202 31 290 -51 58 -124 83 -194
65z m131 -92 c94 -83 50 -225 -74 -237 -111 -10 -182 94 -134 195 22 47 66 73
125 73 39 0 54 -6 83 -31z"/>
</g>
</svg>
