<svg xmlns="http://www.w3.org/2000/svg" width="32" height="32" xmlns:xlink="http://www.w3.org/1999/xlink"><defs><linearGradient id="c" x1="50%" x2="50%" y1="0%" y2="100%"><stop offset="0%" stop-color="#FFF" stop-opacity=".5"/><stop offset="100%" stop-opacity=".5"/></linearGradient><circle id="b" cx="16" cy="15" r="15"/><filter id="a" width="111.7%" height="111.7%" x="-5.8%" y="-4.2%" filterUnits="objectBoundingBox"><feOffset dy=".5" in="SourceAlpha" result="shadowOffsetOuter1"/><feGaussianBlur in="shadowOffsetOuter1" result="shadowBlurOuter1" stdDeviation=".5"/><feComposite in="shadowBlurOuter1" in2="SourceAlpha" operator="out" result="shadowBlurOuter1"/><feColorMatrix in="shadowBlurOuter1" values="0 0 0 0 0 0 0 0 0 0 0 0 0 0 0 0 0 0 0.199473505 0"/></filter><path id="e" d="M24.95 10c-.86 0-1.58.7-1.58 1.58 0 1.26-.2 1.6-1.6 1.6h-.12c-.8.05-1.42.7-1.42 1.54v.03c0 1.22-.23 1.52-1.58 1.52-.07 0-.13 0-.16.03-.8.1-1.44.76-1.44 1.55 0 .86.7 1.58 1.58 1.58.82 0 1.52-.66 1.55-1.45v-.13c0-1.12.35-1.55 1.54-1.58h.03c.83 0 1.52-.66 1.55-1.5v-.1c0-1.14.37-1.57 1.6-1.57.84 0 1.57-.7 1.57-1.58 0-.83-.7-1.52-1.56-1.52zm-9.3 3.17c.8.06 1.42.72 1.45 1.5 0 .9-.7 1.6-1.58 1.6-.9 0-1.6-.73-1.6-1.6 0-1.1-.35-1.54-1.57-1.54-1.22 0-1.58.43-1.58 1.6v.1c-.04.78-.73 1.44-1.55 1.44-.9 0-1.6-.73-1.6-1.6 0-.8.64-1.47 1.43-1.54h.13c1.4 0 1.6-.3 1.6-1.55 0-.9.7-1.58 1.57-1.58.9 0 1.58.73 1.58 1.58 0 1.26.2 1.6 1.6 1.6h.12zm-9.57 6.26c-.87 0-1.58-.7-1.58-1.58 0-.87.7-1.58 1.58-1.58.88 0 1.6.7 1.6 1.58 0 .87-.72 1.58-1.6 1.58z"/><filter id="d" width="115.9%" height="137.1%" x="-8%" y="-13.3%" filterUnits="objectBoundingBox"><feOffset dy=".5" in="SourceAlpha" result="shadowOffsetOuter1"/><feGaussianBlur in="shadowOffsetOuter1" result="shadowBlurOuter1" stdDeviation=".5"/><feColorMatrix in="shadowBlurOuter1" values="0 0 0 0 0 0 0 0 0 0 0 0 0 0 0 0 0 0 0.204257246 0"/></filter></defs><g fill="none"><use fill="#000" filter="url(#a)" xlink:href="#b"/><use fill="#4A90E2" fill-rule="evenodd" xlink:href="#b"/><use fill="url(#c)" fill-rule="evenodd" style="mix-blend-mode:soft-light" xlink:href="#b"/><circle cx="16" cy="15" r="14.5" stroke="#000" stroke-opacity=".097"/><use fill="#000" filter="url(#d)" xlink:href="#e"/><use fill="#FFF" fill-rule="evenodd" xlink:href="#e"/></g></svg>