<svg xmlns="http://www.w3.org/2000/svg" width="32" height="32" xmlns:xlink="http://www.w3.org/1999/xlink"><defs><linearGradient id="c" x1="50%" x2="50%" y1="0%" y2="100%"><stop offset="0%" stop-color="#FFF" stop-opacity=".5"/><stop offset="100%" stop-opacity=".5"/></linearGradient><circle id="b" cx="16" cy="15" r="15"/><filter id="a" width="111.7%" height="111.7%" x="-5.8%" y="-4.2%" filterUnits="objectBoundingBox"><feOffset dy=".5" in="SourceAlpha" result="shadowOffsetOuter1"/><feGaussianBlur in="shadowOffsetOuter1" result="shadowBlurOuter1" stdDeviation=".5"/><feComposite in="shadowBlurOuter1" in2="SourceAlpha" operator="out" result="shadowBlurOuter1"/><feColorMatrix in="shadowBlurOuter1" values="0 0 0 0 0 0 0 0 0 0 0 0 0 0 0 0 0 0 0.199473505 0"/></filter><path id="e" d="M6 8.02C6 8 6.2 8 8.92 8h2.92l1.66 2.8c.9 1.53 1.67 2.8 1.68 2.84l.03.05.3-.47c.13-.25.25-.46.25-.47 0 0-.64-1.07-1.4-2.37-.8-1.3-1.42-2.4-1.42-2.4s.44 0 3.07 0c1.7 0 3.07 0 3.07 0 0 .02-6.52 11.1-6.53 11.1-.02 0-.97-1.6-3.28-5.54C7.46 10.53 6 8.03 6 8.02zm14.14 0c0-.02 1.32-.02 2.93-.02H26v.02c0 .02-1.47 2.5-3.25 5.53-2.16 3.67-3.24 5.5-3.26 5.5-.03 0-.34-.5-1.36-2.23-.73-1.23-1.34-2.23-1.34-2.24 0 0-.52.9-.52.9s.6 1.02 1.34 2.26c.77 1.3 1.33 2.25 1.33 2.26 0 .04-2.94 5-2.95 5-.02 0-2.93-4.94-2.92-4.96 0-.02 6.95-11.86 7.06-12.03z"/><filter id="d" width="117.5%" height="120.6%" x="-8.8%" y="-7.4%" filterUnits="objectBoundingBox"><feOffset dy=".5" in="SourceAlpha" result="shadowOffsetOuter1"/><feGaussianBlur in="shadowOffsetOuter1" result="shadowBlurOuter1" stdDeviation=".5"/><feColorMatrix in="shadowBlurOuter1" values="0 0 0 0 0 0 0 0 0 0 0 0 0 0 0 0 0 0 0.204257246 0"/></filter></defs><g fill="none"><use fill="#000" filter="url(#a)" xlink:href="#b"/><use fill="#56F4F1" xlink:href="#b"/><use fill="url(#c)" style="mix-blend-mode:soft-light" xlink:href="#b"/><circle cx="16" cy="15" r="14.5" stroke="#000" stroke-opacity=".097"/><use fill="#000" filter="url(#d)" xlink:href="#e"/><use fill="#FFF" fill-rule="evenodd" xlink:href="#e"/></g></svg>