<svg xmlns="http://www.w3.org/2000/svg" xmlns:xlink="http://www.w3.org/1999/xlink" width="32" height="32" version="1.1" style=""><rect id="backgroundrect" width="100%" height="100%" x="0" y="0" fill="none" stroke="none" class="" style=""/>

<g class="currentLayer" style=""><title>Layer 1</title><path fill="#484848" fill-opacity="1" stroke="none" stroke-opacity="1" stroke-width="1" stroke-dasharray="none" stroke-linejoin="miter" stroke-linecap="butt" stroke-dashoffset="" fill-rule="nonzero" opacity="1" marker-start="" marker-mid="" marker-end="" d="M2.879912020664621e-20,16.007238438259666 C2.879912020664621e-20,7.1634602955747715 7.225181114330288,1.7039018660852446e-15 16.145157798688675,1.7039018660852446e-15 C25.065134483047057,1.7039018660852446e-15 32.290315597377344,7.1634602955747715 32.290315597377344,16.007238438259666 C32.290315597377344,24.85101658094456 25.065134483047057,32.01447687651934 16.145157798688675,32.01447687651934 C7.225181114330288,32.01447687651934 2.879912020664621e-20,24.85101658094456 2.879912020664621e-20,16.007238438259666 z" id="svg_1" class=""/><g id="Canvas" fill="#ffffff" class="" fill-opacity="1">
<g id="xrp-symbol-white" fill="#ffffff" fill-opacity="1">
<path id="Vector" d="M23.312068968842773,7.138699161074218 L26.394848031660977,7.138699161074218 L19.98113728569239,13.191776612352308 C17.659426198870314,15.38295293583678 13.895257756820904,15.38295293583678 11.573588299359729,13.191776612352308 L5.159877554438495,7.138699161074218 L8.242639964464978,7.138699161074218 L13.114957016088391,11.737092781906775 C14.585347672480456,13.124804704430973 16.969294653849857,13.124804704430973 18.439726939602828,11.737092781906775 L23.312068968842773,7.138699161074218 z" fill="#ffffff" fill-opacity="1"/>
<path id="Vector_2" d="M8.20335233779545,23.970998343981456 L5.120585763785505,23.970998343981456 L11.573927661332077,17.88050475564594 C13.895597118793235,15.689368130980636 17.659765560842658,15.689368130980636 19.98147664766473,17.88050475564594 L26.434818545211286,23.970998343981456 L23.35203948239308,23.970998343981456 L18.440024672214257,19.335188586091487 C16.969634015822194,17.947460784039617 14.585687034452798,17.947460784039617 13.115296378060728,19.335188586091487 L8.20335233779545,23.970998343981456 z" fill="#ffffff" fill-opacity="1"/>
</g>
</g></g></svg>